<?xml version="1.0" encoding="UTF-8"?><svg xmlns="http://www.w3.org/2000/svg" width="1920" height="1080" xmlns:xlink="http://www.w3.org/1999/xlink" viewBox="0 0 1920 1080"><defs><linearGradient id="Ikke-navngivet_forløb_4" x1="960" y1="1080" x2="960" y2="23.87" gradientUnits="userSpaceOnUse"><stop offset="0" stop-color="#54458c"/><stop offset=".14" stop-color="#4a3d7c"/><stop offset=".23" stop-color="#433770"/><stop offset=".38" stop-color="#372d5b"/><stop offset=".5" stop-color="#30274f"/><stop offset=".7" stop-color="#241e3c"/><stop offset=".87" stop-color="#1c172f"/></linearGradient><clipPath id="clippath"><rect x="283.3" y="53.7" width="2.27" height="2.21" fill="none" stroke-width="0"/></clipPath><clipPath id="clippath-1"><rect x="285.89" y="177.49" width="2.27" height="2.21" fill="none" stroke-width="0"/></clipPath><clipPath id="clippath-2"><rect x="127.08" y="308.67" width="2.27" height="2.21" fill="none" stroke-width="0"/></clipPath><clipPath id="clippath-3"><rect x="386.46" y="1.94" width="2.27" height="2.21" fill="none" stroke-width="0"/></clipPath><clipPath id="clippath-4"><rect x="78.47" y="39.19" width="2.27" height="2.21" fill="none" stroke-width="0"/></clipPath><clipPath id="clippath-5"><rect x="155.81" y="16.27" width="2.27" height="2.21" fill="none" stroke-width="0"/></clipPath><clipPath id="clippath-6"><rect x="230.35" y="80.93" width="2.27" height="2.21" fill="none" stroke-width="0"/></clipPath><clipPath id="clippath-7"><rect x="247.56" y="117.13" width="2.27" height="2.21" fill="none" stroke-width="0"/></clipPath><clipPath id="clippath-8"><rect x="318.6" y="15.07" width="2.27" height="2.21" fill="none" stroke-width="0"/></clipPath><clipPath id="clippath-9"><rect x="35.48" y="22.38" width="2.27" height="2.21" fill="none" stroke-width="0"/></clipPath><clipPath id="clippath-10"><rect x="116.5" y="226.95" width="2.27" height="2.21" fill="none" stroke-width="0"/></clipPath><clipPath id="clippath-11"><rect x="338.09" y="130.2" width="2.27" height="2.21" fill="none" stroke-width="0"/></clipPath><clipPath id="clippath-12"><rect x="121.44" y="60.86" width="2.27" height="2.21" fill="none" stroke-width="0"/></clipPath><clipPath id="clippath-13"><rect x="6.16" y="58.33" width="2.27" height="2.21" fill="none" stroke-width="0"/></clipPath><clipPath id="clippath-14"><rect x="302.9" y="110.22" width="2.27" height="2.21" fill="none" stroke-width="0"/></clipPath><clipPath id="clippath-15"><rect x="163.56" y="185.53" width="2.27" height="2.21" fill="none" stroke-width="0"/></clipPath><clipPath id="clippath-16"><rect x="327.5" y="91.8" width="2.27" height="2.21" fill="none" stroke-width="0"/></clipPath><clipPath id="clippath-17"><rect x="381.05" y="62.29" width="2.27" height="2.21" fill="none" stroke-width="0"/></clipPath><clipPath id="clippath-18"><rect x="375.38" y="66.01" width="2.27" height="2.21" fill="none" stroke-width="0"/></clipPath><clipPath id="clippath-19"><rect x="231.01" y="371.88" width="2.27" height="2.21" fill="none" stroke-width="0"/></clipPath><clipPath id="clippath-20"><rect x="262.25" y="360.5" width="2.27" height="2.21" fill="none" stroke-width="0"/></clipPath><clipPath id="clippath-21"><rect x="65.98" y="533.08" width="2.27" height="2.21" fill="none" stroke-width="0"/></clipPath><clipPath id="clippath-22"><rect x="347.96" y="446.77" width="2.27" height="2.21" fill="none" stroke-width="0"/></clipPath><clipPath id="clippath-23"><rect x="218.36" y="610.56" width="2.27" height="2.21" fill="none" stroke-width="0"/></clipPath><clipPath id="clippath-24"><rect x="350.3" y="592.92" width="2.27" height="2.21" fill="none" stroke-width="0"/></clipPath><clipPath id="clippath-25"><rect x="247.25" y="301.5" width="2.27" height="2.21" fill="none" stroke-width="0"/></clipPath><clipPath id="clippath-26"><rect x="308.47" y="253.5" width="2.27" height="2.21" fill="none" stroke-width="0"/></clipPath><clipPath id="clippath-27"><rect x="205.89" y="27.93" width="2.27" height="2.21" fill="none" stroke-width="0"/></clipPath><clipPath id="clippath-28"><rect x="112.64" y="4.17" width="2.27" height="2.21" fill="none" stroke-width="0"/></clipPath><clipPath id="clippath-29"><rect x="97.59" y=".14" width="2.27" height="2.21" fill="none" stroke-width="0"/></clipPath><clipPath id="clippath-30"><rect x="118.72" y="84.39" width="2.27" height="2.21" fill="none" stroke-width="0"/></clipPath><clipPath id="clippath-31"><rect x="123.79" y="154.73" width="2.27" height="2.21" fill="none" stroke-width="0"/></clipPath><clipPath id="clippath-32"><rect x="53.33" y="183.87" width="2.27" height="2.21" fill="none" stroke-width="0"/></clipPath><clipPath id="clippath-33"><rect x="26.46" y="148.62" width="2.27" height="2.21" fill="none" stroke-width="0"/></clipPath><clipPath id="clippath-34"><rect x="3.13" y="129.62" width="2.27" height="2.21" fill="none" stroke-width="0"/></clipPath><clipPath id="clippath-35"><rect x="48.12" y="369.21" width="2.27" height="2.21" fill="none" stroke-width="0"/></clipPath><clipPath id="clippath-36"><rect x="236.84" y="300.03" width="2.27" height="2.21" fill="none" stroke-width="0"/></clipPath><clipPath id="clippath-37"><rect x="305.03" y="245.58" width="2.27" height="2.21" fill="none" stroke-width="0"/></clipPath><clipPath id="clippath-38"><rect x="319.2" y="238.11" width="2.27" height="2.21" fill="none" stroke-width="0"/></clipPath><clipPath id="clippath-39"><rect x="343.84" y="2.08" width="2.27" height="2.21" fill="none" stroke-width="0"/></clipPath><clipPath id="clippath-40"><rect x="242.58" y="665.1" width="2.27" height="2.21" fill="none" stroke-width="0"/></clipPath><clipPath id="clippath-41"><rect x="47.64" y="662.67" width="2.27" height="2.21" fill="none" stroke-width="0"/></clipPath><clipPath id="clippath-42"><rect x="175.94" y="590.01" width="2.27" height="2.21" fill="none" stroke-width="0"/></clipPath><clipPath id="clippath-43"><rect x="295.11" y="464.95" width="2.27" height="2.21" fill="none" stroke-width="0"/></clipPath><clipPath id="clippath-44"><rect x="158" y="460" width="2.27" height="2.21" fill="none" stroke-width="0"/></clipPath><clipPath id="clippath-45"><rect x="6.65" y="456.22" width="2.27" height="2.21" fill="none" stroke-width="0"/></clipPath><clipPath id="clippath-46"><rect x="124.57" y="409.83" width="2.27" height="2.21" fill="none" stroke-width="0"/></clipPath><clipPath id="clippath-47"><rect x="93.84" y="612.52" width="2.27" height="2.21" fill="none" stroke-width="0"/></clipPath><clipPath id="clippath-48"><rect x=".27" y="10.85" width="2.27" height="2.21" fill="none" stroke-width="0"/></clipPath><clipPath id="clippath-49"><rect x="171.92" y="79.47" width="2.27" height="2.21" fill="none" stroke-width="0"/></clipPath><clipPath id="clippath-50"><rect x="378.27" y="172.24" width="2.27" height="2.21" fill="none" stroke-width="0"/></clipPath><clipPath id="clippath-51"><rect x="198.87" y="227.6" width="2.27" height="2.21" fill="none" stroke-width="0"/></clipPath><clipPath id="clippath-52"><rect x="204.29" y="134.65" width="2.27" height="2.21" fill="none" stroke-width="0"/></clipPath><clipPath id="clippath-53"><rect x="254.04" y="12.02" width="2.27" height="2.21" fill="none" stroke-width="0"/></clipPath><clipPath id="clippath-54"><rect x="33.52" y="269.86" width="2.27" height="2.21" fill="none" stroke-width="0"/></clipPath><clipPath id="clippath-55"><rect x="56.59" y="77.22" width="2.27" height="2.21" fill="none" stroke-width="0"/></clipPath><clipPath id="clippath-56"><rect x="176.79" y="141.08" width="2.27" height="2.21" fill="none" stroke-width="0"/></clipPath><clipPath id="clippath-57"><rect x="229.87" y="183.68" width="2.27" height="2.21" fill="none" stroke-width="0"/></clipPath><clipPath id="clippath-58"><rect x="671.3" y="48.7" width="2.27" height="2.21" fill="none" stroke-width="0"/></clipPath><clipPath id="clippath-59"><rect x="673.89" y="172.49" width="2.27" height="2.21" fill="none" stroke-width="0"/></clipPath><clipPath id="clippath-60"><rect x="515.08" y="303.67" width="2.27" height="2.21" fill="none" stroke-width="0"/></clipPath><clipPath id="clippath-61"><rect x="466.47" y="34.19" width="2.27" height="2.21" fill="none" stroke-width="0"/></clipPath><clipPath id="clippath-62"><rect x="543.81" y="11.27" width="2.27" height="2.21" fill="none" stroke-width="0"/></clipPath><clipPath id="clippath-63"><rect x="618.35" y="75.93" width="2.27" height="2.21" fill="none" stroke-width="0"/></clipPath><clipPath id="clippath-64"><rect x="635.56" y="112.13" width="2.27" height="2.21" fill="none" stroke-width="0"/></clipPath><clipPath id="clippath-65"><rect x="706.6" y="10.07" width="2.27" height="2.21" fill="none" stroke-width="0"/></clipPath><clipPath id="clippath-66"><rect x="423.48" y="17.38" width="2.27" height="2.21" fill="none" stroke-width="0"/></clipPath><clipPath id="clippath-67"><rect x="504.5" y="221.95" width="2.27" height="2.21" fill="none" stroke-width="0"/></clipPath><clipPath id="clippath-68"><rect x="726.09" y="125.2" width="2.27" height="2.21" fill="none" stroke-width="0"/></clipPath><clipPath id="clippath-69"><rect x="509.44" y="55.86" width="2.27" height="2.21" fill="none" stroke-width="0"/></clipPath><clipPath id="clippath-70"><rect x="394.16" y="53.33" width="2.27" height="2.21" fill="none" stroke-width="0"/></clipPath><clipPath id="clippath-71"><rect x="690.9" y="105.22" width="2.27" height="2.21" fill="none" stroke-width="0"/></clipPath><clipPath id="clippath-72"><rect x="551.56" y="180.53" width="2.27" height="2.21" fill="none" stroke-width="0"/></clipPath><clipPath id="clippath-73"><rect x="715.5" y="86.8" width="2.27" height="2.21" fill="none" stroke-width="0"/></clipPath><clipPath id="clippath-74"><rect x="754.05" y="29.29" width="2.27" height="2.21" fill="none" stroke-width="0"/></clipPath><clipPath id="clippath-75"><rect x="763.38" y="61.01" width="2.27" height="2.21" fill="none" stroke-width="0"/></clipPath><clipPath id="clippath-76"><rect x="619.01" y="366.88" width="2.27" height="2.21" fill="none" stroke-width="0"/></clipPath><clipPath id="clippath-77"><rect x="650.25" y="355.5" width="2.27" height="2.21" fill="none" stroke-width="0"/></clipPath><clipPath id="clippath-78"><rect x="453.98" y="528.08" width="2.27" height="2.21" fill="none" stroke-width="0"/></clipPath><clipPath id="clippath-79"><rect x="735.96" y="441.77" width="2.27" height="2.21" fill="none" stroke-width="0"/></clipPath><clipPath id="clippath-80"><rect x="606.36" y="605.56" width="2.27" height="2.21" fill="none" stroke-width="0"/></clipPath><clipPath id="clippath-81"><rect x="738.3" y="587.92" width="2.27" height="2.21" fill="none" stroke-width="0"/></clipPath><clipPath id="clippath-82"><rect x="635.25" y="296.5" width="2.27" height="2.21" fill="none" stroke-width="0"/></clipPath><clipPath id="clippath-83"><rect x="714.47" y="293.5" width="2.27" height="2.21" fill="none" stroke-width="0"/></clipPath><clipPath id="clippath-84"><rect x="593.89" y="22.93" width="2.27" height="2.21" fill="none" stroke-width="0"/></clipPath><clipPath id="clippath-85"><rect x="500.64" y="-.83" width="2.27" height="2.21" fill="none" stroke-width="0"/></clipPath><clipPath id="clippath-86"><rect x="506.72" y="79.39" width="2.27" height="2.21" fill="none" stroke-width="0"/></clipPath><clipPath id="clippath-87"><rect x="511.79" y="149.73" width="2.27" height="2.21" fill="none" stroke-width="0"/></clipPath><clipPath id="clippath-88"><rect x="441.33" y="178.87" width="2.27" height="2.21" fill="none" stroke-width="0"/></clipPath><clipPath id="clippath-89"><rect x="414.46" y="143.62" width="2.27" height="2.21" fill="none" stroke-width="0"/></clipPath><clipPath id="clippath-90"><rect x="391.13" y="124.62" width="2.27" height="2.21" fill="none" stroke-width="0"/></clipPath><clipPath id="clippath-91"><rect x="436.12" y="364.21" width="2.27" height="2.21" fill="none" stroke-width="0"/></clipPath><clipPath id="clippath-92"><rect x="624.84" y="295.03" width="2.27" height="2.21" fill="none" stroke-width="0"/></clipPath><clipPath id="clippath-93"><rect x="693.03" y="240.58" width="2.27" height="2.21" fill="none" stroke-width="0"/></clipPath><clipPath id="clippath-94"><rect x="753.2" y="215.11" width="2.27" height="2.21" fill="none" stroke-width="0"/></clipPath><clipPath id="clippath-95"><rect x="630.58" y="660.1" width="2.27" height="2.21" fill="none" stroke-width="0"/></clipPath><clipPath id="clippath-96"><rect x="435.64" y="657.67" width="2.27" height="2.21" fill="none" stroke-width="0"/></clipPath><clipPath id="clippath-97"><rect x="563.94" y="585.01" width="2.27" height="2.21" fill="none" stroke-width="0"/></clipPath><clipPath id="clippath-98"><rect x="683.11" y="459.95" width="2.27" height="2.21" fill="none" stroke-width="0"/></clipPath><clipPath id="clippath-99"><rect x="546" y="455" width="2.27" height="2.21" fill="none" stroke-width="0"/></clipPath><clipPath id="clippath-100"><rect x="394.65" y="451.22" width="2.27" height="2.21" fill="none" stroke-width="0"/></clipPath><clipPath id="clippath-101"><rect x="512.57" y="404.83" width="2.27" height="2.21" fill="none" stroke-width="0"/></clipPath><clipPath id="clippath-102"><rect x="481.84" y="607.52" width="2.27" height="2.21" fill="none" stroke-width="0"/></clipPath><clipPath id="clippath-103"><rect x="388.27" y="5.85" width="2.27" height="2.21" fill="none" stroke-width="0"/></clipPath><clipPath id="clippath-104"><rect x="559.92" y="74.47" width="2.27" height="2.21" fill="none" stroke-width="0"/></clipPath><clipPath id="clippath-105"><rect x="766.27" y="167.24" width="2.27" height="2.21" fill="none" stroke-width="0"/></clipPath><clipPath id="clippath-106"><rect x="586.87" y="222.6" width="2.27" height="2.21" fill="none" stroke-width="0"/></clipPath><clipPath id="clippath-107"><rect x="592.29" y="129.65" width="2.27" height="2.21" fill="none" stroke-width="0"/></clipPath><clipPath id="clippath-108"><rect x="642.04" y="7.02" width="2.27" height="2.21" fill="none" stroke-width="0"/></clipPath><clipPath id="clippath-109"><rect x="421.52" y="264.86" width="2.27" height="2.21" fill="none" stroke-width="0"/></clipPath><clipPath id="clippath-110"><rect x="444.59" y="72.22" width="2.27" height="2.21" fill="none" stroke-width="0"/></clipPath><clipPath id="clippath-111"><rect x="564.79" y="136.08" width="2.27" height="2.21" fill="none" stroke-width="0"/></clipPath><clipPath id="clippath-112"><rect x="617.87" y="178.68" width="2.27" height="2.21" fill="none" stroke-width="0"/></clipPath><clipPath id="clippath-113"><rect x="1057.3" y="53.7" width="2.27" height="2.21" fill="none" stroke-width="0"/></clipPath><clipPath id="clippath-114"><rect x="1059.89" y="177.49" width="2.27" height="2.21" fill="none" stroke-width="0"/></clipPath><clipPath id="clippath-115"><rect x="901.08" y="308.67" width="2.27" height="2.21" fill="none" stroke-width="0"/></clipPath><clipPath id="clippath-116"><rect x="1160.46" y="1.94" width="2.27" height="2.21" fill="none" stroke-width="0"/></clipPath><clipPath id="clippath-117"><rect x="852.47" y="39.19" width="2.27" height="2.21" fill="none" stroke-width="0"/></clipPath><clipPath id="clippath-118"><rect x="929.81" y="16.27" width="2.27" height="2.21" fill="none" stroke-width="0"/></clipPath><clipPath id="clippath-119"><rect x="1004.35" y="80.93" width="2.27" height="2.21" fill="none" stroke-width="0"/></clipPath><clipPath id="clippath-120"><rect x="1021.56" y="117.13" width="2.27" height="2.21" fill="none" stroke-width="0"/></clipPath><clipPath id="clippath-121"><rect x="1092.6" y="15.07" width="2.27" height="2.21" fill="none" stroke-width="0"/></clipPath><clipPath id="clippath-122"><rect x="809.48" y="22.38" width="2.27" height="2.21" fill="none" stroke-width="0"/></clipPath><clipPath id="clippath-123"><rect x="890.5" y="226.95" width="2.27" height="2.21" fill="none" stroke-width="0"/></clipPath><clipPath id="clippath-124"><rect x="1112.09" y="130.2" width="2.27" height="2.21" fill="none" stroke-width="0"/></clipPath><clipPath id="clippath-125"><rect x="895.44" y="60.86" width="2.27" height="2.21" fill="none" stroke-width="0"/></clipPath><clipPath id="clippath-126"><rect x="780.16" y="58.33" width="2.27" height="2.21" fill="none" stroke-width="0"/></clipPath><clipPath id="clippath-127"><rect x="1076.9" y="110.22" width="2.27" height="2.21" fill="none" stroke-width="0"/></clipPath><clipPath id="clippath-128"><rect x="937.56" y="185.53" width="2.27" height="2.21" fill="none" stroke-width="0"/></clipPath><clipPath id="clippath-129"><rect x="1101.5" y="91.8" width="2.27" height="2.21" fill="none" stroke-width="0"/></clipPath><clipPath id="clippath-130"><rect x="1155.05" y="62.29" width="2.27" height="2.21" fill="none" stroke-width="0"/></clipPath><clipPath id="clippath-131"><rect x="1149.38" y="66.01" width="2.27" height="2.21" fill="none" stroke-width="0"/></clipPath><clipPath id="clippath-132"><rect x="1005.01" y="371.88" width="2.27" height="2.21" fill="none" stroke-width="0"/></clipPath><clipPath id="clippath-133"><rect x="1036.25" y="360.5" width="2.27" height="2.21" fill="none" stroke-width="0"/></clipPath><clipPath id="clippath-134"><rect x="839.98" y="533.08" width="2.27" height="2.21" fill="none" stroke-width="0"/></clipPath><clipPath id="clippath-135"><rect x="1121.96" y="446.77" width="2.27" height="2.21" fill="none" stroke-width="0"/></clipPath><clipPath id="clippath-136"><rect x="992.36" y="610.56" width="2.27" height="2.21" fill="none" stroke-width="0"/></clipPath><clipPath id="clippath-137"><rect x="1124.3" y="592.92" width="2.27" height="2.21" fill="none" stroke-width="0"/></clipPath><clipPath id="clippath-138"><rect x="1021.25" y="301.5" width="2.27" height="2.21" fill="none" stroke-width="0"/></clipPath><clipPath id="clippath-139"><rect x="1082.47" y="253.5" width="2.27" height="2.21" fill="none" stroke-width="0"/></clipPath><clipPath id="clippath-140"><rect x="979.89" y="27.93" width="2.27" height="2.21" fill="none" stroke-width="0"/></clipPath><clipPath id="clippath-141"><rect x="886.64" y="4.17" width="2.27" height="2.21" fill="none" stroke-width="0"/></clipPath><clipPath id="clippath-142"><rect x="871.59" y=".14" width="2.27" height="2.21" fill="none" stroke-width="0"/></clipPath><clipPath id="clippath-143"><rect x="892.72" y="84.39" width="2.27" height="2.21" fill="none" stroke-width="0"/></clipPath><clipPath id="clippath-144"><rect x="897.79" y="154.73" width="2.27" height="2.21" fill="none" stroke-width="0"/></clipPath><clipPath id="clippath-145"><rect x="827.33" y="183.87" width="2.27" height="2.21" fill="none" stroke-width="0"/></clipPath><clipPath id="clippath-146"><rect x="800.46" y="148.62" width="2.27" height="2.21" fill="none" stroke-width="0"/></clipPath><clipPath id="clippath-147"><rect x="777.13" y="129.62" width="2.27" height="2.21" fill="none" stroke-width="0"/></clipPath><clipPath id="clippath-148"><rect x="822.12" y="369.21" width="2.27" height="2.21" fill="none" stroke-width="0"/></clipPath><clipPath id="clippath-149"><rect x="1010.84" y="300.03" width="2.27" height="2.21" fill="none" stroke-width="0"/></clipPath><clipPath id="clippath-150"><rect x="977.03" y="186.58" width="2.27" height="2.21" fill="none" stroke-width="0"/></clipPath><clipPath id="clippath-151"><rect x="1093.2" y="238.11" width="2.27" height="2.21" fill="none" stroke-width="0"/></clipPath><clipPath id="clippath-152"><rect x="1117.84" y="2.08" width="2.27" height="2.21" fill="none" stroke-width="0"/></clipPath><clipPath id="clippath-153"><rect x="1016.58" y="665.1" width="2.27" height="2.21" fill="none" stroke-width="0"/></clipPath><clipPath id="clippath-154"><rect x="821.64" y="662.67" width="2.27" height="2.21" fill="none" stroke-width="0"/></clipPath><clipPath id="clippath-155"><rect x="949.94" y="590.01" width="2.27" height="2.21" fill="none" stroke-width="0"/></clipPath><clipPath id="clippath-156"><rect x="1069.11" y="464.95" width="2.27" height="2.21" fill="none" stroke-width="0"/></clipPath><clipPath id="clippath-157"><rect x="932" y="460" width="2.27" height="2.21" fill="none" stroke-width="0"/></clipPath><clipPath id="clippath-158"><rect x="780.65" y="456.22" width="2.27" height="2.21" fill="none" stroke-width="0"/></clipPath><clipPath id="clippath-159"><rect x="898.57" y="409.83" width="2.27" height="2.21" fill="none" stroke-width="0"/></clipPath><clipPath id="clippath-160"><rect x="867.84" y="612.52" width="2.27" height="2.21" fill="none" stroke-width="0"/></clipPath><clipPath id="clippath-161"><rect x="774.27" y="10.85" width="2.27" height="2.21" fill="none" stroke-width="0"/></clipPath><clipPath id="clippath-162"><rect x="945.92" y="79.47" width="2.27" height="2.21" fill="none" stroke-width="0"/></clipPath><clipPath id="clippath-163"><rect x="1152.27" y="172.24" width="2.27" height="2.21" fill="none" stroke-width="0"/></clipPath><clipPath id="clippath-164"><rect x="972.87" y="227.6" width="2.27" height="2.21" fill="none" stroke-width="0"/></clipPath><clipPath id="clippath-165"><rect x="978.29" y="134.65" width="2.27" height="2.21" fill="none" stroke-width="0"/></clipPath><clipPath id="clippath-166"><rect x="1028.04" y="12.02" width="2.27" height="2.21" fill="none" stroke-width="0"/></clipPath><clipPath id="clippath-167"><rect x="807.52" y="269.86" width="2.27" height="2.21" fill="none" stroke-width="0"/></clipPath><clipPath id="clippath-168"><rect x="830.59" y="77.22" width="2.27" height="2.21" fill="none" stroke-width="0"/></clipPath><clipPath id="clippath-169"><rect x="950.79" y="141.08" width="2.27" height="2.21" fill="none" stroke-width="0"/></clipPath><clipPath id="clippath-170"><rect x="1003.87" y="183.68" width="2.27" height="2.21" fill="none" stroke-width="0"/></clipPath><clipPath id="clippath-171"><rect x="1684.86" y="35.01" width="2.42" height="2.36" fill="none" stroke-width="0"/></clipPath><clipPath id="clippath-172"><rect x="1682.1" y="167.08" width="2.42" height="2.36" fill="none" stroke-width="0"/></clipPath><clipPath id="clippath-173"><rect x="1851.52" y="307.03" width="2.42" height="2.36" fill="none" stroke-width="0"/></clipPath><clipPath id="clippath-174"><rect x="1903.39" y="19.53" width="2.42" height="2.36" fill="none" stroke-width="0"/></clipPath><clipPath id="clippath-175"><rect x="1741.36" y="64.06" width="2.42" height="2.36" fill="none" stroke-width="0"/></clipPath><clipPath id="clippath-176"><rect x="1722.99" y="102.69" width="2.42" height="2.36" fill="none" stroke-width="0"/></clipPath><clipPath id="clippath-177"><rect x="1862.81" y="219.85" width="2.42" height="2.36" fill="none" stroke-width="0"/></clipPath><clipPath id="clippath-178"><rect x="1626.41" y="116.63" width="2.42" height="2.36" fill="none" stroke-width="0"/></clipPath><clipPath id="clippath-179"><rect x="1857.55" y="42.66" width="2.42" height="2.36" fill="none" stroke-width="0"/></clipPath><clipPath id="clippath-180"><rect x="1663.95" y="95.31" width="2.42" height="2.36" fill="none" stroke-width="0"/></clipPath><clipPath id="clippath-181"><rect x="1812.61" y="175.66" width="2.42" height="2.36" fill="none" stroke-width="0"/></clipPath><clipPath id="clippath-182"><rect x="1637.7" y="75.66" width="2.42" height="2.36" fill="none" stroke-width="0"/></clipPath><clipPath id="clippath-183"><rect x="1596.58" y="14.31" width="2.42" height="2.36" fill="none" stroke-width="0"/></clipPath><clipPath id="clippath-184"><rect x="1586.62" y="48.14" width="2.42" height="2.36" fill="none" stroke-width="0"/></clipPath><clipPath id="clippath-185"><rect x="1740.65" y="374.47" width="2.42" height="2.36" fill="none" stroke-width="0"/></clipPath><clipPath id="clippath-186"><rect x="1707.32" y="362.33" width="2.42" height="2.36" fill="none" stroke-width="0"/></clipPath><clipPath id="clippath-187"><rect x="1916.72" y="546.46" width="2.42" height="2.36" fill="none" stroke-width="0"/></clipPath><clipPath id="clippath-188"><rect x="1615.88" y="454.37" width="2.42" height="2.36" fill="none" stroke-width="0"/></clipPath><clipPath id="clippath-189"><rect x="1754.15" y="629.12" width="2.42" height="2.36" fill="none" stroke-width="0"/></clipPath><clipPath id="clippath-190"><rect x="1613.38" y="610.29" width="2.42" height="2.36" fill="none" stroke-width="0"/></clipPath><clipPath id="clippath-191"><rect x="1723.32" y="299.38" width="2.42" height="2.36" fill="none" stroke-width="0"/></clipPath><clipPath id="clippath-192"><rect x="1638.8" y="296.18" width="2.42" height="2.36" fill="none" stroke-width="0"/></clipPath><clipPath id="clippath-193"><rect x="1767.45" y="7.52" width="2.42" height="2.36" fill="none" stroke-width="0"/></clipPath><clipPath id="clippath-194"><rect x="1860.45" y="67.76" width="2.42" height="2.36" fill="none" stroke-width="0"/></clipPath><clipPath id="clippath-195"><rect x="1855.03" y="142.8" width="2.42" height="2.36" fill="none" stroke-width="0"/></clipPath><clipPath id="clippath-196"><rect x="1734.43" y="297.82" width="2.42" height="2.36" fill="none" stroke-width="0"/></clipPath><clipPath id="clippath-197"><rect x="1661.67" y="239.72" width="2.42" height="2.36" fill="none" stroke-width="0"/></clipPath><clipPath id="clippath-198"><rect x="1597.48" y="212.55" width="2.42" height="2.36" fill="none" stroke-width="0"/></clipPath><clipPath id="clippath-199"><rect x="1728.3" y="687.31" width="2.42" height="2.36" fill="none" stroke-width="0"/></clipPath><clipPath id="clippath-200"><rect x="1799.4" y="607.2" width="2.42" height="2.36" fill="none" stroke-width="0"/></clipPath><clipPath id="clippath-201"><rect x="1672.26" y="473.76" width="2.42" height="2.36" fill="none" stroke-width="0"/></clipPath><clipPath id="clippath-202"><rect x="1818.54" y="468.49" width="2.42" height="2.36" fill="none" stroke-width="0"/></clipPath><clipPath id="clippath-203"><rect x="1854.21" y="414.96" width="2.42" height="2.36" fill="none" stroke-width="0"/></clipPath><clipPath id="clippath-204"><rect x="1886.99" y="631.21" width="2.42" height="2.36" fill="none" stroke-width="0"/></clipPath><clipPath id="clippath-205"><rect x="1803.69" y="62.51" width="2.42" height="2.36" fill="none" stroke-width="0"/></clipPath><clipPath id="clippath-206"><rect x="1583.54" y="161.48" width="2.42" height="2.36" fill="none" stroke-width="0"/></clipPath><clipPath id="clippath-207"><rect x="1774.94" y="220.54" width="2.42" height="2.36" fill="none" stroke-width="0"/></clipPath><clipPath id="clippath-208"><rect x="1769.16" y="121.38" width="2.42" height="2.36" fill="none" stroke-width="0"/></clipPath><clipPath id="clippath-209"><rect x="1798.49" y="128.24" width="2.42" height="2.36" fill="none" stroke-width="0"/></clipPath><clipPath id="clippath-210"><rect x="1741.86" y="173.69" width="2.42" height="2.36" fill="none" stroke-width="0"/></clipPath><clipPath id="clippath-211"><rect x="1273.04" y="40.35" width="2.42" height="2.36" fill="none" stroke-width="0"/></clipPath><clipPath id="clippath-212"><rect x="1270.28" y="172.41" width="2.42" height="2.36" fill="none" stroke-width="0"/></clipPath><clipPath id="clippath-213"><rect x="1439.71" y="312.37" width="2.42" height="2.36" fill="none" stroke-width="0"/></clipPath><clipPath id="clippath-214"><rect x="1491.57" y="24.87" width="2.42" height="2.36" fill="none" stroke-width="0"/></clipPath><clipPath id="clippath-215"><rect x="1409.06" y=".42" width="2.42" height="2.36" fill="none" stroke-width="0"/></clipPath><clipPath id="clippath-216"><rect x="1329.54" y="69.4" width="2.42" height="2.36" fill="none" stroke-width="0"/></clipPath><clipPath id="clippath-217"><rect x="1311.17" y="108.02" width="2.42" height="2.36" fill="none" stroke-width="0"/></clipPath><clipPath id="clippath-218"><rect x="1235.38" y="-.86" width="2.42" height="2.36" fill="none" stroke-width="0"/></clipPath><clipPath id="clippath-219"><rect x="1537.43" y="6.93" width="2.42" height="2.36" fill="none" stroke-width="0"/></clipPath><clipPath id="clippath-220"><rect x="1451" y="225.19" width="2.42" height="2.36" fill="none" stroke-width="0"/></clipPath><clipPath id="clippath-221"><rect x="1214.59" y="121.97" width="2.42" height="2.36" fill="none" stroke-width="0"/></clipPath><clipPath id="clippath-222"><rect x="1445.73" y="47.99" width="2.42" height="2.36" fill="none" stroke-width="0"/></clipPath><clipPath id="clippath-223"><rect x="1568.72" y="45.28" width="2.42" height="2.36" fill="none" stroke-width="0"/></clipPath><clipPath id="clippath-224"><rect x="1252.14" y="100.65" width="2.42" height="2.36" fill="none" stroke-width="0"/></clipPath><clipPath id="clippath-225"><rect x="1400.79" y="181" width="2.42" height="2.36" fill="none" stroke-width="0"/></clipPath><clipPath id="clippath-226"><rect x="1225.88" y="81" width="2.42" height="2.36" fill="none" stroke-width="0"/></clipPath><clipPath id="clippath-227"><rect x="1168.76" y="49.51" width="2.42" height="2.36" fill="none" stroke-width="0"/></clipPath><clipPath id="clippath-228"><rect x="1174.8" y="53.48" width="2.42" height="2.36" fill="none" stroke-width="0"/></clipPath><clipPath id="clippath-229"><rect x="1328.83" y="379.81" width="2.42" height="2.36" fill="none" stroke-width="0"/></clipPath><clipPath id="clippath-230"><rect x="1295.5" y="367.67" width="2.42" height="2.36" fill="none" stroke-width="0"/></clipPath><clipPath id="clippath-231"><rect x="1504.9" y="551.79" width="2.42" height="2.36" fill="none" stroke-width="0"/></clipPath><clipPath id="clippath-232"><rect x="1204.06" y="459.71" width="2.42" height="2.36" fill="none" stroke-width="0"/></clipPath><clipPath id="clippath-233"><rect x="1342.33" y="634.46" width="2.42" height="2.36" fill="none" stroke-width="0"/></clipPath><clipPath id="clippath-234"><rect x="1201.57" y="615.63" width="2.42" height="2.36" fill="none" stroke-width="0"/></clipPath><clipPath id="clippath-235"><rect x="1311.5" y="304.72" width="2.42" height="2.36" fill="none" stroke-width="0"/></clipPath><clipPath id="clippath-236"><rect x="1246.19" y="253.51" width="2.42" height="2.36" fill="none" stroke-width="0"/></clipPath><clipPath id="clippath-237"><rect x="1355.63" y="12.86" width="2.42" height="2.36" fill="none" stroke-width="0"/></clipPath><clipPath id="clippath-238"><rect x="1448.63" y="73.09" width="2.42" height="2.36" fill="none" stroke-width="0"/></clipPath><clipPath id="clippath-239"><rect x="1443.22" y="148.13" width="2.42" height="2.36" fill="none" stroke-width="0"/></clipPath><clipPath id="clippath-240"><rect x="1518.39" y="179.23" width="2.42" height="2.36" fill="none" stroke-width="0"/></clipPath><clipPath id="clippath-241"><rect x="1547.06" y="141.62" width="2.42" height="2.36" fill="none" stroke-width="0"/></clipPath><clipPath id="clippath-242"><rect x="1571.96" y="121.35" width="2.42" height="2.36" fill="none" stroke-width="0"/></clipPath><clipPath id="clippath-243"><rect x="1523.96" y="376.96" width="2.42" height="2.36" fill="none" stroke-width="0"/></clipPath><clipPath id="clippath-244"><rect x="1322.61" y="303.16" width="2.42" height="2.36" fill="none" stroke-width="0"/></clipPath><clipPath id="clippath-245"><rect x="1358.68" y="182.11" width="2.42" height="2.36" fill="none" stroke-width="0"/></clipPath><clipPath id="clippath-246"><rect x="1234.74" y="237.09" width="2.42" height="2.36" fill="none" stroke-width="0"/></clipPath><clipPath id="clippath-247"><rect x="1316.49" y="692.64" width="2.42" height="2.36" fill="none" stroke-width="0"/></clipPath><clipPath id="clippath-248"><rect x="1524.46" y="690.05" width="2.42" height="2.36" fill="none" stroke-width="0"/></clipPath><clipPath id="clippath-249"><rect x="1387.58" y="612.53" width="2.42" height="2.36" fill="none" stroke-width="0"/></clipPath><clipPath id="clippath-250"><rect x="1260.45" y="479.1" width="2.42" height="2.36" fill="none" stroke-width="0"/></clipPath><clipPath id="clippath-251"><rect x="1406.73" y="473.82" width="2.42" height="2.36" fill="none" stroke-width="0"/></clipPath><clipPath id="clippath-252"><rect x="1568.2" y="469.79" width="2.42" height="2.36" fill="none" stroke-width="0"/></clipPath><clipPath id="clippath-253"><rect x="1442.39" y="420.29" width="2.42" height="2.36" fill="none" stroke-width="0"/></clipPath><clipPath id="clippath-254"><rect x="1475.17" y="636.55" width="2.42" height="2.36" fill="none" stroke-width="0"/></clipPath><clipPath id="clippath-255"><rect x="1391.88" y="67.84" width="2.42" height="2.36" fill="none" stroke-width="0"/></clipPath><clipPath id="clippath-256"><rect x="1171.72" y="166.81" width="2.42" height="2.36" fill="none" stroke-width="0"/></clipPath><clipPath id="clippath-257"><rect x="1363.13" y="225.88" width="2.42" height="2.36" fill="none" stroke-width="0"/></clipPath><clipPath id="clippath-258"><rect x="1357.34" y="126.71" width="2.42" height="2.36" fill="none" stroke-width="0"/></clipPath><clipPath id="clippath-259"><rect x="1539.53" y="270.97" width="2.42" height="2.36" fill="none" stroke-width="0"/></clipPath><clipPath id="clippath-260"><rect x="1514.91" y="65.44" width="2.42" height="2.36" fill="none" stroke-width="0"/></clipPath><clipPath id="clippath-261"><rect x="1386.67" y="133.58" width="2.42" height="2.36" fill="none" stroke-width="0"/></clipPath><clipPath id="clippath-262"><rect x="1330.04" y="179.02" width="2.42" height="2.36" fill="none" stroke-width="0"/></clipPath></defs><g id="Lag_1"><rect y="-1" width="1920" height="1081" fill="url(#Ikke-navngivet_forløb_4)" stroke-width="0"/></g><g id="Lag_4"><g clip-path="url(#clippath)"><path d="m285.57,54.81c-.92.12-1.01.21-1.13,1.11-.12-.89-.22-.99-1.13-1.11.92-.12,1.01-.21,1.13-1.11.12.89.22.99,1.13,1.11Z" fill="#fff" stroke-width="0"/></g><g clip-path="url(#clippath-1)"><path d="m288.15,178.59c-.92.12-1.01.21-1.13,1.1-.12-.9-.22-.99-1.13-1.1.92-.12,1.01-.21,1.13-1.11.12.89.22.99,1.13,1.11Z" fill="#fff" stroke-width="0"/></g><g clip-path="url(#clippath-2)"><path d="m129.35,309.77c-.92.12-1.01.21-1.13,1.11-.12-.89-.22-.99-1.13-1.11.92-.12,1.01-.21,1.13-1.1.12.89.22.99,1.13,1.1Z" fill="#fff" stroke-width="0"/></g><g clip-path="url(#clippath-3)"><path d="m388.73,3.04c-.92.12-1.01.21-1.13,1.11-.12-.89-.22-.99-1.13-1.11.92-.12,1.01-.21,1.13-1.11.12.89.22.99,1.13,1.11Z" fill="#fff" stroke-width="0"/></g><g clip-path="url(#clippath-4)"><path d="m80.73,40.29c-.92.12-1.01.21-1.13,1.11-.12-.89-.22-.99-1.13-1.11.92-.12,1.01-.21,1.13-1.11.12.89.22.99,1.13,1.11Z" fill="#fff" stroke-width="0"/></g><g clip-path="url(#clippath-5)"><path d="m158.07,17.38c-.92.12-1.01.21-1.13,1.11-.12-.89-.22-.99-1.13-1.11.92-.12,1.01-.21,1.13-1.11.12.89.22.99,1.13,1.11Z" fill="#fff" stroke-width="0"/></g><g clip-path="url(#clippath-6)"><path d="m232.61,82.03c-.92.12-1.01.21-1.13,1.11-.12-.89-.22-.99-1.13-1.11.92-.12,1.01-.21,1.13-1.11.12.89.22.99,1.13,1.11Z" fill="#fff" stroke-width="0"/></g><g clip-path="url(#clippath-7)"><path d="m249.83,118.24c-.92.12-1.01.21-1.13,1.1-.12-.89-.22-.99-1.13-1.1.92-.12,1.01-.21,1.13-1.11.12.89.22.99,1.13,1.11Z" fill="#fff" stroke-width="0"/></g><g clip-path="url(#clippath-8)"><path d="m320.87,16.18c-.92.12-1.01.21-1.13,1.11-.12-.89-.22-.99-1.13-1.11.92-.12,1.01-.21,1.13-1.11.12.89.22.99,1.13,1.11Z" fill="#fff" stroke-width="0"/></g><g clip-path="url(#clippath-9)"><path d="m37.75,23.48c-.92.12-1.01.21-1.13,1.11-.12-.89-.22-.99-1.13-1.11.92-.12,1.01-.21,1.13-1.11.12.89.22.99,1.13,1.11Z" fill="#fff" stroke-width="0"/></g><g clip-path="url(#clippath-10)"><path d="m118.77,228.06c-.92.12-1.01.21-1.13,1.11-.12-.9-.22-.99-1.13-1.11.92-.12,1.01-.21,1.13-1.1.12.9.22.99,1.13,1.1Z" fill="#fff" stroke-width="0"/></g><g clip-path="url(#clippath-11)"><path d="m340.36,131.31c-.92.12-1.01.21-1.13,1.1-.12-.9-.21-.99-1.13-1.1.92-.12,1.01-.21,1.13-1.1.12.89.22.99,1.13,1.1Z" fill="#fff" stroke-width="0"/></g><g clip-path="url(#clippath-12)"><path d="m123.71,61.97c-.92.12-1.01.21-1.13,1.11-.12-.89-.22-.99-1.13-1.11.92-.12,1.01-.21,1.13-1.11.12.89.22.99,1.13,1.11Z" fill="#fff" stroke-width="0"/></g><g clip-path="url(#clippath-13)"><path d="m8.43,59.43c-.92.12-1.01.21-1.13,1.11-.12-.89-.22-.99-1.13-1.11.92-.12,1.01-.21,1.13-1.11.12.89.22.99,1.13,1.11Z" fill="#fff" stroke-width="0"/></g><g clip-path="url(#clippath-14)"><path d="m305.16,111.32c-.92.12-1.01.21-1.13,1.1-.12-.89-.22-.99-1.13-1.1.92-.12,1.01-.21,1.13-1.11.12.89.22.99,1.13,1.11Z" fill="#fff" stroke-width="0"/></g><g clip-path="url(#clippath-15)"><path d="m165.83,186.64c-.92.12-1.01.21-1.13,1.1-.12-.9-.21-.99-1.13-1.1.92-.12,1.01-.21,1.13-1.11.12.9.22.99,1.13,1.11Z" fill="#fff" stroke-width="0"/></g><g clip-path="url(#clippath-16)"><path d="m329.77,92.91c-.92.12-1.01.21-1.13,1.11-.12-.89-.22-.99-1.13-1.11.92-.12,1.01-.21,1.13-1.11.12.89.22.99,1.13,1.11Z" fill="#fff" stroke-width="0"/></g><g clip-path="url(#clippath-17)"><path d="m383.32,63.4c-.92.12-1.01.21-1.13,1.11-.12-.89-.22-.99-1.13-1.11.92-.12,1.01-.21,1.13-1.11.12.89.22.99,1.13,1.11Z" fill="#fff" stroke-width="0"/></g><g clip-path="url(#clippath-18)"><path d="m377.65,67.11c-.92.12-1.01.21-1.13,1.11-.12-.89-.22-.99-1.13-1.11.92-.12,1.01-.21,1.13-1.11.12.89.22.99,1.13,1.11Z" fill="#fff" stroke-width="0"/></g><g clip-path="url(#clippath-19)"><path d="m233.27,372.99c-.92.12-1.01.21-1.13,1.11-.12-.89-.22-.99-1.13-1.11.92-.12,1.01-.21,1.13-1.1.12.89.22.99,1.13,1.1Z" fill="#fff" stroke-width="0"/></g><g clip-path="url(#clippath-20)"><path d="m264.52,361.61c-.92.12-1.01.21-1.13,1.1-.12-.89-.22-.99-1.13-1.1.92-.12,1.01-.21,1.13-1.11.12.89.22.99,1.13,1.11Z" fill="#fff" stroke-width="0"/></g><g clip-path="url(#clippath-21)"><path d="m68.25,534.19c-.92.12-1.01.21-1.13,1.1-.12-.89-.22-.99-1.13-1.1.92-.12,1.01-.21,1.13-1.1.12.89.22.99,1.13,1.1Z" fill="#fff" stroke-width="0"/></g><g clip-path="url(#clippath-22)"><path d="m350.22,447.88c-.92.12-1.01.21-1.13,1.11-.12-.89-.22-.99-1.13-1.11.92-.12,1.01-.21,1.13-1.11.12.9.22.99,1.13,1.11Z" fill="#fff" stroke-width="0"/></g><g clip-path="url(#clippath-23)"><path d="m220.62,611.67c-.92.12-1.01.21-1.13,1.11-.12-.9-.22-.99-1.13-1.11.92-.12,1.01-.21,1.13-1.1.12.89.22.99,1.13,1.1Z" fill="#fff" stroke-width="0"/></g><g clip-path="url(#clippath-24)"><path d="m352.56,594.02c-.92.12-1.01.21-1.13,1.1-.12-.89-.22-.99-1.13-1.1.92-.12,1.01-.21,1.13-1.1.12.89.22.99,1.13,1.1Z" fill="#fff" stroke-width="0"/></g><g clip-path="url(#clippath-25)"><path d="m249.52,302.6c-.92.12-1.01.21-1.13,1.1-.12-.89-.22-.99-1.13-1.1.92-.12,1.01-.21,1.13-1.11.12.89.22.99,1.13,1.11Z" fill="#fff" stroke-width="0"/></g><g clip-path="url(#clippath-26)"><path d="m310.74,254.6c-.92.12-1.01.21-1.13,1.1-.12-.89-.22-.99-1.13-1.1.92-.12,1.01-.21,1.13-1.11.12.89.22.99,1.13,1.11Z" fill="#fff" stroke-width="0"/></g><g clip-path="url(#clippath-27)"><path d="m208.15,29.04c-.92.12-1.01.21-1.13,1.11-.12-.89-.22-.99-1.13-1.11.92-.12,1.01-.21,1.13-1.11.12.89.21.99,1.13,1.11Z" fill="#fff" stroke-width="0"/></g><g clip-path="url(#clippath-28)"><path d="m114.91,5.27c-.92.12-1.01.21-1.13,1.11-.12-.89-.22-.99-1.13-1.11.92-.12,1.01-.21,1.13-1.11.12.89.22.99,1.13,1.11Z" fill="#fff" stroke-width="0"/></g><g clip-path="url(#clippath-29)"><path d="m99.85,1.25c-.92.12-1.01.21-1.13,1.11-.12-.89-.22-.99-1.13-1.11.92-.12,1.01-.21,1.13-1.11.12.89.22.99,1.13,1.11Z" fill="#fff" stroke-width="0"/></g><g clip-path="url(#clippath-30)"><path d="m120.99,85.5c-.92.12-1.01.21-1.13,1.11-.12-.89-.22-.99-1.13-1.11.92-.12,1.01-.21,1.13-1.11.12.89.22.99,1.13,1.11Z" fill="#fff" stroke-width="0"/></g><g clip-path="url(#clippath-31)"><path d="m126.06,155.83c-.92.12-1.01.21-1.13,1.1-.12-.89-.22-.99-1.13-1.1.92-.12,1.01-.21,1.13-1.1.12.89.21.99,1.13,1.1Z" fill="#fff" stroke-width="0"/></g><g clip-path="url(#clippath-32)"><path d="m55.6,184.98c-.92.12-1.01.21-1.13,1.1-.12-.89-.22-.99-1.13-1.1.92-.12,1.01-.21,1.13-1.1.12.89.22.99,1.13,1.1Z" fill="#fff" stroke-width="0"/></g><g clip-path="url(#clippath-33)"><path d="m28.73,149.73c-.92.12-1.01.21-1.13,1.11-.12-.9-.22-.99-1.13-1.11.92-.12,1.01-.21,1.13-1.1.12.89.22.99,1.13,1.1Z" fill="#fff" stroke-width="0"/></g><g clip-path="url(#clippath-34)"><path d="m5.39,130.73c-.92.12-1.01.21-1.13,1.1-.12-.89-.22-.99-1.13-1.1.92-.12,1.01-.21,1.13-1.11.12.9.22.99,1.13,1.11Z" fill="#fff" stroke-width="0"/></g><g clip-path="url(#clippath-35)"><path d="m50.38,370.31c-.92.12-1.01.21-1.13,1.11-.12-.89-.22-.99-1.13-1.11.92-.12,1.01-.21,1.13-1.11.12.9.22.99,1.13,1.11Z" fill="#fff" stroke-width="0"/></g><g clip-path="url(#clippath-36)"><path d="m239.11,301.14c-.92.12-1.01.21-1.13,1.11-.12-.89-.21-.99-1.13-1.11.92-.12,1.01-.21,1.13-1.11.12.89.22.99,1.13,1.11Z" fill="#fff" stroke-width="0"/></g><g clip-path="url(#clippath-37)"><path d="m307.3,246.68c-.92.12-1.01.21-1.13,1.11-.12-.9-.22-.99-1.13-1.11.92-.12,1.01-.21,1.13-1.1.12.89.22.99,1.13,1.1Z" fill="#fff" stroke-width="0"/></g><g clip-path="url(#clippath-38)"><path d="m321.47,239.21c-.92.12-1.01.21-1.13,1.11-.12-.9-.22-.99-1.13-1.11.92-.12,1.01-.21,1.13-1.1.12.89.22.99,1.13,1.1Z" fill="#fff" stroke-width="0"/></g><g clip-path="url(#clippath-39)"><path d="m346.1,3.18c-.92.12-1.01.21-1.13,1.11-.12-.89-.22-.99-1.13-1.11.92-.12,1.01-.21,1.13-1.11.12.89.22.99,1.13,1.11Z" fill="#fff" stroke-width="0"/></g><g clip-path="url(#clippath-40)"><path d="m244.85,666.21c-.92.12-1.01.21-1.13,1.1-.12-.89-.22-.99-1.13-1.1.92-.12,1.01-.21,1.13-1.1.12.89.21.99,1.13,1.1Z" fill="#fff" stroke-width="0"/></g><g clip-path="url(#clippath-41)"><path d="m49.91,663.78c-.92.12-1.01.21-1.13,1.1-.12-.89-.22-.99-1.13-1.1.92-.12,1.01-.21,1.13-1.11.12.9.22.99,1.13,1.11Z" fill="#fff" stroke-width="0"/></g><g clip-path="url(#clippath-42)"><path d="m178.21,591.12c-.92.12-1.01.21-1.13,1.1-.12-.89-.22-.99-1.13-1.1.92-.12,1.01-.21,1.13-1.1.12.89.22.99,1.13,1.1Z" fill="#fff" stroke-width="0"/></g><g clip-path="url(#clippath-43)"><path d="m297.37,466.05c-.92.12-1.01.21-1.13,1.11-.12-.9-.22-.99-1.13-1.11.92-.12,1.01-.21,1.13-1.11.12.89.22.99,1.13,1.11Z" fill="#fff" stroke-width="0"/></g><g clip-path="url(#clippath-44)"><path d="m160.26,461.1c-.92.12-1.01.21-1.13,1.1-.12-.89-.22-.99-1.13-1.1.92-.12,1.01-.21,1.13-1.11.12.89.22.99,1.13,1.11Z" fill="#fff" stroke-width="0"/></g><g clip-path="url(#clippath-45)"><path d="m8.91,457.32c-.92.12-1.01.21-1.13,1.11-.12-.9-.22-.99-1.13-1.11.92-.12,1.01-.21,1.13-1.11.12.89.22.99,1.13,1.11Z" fill="#fff" stroke-width="0"/></g><g clip-path="url(#clippath-46)"><path d="m126.84,410.93c-.92.12-1.01.21-1.13,1.11-.12-.89-.22-.99-1.13-1.11.92-.12,1.01-.21,1.13-1.1.12.89.22.99,1.13,1.1Z" fill="#fff" stroke-width="0"/></g><g clip-path="url(#clippath-47)"><path d="m96.11,613.63c-.92.12-1.01.21-1.13,1.1-.12-.89-.22-.99-1.13-1.1.92-.12,1.01-.21,1.13-1.1.12.89.22.99,1.13,1.1Z" fill="#fff" stroke-width="0"/></g><g clip-path="url(#clippath-48)"><path d="m2.54,11.96c-.92.12-1.01.21-1.13,1.11-.12-.89-.22-.99-1.13-1.11.92-.12,1.01-.21,1.13-1.11.12.89.22.99,1.13,1.11Z" fill="#fff" stroke-width="0"/></g><g clip-path="url(#clippath-49)"><path d="m174.18,80.58c-.92.12-1.01.21-1.13,1.11-.12-.89-.22-.99-1.13-1.11.92-.12,1.01-.21,1.13-1.11.12.89.22.99,1.13,1.11Z" fill="#fff" stroke-width="0"/></g><g clip-path="url(#clippath-50)"><path d="m380.54,173.34c-.92.12-1.01.21-1.13,1.1-.12-.89-.22-.99-1.13-1.1.92-.12,1.01-.21,1.13-1.11.12.9.21.99,1.13,1.11Z" fill="#fff" stroke-width="0"/></g><g clip-path="url(#clippath-51)"><path d="m201.13,228.7c-.92.12-1.01.21-1.13,1.1-.12-.89-.21-.99-1.13-1.1.92-.12,1.01-.21,1.13-1.1.12.89.22.99,1.13,1.1Z" fill="#fff" stroke-width="0"/></g><g clip-path="url(#clippath-52)"><path d="m206.55,135.76c-.92.12-1.01.21-1.13,1.11-.12-.9-.22-.99-1.13-1.11.92-.12,1.01-.21,1.13-1.11.12.89.22.99,1.13,1.11Z" fill="#fff" stroke-width="0"/></g><g clip-path="url(#clippath-53)"><path d="m256.31,13.13c-.92.12-1.01.21-1.13,1.11-.12-.89-.22-.99-1.13-1.11.92-.12,1.01-.21,1.13-1.11.12.89.22.99,1.13,1.11Z" fill="#fff" stroke-width="0"/></g><g clip-path="url(#clippath-54)"><path d="m35.79,270.97c-.92.12-1.01.21-1.13,1.1-.12-.89-.22-.99-1.13-1.1.92-.12,1.01-.21,1.13-1.11.12.89.22.99,1.13,1.11Z" fill="#fff" stroke-width="0"/></g><g clip-path="url(#clippath-55)"><path d="m58.86,78.33c-.92.12-1.01.21-1.13,1.11-.12-.89-.22-.99-1.13-1.11.92-.12,1.01-.21,1.13-1.11.12.89.22.99,1.13,1.11Z" fill="#fff" stroke-width="0"/></g><g clip-path="url(#clippath-56)"><path d="m179.06,142.19c-.92.12-1.01.21-1.13,1.1-.12-.9-.22-.99-1.13-1.1.92-.12,1.01-.21,1.13-1.11.12.89.22.99,1.13,1.11Z" fill="#fff" stroke-width="0"/></g><g clip-path="url(#clippath-57)"><path d="m232.14,184.79c-.92.12-1.01.21-1.13,1.1-.12-.89-.21-.99-1.13-1.1.92-.12,1.01-.21,1.13-1.11.12.9.22.99,1.13,1.11Z" fill="#fff" stroke-width="0"/></g><g clip-path="url(#clippath-58)"><path d="m673.57,49.81c-.92.12-1.01.21-1.13,1.11-.12-.89-.22-.99-1.13-1.11.92-.12,1.01-.21,1.13-1.11.12.89.22.99,1.13,1.11Z" fill="#fff" stroke-width="0"/></g><g clip-path="url(#clippath-59)"><path d="m676.15,173.59c-.92.12-1.01.21-1.13,1.1-.12-.9-.22-.99-1.13-1.1.92-.12,1.01-.21,1.13-1.11.12.89.22.99,1.13,1.11Z" fill="#fff" stroke-width="0"/></g><g clip-path="url(#clippath-60)"><path d="m517.35,304.77c-.92.12-1.01.21-1.13,1.11-.12-.89-.22-.99-1.13-1.11.92-.12,1.01-.21,1.13-1.1.12.89.22.99,1.13,1.1Z" fill="#fff" stroke-width="0"/></g><g clip-path="url(#clippath-61)"><path d="m468.73,35.29c-.92.12-1.01.21-1.13,1.11-.12-.89-.22-.99-1.13-1.11.92-.12,1.01-.21,1.13-1.11.12.89.22.99,1.13,1.11Z" fill="#fff" stroke-width="0"/></g><g clip-path="url(#clippath-62)"><path d="m546.07,12.38c-.92.12-1.01.21-1.13,1.11-.12-.89-.22-.99-1.13-1.11.92-.12,1.01-.21,1.13-1.11.12.89.22.99,1.13,1.11Z" fill="#fff" stroke-width="0"/></g><g clip-path="url(#clippath-63)"><path d="m620.61,77.03c-.92.12-1.01.21-1.13,1.11-.12-.89-.22-.99-1.13-1.11.92-.12,1.01-.21,1.13-1.11.12.89.22.99,1.13,1.11Z" fill="#fff" stroke-width="0"/></g><g clip-path="url(#clippath-64)"><path d="m637.83,113.24c-.92.12-1.01.21-1.13,1.1-.12-.89-.22-.99-1.13-1.1.92-.12,1.01-.21,1.13-1.11.12.89.22.99,1.13,1.11Z" fill="#fff" stroke-width="0"/></g><g clip-path="url(#clippath-65)"><path d="m708.87,11.18c-.92.12-1.01.21-1.13,1.11-.12-.89-.22-.99-1.13-1.11.92-.12,1.01-.21,1.13-1.11.12.89.22.99,1.13,1.11Z" fill="#fff" stroke-width="0"/></g><g clip-path="url(#clippath-66)"><path d="m425.75,18.48c-.92.12-1.01.21-1.13,1.11-.12-.89-.22-.99-1.13-1.11.92-.12,1.01-.21,1.13-1.11.12.89.22.99,1.13,1.11Z" fill="#fff" stroke-width="0"/></g><g clip-path="url(#clippath-67)"><path d="m506.77,223.06c-.92.12-1.01.21-1.13,1.11-.12-.9-.22-.99-1.13-1.11.92-.12,1.01-.21,1.13-1.1.12.9.22.99,1.13,1.1Z" fill="#fff" stroke-width="0"/></g><g clip-path="url(#clippath-68)"><path d="m728.36,126.31c-.92.12-1.01.21-1.13,1.1-.12-.9-.21-.99-1.13-1.1.92-.12,1.01-.21,1.13-1.1.12.89.22.99,1.13,1.1Z" fill="#fff" stroke-width="0"/></g><g clip-path="url(#clippath-69)"><path d="m511.71,56.97c-.92.12-1.01.21-1.13,1.11-.12-.89-.22-.99-1.13-1.11.92-.12,1.01-.21,1.13-1.11.12.89.22.99,1.13,1.11Z" fill="#fff" stroke-width="0"/></g><g clip-path="url(#clippath-70)"><path d="m396.43,54.43c-.92.12-1.01.21-1.13,1.11-.12-.89-.22-.99-1.13-1.11.92-.12,1.01-.21,1.13-1.11.12.89.22.99,1.13,1.11Z" fill="#fff" stroke-width="0"/></g><g clip-path="url(#clippath-71)"><path d="m693.16,106.32c-.92.12-1.01.21-1.13,1.1-.12-.89-.22-.99-1.13-1.1.92-.12,1.01-.21,1.13-1.11.12.89.22.99,1.13,1.11Z" fill="#fff" stroke-width="0"/></g><g clip-path="url(#clippath-72)"><path d="m553.83,181.64c-.92.12-1.01.21-1.13,1.1-.12-.9-.21-.99-1.13-1.1.92-.12,1.01-.21,1.13-1.11.12.9.22.99,1.13,1.11Z" fill="#fff" stroke-width="0"/></g><g clip-path="url(#clippath-73)"><path d="m717.77,87.91c-.92.12-1.01.21-1.13,1.11-.12-.89-.22-.99-1.13-1.11.92-.12,1.01-.21,1.13-1.11.12.89.22.99,1.13,1.11Z" fill="#fff" stroke-width="0"/></g><g clip-path="url(#clippath-74)"><path d="m756.32,30.4c-.92.12-1.01.21-1.13,1.11-.12-.89-.22-.99-1.13-1.11.92-.12,1.01-.21,1.13-1.11.12.89.22.99,1.13,1.11Z" fill="#fff" stroke-width="0"/></g><g clip-path="url(#clippath-75)"><path d="m765.65,62.11c-.92.12-1.01.21-1.13,1.11-.12-.89-.22-.99-1.13-1.11.92-.12,1.01-.21,1.13-1.11.12.89.22.99,1.13,1.11Z" fill="#fff" stroke-width="0"/></g><g clip-path="url(#clippath-76)"><path d="m621.27,367.99c-.92.12-1.01.21-1.13,1.11-.12-.89-.22-.99-1.13-1.11.92-.12,1.01-.21,1.13-1.1.12.89.22.99,1.13,1.1Z" fill="#fff" stroke-width="0"/></g><g clip-path="url(#clippath-77)"><path d="m652.52,356.61c-.92.12-1.01.21-1.13,1.1-.12-.89-.22-.99-1.13-1.1.92-.12,1.01-.21,1.13-1.11.12.89.22.99,1.13,1.11Z" fill="#fff" stroke-width="0"/></g><g clip-path="url(#clippath-78)"><path d="m456.25,529.19c-.92.12-1.01.21-1.13,1.1-.12-.89-.22-.99-1.13-1.1.92-.12,1.01-.21,1.13-1.1.12.89.22.99,1.13,1.1Z" fill="#fff" stroke-width="0"/></g><g clip-path="url(#clippath-79)"><path d="m738.22,442.88c-.92.12-1.01.21-1.13,1.11-.12-.89-.22-.99-1.13-1.11.92-.12,1.01-.21,1.13-1.11.12.9.22.99,1.13,1.11Z" fill="#fff" stroke-width="0"/></g><g clip-path="url(#clippath-80)"><path d="m608.62,606.67c-.92.12-1.01.21-1.13,1.11-.12-.9-.22-.99-1.13-1.11.92-.12,1.01-.21,1.13-1.1.12.89.22.99,1.13,1.1Z" fill="#fff" stroke-width="0"/></g><g clip-path="url(#clippath-81)"><path d="m740.56,589.02c-.92.12-1.01.21-1.13,1.1-.12-.89-.22-.99-1.13-1.1.92-.12,1.01-.21,1.13-1.1.12.89.22.99,1.13,1.1Z" fill="#fff" stroke-width="0"/></g><g clip-path="url(#clippath-82)"><path d="m637.52,297.6c-.92.12-1.01.21-1.13,1.1-.12-.89-.22-.99-1.13-1.1.92-.12,1.01-.21,1.13-1.11.12.89.22.99,1.13,1.11Z" fill="#fff" stroke-width="0"/></g><g clip-path="url(#clippath-83)"><path d="m716.74,294.6c-.92.12-1.01.21-1.13,1.1-.12-.89-.22-.99-1.13-1.1.92-.12,1.01-.21,1.13-1.11.12.89.22.99,1.13,1.11Z" fill="#fff" stroke-width="0"/></g><g clip-path="url(#clippath-84)"><path d="m596.15,24.04c-.92.12-1.01.21-1.13,1.11-.12-.89-.22-.99-1.13-1.11.92-.12,1.01-.21,1.13-1.11.12.89.21.99,1.13,1.11Z" fill="#fff" stroke-width="0"/></g><g clip-path="url(#clippath-85)"><path d="m502.91.27c-.92.12-1.01.21-1.13,1.11-.12-.89-.22-.99-1.13-1.11.92-.12,1.01-.21,1.13-1.11.12.89.22.99,1.13,1.11Z" fill="#fff" stroke-width="0"/></g><g clip-path="url(#clippath-86)"><path d="m508.99,80.5c-.92.12-1.01.21-1.13,1.11-.12-.89-.22-.99-1.13-1.11.92-.12,1.01-.21,1.13-1.11.12.89.22.99,1.13,1.11Z" fill="#fff" stroke-width="0"/></g><g clip-path="url(#clippath-87)"><path d="m514.06,150.83c-.92.12-1.01.21-1.13,1.1-.12-.89-.22-.99-1.13-1.1.92-.12,1.01-.21,1.13-1.1.12.89.21.99,1.13,1.1Z" fill="#fff" stroke-width="0"/></g><g clip-path="url(#clippath-88)"><path d="m443.6,179.98c-.92.12-1.01.21-1.13,1.1-.12-.89-.22-.99-1.13-1.1.92-.12,1.01-.21,1.13-1.1.12.89.22.99,1.13,1.1Z" fill="#fff" stroke-width="0"/></g><g clip-path="url(#clippath-89)"><path d="m416.73,144.73c-.92.12-1.01.21-1.13,1.11-.12-.9-.22-.99-1.13-1.11.92-.12,1.01-.21,1.13-1.1.12.89.22.99,1.13,1.1Z" fill="#fff" stroke-width="0"/></g><g clip-path="url(#clippath-90)"><path d="m393.39,125.73c-.92.12-1.01.21-1.13,1.1-.12-.89-.22-.99-1.13-1.1.92-.12,1.01-.21,1.13-1.11.12.9.22.99,1.13,1.11Z" fill="#fff" stroke-width="0"/></g><g clip-path="url(#clippath-91)"><path d="m438.38,365.31c-.92.12-1.01.21-1.13,1.11-.12-.89-.22-.99-1.13-1.11.92-.12,1.01-.21,1.13-1.11.12.9.22.99,1.13,1.11Z" fill="#fff" stroke-width="0"/></g><g clip-path="url(#clippath-92)"><path d="m627.11,296.14c-.92.12-1.01.21-1.13,1.11-.12-.89-.21-.99-1.13-1.11.92-.12,1.01-.21,1.13-1.11.12.89.22.99,1.13,1.11Z" fill="#fff" stroke-width="0"/></g><g clip-path="url(#clippath-93)"><path d="m695.3,241.68c-.92.12-1.01.21-1.13,1.11-.12-.9-.22-.99-1.13-1.11.92-.12,1.01-.21,1.13-1.1.12.89.22.99,1.13,1.1Z" fill="#fff" stroke-width="0"/></g><g clip-path="url(#clippath-94)"><path d="m755.47,216.21c-.92.12-1.01.21-1.13,1.11-.12-.9-.22-.99-1.13-1.11.92-.12,1.01-.21,1.13-1.1.12.89.22.99,1.13,1.1Z" fill="#fff" stroke-width="0"/></g><g clip-path="url(#clippath-95)"><path d="m632.85,661.21c-.92.12-1.01.21-1.13,1.1-.12-.89-.22-.99-1.13-1.1.92-.12,1.01-.21,1.13-1.1.12.89.21.99,1.13,1.1Z" fill="#fff" stroke-width="0"/></g><g clip-path="url(#clippath-96)"><path d="m437.91,658.78c-.92.12-1.01.21-1.13,1.1-.12-.89-.22-.99-1.13-1.1.92-.12,1.01-.21,1.13-1.11.12.9.22.99,1.13,1.11Z" fill="#fff" stroke-width="0"/></g><g clip-path="url(#clippath-97)"><path d="m566.21,586.12c-.92.12-1.01.21-1.13,1.1-.12-.89-.22-.99-1.13-1.1.92-.12,1.01-.21,1.13-1.1.12.89.22.99,1.13,1.1Z" fill="#fff" stroke-width="0"/></g><g clip-path="url(#clippath-98)"><path d="m685.37,461.05c-.92.12-1.01.21-1.13,1.11-.12-.9-.22-.99-1.13-1.11.92-.12,1.01-.21,1.13-1.11.12.89.22.99,1.13,1.11Z" fill="#fff" stroke-width="0"/></g><g clip-path="url(#clippath-99)"><path d="m548.26,456.1c-.92.12-1.01.21-1.13,1.1-.12-.89-.22-.99-1.13-1.1.92-.12,1.01-.21,1.13-1.11.12.89.22.99,1.13,1.11Z" fill="#fff" stroke-width="0"/></g><g clip-path="url(#clippath-100)"><path d="m396.91,452.32c-.92.12-1.01.21-1.13,1.11-.12-.9-.22-.99-1.13-1.11.92-.12,1.01-.21,1.13-1.11.12.89.22.99,1.13,1.11Z" fill="#fff" stroke-width="0"/></g><g clip-path="url(#clippath-101)"><path d="m514.84,405.93c-.92.12-1.01.21-1.13,1.11-.12-.89-.22-.99-1.13-1.11.92-.12,1.01-.21,1.13-1.1.12.89.22.99,1.13,1.1Z" fill="#fff" stroke-width="0"/></g><g clip-path="url(#clippath-102)"><path d="m484.11,608.63c-.92.12-1.01.21-1.13,1.1-.12-.89-.22-.99-1.13-1.1.92-.12,1.01-.21,1.13-1.1.12.89.22.99,1.13,1.1Z" fill="#fff" stroke-width="0"/></g><g clip-path="url(#clippath-103)"><path d="m390.54,6.96c-.92.12-1.01.21-1.13,1.11-.12-.89-.22-.99-1.13-1.11.92-.12,1.01-.21,1.13-1.11.12.89.22.99,1.13,1.11Z" fill="#fff" stroke-width="0"/></g><g clip-path="url(#clippath-104)"><path d="m562.18,75.58c-.92.12-1.01.21-1.13,1.11-.12-.89-.22-.99-1.13-1.11.92-.12,1.01-.21,1.13-1.11.12.89.22.99,1.13,1.11Z" fill="#fff" stroke-width="0"/></g><g clip-path="url(#clippath-105)"><path d="m768.54,168.34c-.92.12-1.01.21-1.13,1.1-.12-.89-.22-.99-1.13-1.1.92-.12,1.01-.21,1.13-1.11.12.9.21.99,1.13,1.11Z" fill="#fff" stroke-width="0"/></g><g clip-path="url(#clippath-106)"><path d="m589.13,223.7c-.92.12-1.01.21-1.13,1.1-.12-.89-.21-.99-1.13-1.1.92-.12,1.01-.21,1.13-1.1.12.89.22.99,1.13,1.1Z" fill="#fff" stroke-width="0"/></g><g clip-path="url(#clippath-107)"><path d="m594.55,130.76c-.92.12-1.01.21-1.13,1.11-.12-.9-.22-.99-1.13-1.11.92-.12,1.01-.21,1.13-1.11.12.89.22.99,1.13,1.11Z" fill="#fff" stroke-width="0"/></g><g clip-path="url(#clippath-108)"><path d="m644.31,8.13c-.92.12-1.01.21-1.13,1.11-.12-.89-.22-.99-1.13-1.11.92-.12,1.01-.21,1.13-1.11.12.89.22.99,1.13,1.11Z" fill="#fff" stroke-width="0"/></g><g clip-path="url(#clippath-109)"><path d="m423.79,265.97c-.92.12-1.01.21-1.13,1.1-.12-.89-.22-.99-1.13-1.1.92-.12,1.01-.21,1.13-1.11.12.89.22.99,1.13,1.11Z" fill="#fff" stroke-width="0"/></g><g clip-path="url(#clippath-110)"><path d="m446.86,73.33c-.92.12-1.01.21-1.13,1.11-.12-.89-.22-.99-1.13-1.11.92-.12,1.01-.21,1.13-1.11.12.89.22.99,1.13,1.11Z" fill="#fff" stroke-width="0"/></g><g clip-path="url(#clippath-111)"><path d="m567.06,137.19c-.92.12-1.01.21-1.13,1.1-.12-.9-.22-.99-1.13-1.1.92-.12,1.01-.21,1.13-1.11.12.89.22.99,1.13,1.11Z" fill="#fff" stroke-width="0"/></g><g clip-path="url(#clippath-112)"><path d="m620.14,179.79c-.92.12-1.01.21-1.13,1.1-.12-.89-.21-.99-1.13-1.1.92-.12,1.01-.21,1.13-1.11.12.9.22.99,1.13,1.11Z" fill="#fff" stroke-width="0"/></g><g clip-path="url(#clippath-113)"><path d="m1059.57,54.81c-.92.12-1.01.21-1.13,1.11-.12-.89-.22-.99-1.13-1.11.92-.12,1.01-.21,1.13-1.11.12.89.22.99,1.13,1.11Z" fill="#fff" stroke-width="0"/></g><g clip-path="url(#clippath-114)"><path d="m1062.15,178.59c-.92.12-1.01.21-1.13,1.1-.12-.9-.22-.99-1.13-1.1.92-.12,1.01-.21,1.13-1.11.12.89.22.99,1.13,1.11Z" fill="#fff" stroke-width="0"/></g><g clip-path="url(#clippath-115)"><path d="m903.35,309.77c-.92.12-1.01.21-1.13,1.11-.12-.89-.22-.99-1.13-1.11.92-.12,1.01-.21,1.13-1.1.12.89.22.99,1.13,1.1Z" fill="#fff" stroke-width="0"/></g><g clip-path="url(#clippath-116)"><path d="m1162.73,3.04c-.92.12-1.01.21-1.13,1.11-.12-.89-.22-.99-1.13-1.11.92-.12,1.01-.21,1.13-1.11.12.89.22.99,1.13,1.11Z" fill="#fff" stroke-width="0"/></g><g clip-path="url(#clippath-117)"><path d="m854.73,40.29c-.92.12-1.01.21-1.13,1.11-.12-.89-.22-.99-1.13-1.11.92-.12,1.01-.21,1.13-1.11.12.89.22.99,1.13,1.11Z" fill="#fff" stroke-width="0"/></g><g clip-path="url(#clippath-118)"><path d="m932.07,17.38c-.92.12-1.01.21-1.13,1.11-.12-.89-.22-.99-1.13-1.11.92-.12,1.01-.21,1.13-1.11.12.89.22.99,1.13,1.11Z" fill="#fff" stroke-width="0"/></g><g clip-path="url(#clippath-119)"><path d="m1006.61,82.03c-.92.12-1.01.21-1.13,1.11-.12-.89-.22-.99-1.13-1.11.92-.12,1.01-.21,1.13-1.11.12.89.22.99,1.13,1.11Z" fill="#fff" stroke-width="0"/></g><g clip-path="url(#clippath-120)"><path d="m1023.83,118.24c-.92.12-1.01.21-1.13,1.1-.12-.89-.22-.99-1.13-1.1.92-.12,1.01-.21,1.13-1.11.12.89.22.99,1.13,1.11Z" fill="#fff" stroke-width="0"/></g><g clip-path="url(#clippath-121)"><path d="m1094.87,16.18c-.92.12-1.01.21-1.13,1.11-.12-.89-.22-.99-1.13-1.11.92-.12,1.01-.21,1.13-1.11.12.89.22.99,1.13,1.11Z" fill="#fff" stroke-width="0"/></g><g clip-path="url(#clippath-122)"><path d="m811.75,23.48c-.92.12-1.01.21-1.13,1.11-.12-.89-.22-.99-1.13-1.11.92-.12,1.01-.21,1.13-1.11.12.89.22.99,1.13,1.11Z" fill="#fff" stroke-width="0"/></g><g clip-path="url(#clippath-123)"><path d="m892.77,228.06c-.92.12-1.01.21-1.13,1.11-.12-.9-.22-.99-1.13-1.11.92-.12,1.01-.21,1.13-1.1.12.9.22.99,1.13,1.1Z" fill="#fff" stroke-width="0"/></g><g clip-path="url(#clippath-124)"><path d="m1114.36,131.31c-.92.12-1.01.21-1.13,1.1-.12-.9-.21-.99-1.13-1.1.92-.12,1.01-.21,1.13-1.1.12.89.22.99,1.13,1.1Z" fill="#fff" stroke-width="0"/></g><g clip-path="url(#clippath-125)"><path d="m897.71,61.97c-.92.12-1.01.21-1.13,1.11-.12-.89-.22-.99-1.13-1.11.92-.12,1.01-.21,1.13-1.11.12.89.22.99,1.13,1.11Z" fill="#fff" stroke-width="0"/></g><g clip-path="url(#clippath-126)"><path d="m782.43,59.43c-.92.12-1.01.21-1.13,1.11-.12-.89-.22-.99-1.13-1.11.92-.12,1.01-.21,1.13-1.11.12.89.22.99,1.13,1.11Z" fill="#fff" stroke-width="0"/></g><g clip-path="url(#clippath-127)"><path d="m1079.16,111.32c-.92.12-1.01.21-1.13,1.1-.12-.89-.22-.99-1.13-1.1.92-.12,1.01-.21,1.13-1.11.12.89.22.99,1.13,1.11Z" fill="#fff" stroke-width="0"/></g><g clip-path="url(#clippath-128)"><path d="m939.83,186.64c-.92.12-1.01.21-1.13,1.1-.12-.9-.21-.99-1.13-1.1.92-.12,1.01-.21,1.13-1.11.12.9.22.99,1.13,1.11Z" fill="#fff" stroke-width="0"/></g><g clip-path="url(#clippath-129)"><path d="m1103.77,92.91c-.92.12-1.01.21-1.13,1.11-.12-.89-.22-.99-1.13-1.11.92-.12,1.01-.21,1.13-1.11.12.89.22.99,1.13,1.11Z" fill="#fff" stroke-width="0"/></g><g clip-path="url(#clippath-130)"><path d="m1157.32,63.4c-.92.12-1.01.21-1.13,1.11-.12-.89-.22-.99-1.13-1.11.92-.12,1.01-.21,1.13-1.11.12.89.22.99,1.13,1.11Z" fill="#fff" stroke-width="0"/></g><g clip-path="url(#clippath-131)"><path d="m1151.65,67.11c-.92.12-1.01.21-1.13,1.11-.12-.89-.22-.99-1.13-1.11.92-.12,1.01-.21,1.13-1.11.12.89.22.99,1.13,1.11Z" fill="#fff" stroke-width="0"/></g><g clip-path="url(#clippath-132)"><path d="m1007.27,372.99c-.92.12-1.01.21-1.13,1.11-.12-.89-.22-.99-1.13-1.11.92-.12,1.01-.21,1.13-1.1.12.89.22.99,1.13,1.1Z" fill="#fff" stroke-width="0"/></g><g clip-path="url(#clippath-133)"><path d="m1038.52,361.61c-.92.12-1.01.21-1.13,1.1-.12-.89-.22-.99-1.13-1.1.92-.12,1.01-.21,1.13-1.11.12.89.22.99,1.13,1.11Z" fill="#fff" stroke-width="0"/></g><g clip-path="url(#clippath-134)"><path d="m842.25,534.19c-.92.12-1.01.21-1.13,1.1-.12-.89-.22-.99-1.13-1.1.92-.12,1.01-.21,1.13-1.1.12.89.22.99,1.13,1.1Z" fill="#fff" stroke-width="0"/></g><g clip-path="url(#clippath-135)"><path d="m1124.22,447.88c-.92.12-1.01.21-1.13,1.11-.12-.89-.22-.99-1.13-1.11.92-.12,1.01-.21,1.13-1.11.12.9.22.99,1.13,1.11Z" fill="#fff" stroke-width="0"/></g><g clip-path="url(#clippath-136)"><path d="m994.62,611.67c-.92.12-1.01.21-1.13,1.11-.12-.9-.22-.99-1.13-1.11.92-.12,1.01-.21,1.13-1.1.12.89.22.99,1.13,1.1Z" fill="#fff" stroke-width="0"/></g><g clip-path="url(#clippath-137)"><path d="m1126.56,594.02c-.92.12-1.01.21-1.13,1.1-.12-.89-.22-.99-1.13-1.1.92-.12,1.01-.21,1.13-1.1.12.89.22.99,1.13,1.1Z" fill="#fff" stroke-width="0"/></g><g clip-path="url(#clippath-138)"><path d="m1023.52,302.6c-.92.12-1.01.21-1.13,1.1-.12-.89-.22-.99-1.13-1.1.92-.12,1.01-.21,1.13-1.11.12.89.22.99,1.13,1.11Z" fill="#fff" stroke-width="0"/></g><g clip-path="url(#clippath-139)"><path d="m1084.74,254.6c-.92.12-1.01.21-1.13,1.1-.12-.89-.22-.99-1.13-1.1.92-.12,1.01-.21,1.13-1.11.12.89.22.99,1.13,1.11Z" fill="#fff" stroke-width="0"/></g><g clip-path="url(#clippath-140)"><path d="m982.15,29.04c-.92.12-1.01.21-1.13,1.11-.12-.89-.22-.99-1.13-1.11.92-.12,1.01-.21,1.13-1.11.12.89.21.99,1.13,1.11Z" fill="#fff" stroke-width="0"/></g><g clip-path="url(#clippath-141)"><path d="m888.91,5.27c-.92.12-1.01.21-1.13,1.11-.12-.89-.22-.99-1.13-1.11.92-.12,1.01-.21,1.13-1.11.12.89.22.99,1.13,1.11Z" fill="#fff" stroke-width="0"/></g><g clip-path="url(#clippath-142)"><path d="m873.85,1.25c-.92.12-1.01.21-1.13,1.11-.12-.89-.22-.99-1.13-1.11.92-.12,1.01-.21,1.13-1.11.12.89.22.99,1.13,1.11Z" fill="#fff" stroke-width="0"/></g><g clip-path="url(#clippath-143)"><path d="m894.99,85.5c-.92.12-1.01.21-1.13,1.11-.12-.89-.22-.99-1.13-1.11.92-.12,1.01-.21,1.13-1.11.12.89.22.99,1.13,1.11Z" fill="#fff" stroke-width="0"/></g><g clip-path="url(#clippath-144)"><path d="m900.06,155.83c-.92.12-1.01.21-1.13,1.1-.12-.89-.22-.99-1.13-1.1.92-.12,1.01-.21,1.13-1.1.12.89.21.99,1.13,1.1Z" fill="#fff" stroke-width="0"/></g><g clip-path="url(#clippath-145)"><path d="m829.6,184.98c-.92.12-1.01.21-1.13,1.1-.12-.89-.22-.99-1.13-1.1.92-.12,1.01-.21,1.13-1.1.12.89.22.99,1.13,1.1Z" fill="#fff" stroke-width="0"/></g><g clip-path="url(#clippath-146)"><path d="m802.73,149.73c-.92.12-1.01.21-1.13,1.11-.12-.9-.22-.99-1.13-1.11.92-.12,1.01-.21,1.13-1.1.12.89.22.99,1.13,1.1Z" fill="#fff" stroke-width="0"/></g><g clip-path="url(#clippath-147)"><path d="m779.39,130.73c-.92.12-1.01.21-1.13,1.1-.12-.89-.22-.99-1.13-1.1.92-.12,1.01-.21,1.13-1.11.12.9.22.99,1.13,1.11Z" fill="#fff" stroke-width="0"/></g><g clip-path="url(#clippath-148)"><path d="m824.38,370.31c-.92.12-1.01.21-1.13,1.11-.12-.89-.22-.99-1.13-1.11.92-.12,1.01-.21,1.13-1.11.12.9.22.99,1.13,1.11Z" fill="#fff" stroke-width="0"/></g><g clip-path="url(#clippath-149)"><path d="m1013.11,301.14c-.92.12-1.01.21-1.13,1.11-.12-.89-.21-.99-1.13-1.11.92-.12,1.01-.21,1.13-1.11.12.89.22.99,1.13,1.11Z" fill="#fff" stroke-width="0"/></g><g clip-path="url(#clippath-150)"><path d="m979.3,187.68c-.92.12-1.01.21-1.13,1.11-.12-.9-.22-.99-1.13-1.11.92-.12,1.01-.21,1.13-1.1.12.89.22.99,1.13,1.1Z" fill="#fff" stroke-width="0"/></g><g clip-path="url(#clippath-151)"><path d="m1095.47,239.21c-.92.12-1.01.21-1.13,1.11-.12-.9-.22-.99-1.13-1.11.92-.12,1.01-.21,1.13-1.1.12.89.22.99,1.13,1.1Z" fill="#fff" stroke-width="0"/></g><g clip-path="url(#clippath-152)"><path d="m1120.1,3.18c-.92.12-1.01.21-1.13,1.11-.12-.89-.22-.99-1.13-1.11.92-.12,1.01-.21,1.13-1.11.12.89.22.99,1.13,1.11Z" fill="#fff" stroke-width="0"/></g><g clip-path="url(#clippath-153)"><path d="m1018.85,666.21c-.92.12-1.01.21-1.13,1.1-.12-.89-.22-.99-1.13-1.1.92-.12,1.01-.21,1.13-1.1.12.89.21.99,1.13,1.1Z" fill="#fff" stroke-width="0"/></g><g clip-path="url(#clippath-154)"><path d="m823.91,663.78c-.92.12-1.01.21-1.13,1.1-.12-.89-.22-.99-1.13-1.1.92-.12,1.01-.21,1.13-1.11.12.9.22.99,1.13,1.11Z" fill="#fff" stroke-width="0"/></g><g clip-path="url(#clippath-155)"><path d="m952.21,591.12c-.92.12-1.01.21-1.13,1.1-.12-.89-.22-.99-1.13-1.1.92-.12,1.01-.21,1.13-1.1.12.89.22.99,1.13,1.1Z" fill="#fff" stroke-width="0"/></g><g clip-path="url(#clippath-156)"><path d="m1071.37,466.05c-.92.12-1.01.21-1.13,1.11-.12-.9-.22-.99-1.13-1.11.92-.12,1.01-.21,1.13-1.11.12.89.22.99,1.13,1.11Z" fill="#fff" stroke-width="0"/></g><g clip-path="url(#clippath-157)"><path d="m934.26,461.1c-.92.12-1.01.21-1.13,1.1-.12-.89-.22-.99-1.13-1.1.92-.12,1.01-.21,1.13-1.11.12.89.22.99,1.13,1.11Z" fill="#fff" stroke-width="0"/></g><g clip-path="url(#clippath-158)"><path d="m782.91,457.32c-.92.12-1.01.21-1.13,1.11-.12-.9-.22-.99-1.13-1.11.92-.12,1.01-.21,1.13-1.11.12.89.22.99,1.13,1.11Z" fill="#fff" stroke-width="0"/></g><g clip-path="url(#clippath-159)"><path d="m900.84,410.93c-.92.12-1.01.21-1.13,1.11-.12-.89-.22-.99-1.13-1.11.92-.12,1.01-.21,1.13-1.1.12.89.22.99,1.13,1.1Z" fill="#fff" stroke-width="0"/></g><g clip-path="url(#clippath-160)"><path d="m870.11,613.63c-.92.12-1.01.21-1.13,1.1-.12-.89-.22-.99-1.13-1.1.92-.12,1.01-.21,1.13-1.1.12.89.22.99,1.13,1.1Z" fill="#fff" stroke-width="0"/></g><g clip-path="url(#clippath-161)"><path d="m776.54,11.96c-.92.12-1.01.21-1.13,1.11-.12-.89-.22-.99-1.13-1.11.92-.12,1.01-.21,1.13-1.11.12.89.22.99,1.13,1.11Z" fill="#fff" stroke-width="0"/></g><g clip-path="url(#clippath-162)"><path d="m948.18,80.58c-.92.12-1.01.21-1.13,1.11-.12-.89-.22-.99-1.13-1.11.92-.12,1.01-.21,1.13-1.11.12.89.22.99,1.13,1.11Z" fill="#fff" stroke-width="0"/></g><g clip-path="url(#clippath-163)"><path d="m1154.54,173.34c-.92.12-1.01.21-1.13,1.1-.12-.89-.22-.99-1.13-1.1.92-.12,1.01-.21,1.13-1.11.12.9.21.99,1.13,1.11Z" fill="#fff" stroke-width="0"/></g><g clip-path="url(#clippath-164)"><path d="m975.13,228.7c-.92.12-1.01.21-1.13,1.1-.12-.89-.21-.99-1.13-1.1.92-.12,1.01-.21,1.13-1.1.12.89.22.99,1.13,1.1Z" fill="#fff" stroke-width="0"/></g><g clip-path="url(#clippath-165)"><path d="m980.55,135.76c-.92.12-1.01.21-1.13,1.11-.12-.9-.22-.99-1.13-1.11.92-.12,1.01-.21,1.13-1.11.12.89.22.99,1.13,1.11Z" fill="#fff" stroke-width="0"/></g><g clip-path="url(#clippath-166)"><path d="m1030.31,13.13c-.92.12-1.01.21-1.13,1.11-.12-.89-.22-.99-1.13-1.11.92-.12,1.01-.21,1.13-1.11.12.89.22.99,1.13,1.11Z" fill="#fff" stroke-width="0"/></g><g clip-path="url(#clippath-167)"><path d="m809.79,270.97c-.92.12-1.01.21-1.13,1.1-.12-.89-.22-.99-1.13-1.1.92-.12,1.01-.21,1.13-1.11.12.89.22.99,1.13,1.11Z" fill="#fff" stroke-width="0"/></g><g clip-path="url(#clippath-168)"><path d="m832.86,78.33c-.92.12-1.01.21-1.13,1.11-.12-.89-.22-.99-1.13-1.11.92-.12,1.01-.21,1.13-1.11.12.89.22.99,1.13,1.11Z" fill="#fff" stroke-width="0"/></g><g clip-path="url(#clippath-169)"><path d="m953.06,142.19c-.92.12-1.01.21-1.13,1.1-.12-.9-.22-.99-1.13-1.1.92-.12,1.01-.21,1.13-1.11.12.89.22.99,1.13,1.11Z" fill="#fff" stroke-width="0"/></g><g clip-path="url(#clippath-170)"><path d="m1006.14,184.79c-.92.12-1.01.21-1.13,1.1-.12-.89-.21-.99-1.13-1.1.92-.12,1.01-.21,1.13-1.11.12.9.22.99,1.13,1.11Z" fill="#fff" stroke-width="0"/></g><g clip-path="url(#clippath-171)"><path d="m1684.86,36.19c.98.13,1.08.22,1.21,1.18.13-.95.23-1.05,1.21-1.18-.98-.13-1.08-.22-1.21-1.18-.13.95-.23,1.05-1.21,1.18Z" fill="#fff" stroke-width="0"/></g><g clip-path="url(#clippath-172)"><path d="m1682.1,168.26c.98.13,1.08.22,1.21,1.18.13-.95.23-1.05,1.21-1.18-.98-.13-1.08-.23-1.21-1.18-.13.95-.23,1.05-1.21,1.18Z" fill="#fff" stroke-width="0"/></g><g clip-path="url(#clippath-173)"><path d="m1851.52,308.21c.98.13,1.08.22,1.21,1.18.13-.95.23-1.05,1.21-1.18-.98-.13-1.08-.23-1.21-1.18-.13.95-.23,1.05-1.21,1.18Z" fill="#fff" stroke-width="0"/></g><g clip-path="url(#clippath-174)"><path d="m1903.39,20.71c.98.13,1.08.22,1.21,1.18.13-.95.23-1.05,1.21-1.18-.98-.13-1.08-.22-1.21-1.18-.13.95-.23,1.05-1.21,1.18Z" fill="#fff" stroke-width="0"/></g><g clip-path="url(#clippath-175)"><path d="m1741.36,65.24c.98.13,1.08.22,1.21,1.18.13-.95.23-1.05,1.21-1.18-.98-.13-1.08-.22-1.21-1.18-.13.95-.23,1.05-1.21,1.18Z" fill="#fff" stroke-width="0"/></g><g clip-path="url(#clippath-176)"><path d="m1722.99,103.87c.98.13,1.08.23,1.21,1.18.13-.95.23-1.05,1.21-1.18-.98-.13-1.08-.22-1.21-1.18-.13.95-.23,1.05-1.21,1.18Z" fill="#fff" stroke-width="0"/></g><g clip-path="url(#clippath-177)"><path d="m1862.81,221.03c.98.13,1.08.23,1.21,1.18.13-.95.23-1.05,1.21-1.18-.98-.13-1.08-.22-1.21-1.18-.13.95-.23,1.05-1.21,1.18Z" fill="#fff" stroke-width="0"/></g><g clip-path="url(#clippath-178)"><path d="m1626.41,117.81c.98.13,1.08.22,1.21,1.18.13-.95.23-1.05,1.21-1.18-.98-.13-1.08-.23-1.21-1.18-.13.95-.23,1.05-1.21,1.18Z" fill="#fff" stroke-width="0"/></g><g clip-path="url(#clippath-179)"><path d="m1857.55,43.84c.98.13,1.08.22,1.21,1.18.13-.95.23-1.05,1.21-1.18-.98-.13-1.08-.22-1.21-1.18-.13.95-.23,1.05-1.21,1.18Z" fill="#fff" stroke-width="0"/></g><g clip-path="url(#clippath-180)"><path d="m1663.95,96.49c.98.13,1.08.22,1.21,1.18.13-.95.23-1.05,1.21-1.18-.98-.13-1.08-.23-1.21-1.18-.13.95-.23,1.05-1.21,1.18Z" fill="#fff" stroke-width="0"/></g><g clip-path="url(#clippath-181)"><path d="m1812.61,176.84c.98.13,1.08.22,1.21,1.18.13-.95.23-1.05,1.21-1.18-.98-.13-1.08-.23-1.21-1.18-.13.95-.23,1.05-1.21,1.18Z" fill="#fff" stroke-width="0"/></g><g clip-path="url(#clippath-182)"><path d="m1637.7,76.84c.98.13,1.08.22,1.21,1.18.13-.95.23-1.05,1.21-1.18-.98-.13-1.08-.22-1.21-1.18-.13.95-.23,1.05-1.21,1.18Z" fill="#fff" stroke-width="0"/></g><g clip-path="url(#clippath-183)"><path d="m1596.58,15.49c.98.13,1.08.22,1.21,1.18.13-.95.23-1.05,1.21-1.18-.98-.13-1.08-.22-1.21-1.18-.13.95-.23,1.05-1.21,1.18Z" fill="#fff" stroke-width="0"/></g><g clip-path="url(#clippath-184)"><path d="m1586.62,49.32c.98.13,1.08.22,1.21,1.18.13-.95.23-1.05,1.21-1.18-.98-.13-1.08-.22-1.21-1.18-.13.95-.23,1.05-1.21,1.18Z" fill="#fff" stroke-width="0"/></g><g clip-path="url(#clippath-185)"><path d="m1740.65,375.65c.98.13,1.08.22,1.21,1.18.13-.95.23-1.05,1.21-1.18-.98-.13-1.08-.23-1.21-1.18-.13.95-.23,1.05-1.21,1.18Z" fill="#fff" stroke-width="0"/></g><g clip-path="url(#clippath-186)"><path d="m1707.32,363.51c.98.13,1.08.22,1.21,1.18.13-.95.23-1.05,1.21-1.18-.98-.13-1.08-.23-1.21-1.18-.13.95-.23,1.05-1.21,1.18Z" fill="#fff" stroke-width="0"/></g><g clip-path="url(#clippath-187)"><path d="m1916.72,547.64c.98.13,1.08.23,1.21,1.18.13-.95.23-1.05,1.21-1.18-.98-.13-1.08-.22-1.21-1.18-.13.95-.23,1.05-1.21,1.18Z" fill="#fff" stroke-width="0"/></g><g clip-path="url(#clippath-188)"><path d="m1615.88,455.55c.98.13,1.08.23,1.21,1.18.13-.95.23-1.05,1.21-1.18-.98-.13-1.08-.22-1.21-1.18-.13.95-.23,1.05-1.21,1.18Z" fill="#fff" stroke-width="0"/></g><g clip-path="url(#clippath-189)"><path d="m1754.15,630.3c.98.13,1.08.22,1.21,1.18.13-.95.23-1.05,1.21-1.18-.98-.13-1.08-.23-1.21-1.18-.13.95-.23,1.05-1.21,1.18Z" fill="#fff" stroke-width="0"/></g><g clip-path="url(#clippath-190)"><path d="m1613.38,611.47c.98.13,1.08.22,1.21,1.18.13-.95.23-1.05,1.21-1.18-.98-.13-1.08-.23-1.21-1.18-.13.95-.23,1.05-1.21,1.18Z" fill="#fff" stroke-width="0"/></g><g clip-path="url(#clippath-191)"><path d="m1723.32,300.56c.98.13,1.08.22,1.21,1.18.13-.95.23-1.05,1.21-1.18-.98-.13-1.08-.23-1.21-1.18-.13.95-.23,1.05-1.21,1.18Z" fill="#fff" stroke-width="0"/></g><g clip-path="url(#clippath-192)"><path d="m1638.8,297.36c.98.13,1.08.23,1.21,1.18.13-.95.23-1.05,1.21-1.18-.98-.13-1.08-.22-1.21-1.18-.13.95-.23,1.05-1.21,1.18Z" fill="#fff" stroke-width="0"/></g><g clip-path="url(#clippath-193)"><path d="m1767.45,8.7c.98.13,1.08.22,1.21,1.18.13-.95.23-1.05,1.21-1.18-.98-.13-1.08-.22-1.21-1.18-.13.95-.23,1.05-1.21,1.18Z" fill="#fff" stroke-width="0"/></g><g clip-path="url(#clippath-194)"><path d="m1860.45,68.94c.98.13,1.08.22,1.21,1.18.13-.95.23-1.05,1.21-1.18-.98-.13-1.08-.22-1.21-1.18-.13.95-.23,1.05-1.21,1.18Z" fill="#fff" stroke-width="0"/></g><g clip-path="url(#clippath-195)"><path d="m1855.04,143.98c.98.13,1.08.22,1.21,1.18.13-.95.23-1.05,1.21-1.18-.98-.13-1.08-.23-1.21-1.18-.13.95-.23,1.05-1.21,1.18Z" fill="#fff" stroke-width="0"/></g><g clip-path="url(#clippath-196)"><path d="m1734.43,299c.98.13,1.08.23,1.21,1.18.13-.95.23-1.05,1.21-1.18-.98-.13-1.08-.22-1.21-1.18-.13.95-.23,1.05-1.21,1.18Z" fill="#fff" stroke-width="0"/></g><g clip-path="url(#clippath-197)"><path d="m1661.67,240.9c.98.13,1.08.22,1.21,1.18.13-.95.23-1.05,1.21-1.18-.98-.13-1.08-.23-1.21-1.18-.13.95-.23,1.05-1.21,1.18Z" fill="#fff" stroke-width="0"/></g><g clip-path="url(#clippath-198)"><path d="m1597.48,213.73c.98.13,1.08.22,1.21,1.18.13-.95.23-1.05,1.21-1.18-.98-.13-1.08-.23-1.21-1.18-.13.95-.23,1.05-1.21,1.18Z" fill="#fff" stroke-width="0"/></g><g clip-path="url(#clippath-199)"><path d="m1728.3,688.49c.98.13,1.08.23,1.21,1.18.13-.95.23-1.05,1.21-1.18-.98-.13-1.08-.22-1.21-1.18-.13.95-.23,1.05-1.21,1.18Z" fill="#fff" stroke-width="0"/></g><g clip-path="url(#clippath-200)"><path d="m1799.4,608.38c.98.13,1.08.22,1.21,1.18.13-.95.23-1.05,1.21-1.18-.98-.13-1.08-.23-1.21-1.18-.13.95-.23,1.05-1.21,1.18Z" fill="#fff" stroke-width="0"/></g><g clip-path="url(#clippath-201)"><path d="m1672.26,474.94c.98.13,1.08.22,1.21,1.18.13-.95.23-1.05,1.21-1.18-.98-.13-1.08-.23-1.21-1.18-.13.95-.23,1.05-1.21,1.18Z" fill="#fff" stroke-width="0"/></g><g clip-path="url(#clippath-202)"><path d="m1818.54,469.67c.98.13,1.08.22,1.21,1.18.13-.95.23-1.05,1.21-1.18-.98-.13-1.08-.23-1.21-1.18-.13.95-.23,1.05-1.21,1.18Z" fill="#fff" stroke-width="0"/></g><g clip-path="url(#clippath-203)"><path d="m1854.21,416.14c.98.13,1.08.23,1.21,1.18.13-.95.23-1.05,1.21-1.18-.98-.13-1.08-.22-1.21-1.18-.13.95-.23,1.05-1.21,1.18Z" fill="#fff" stroke-width="0"/></g><g clip-path="url(#clippath-204)"><path d="m1886.99,632.39c.98.13,1.08.22,1.21,1.18.13-.95.23-1.05,1.21-1.18-.98-.13-1.08-.23-1.21-1.18-.13.95-.23,1.05-1.21,1.18Z" fill="#fff" stroke-width="0"/></g><g clip-path="url(#clippath-205)"><path d="m1803.69,63.69c.98.13,1.08.22,1.21,1.18.13-.95.23-1.05,1.21-1.18-.98-.13-1.08-.22-1.21-1.18-.13.95-.23,1.05-1.21,1.18Z" fill="#fff" stroke-width="0"/></g><g clip-path="url(#clippath-206)"><path d="m1583.54,162.66c.98.13,1.08.23,1.21,1.18.13-.95.23-1.05,1.21-1.18-.98-.13-1.08-.22-1.21-1.18-.13.95-.23,1.05-1.21,1.18Z" fill="#fff" stroke-width="0"/></g><g clip-path="url(#clippath-207)"><path d="m1774.94,221.72c.98.13,1.08.23,1.21,1.18.13-.95.23-1.05,1.21-1.18-.98-.13-1.08-.22-1.21-1.18-.13.95-.23,1.05-1.21,1.18Z" fill="#fff" stroke-width="0"/></g><g clip-path="url(#clippath-208)"><path d="m1769.16,122.56c.98.13,1.08.22,1.21,1.18.13-.95.23-1.05,1.21-1.18-.98-.13-1.08-.23-1.21-1.18-.13.95-.23,1.05-1.21,1.18Z" fill="#fff" stroke-width="0"/></g><g clip-path="url(#clippath-209)"><path d="m1798.49,129.42c.98.13,1.08.22,1.21,1.18.13-.95.23-1.05,1.21-1.18-.98-.13-1.08-.23-1.21-1.18-.13.95-.23,1.05-1.21,1.18Z" fill="#fff" stroke-width="0"/></g><g clip-path="url(#clippath-210)"><path d="m1741.86,174.87c.98.13,1.08.23,1.21,1.18.13-.95.23-1.05,1.21-1.18-.98-.13-1.08-.22-1.21-1.18-.13.95-.23,1.05-1.21,1.18Z" fill="#fff" stroke-width="0"/></g><g clip-path="url(#clippath-211)"><path d="m1273.04,41.53c.98.13,1.08.22,1.21,1.18.13-.95.23-1.05,1.21-1.18-.98-.13-1.08-.22-1.21-1.18-.13.95-.23,1.05-1.21,1.18Z" fill="#fff" stroke-width="0"/></g><g clip-path="url(#clippath-212)"><path d="m1270.28,173.59c.98.13,1.08.22,1.21,1.18.13-.95.23-1.05,1.21-1.18-.98-.13-1.08-.23-1.21-1.18-.13.95-.23,1.05-1.21,1.18Z" fill="#fff" stroke-width="0"/></g><g clip-path="url(#clippath-213)"><path d="m1439.71,313.54c.98.13,1.08.22,1.21,1.18.13-.95.23-1.05,1.21-1.18-.98-.13-1.08-.23-1.21-1.18-.13.95-.23,1.05-1.21,1.18Z" fill="#fff" stroke-width="0"/></g><g clip-path="url(#clippath-214)"><path d="m1491.57,26.05c.98.13,1.08.22,1.21,1.18.13-.95.23-1.05,1.21-1.18-.98-.13-1.08-.22-1.21-1.18-.13.95-.23,1.05-1.21,1.18Z" fill="#fff" stroke-width="0"/></g><g clip-path="url(#clippath-215)"><path d="m1409.06,1.59c.98.13,1.08.22,1.21,1.18.13-.95.23-1.05,1.21-1.18-.98-.13-1.08-.22-1.21-1.18-.13.95-.23,1.05-1.21,1.18Z" fill="#fff" stroke-width="0"/></g><g clip-path="url(#clippath-216)"><path d="m1329.54,70.57c.98.13,1.08.22,1.21,1.18.13-.95.23-1.05,1.21-1.18-.98-.13-1.08-.22-1.21-1.18-.13.95-.23,1.05-1.21,1.18Z" fill="#fff" stroke-width="0"/></g><g clip-path="url(#clippath-217)"><path d="m1311.17,109.2c.98.13,1.08.23,1.21,1.18.13-.95.23-1.05,1.21-1.18-.98-.13-1.08-.22-1.21-1.18-.13.95-.23,1.05-1.21,1.18Z" fill="#fff" stroke-width="0"/></g><g clip-path="url(#clippath-218)"><path d="m1235.38.32c.98.13,1.08.22,1.21,1.18.13-.95.23-1.05,1.21-1.18-.98-.13-1.08-.22-1.21-1.18-.13.95-.23,1.05-1.21,1.18Z" fill="#fff" stroke-width="0"/></g><g clip-path="url(#clippath-219)"><path d="m1537.43,8.11c.98.13,1.08.22,1.21,1.18.13-.95.23-1.05,1.21-1.18-.98-.13-1.08-.22-1.21-1.18-.13.95-.23,1.05-1.21,1.18Z" fill="#fff" stroke-width="0"/></g><g clip-path="url(#clippath-220)"><path d="m1451,226.37c.98.13,1.08.23,1.21,1.18.13-.95.23-1.05,1.21-1.18-.98-.13-1.08-.22-1.21-1.18-.13.95-.23,1.05-1.21,1.18Z" fill="#fff" stroke-width="0"/></g><g clip-path="url(#clippath-221)"><path d="m1214.59,123.15c.98.13,1.08.22,1.21,1.18.13-.95.23-1.05,1.21-1.18-.98-.13-1.08-.23-1.21-1.18-.13.95-.23,1.05-1.21,1.18Z" fill="#fff" stroke-width="0"/></g><g clip-path="url(#clippath-222)"><path d="m1445.73,49.17c.98.13,1.08.22,1.21,1.18.13-.95.23-1.05,1.21-1.18-.98-.13-1.08-.22-1.21-1.18-.13.95-.23,1.05-1.21,1.18Z" fill="#fff" stroke-width="0"/></g><g clip-path="url(#clippath-223)"><path d="m1568.72,46.46c.98.13,1.08.22,1.21,1.18.13-.95.23-1.05,1.21-1.18-.98-.13-1.08-.22-1.21-1.18-.13.95-.23,1.05-1.21,1.18Z" fill="#fff" stroke-width="0"/></g><g clip-path="url(#clippath-224)"><path d="m1252.14,101.83c.98.13,1.08.22,1.21,1.18.13-.95.23-1.05,1.21-1.18-.98-.13-1.08-.23-1.21-1.18-.13.95-.23,1.05-1.21,1.18Z" fill="#fff" stroke-width="0"/></g><g clip-path="url(#clippath-225)"><path d="m1400.79,182.17c.98.13,1.08.22,1.21,1.18.13-.95.23-1.05,1.21-1.18-.98-.13-1.08-.23-1.21-1.18-.13.95-.23,1.05-1.21,1.18Z" fill="#fff" stroke-width="0"/></g><g clip-path="url(#clippath-226)"><path d="m1225.88,82.18c.98.13,1.08.22,1.21,1.18.13-.95.23-1.05,1.21-1.18-.98-.13-1.08-.22-1.21-1.18-.13.95-.23,1.05-1.21,1.18Z" fill="#fff" stroke-width="0"/></g><g clip-path="url(#clippath-227)"><path d="m1168.76,50.69c.98.13,1.08.22,1.21,1.18.13-.95.23-1.05,1.21-1.18-.98-.13-1.08-.22-1.21-1.18-.13.95-.23,1.05-1.21,1.18Z" fill="#fff" stroke-width="0"/></g><g clip-path="url(#clippath-228)"><path d="m1174.8,54.66c.98.13,1.08.22,1.21,1.18.13-.95.23-1.05,1.21-1.18-.98-.13-1.08-.22-1.21-1.18-.13.95-.23,1.05-1.21,1.18Z" fill="#fff" stroke-width="0"/></g><g clip-path="url(#clippath-229)"><path d="m1328.83,380.99c.98.13,1.08.22,1.21,1.18.13-.95.23-1.05,1.21-1.18-.98-.13-1.08-.23-1.21-1.18-.13.95-.23,1.05-1.21,1.18Z" fill="#fff" stroke-width="0"/></g><g clip-path="url(#clippath-230)"><path d="m1295.5,368.85c.98.13,1.08.22,1.21,1.18.13-.95.23-1.05,1.21-1.18-.98-.13-1.08-.23-1.21-1.18-.13.95-.23,1.05-1.21,1.18Z" fill="#fff" stroke-width="0"/></g><g clip-path="url(#clippath-231)"><path d="m1504.9,552.97c.98.13,1.08.23,1.21,1.18.13-.95.23-1.05,1.21-1.18-.98-.13-1.08-.22-1.21-1.18-.13.95-.23,1.05-1.21,1.18Z" fill="#fff" stroke-width="0"/></g><g clip-path="url(#clippath-232)"><path d="m1204.06,460.89c.98.13,1.08.23,1.21,1.18.13-.95.23-1.05,1.21-1.18-.98-.13-1.08-.22-1.21-1.18-.13.95-.23,1.05-1.21,1.18Z" fill="#fff" stroke-width="0"/></g><g clip-path="url(#clippath-233)"><path d="m1342.33,635.64c.98.13,1.08.22,1.21,1.18.13-.95.23-1.05,1.21-1.18-.98-.13-1.08-.23-1.21-1.18-.13.95-.23,1.05-1.21,1.18Z" fill="#fff" stroke-width="0"/></g><g clip-path="url(#clippath-234)"><path d="m1201.57,616.81c.98.13,1.08.22,1.21,1.18.13-.95.23-1.05,1.21-1.18-.98-.13-1.08-.23-1.21-1.18-.13.95-.23,1.05-1.21,1.18Z" fill="#fff" stroke-width="0"/></g><g clip-path="url(#clippath-235)"><path d="m1311.5,305.89c.98.13,1.08.22,1.21,1.18.13-.95.23-1.05,1.21-1.18-.98-.13-1.08-.23-1.21-1.18-.13.95-.23,1.05-1.21,1.18Z" fill="#fff" stroke-width="0"/></g><g clip-path="url(#clippath-236)"><path d="m1246.19,254.68c.98.13,1.08.23,1.21,1.18.13-.95.23-1.05,1.21-1.18-.98-.13-1.08-.22-1.21-1.18-.13.95-.23,1.05-1.21,1.18Z" fill="#fff" stroke-width="0"/></g><g clip-path="url(#clippath-237)"><path d="m1355.63,14.04c.98.13,1.08.22,1.21,1.18.13-.95.23-1.05,1.21-1.18-.98-.13-1.08-.22-1.21-1.18-.13.95-.23,1.05-1.21,1.18Z" fill="#fff" stroke-width="0"/></g><g clip-path="url(#clippath-238)"><path d="m1448.63,74.27c.98.13,1.08.22,1.21,1.18.13-.95.23-1.05,1.21-1.18-.98-.13-1.08-.22-1.21-1.18-.13.95-.23,1.05-1.21,1.18Z" fill="#fff" stroke-width="0"/></g><g clip-path="url(#clippath-239)"><path d="m1443.22,149.31c.98.13,1.08.22,1.21,1.18.13-.95.23-1.05,1.21-1.18-.98-.13-1.08-.23-1.21-1.18-.13.95-.23,1.05-1.21,1.18Z" fill="#fff" stroke-width="0"/></g><g clip-path="url(#clippath-240)"><path d="m1518.39,180.41c.98.13,1.08.23,1.21,1.18.13-.95.23-1.05,1.21-1.18-.98-.13-1.08-.22-1.21-1.18-.13.95-.23,1.05-1.21,1.18Z" fill="#fff" stroke-width="0"/></g><g clip-path="url(#clippath-241)"><path d="m1547.06,142.8c.98.13,1.08.23,1.21,1.18.13-.95.23-1.05,1.21-1.18-.98-.13-1.08-.22-1.21-1.18-.13.95-.23,1.05-1.21,1.18Z" fill="#fff" stroke-width="0"/></g><g clip-path="url(#clippath-242)"><path d="m1571.96,122.53c.98.13,1.08.23,1.21,1.18.13-.95.23-1.05,1.21-1.18-.98-.13-1.08-.22-1.21-1.18-.13.95-.23,1.05-1.21,1.18Z" fill="#fff" stroke-width="0"/></g><g clip-path="url(#clippath-243)"><path d="m1523.96,378.14c.98.13,1.08.23,1.21,1.18.13-.95.23-1.05,1.21-1.18-.98-.13-1.08-.22-1.21-1.18-.13.95-.23,1.05-1.21,1.18Z" fill="#fff" stroke-width="0"/></g><g clip-path="url(#clippath-244)"><path d="m1322.61,304.34c.98.13,1.08.23,1.21,1.18.13-.95.23-1.05,1.21-1.18-.98-.13-1.08-.22-1.21-1.18-.13.95-.23,1.05-1.21,1.18Z" fill="#fff" stroke-width="0"/></g><g clip-path="url(#clippath-245)"><path d="m1358.68,183.29c.98.13,1.08.22,1.21,1.18.13-.95.23-1.05,1.21-1.18-.98-.13-1.08-.23-1.21-1.18-.13.95-.23,1.05-1.21,1.18Z" fill="#fff" stroke-width="0"/></g><g clip-path="url(#clippath-246)"><path d="m1234.74,238.27c.98.13,1.08.22,1.21,1.18.13-.95.23-1.05,1.21-1.18-.98-.13-1.08-.23-1.21-1.18-.13.95-.23,1.05-1.21,1.18Z" fill="#fff" stroke-width="0"/></g><g clip-path="url(#clippath-247)"><path d="m1316.49,693.82c.98.13,1.08.23,1.21,1.18.13-.95.23-1.05,1.21-1.18-.98-.13-1.08-.22-1.21-1.18-.13.95-.23,1.05-1.21,1.18Z" fill="#fff" stroke-width="0"/></g><g clip-path="url(#clippath-248)"><path d="m1524.46,691.23c.98.13,1.08.22,1.21,1.18.13-.95.23-1.05,1.21-1.18-.98-.13-1.08-.23-1.21-1.18-.13.95-.23,1.05-1.21,1.18Z" fill="#fff" stroke-width="0"/></g><g clip-path="url(#clippath-249)"><path d="m1387.58,613.71c.98.13,1.08.22,1.21,1.18.13-.95.23-1.05,1.21-1.18-.98-.13-1.08-.23-1.21-1.18-.13.95-.23,1.05-1.21,1.18Z" fill="#fff" stroke-width="0"/></g><g clip-path="url(#clippath-250)"><path d="m1260.45,480.28c.98.13,1.08.22,1.21,1.18.13-.95.23-1.05,1.21-1.18-.98-.13-1.08-.23-1.21-1.18-.13.95-.23,1.05-1.21,1.18Z" fill="#fff" stroke-width="0"/></g><g clip-path="url(#clippath-251)"><path d="m1406.73,475c.98.13,1.08.22,1.21,1.18.13-.95.23-1.05,1.21-1.18-.98-.13-1.08-.23-1.21-1.18-.13.95-.23,1.05-1.21,1.18Z" fill="#fff" stroke-width="0"/></g><g clip-path="url(#clippath-252)"><path d="m1568.2,470.97c.98.13,1.08.22,1.21,1.18.13-.95.23-1.05,1.21-1.18-.98-.13-1.08-.23-1.21-1.18-.13.95-.23,1.05-1.21,1.18Z" fill="#fff" stroke-width="0"/></g><g clip-path="url(#clippath-253)"><path d="m1442.39,421.47c.98.13,1.08.23,1.21,1.18.13-.95.23-1.05,1.21-1.18-.98-.13-1.08-.22-1.21-1.18-.13.95-.23,1.05-1.21,1.18Z" fill="#fff" stroke-width="0"/></g><g clip-path="url(#clippath-254)"><path d="m1475.17,637.73c.98.13,1.08.22,1.21,1.18.13-.95.23-1.05,1.21-1.18-.98-.13-1.08-.23-1.21-1.18-.13.95-.23,1.05-1.21,1.18Z" fill="#fff" stroke-width="0"/></g><g clip-path="url(#clippath-255)"><path d="m1391.88,69.02c.98.13,1.08.22,1.21,1.18.13-.95.23-1.05,1.21-1.18-.98-.13-1.08-.22-1.21-1.18-.13.95-.23,1.05-1.21,1.18Z" fill="#fff" stroke-width="0"/></g><g clip-path="url(#clippath-256)"><path d="m1171.72,167.99c.98.13,1.08.23,1.21,1.18.13-.95.23-1.05,1.21-1.18-.98-.13-1.08-.22-1.21-1.18-.13.95-.23,1.05-1.21,1.18Z" fill="#fff" stroke-width="0"/></g><g clip-path="url(#clippath-257)"><path d="m1363.13,227.05c.98.13,1.08.23,1.21,1.18.13-.95.23-1.05,1.21-1.18-.98-.13-1.08-.22-1.21-1.18-.13.95-.23,1.05-1.21,1.18Z" fill="#fff" stroke-width="0"/></g><g clip-path="url(#clippath-258)"><path d="m1357.34,127.89c.98.13,1.08.22,1.21,1.18.13-.95.23-1.05,1.21-1.18-.98-.13-1.08-.23-1.21-1.18-.13.95-.23,1.05-1.21,1.18Z" fill="#fff" stroke-width="0"/></g><g clip-path="url(#clippath-259)"><path d="m1539.53,272.15c.98.13,1.08.22,1.21,1.18.13-.95.23-1.05,1.21-1.18-.98-.13-1.08-.23-1.21-1.18-.13.95-.23,1.05-1.21,1.18Z" fill="#fff" stroke-width="0"/></g><g clip-path="url(#clippath-260)"><path d="m1514.91,66.62c.98.13,1.08.22,1.21,1.18.13-.95.23-1.05,1.21-1.18-.98-.13-1.08-.22-1.21-1.18-.13.95-.23,1.05-1.21,1.18Z" fill="#fff" stroke-width="0"/></g><g clip-path="url(#clippath-261)"><path d="m1386.67,134.75c.98.13,1.08.22,1.21,1.18.13-.95.23-1.05,1.21-1.18-.98-.13-1.08-.23-1.21-1.18-.13.95-.23,1.05-1.21,1.18Z" fill="#fff" stroke-width="0"/></g><g clip-path="url(#clippath-262)"><path d="m1330.04,180.2c.98.13,1.08.23,1.21,1.18.13-.95.23-1.05,1.21-1.18-.98-.13-1.08-.22-1.21-1.18-.13.95-.23,1.05-1.21,1.18Z" fill="#fff" stroke-width="0"/></g></g></svg>