<?xml version="1.0" encoding="UTF-8"?><svg id="Lag_1" xmlns="http://www.w3.org/2000/svg" width="486.94" height="238.2" xmlns:xlink="http://www.w3.org/1999/xlink" viewBox="0 0 486.94 238.2"><defs><clipPath id="clippath"><rect x="-.45" width="487" height="238.47" rx="20" ry="20" fill="none" stroke-width="0"/></clipPath></defs><g clip-path="url(#clippath)"><path d="m-12.33,105.2c8.76,14.68,25.31,22.93,42.41,21.14l31.68-3.32c17.22-1.8,33.88,6.59,42.58,21.44l12.55,21.43c8.65,14.76,25.16,23.15,42.29,21.47l33.58-3.29c16.76-1.64,32.96,6.35,41.76,20.6l15.09,24.44c8.97,14.53,25.62,22.53,42.67,20.5l30-3.56c17.05-2.02,33.7,5.98,42.67,20.5l14.76,23.9c8.97,14.53,25.62,22.53,42.67,20.5l53.86-6.39,28.69-92.47-55.14,14.68c-16.22,4.32-33.47-1.17-44.21-14.08l-17.67-21.23c-10.74-12.9-27.99-18.39-44.21-14.07l-28.54,7.6c-16.22,4.32-33.47-1.17-44.21-14.08l-18.07-21.71c-10.53-12.65-27.35-18.2-43.35-14.3l-32.05,7.83c-16.35,3.99-33.52-1.89-43.98-15.07l-15.18-19.13c-10.53-13.26-27.84-19.13-44.26-15l-30.21,7.59c-16.3,4.1-33.49-1.66-44.05-14.74l-33.41-41.41-5,16.12,26.29,44.08Z" fill="#241e3c" opacity=".2" stroke-width="0"/><path d="m-33.53,135.02c5.15,16.3,19.37,28.13,36.42,30.31l31.6,4.04c17.18,2.2,31.47,14.18,36.53,30.64l7.3,23.74c5.03,16.35,19.18,28.3,36.23,30.6l33.44,4.51c16.69,2.25,30.63,13.75,35.92,29.63l9.08,27.25c5.4,16.2,19.77,27.8,36.83,29.75l30.02,3.42c17.06,1.94,31.43,13.55,36.83,29.74l8.88,26.65c5.4,16.2,19.77,27.8,36.83,29.75l53.89,6.14,49.15-83.42-57.04,1.64c-16.78.48-32.31-8.82-39.8-23.85l-12.33-24.72c-7.49-15.02-23.02-24.33-39.8-23.84l-29.53.85c-16.78.48-32.31-8.82-39.8-23.84l-12.61-25.28c-7.35-14.73-22.45-23.99-38.91-23.86l-32.99.26c-16.82.13-32.19-9.54-39.35-24.76l-10.39-22.1c-7.2-15.32-22.71-25.01-39.64-24.76l-31.14.46c-16.81.25-32.22-9.3-39.49-24.45l-23.02-47.98-8.57,14.54,15.47,48.93Z" fill="#241e3c" opacity=".2" stroke-width="0"/></g></svg>