<?xml version="1.0" encoding="utf-8"?>
<!-- Generator: Adobe Illustrator 28.0.0, SVG Export Plug-In . SVG Version: 6.00 Build 0)  -->
<svg version="1.1" id="Lag_1" xmlns="http://www.w3.org/2000/svg" xmlns:xlink="http://www.w3.org/1999/xlink" x="0px" y="0px"
	 viewBox="0 0 425.2 283.46" style="enable-background:new 0 0 425.2 283.46;" xml:space="preserve">
<style type="text/css">
	.st0{fill:#433872;}
	.st1{fill:none;stroke:#31274F;stroke-width:5;stroke-linecap:round;stroke-linejoin:round;}
	.st2{fill:#31274F;}
</style>
<path class="st0" d="M387.42,254.25c0.93-4.7-0.46-11.09,0.31-15.56c2.17-11.86,10.13-20.34,14.93-31.04
	c10.36-22.88,9.43-54.69-2.32-76.88c-4.18-7.78-9.82-14.87-17.17-19.8c-17.48-11.71-42.92-6.01-61.95-1.69
	c-12.53,2.77-24.83,7.7-34.34,16.25c-8.82,8.01-15,18.95-15.85,30.81c-0.39,5.01,1.93,10.63,0.93,15.56
	c-1.47,6.86-8.12,14.64-12.22,20.26c-3.4,4.7-4.25,7.4,0.93,10.32c0,0,1.93,1.08,4.64,2.31c0,0,0.93,2.46,1.01,4.93
	c0.08,1.77-0.31,3.24-0.77,4.93c-0.62,2.31-1.01,3.39-1.01,3.39c-0.54,1.46-0.93,2-0.77,2.85c0.23,1.08,1.16,1.77,1.55,2.08
	c1.16,0.85,2.32,0.92,3.63,1c1.78,0.15,3.09-0.15,3.09,0c0.08,0.23-5.1,0.31-6.19,2.85c-0.7,1.54,0.31,3.77,1.31,4.93
	c0.62,0.69,1.47,1.23,3.09,2.31c1.62,1.08,2.09,1.16,2.32,1.77c0.15,0.39,0.15,1-1.01,3.39c-0.77,1.39-1.93,2.62-2.17,4.31
	c-0.15,1.46,0.46,2.85,1.31,4.01c1.24,1.62,3.02,2.85,4.8,3.85c3.09,1.62,6.11,1.46,9.51,1.08c2.94-0.31,5.8-0.85,8.74-1.23
	c7.42-1.16,15.62-4.16,21.5,2.93c4.18,5.08,10.18,37.69,18.14,38.31c10.75,0.85,33.92-7.24,37.04-11.46
	c7.58-1.23,11.02-16.37,15.66-23.46C386.8,256.48,387.19,255.41,387.42,254.25z"/>
<path class="st1" d="M284.37,175.75c3.09,3.31,9.13,5.32,13.69,5.32c4.56,0,8.28-2.08,11.29-5.39"/>
<g>
	<g>
		<path class="st2" d="M248.4,226.08c-5.94-4.76-14.18-5.05-21.33-3.42c-3.87,0.88-7.66,2.39-10.78,4.9
			c-2.84,2.3-4.79,5.45-6.3,8.73c-1.55,3.35-2.75,6.87-4.59,10.09c-1.78,3.11-4.26,5.74-7.18,7.8c-6.08,4.27-13.6,6.35-20.98,6.48
			c-10.15,0.18-19.97-3-29.16-7.05c-1.46-0.64-2.73,1.51-1.26,2.16c14.92,6.58,31.96,10.72,47.47,3.54
			c6.66-3.08,11.75-8.03,14.82-14.7c1.51-3.29,2.69-6.73,4.48-9.88c1.92-3.36,4.58-5.93,8.08-7.63c4.01-1.94,8.65-2.85,13.09-2.84
			c4.17,0.01,8.56,0.92,11.89,3.58C247.88,228.84,249.66,227.08,248.4,226.08L248.4,226.08z"/>
	</g>
</g>
</svg>
