<?xml version="1.0" encoding="utf-8"?>
<!-- Generator: Adobe Illustrator 28.0.0, SVG Export Plug-In . SVG Version: 6.00 Build 0)  -->
<svg version="1.1" id="Lag_1" xmlns="http://www.w3.org/2000/svg" xmlns:xlink="http://www.w3.org/1999/xlink" x="0px" y="0px"
	 viewBox="0 0 425.2 283.46" style="enable-background:new 0 0 425.2 283.46;" xml:space="preserve">
<style type="text/css">
	.st0{fill:#433872;}
	.st1{fill:none;stroke:#31274F;stroke-width:5;stroke-linecap:round;stroke-linejoin:round;}
	.st2{fill:#31274F;}
</style>
<path class="st0" d="M386.13,257.08c0.93-4.7-0.46-11.09,0.31-15.56c2.17-11.86,10.13-20.34,14.93-31.04
	c10.36-22.88,9.43-54.69-2.32-76.88c-4.18-7.78-9.82-14.87-17.17-19.8c-17.48-11.71-42.92-6.01-61.95-1.69
	c-12.53,2.77-24.83,7.7-34.34,16.25c-8.82,8.01-15,18.95-15.85,30.81c-0.39,5.01,1.93,10.63,0.93,15.56
	c-1.47,6.86-8.12,14.64-12.22,20.26c-3.4,4.7-4.25,7.4,0.93,10.32c0,0,1.93,1.08,4.64,2.31c0,0,0.93,2.46,1.01,4.93
	c0.08,1.77-0.31,3.24-0.77,4.93c-0.62,2.31-1.01,3.39-1.01,3.39c-0.54,1.46-0.93,2-0.77,2.85c0.23,1.08,1.16,1.77,1.55,2.08
	c1.16,0.85,2.32,0.92,3.63,1c1.78,0.15,3.09-0.15,3.09,0c0.08,0.23-5.1,0.31-6.19,2.85c-0.7,1.54,0.31,3.77,1.31,4.93
	c0.62,0.69,1.47,1.23,3.09,2.31c1.62,1.08,2.09,1.16,2.32,1.77c0.15,0.39,0.15,1-1.01,3.39c-0.77,1.39-1.93,2.62-2.17,4.31
	c-0.15,1.46,0.46,2.85,1.31,4.01c1.24,1.62,3.02,2.85,4.8,3.85c3.09,1.62,6.11,1.46,9.51,1.08c2.94-0.31,5.8-0.85,8.74-1.23
	c7.42-1.16,15.62-4.16,21.5,2.93c4.18,5.08,10.18,37.69,18.14,38.31c10.75,0.85,33.92-7.24,37.04-11.46
	c7.58-1.23,11.02-16.37,15.66-23.46C385.51,259.31,385.89,258.24,386.13,257.08z"/>
<path class="st1" d="M283.08,178.58c3.09,3.31,9.13,5.32,13.69,5.32c4.56,0,8.28-2.08,11.29-5.39"/>
<g>
	<g>
		<path class="st2" d="M248.86,214.44c-3,5.42-7.7,9.52-12.82,12.89c-5.3,3.49-11.05,6.69-17.16,8.49
			c-5.93,1.76-12.57,2.08-18.33-0.48c-5.19-2.31-9.47-7.28-9.9-13.1c-0.39-5.27,2.91-10.54,8.08-12.06
			c5.82-1.72,10.95,2.73,13.36,7.66c1.46,3,2.17,6.34,2.71,9.61c0.53,3.2,0.89,6.56,0.35,9.79c-1.07,6.36-6.18,10.52-11.52,13.53
			c-12,6.76-26.41,7.22-39.85,7.25c-1.61,0-1.61,2.5,0,2.5c13.39-0.03,27.54-0.58,39.7-6.84c5.84-3.01,11.88-7.48,13.71-14.11
			c0.97-3.49,0.81-7.18,0.33-10.73c-0.48-3.59-1.16-7.21-2.52-10.58c-2.3-5.68-7.3-11.12-13.9-10.98
			c-5.74,0.12-10.8,4.58-12.43,9.95c-1.8,5.94,0.81,12.48,5.18,16.61c4.92,4.66,12,6.29,18.61,5.72c8.09-0.69,15.58-4.42,22.42-8.58
			c6.38-3.88,12.46-8.67,16.13-15.31C251.8,214.29,249.64,213.03,248.86,214.44L248.86,214.44z"/>
	</g>
</g>
</svg>
