<?xml version="1.0" encoding="utf-8"?>
<!-- Generator: Adobe Illustrator 27.9.0, SVG Export Plug-In . SVG Version: 6.00 Build 0)  -->
<svg version="1.1" id="bg3" xmlns="http://www.w3.org/2000/svg" xmlns:xlink="http://www.w3.org/1999/xlink" x="0px" y="0px"
	 viewBox="0 0 265.2 239.6" style="enable-background:new 0 0 265.2 239.6;" xml:space="preserve">
<style type="text/css">
	.st0{fill:#FFFFFF;}
	.st1{clip-path:url(#SVGID_00000008828880898308487770000000358497507696017317_);}
	.st2{clip-path:url(#SVGID_00000108998012694908149600000003663999812670208929_);}
	.st3{fill:url(#SVGID_00000142133881285782314810000014154317355294907279_);}
	.st4{clip-path:url(#SVGID_00000182504481443715749710000004241067597423840688_);}
	.st5{fill:#433770;}
	.st6{fill:#1C172F;}
	.st7{fill:#54458C;}
	.st8{fill:none;}
</style>
<symbol  id="Star" viewBox="-1.7 -1.7 3.4 3.4">
	<path class="st0" d="M1.7,0C0.3,0.2,0.2,0.3,0,1.7C-0.2,0.3-0.3,0.2-1.7,0C-0.3-0.2-0.2-0.3,0-1.7C0.2-0.3,0.3-0.2,1.7,0z"/>
</symbol>
<g>
	<defs>
		<rect id="SVGID_1_" width="265.2" height="242"/>
	</defs>
	<clipPath id="SVGID_00000015331540423471423210000008482479658880454813_">
		<use xlink:href="#SVGID_1_"  style="overflow:visible;"/>
	</clipPath>
	<g style="clip-path:url(#SVGID_00000015331540423471423210000008482479658880454813_);">
		<g>
			<g>
				<defs>
					<path id="SVGID_00000065051926614575790370000016097130337700752572_" d="M-673.9-496.6h999c32.5,0,58.8,26.3,58.8,58.8v659.2
						c0,32.5-26.3,58.8-58.8,58.8h-999c-32.5,0-58.8-26.3-58.8-58.8v-659.2C-732.8-470.3-706.4-496.6-673.9-496.6z"/>
				</defs>
				<clipPath id="SVGID_00000021822370577455274600000008231940411680913040_">
					<use xlink:href="#SVGID_00000065051926614575790370000016097130337700752572_"  style="overflow:visible;"/>
				</clipPath>
				<g style="clip-path:url(#SVGID_00000021822370577455274600000008231940411680913040_);">
					<g>
						
							<linearGradient id="SVGID_00000143606090408058066260000001460929878248528556_" gradientUnits="userSpaceOnUse" x1="-92.13" y1="302.3298" x2="-92.13" y2="1331.7598" gradientTransform="matrix(1 0 0 -1 0 815.3698)">
							<stop  offset="8.000000e-02" style="stop-color:#54458C"/>
							<stop  offset="0.21" style="stop-color:#54458C"/>
							<stop  offset="0.34" style="stop-color:#433770"/>
							<stop  offset="0.6" style="stop-color:#30274F"/>
						</linearGradient>
						<path style="fill:url(#SVGID_00000143606090408058066260000001460929878248528556_);" d="M-1087.6-516.4H903.3
							c6.6,0,12,5.4,12,12V501c0,6.6-5.4,12-12,12h-1990.9c-6.6,0-12-5.4-12-12V-504.4C-1099.6-511-1094.2-516.4-1087.6-516.4z"/>
						<g>
							<defs>
								
									<rect id="SVGID_00000155861622896390406170000000590774236956508072_" x="-1296.3" y="-531.2" width="2831.1" height="908.6"/>
							</defs>
							<clipPath id="SVGID_00000159448697223817032730000003814079189086436486_">
								<use xlink:href="#SVGID_00000155861622896390406170000000590774236956508072_"  style="overflow:visible;"/>
							</clipPath>
							<g style="clip-path:url(#SVGID_00000159448697223817032730000003814079189086436486_);">
								<g>
									
										<use xlink:href="#Star"  width="3.4" height="3.4" x="-1.7" y="-1.7" transform="matrix(1.47 0 0 0.84 -1397.1105 -405.7888)" style="overflow:visible;"/>
									
										<use xlink:href="#Star"  width="3.4" height="3.4" x="-1.7" y="-1.7" transform="matrix(1.47 0 0 0.84 -1389.3804 -401.7688)" style="overflow:visible;"/>
									
										<use xlink:href="#Star"  width="3.4" height="3.4" x="-1.7" y="-1.7" transform="matrix(1.47 0 0 0.84 -1381.6804 -405.8388)" style="overflow:visible;"/>
									
										<use xlink:href="#Star"  width="3.4" height="3.4" x="-1.7" y="-1.7" transform="matrix(1.47 0 0 0.84 -1097.6504 -481.9188)" style="overflow:visible;"/>
									
										<use xlink:href="#Star"  width="3.4" height="3.4" x="-1.7" y="-1.7" transform="matrix(1.47 0 0 0.84 -841.9904 -525.1188)" style="overflow:visible;"/>
									
										<use xlink:href="#Star"  width="3.4" height="3.4" x="-1.7" y="-1.7" transform="matrix(1.47 0 0 0.84 -748.8704 -534.8488)" style="overflow:visible;"/>
									
										<use xlink:href="#Star"  width="3.4" height="3.4" x="-1.7" y="-1.7" transform="matrix(1.47 0 0 0.84 -1339.2405 -171.9988)" style="overflow:visible;"/>
									
										<use xlink:href="#Star"  width="3.4" height="3.4" x="-1.7" y="-1.7" transform="matrix(1.47 0 0 0.84 -1487.4705 -62.9488)" style="overflow:visible;"/>
									
										<use xlink:href="#Star"  width="3.4" height="3.4" x="-1.7" y="-1.7" transform="matrix(1.47 0 0 0.84 -1302.4304 -114.0288)" style="overflow:visible;"/>
									
										<use xlink:href="#Star"  width="3.4" height="3.4" x="-1.7" y="-1.7" transform="matrix(1.47 0 0 0.84 437.2496 -600.3388)" style="overflow:visible;"/>
									
										<use xlink:href="#Star"  width="3.4" height="3.4" x="-1.7" y="-1.7" transform="matrix(1.47 0 0 0.84 658.9396 -628.8488)" style="overflow:visible;"/>
									
										<use xlink:href="#Star"  width="3.4" height="3.4" x="-1.7" y="-1.7" transform="matrix(1.47 0 0 0.84 -134.2504 -428.8988)" style="overflow:visible;"/>
									
										<use xlink:href="#Star"  width="3.4" height="3.4" x="-1.7" y="-1.7" transform="matrix(1.47 0 0 0.84 -737.3405 -218.1288)" style="overflow:visible;"/>
									
										<use xlink:href="#Star"  width="3.4" height="3.4" x="-1.7" y="-1.7" transform="matrix(1.47 0 0 0.84 -893.5604 -129.9988)" style="overflow:visible;"/>
									
										<use xlink:href="#Star"  width="3.4" height="3.4" x="-1.7" y="-1.7" transform="matrix(1.47 0 0 0.84 -899.0604 -136.2288)" style="overflow:visible;"/>
									
										<use xlink:href="#Star"  width="3.4" height="3.4" x="-1.7" y="-1.7" transform="matrix(1.47 0 0 0.84 -541.4904 -283.8788)" style="overflow:visible;"/>
									
										<use xlink:href="#Star"  width="3.4" height="3.4" x="-1.7" y="-1.7" transform="matrix(1.47 0 0 0.84 -32.8204 -335.4588)" style="overflow:visible;"/>
									
										<use xlink:href="#Star"  width="3.4" height="3.4" x="-1.7" y="-1.7" transform="matrix(1.47 0 0 0.84 -61.4605 -310.6588)" style="overflow:visible;"/>
									
										<use xlink:href="#Star"  width="3.4" height="3.4" x="-1.7" y="-1.7" transform="matrix(1.47 0 0 0.84 -622.5104 -46.7488)" style="overflow:visible;"/>
									
										<use xlink:href="#Star"  width="3.4" height="3.4" x="-1.7" y="-1.7" transform="matrix(1.47 0 0 0.84 -871.1504 100.8512)" style="overflow:visible;"/>
									
										<use xlink:href="#Star"  width="3.4" height="3.4" x="-1.7" y="-1.7" transform="matrix(1.47 0 0 0.84 -876.8004 107.0912)" style="overflow:visible;"/>
									
										<use xlink:href="#Star"  width="3.4" height="3.4" x="-1.7" y="-1.7" transform="matrix(1.47 0 0 0.84 -179.2904 -323.3788)" style="overflow:visible;"/>
									
										<use xlink:href="#Star"  width="3.4" height="3.4" x="-1.7" y="-1.7" transform="matrix(1.47 0 0 0.84 119.2996 -442.1188)" style="overflow:visible;"/>
									
										<use xlink:href="#Star"  width="3.4" height="3.4" x="-1.7" y="-1.7" transform="matrix(1.47 0 0 0.84 199.9996 -448.1588)" style="overflow:visible;"/>
									
										<use xlink:href="#Star"  width="3.4" height="3.4" x="-1.7" y="-1.7" transform="matrix(1.47 0 0 0.84 -815.2104 121.8512)" style="overflow:visible;"/>
									
										<use xlink:href="#Star"  width="3.4" height="3.4" x="-1.7" y="-1.7" transform="matrix(1.47 0 0 0.84 -1091.4905 366.1912)" style="overflow:visible;"/>
									
										<use xlink:href="#Star"  width="3.4" height="3.4" x="-1.7" y="-1.7" transform="matrix(1.47 0 0 0.84 -1043.0105 341.8712)" style="overflow:visible;"/>
									
										<use xlink:href="#Star"  width="3.4" height="3.4" x="-1.7" y="-1.7" transform="matrix(1.47 0 0 0.84 115.0796 -160.5088)" style="overflow:visible;"/>
									
										<use xlink:href="#Star"  width="3.4" height="3.4" x="-1.7" y="-1.7" transform="matrix(1.47 0 0 0.84 848.7997 -381.7888)" style="overflow:visible;"/>
									
										<use xlink:href="#Star"  width="3.4" height="3.4" x="-1.7" y="-1.7" transform="matrix(1.47 0 0 0.84 544.1495 -285.4688)" style="overflow:visible;"/>
									
										<use xlink:href="#Star"  width="3.4" height="3.4" x="-1.7" y="-1.7" transform="matrix(1.47 0 0 0.84 -1012.1304 527.3712)" style="overflow:visible;"/>
									
										<use xlink:href="#Star"  width="3.4" height="3.4" x="-1.7" y="-1.7" transform="matrix(1.47 0 0 0.84 -1110.1604 649.5312)" style="overflow:visible;"/>
									
										<use xlink:href="#Star"  width="3.4" height="3.4" x="-1.7" y="-1.7" transform="matrix(1.47 0 0 0.84 -501.5905 388.0012)" style="overflow:visible;"/>
									
										<use xlink:href="#Star"  width="3.4" height="3.4" x="-1.7" y="-1.7" transform="matrix(1.47 0 0 0.84 902.5995 -405.3488)" style="overflow:visible;"/>
									
										<use xlink:href="#Star"  width="3.4" height="3.4" x="-1.7" y="-1.7" transform="matrix(1.47 0 0 0.84 1019.6796 -443.0888)" style="overflow:visible;"/>
									
										<use xlink:href="#Star"  width="3.4" height="3.4" x="-1.7" y="-1.7" transform="matrix(1.47 0 0 0.84 1007.2897 -438.3388)" style="overflow:visible;"/>
									
										<use xlink:href="#Star"  width="3.4" height="3.4" x="-1.7" y="-1.7" transform="matrix(1.47 0 0 0.84 -457.1604 269.2812)" style="overflow:visible;"/>
									
										<use xlink:href="#Star"  width="3.4" height="3.4" x="-1.7" y="-1.7" transform="matrix(1.47 0 0 0.84 -586.5004 375.0212)" style="overflow:visible;"/>
									
										<use xlink:href="#Star"  width="3.4" height="3.4" x="-1.7" y="-1.7" transform="matrix(1.47 0 0 0.84 -119.9404 173.7512)" style="overflow:visible;"/>
									
										<use xlink:href="#Star"  width="3.4" height="3.4" x="-1.7" y="-1.7" transform="matrix(1.47 0 0 0.84 691.6095 -47.1288)" style="overflow:visible;"/>
									
										<use xlink:href="#Star"  width="3.4" height="3.4" x="-1.7" y="-1.7" transform="matrix(1.47 0 0 0.84 759.9196 -61.6888)" style="overflow:visible;"/>
									
										<use xlink:href="#Star"  width="3.4" height="3.4" x="-1.7" y="-1.7" transform="matrix(1.47 0 0 0.84 -310.4504 286.9512)" style="overflow:visible;"/>
									
										<use xlink:href="#Star"  width="3.4" height="3.4" x="-1.7" y="-1.7" transform="matrix(1.47 0 0 0.84 -372.6105 322.4512)" style="overflow:visible;"/>
									
										<use xlink:href="#Star"  width="3.4" height="3.4" x="-1.7" y="-1.7" transform="matrix(1.47 0 0 0.84 330.7897 159.0412)" style="overflow:visible;"/>
									
										<use xlink:href="#Star"  width="3.4" height="3.4" x="-1.7" y="-1.7" transform="matrix(1.47 0 0 0.84 1095.1495 -36.1688)" style="overflow:visible;"/>
									
										<use xlink:href="#Star"  width="3.4" height="3.4" x="-1.7" y="-1.7" transform="matrix(1.47 0 0 0.84 1125.4696 -39.6288)" style="overflow:visible;"/>
									
										<use xlink:href="#Star"  width="3.4" height="3.4" x="-1.7" y="-1.7" transform="matrix(1.47 0 0 0.84 947.3197 48.6412)" style="overflow:visible;"/>
									
										<use xlink:href="#Star"  width="3.4" height="3.4" x="-1.7" y="-1.7" transform="matrix(1.47 0 0 0.84 663.9496 258.1412)" style="overflow:visible;"/>
									
										<use xlink:href="#Star"  width="3.4" height="3.4" x="-1.7" y="-1.7" transform="matrix(1.47 0 0 0.84 952.4396 235.5712)" style="overflow:visible;"/>
									
										<use xlink:href="#Star"  width="3.4" height="3.4" x="-1.7" y="-1.7" transform="matrix(1.47 0 0 0.84 1449.5995 101.1612)" style="overflow:visible;"/>
									
										<use xlink:href="#Star"  width="3.4" height="3.4" x="-1.7" y="-1.7" transform="matrix(1.47 0 0 0.84 1463.3295 101.1512)" style="overflow:visible;"/>
									
										<use xlink:href="#Star"  width="3.4" height="3.4" x="-1.7" y="-1.7" transform="matrix(1.47 0 0 0.84 1116.4996 265.5512)" style="overflow:visible;"/>
									
										<use xlink:href="#Star"  width="3.4" height="3.4" x="-1.7" y="-1.7" transform="matrix(1.47 0 0 0.84 1061.7196 301.5912)" style="overflow:visible;"/>
									
										<use xlink:href="#Star"  width="3.4" height="3.4" x="-1.7" y="-1.7" transform="matrix(1.47 0 0 0.84 1132.0995 267.8112)" style="overflow:visible;"/>
									
										<use xlink:href="#Star"  width="3.4" height="3.4" x="-1.7" y="-1.7" transform="matrix(1.47 0 0 0.84 1463.7697 -25.3388)" style="overflow:visible;"/>
									
										<use xlink:href="#Star"  width="3.4" height="3.4" x="-1.7" y="-1.7" transform="matrix(1.47 0 0 0.84 1464.0597 -119.8288)" style="overflow:visible;"/>
									
										<use xlink:href="#Star"  width="3.4" height="3.4" x="-1.7" y="-1.7" transform="matrix(1.47 0 0 0.84 1149.2496 -173.8988)" style="overflow:visible;"/>
									
										<use xlink:href="#Star"  width="3.4" height="3.4" x="-1.7" y="-1.7" transform="matrix(1.47 0 0 0.84 727.1295 -137.1588)" style="overflow:visible;"/>
									
										<use xlink:href="#Star"  width="3.4" height="3.4" x="-1.7" y="-1.7" transform="matrix(1.47 0 0 0.84 860.9896 -198.5488)" style="overflow:visible;"/>
									
										<use xlink:href="#Star"  width="3.4" height="3.4" x="-1.7" y="-1.7" transform="matrix(1.47 0 0 0.84 1146.3695 -330.8588)" style="overflow:visible;"/>
									
										<use xlink:href="#Star"  width="3.4" height="3.4" x="-1.7" y="-1.7" transform="matrix(1.47 0 0 0.84 1164.2897 -347.8488)" style="overflow:visible;"/>
									
										<use xlink:href="#Star"  width="3.4" height="3.4" x="-1.7" y="-1.7" transform="matrix(1.47 0 0 0.84 1208.3595 -443.5488)" style="overflow:visible;"/>
									
										<use xlink:href="#Star"  width="3.4" height="3.4" x="-1.7" y="-1.7" transform="matrix(1.47 0 0 0.84 1236.7897 -472.9588)" style="overflow:visible;"/>
									
										<use xlink:href="#Star"  width="3.4" height="3.4" x="-1.7" y="-1.7" transform="matrix(1.47 0 0 0.84 1438.3995 -451.9688)" style="overflow:visible;"/>
									
										<use xlink:href="#Star"  width="3.4" height="3.4" x="-1.7" y="-1.7" transform="matrix(1.47 0 0 0.84 1517.8395 -427.3788)" style="overflow:visible;"/>
									
										<use xlink:href="#Star"  width="3.4" height="3.4" x="-1.7" y="-1.7" transform="matrix(1.47 0 0 0.84 1438.3995 -417.4888)" style="overflow:visible;"/>
									
										<use xlink:href="#Star"  width="3.4" height="3.4" x="-1.7" y="-1.7" transform="matrix(1.47 0 0 0.84 636.6796 -487.0288)" style="overflow:visible;"/>
									
										<use xlink:href="#Star"  width="3.4" height="3.4" x="-1.7" y="-1.7" transform="matrix(1.47 0 0 0.84 432.7997 -517.4288)" style="overflow:visible;"/>
									
										<use xlink:href="#Star"  width="3.4" height="3.4" x="-1.7" y="-1.7" transform="matrix(1.47 0 0 0.84 399.8995 -522.5788)" style="overflow:visible;"/>
									
										<use xlink:href="#Star"  width="3.4" height="3.4" x="-1.7" y="-1.7" transform="matrix(1.47 0 0 0.84 446.0995 -414.8188)" style="overflow:visible;"/>
									
										<use xlink:href="#Star"  width="3.4" height="3.4" x="-1.7" y="-1.7" transform="matrix(1.47 0 0 0.84 457.1896 -324.8688)" style="overflow:visible;"/>
									
										<use xlink:href="#Star"  width="3.4" height="3.4" x="-1.7" y="-1.7" transform="matrix(1.47 0 0 0.84 303.1395 -287.5888)" style="overflow:visible;"/>
									
										<use xlink:href="#Star"  width="3.4" height="3.4" x="-1.7" y="-1.7" transform="matrix(1.47 0 0 0.84 244.3696 -332.6788)" style="overflow:visible;"/>
									
										<use xlink:href="#Star"  width="3.4" height="3.4" x="-1.7" y="-1.7" transform="matrix(1.47 0 0 0.84 193.3596 -356.9688)" style="overflow:visible;"/>
									
										<use xlink:href="#Star"  width="3.4" height="3.4" x="-1.7" y="-1.7" transform="matrix(1.47 0 0 0.84 123.5195 -112.8488)" style="overflow:visible;"/>
									
										<use xlink:href="#Star"  width="3.4" height="3.4" x="-1.7" y="-1.7" transform="matrix(1.47 0 0 0.84 291.7196 -50.5488)" style="overflow:visible;"/>
									
										<use xlink:href="#Star"  width="3.4" height="3.4" x="-1.7" y="-1.7" transform="matrix(1.47 0 0 0.84 704.3695 -139.0188)" style="overflow:visible;"/>
									
										<use xlink:href="#Star"  width="3.4" height="3.4" x="-1.7" y="-1.7" transform="matrix(1.47 0 0 0.84 853.4696 -208.6788)" style="overflow:visible;"/>
									
										<use xlink:href="#Star"  width="3.4" height="3.4" x="-1.7" y="-1.7" transform="matrix(1.47 0 0 0.84 884.4496 -218.2188)" style="overflow:visible;"/>
									
										<use xlink:href="#Star"  width="3.4" height="3.4" x="-1.7" y="-1.7" transform="matrix(1.47 0 0 0.84 1194.5597 -201.4088)" style="overflow:visible;"/>
									
										<use xlink:href="#Star"  width="3.4" height="3.4" x="-1.7" y="-1.7" transform="matrix(1.47 0 0 0.84 1385.7997 -204.7588)" style="overflow:visible;"/>
									
										<use xlink:href="#Star"  width="3.4" height="3.4" x="-1.7" y="-1.7" transform="matrix(1.47 0 0 0.84 1237.2496 -225.7888)" style="overflow:visible;"/>
									
										<use xlink:href="#Star"  width="3.4" height="3.4" x="-1.7" y="-1.7" transform="matrix(1.47 0 0 0.84 -454.3605 -323.3288)" style="overflow:visible;"/>
									
										<use xlink:href="#Star"  width="3.4" height="3.4" x="-1.7" y="-1.7" transform="matrix(1.47 0 0 0.84 -939.8404 -283.4788)" style="overflow:visible;"/>
									
										<use xlink:href="#Star"  width="3.4" height="3.4" x="-1.7" y="-1.7" transform="matrix(1.47 0 0 0.84 -888.8604 -247.8088)" style="overflow:visible;"/>
									
										<use xlink:href="#Star"  width="3.4" height="3.4" x="-1.7" y="-1.7" transform="matrix(1.47 0 0 0.84 -454.4204 -119.4788)" style="overflow:visible;"/>
									
										<use xlink:href="#Star"  width="3.4" height="3.4" x="-1.7" y="-1.7" transform="matrix(1.47 0 0 0.84 -274.2704 -122.0488)" style="overflow:visible;"/>
									
										<use xlink:href="#Star"  width="3.4" height="3.4" x="-1.7" y="-1.7" transform="matrix(1.47 0 0 0.84 -277.3004 -139.3888)" style="overflow:visible;"/>
									
										<use xlink:href="#Star"  width="3.4" height="3.4" x="-1.7" y="-1.7" transform="matrix(1.47 0 0 0.84 -412.2305 -201.3688)" style="overflow:visible;"/>
									
										<use xlink:href="#Star"  width="3.4" height="3.4" x="-1.7" y="-1.7" transform="matrix(1.47 0 0 0.84 -277.3605 5.3712)" style="overflow:visible;"/>
									
										<use xlink:href="#Star"  width="3.4" height="3.4" x="-1.7" y="-1.7" transform="matrix(1.47 0 0 0.84 -147.4004 111.0912)" style="overflow:visible;"/>
									
										<use xlink:href="#Star"  width="3.4" height="3.4" x="-1.7" y="-1.7" transform="matrix(1.47 0 0 0.84 -151.9104 118.6812)" style="overflow:visible;"/>
									
										<use xlink:href="#Star"  width="3.4" height="3.4" x="-1.7" y="-1.7" transform="matrix(1.47 0 0 0.84 -563.1604 123.9112)" style="overflow:visible;"/>
									
										<use xlink:href="#Star"  width="3.4" height="3.4" x="-1.7" y="-1.7" transform="matrix(1.47 0 0 0.84 -644.8204 90.0812)" style="overflow:visible;"/>
									
										<use xlink:href="#Star"  width="3.4" height="3.4" x="-1.7" y="-1.7" transform="matrix(1.47 0 0 0.84 -895.0804 65.5512)" style="overflow:visible;"/>
									
										<use xlink:href="#Star"  width="3.4" height="3.4" x="-1.7" y="-1.7" transform="matrix(1.47 0 0 0.84 -1046.5704 30.6812)" style="overflow:visible;"/>
									
										<use xlink:href="#Star"  width="3.4" height="3.4" x="-1.7" y="-1.7" transform="matrix(1.47 0 0 0.84 -1114.5204 -12.6788)" style="overflow:visible;"/>
									
										<use xlink:href="#Star"  width="3.4" height="3.4" x="-1.7" y="-1.7" transform="matrix(1.47 0 0 0.84 -1116.9304 78.6412)" style="overflow:visible;"/>
									
										<use xlink:href="#Star"  width="3.4" height="3.4" x="-1.7" y="-1.7" transform="matrix(1.47 0 0 0.84 -1153.4404 183.1312)" style="overflow:visible;"/>
									
										<use xlink:href="#Star"  width="3.4" height="3.4" x="-1.7" y="-1.7" transform="matrix(1.47 0 0 0.84 -1140.1105 100.1312)" style="overflow:visible;"/>
									
										<use xlink:href="#Star"  width="3.4" height="3.4" x="-1.7" y="-1.7" transform="matrix(1.47 0 0 0.84 -990.8204 -318.7088)" style="overflow:visible;"/>
									
										<use xlink:href="#Star"  width="3.4" height="3.4" x="-1.7" y="-1.7" transform="matrix(1.47 0 0 0.84 -998.2904 -363.2688)" style="overflow:visible;"/>
									
										<use xlink:href="#Star"  width="3.4" height="3.4" x="-1.7" y="-1.7" transform="matrix(1.47 0 0 0.84 -1008.1704 -374.4688)" style="overflow:visible;"/>
									
										<use xlink:href="#Star"  width="3.4" height="3.4" x="-1.7" y="-1.7" transform="matrix(1.47 0 0 0.84 -586.5004 -442.5988)" style="overflow:visible;"/>
									
										<use xlink:href="#Star"  width="3.4" height="3.4" x="-1.7" y="-1.7" transform="matrix(1.47 0 0 0.84 19.2596 -453.8588)" style="overflow:visible;"/>
									
										<use xlink:href="#Star"  width="3.4" height="3.4" x="-1.7" y="-1.7" transform="matrix(1.47 0 0 0.84 138.3396 -433.7588)" style="overflow:visible;"/>
									
										<use xlink:href="#Star"  width="3.4" height="3.4" x="-1.7" y="-1.7" transform="matrix(1.47 0 0 0.84 -651.6604 -440.9288)" style="overflow:visible;"/>
									
										<use xlink:href="#Star"  width="3.4" height="3.4" x="-1.7" y="-1.7" transform="matrix(1.47 0 0 0.84 -1012.7804 -466.6488)" style="overflow:visible;"/>
									
										<use xlink:href="#Star"  width="3.4" height="3.4" x="-1.7" y="-1.7" transform="matrix(1.47 0 0 0.84 -1153.9805 -368.6288)" style="overflow:visible;"/>
									
										<use xlink:href="#Star"  width="3.4" height="3.4" x="-1.7" y="-1.7" transform="matrix(1.47 0 0 0.84 -1213.1005 -304.1888)" style="overflow:visible;"/>
									
										<use xlink:href="#Star"  width="3.4" height="3.4" x="-1.7" y="-1.7" transform="matrix(1.47 0 0 0.84 -1162.5804 -230.3388)" style="overflow:visible;"/>
									
										<use xlink:href="#Star"  width="3.4" height="3.4" x="-1.7" y="-1.7" transform="matrix(1.47 0 0 0.84 -1086.3905 -193.1888)" style="overflow:visible;"/>
									
										<use xlink:href="#Star"  width="3.4" height="3.4" x="-1.7" y="-1.7" transform="matrix(1.47 0 0 0.84 -976.9404 -238.1088)" style="overflow:visible;"/>
									
										<use xlink:href="#Star"  width="3.4" height="3.4" x="-1.7" y="-1.7" transform="matrix(1.47 0 0 0.84 -787.9604 -296.3288)" style="overflow:visible;"/>
									
										<use xlink:href="#Star"  width="3.4" height="3.4" x="-1.7" y="-1.7" transform="matrix(1.47 0 0 0.84 -653.8204 -353.9688)" style="overflow:visible;"/>
									
										<use xlink:href="#Star"  width="3.4" height="3.4" x="-1.7" y="-1.7" transform="matrix(1.47 0 0 0.84 -331.2205 -355.5088)" style="overflow:visible;"/>
									
										<use xlink:href="#Star"  width="3.4" height="3.4" x="-1.7" y="-1.7" transform="matrix(1.47 0 0 0.84 -203.0204 -350.2788)" style="overflow:visible;"/>
									
										<use xlink:href="#Star"  width="3.4" height="3.4" x="-1.7" y="-1.7" transform="matrix(1.47 0 0 0.84 -187.2804 -362.7188)" style="overflow:visible;"/>
									
										<use xlink:href="#Star"  width="3.4" height="3.4" x="-1.7" y="-1.7" transform="matrix(1.47 0 0 0.84 -182.7404 -452.5688)" style="overflow:visible;"/>
									
										<use xlink:href="#Star"  width="3.4" height="3.4" x="-1.7" y="-1.7" transform="matrix(1.47 0 0 0.84 -405.9904 -457.2088)" style="overflow:visible;"/>
									
										<use xlink:href="#Star"  width="3.4" height="3.4" x="-1.7" y="-1.7" transform="matrix(1.47 0 0 0.84 -471.0204 -452.5288)" style="overflow:visible;"/>
									
										<use xlink:href="#Star"  width="3.4" height="3.4" x="-1.7" y="-1.7" transform="matrix(1.47 0 0 0.84 -505.2004 -432.5288)" style="overflow:visible;"/>
								</g>
								<g>
									
										<use xlink:href="#Star"  width="3.4" height="3.4" x="-1.7" y="-1.7" transform="matrix(1.47 0 0 0.84 -1199.0704 -471.8288)" style="overflow:visible;"/>
									
										<use xlink:href="#Star"  width="3.4" height="3.4" x="-1.7" y="-1.7" transform="matrix(1.47 0 0 0.84 -810.2504 -473.4988)" style="overflow:visible;"/>
									
										<use xlink:href="#Star"  width="3.4" height="3.4" x="-1.7" y="-1.7" transform="matrix(1.47 0 0 0.84 -793.3604 -380.3888)" style="overflow:visible;"/>
									
										<use xlink:href="#Star"  width="3.4" height="3.4" x="-1.7" y="-1.7" transform="matrix(1.47 0 0 0.84 -143.0404 -505.6088)" style="overflow:visible;"/>
									
										<use xlink:href="#Star"  width="3.4" height="3.4" x="-1.7" y="-1.7" transform="matrix(1.47 0 0 0.84 -448.2205 -526.4788)" style="overflow:visible;"/>
									
										<use xlink:href="#Star"  width="3.4" height="3.4" x="-1.7" y="-1.7" transform="matrix(1.47 0 0 0.84 938.3097 -520.1088)" style="overflow:visible;"/>
									
										<use xlink:href="#Star"  width="3.4" height="3.4" x="-1.7" y="-1.7" transform="matrix(1.47 0 0 0.84 1451.1896 -320.3688)" style="overflow:visible;"/>
									
										<use xlink:href="#Star"  width="3.4" height="3.4" x="-1.7" y="-1.7" transform="matrix(1.47 0 0 0.84 1375.4796 -161.3488)" style="overflow:visible;"/>
									
										<use xlink:href="#Star"  width="3.4" height="3.4" x="-1.7" y="-1.7" transform="matrix(1.47 0 0 0.84 1257.7697 43.0812)" style="overflow:visible;"/>
									
										<use xlink:href="#Star"  width="3.4" height="3.4" x="-1.7" y="-1.7" transform="matrix(1.47 0 0 0.84 1109.0497 121.5112)" style="overflow:visible;"/>
									
										<use xlink:href="#Star"  width="3.4" height="3.4" x="-1.7" y="-1.7" transform="matrix(1.47 0 0 0.84 1375.4296 254.1012)" style="overflow:visible;"/>
									
										<use xlink:href="#Star"  width="3.4" height="3.4" x="-1.7" y="-1.7" transform="matrix(1.47 0 0 0.84 1251.7697 305.4212)" style="overflow:visible;"/>
									
										<use xlink:href="#Star"  width="3.4" height="3.4" x="-1.7" y="-1.7" transform="matrix(1.47 0 0 0.84 716.9196 327.8912)" style="overflow:visible;"/>
									
										<use xlink:href="#Star"  width="3.4" height="3.4" x="-1.7" y="-1.7" transform="matrix(1.47 0 0 0.84 290.6896 324.7812)" style="overflow:visible;"/>
									
										<use xlink:href="#Star"  width="3.4" height="3.4" x="-1.7" y="-1.7" transform="matrix(1.47 0 0 0.84 127.9896 228.6312)" style="overflow:visible;"/>
									
										<use xlink:href="#Star"  width="3.4" height="3.4" x="-1.7" y="-1.7" transform="matrix(1.47 0 0 0.84 571.2196 231.8512)" style="overflow:visible;"/>
									
										<use xlink:href="#Star"  width="3.4" height="3.4" x="-1.7" y="-1.7" transform="matrix(1.47 0 0 0.84 831.7596 71.9012)" style="overflow:visible;"/>
									
										<use xlink:href="#Star"  width="3.4" height="3.4" x="-1.7" y="-1.7" transform="matrix(1.47 0 0 0.84 531.9796 65.5712)" style="overflow:visible;"/>
									
										<use xlink:href="#Star"  width="3.4" height="3.4" x="-1.7" y="-1.7" transform="matrix(1.47 0 0 0.84 201.0496 60.7312)" style="overflow:visible;"/>
									
										<use xlink:href="#Star"  width="3.4" height="3.4" x="-1.7" y="-1.7" transform="matrix(1.47 0 0 0.84 -110.2604 -14.4688)" style="overflow:visible;"/>
									
										<use xlink:href="#Star"  width="3.4" height="3.4" x="-1.7" y="-1.7" transform="matrix(1.47 0 0 0.84 -381.7604 155.0812)" style="overflow:visible;"/>
									
										<use xlink:href="#Star"  width="3.4" height="3.4" x="-1.7" y="-1.7" transform="matrix(1.47 0 0 0.84 -832.7004 223.6912)" style="overflow:visible;"/>
									
										<use xlink:href="#Star"  width="3.4" height="3.4" x="-1.7" y="-1.7" transform="matrix(1.47 0 0 0.84 -734.5004 332.5212)" style="overflow:visible;"/>
									
										<use xlink:href="#Star"  width="3.4" height="3.4" x="-1.7" y="-1.7" transform="matrix(1.47 0 0 0.84 35.5596 364.6512)" style="overflow:visible;"/>
									
										<use xlink:href="#Star"  width="3.4" height="3.4" x="-1.7" y="-1.7" transform="matrix(1.47 0 0 0.84 41.2895 1.5012)" style="overflow:visible;"/>
									
										<use xlink:href="#Star"  width="3.4" height="3.4" x="-1.7" y="-1.7" transform="matrix(1.47 0 0 0.84 458.8795 1.4012)" style="overflow:visible;"/>
									
										<use xlink:href="#Star"  width="3.4" height="3.4" x="-1.7" y="-1.7" transform="matrix(1.47 0 0 0.84 391.7096 260.6412)" style="overflow:visible;"/>
									
										<use xlink:href="#Star"  width="3.4" height="3.4" x="-1.7" y="-1.7" transform="matrix(1.47 0 0 0.84 -314.1204 -281.3388)" style="overflow:visible;"/>
									
										<use xlink:href="#Star"  width="3.4" height="3.4" x="-1.7" y="-1.7" transform="matrix(1.47 0 0 0.84 -552.1604 -372.4788)" style="overflow:visible;"/>
									
										<use xlink:href="#Star"  width="3.4" height="3.4" x="-1.7" y="-1.7" transform="matrix(1.47 0 0 0.84 -288.7404 -439.8388)" style="overflow:visible;"/>
									
										<use xlink:href="#Star"  width="3.4" height="3.4" x="-1.7" y="-1.7" transform="matrix(1.47 0 0 0.84 187.1196 -508.8788)" style="overflow:visible;"/>
									
										<use xlink:href="#Star"  width="3.4" height="3.4" x="-1.7" y="-1.7" transform="matrix(1.47 0 0 0.84 562.4095 -421.1088)" style="overflow:visible;"/>
									
										<use xlink:href="#Star"  width="3.4" height="3.4" x="-1.7" y="-1.7" transform="matrix(1.47 0 0 0.84 1013.5895 -302.4788)" style="overflow:visible;"/>
									
										<use xlink:href="#Star"  width="3.4" height="3.4" x="-1.7" y="-1.7" transform="matrix(1.47 0 0 0.84 621.3295 -231.6588)" style="overflow:visible;"/>
									
										<use xlink:href="#Star"  width="3.4" height="3.4" x="-1.7" y="-1.7" transform="matrix(1.47 0 0 0.84 -1278.8805 -471.6988)" style="overflow:visible;"/>
									
										<use xlink:href="#Star"  width="3.4" height="3.4" x="-1.7" y="-1.7" transform="matrix(1.47 0 0 0.84 -1258.7305 -509.1888)" style="overflow:visible;"/>
									
										<use xlink:href="#Star"  width="3.4" height="3.4" x="-1.7" y="-1.7" transform="matrix(1.47 0 0 0.84 -1257.2704 -360.3288)" style="overflow:visible;"/>
									
										<use xlink:href="#Star"  width="3.4" height="3.4" x="-1.7" y="-1.7" transform="matrix(1.47 0 0 0.84 -1249.0804 -362.0788)" style="overflow:visible;"/>
									
										<use xlink:href="#Star"  width="3.4" height="3.4" x="-1.7" y="-1.7" transform="matrix(1.47 0 0 0.84 -1120.8405 -313.0888)" style="overflow:visible;"/>
									
										<use xlink:href="#Star"  width="3.4" height="3.4" x="-1.7" y="-1.7" transform="matrix(1.47 0 0 0.84 -1275.4004 -213.9288)" style="overflow:visible;"/>
									
										<use xlink:href="#Star"  width="3.4" height="3.4" x="-1.7" y="-1.7" transform="matrix(1.47 0 0 0.84 1482.6295 -290.9088)" style="overflow:visible;"/>
									
										<use xlink:href="#Star"  width="3.4" height="3.4" x="-1.7" y="-1.7" transform="matrix(1.47 0 0 0.84 1344.6295 -284.6888)" style="overflow:visible;"/>
									
										<use xlink:href="#Star"  width="3.4" height="3.4" x="-1.7" y="-1.7" transform="matrix(1.47 0 0 0.84 1262.8295 -296.0888)" style="overflow:visible;"/>
									
										<use xlink:href="#Star"  width="3.4" height="3.4" x="-1.7" y="-1.7" transform="matrix(1.47 0 0 0.84 1103.4095 -254.2088)" style="overflow:visible;"/>
									
										<use xlink:href="#Star"  width="3.4" height="3.4" x="-1.7" y="-1.7" transform="matrix(1.47 0 0 0.84 633.1796 -350.5488)" style="overflow:visible;"/>
									
										<use xlink:href="#Star"  width="3.4" height="3.4" x="-1.7" y="-1.7" transform="matrix(1.47 0 0 0.84 741.9796 -507.3888)" style="overflow:visible;"/>
									
										<use xlink:href="#Star"  width="3.4" height="3.4" x="-1.7" y="-1.7" transform="matrix(1.47 0 0 0.84 1436.9095 -508.8188)" style="overflow:visible;"/>
									
										<use xlink:href="#Star"  width="3.4" height="3.4" x="-1.7" y="-1.7" transform="matrix(1.47 0 0 0.84 -560.6204 -513.6288)" style="overflow:visible;"/>
									
										<use xlink:href="#Star"  width="3.4" height="3.4" x="-1.7" y="-1.7" transform="matrix(1.47 0 0 0.84 -697.9204 -497.6288)" style="overflow:visible;"/>
									
										<use xlink:href="#Star"  width="3.4" height="3.4" x="-1.7" y="-1.7" transform="matrix(1.47 0 0 0.84 -972.6404 -510.4188)" style="overflow:visible;"/>
									
										<use xlink:href="#Star"  width="3.4" height="3.4" x="-1.7" y="-1.7" transform="matrix(1.47 0 0 0.84 -678.4604 -257.1488)" style="overflow:visible;"/>
									
										<use xlink:href="#Star"  width="3.4" height="3.4" x="-1.7" y="-1.7" transform="matrix(1.47 0 0 0.84 259.8097 -177.6188)" style="overflow:visible;"/>
									
										<use xlink:href="#Star"  width="3.4" height="3.4" x="-1.7" y="-1.7" transform="matrix(1.47 0 0 0.84 310.2596 -423.9988)" style="overflow:visible;"/>
									
										<use xlink:href="#Star"  width="3.4" height="3.4" x="-1.7" y="-1.7" transform="matrix(1.47 0 0 0.84 573.0697 -342.3188)" style="overflow:visible;"/>
									
										<use xlink:href="#Star"  width="3.4" height="3.4" x="-1.7" y="-1.7" transform="matrix(1.47 0 0 0.84 689.1295 -287.8388)" style="overflow:visible;"/>
								</g>
							</g>
						</g>
					</g>
				</g>
			</g>
			<ellipse class="st0" cx="-289.5" cy="-352.6" rx="56.8" ry="52.1"/>
			<path class="st5" d="M-649,164c8.7-10.2,15.7-19,20.8-25.6c9.1-11.6,13.7-18.3,12.3-19.9c-1.6-1.7-9.7,3.9-10.4,2.8
				c-0.8-1.2,9.8-7.7,18.9-18.9c1.4-1.7,4.2-5.2,14.2-24.6c10.6-20.5,14-29,16.1-28.4c2.1,0.6,0.2,9.2,2.8,27.5
				c0.7,4.7,1.4,8.1,1.9,10.4c2.7,12.9,5.7,19.9,9.5,31.3c8.3,24.7,7.2,30.1,11.4,31.3c7.5,2.1,18.1-13.2,24.6-22.7
				c17.5-25.5,25.5-51.5,26.5-51.2c1.1,0.4-5,34.2-2.8,42.6c0.3,1.1,0.6,2.1,0.6,2.1c1.8,6,3.7,7.9,4.2,10.2
				c1.2,6-7.3,11.5-6.6,12.3c1.3,1.6,37.7-22.3,35.1-27.5c-1.6-3-15.8,2.8-17.1,0c-2.1-4.6,35.6-24.8,33.2-30.3
				c-1.4-3.2-14.9,1.1-16.1-1.9c-2.1-5.2,38.8-23.7,36-33.2c-0.9-2.9-5.1-2-6.6-5.7c-2.5-5.9,6.7-12,23.7-32.2
				c0.9-1.1,2.8-3.3,3.8-2.8c1.6,0.7-0.7,7.2-1.9,18c-1.6,13.9-2.4,20.9,0.6,27.9c0.9,2.2,2.4,4.9,1.3,6.2c-1.9,2.3-9.1-3.3-12.3-1
				c-2.6,1.9-0.9,7.8,1.9,19.9c5.3,22.6,4.7,25.1,3.8,25.6c-2.5,1.2-9.6-11.6-12.3-10.4c-4.6,2,9.9,42.7,5.7,44.5
				c-2.5,1-8.5-12.6-12.3-11.4c-4.3,1.4-3.5,21.1,1.9,22.7c2.6,0.8,4.4-3.2,8.5-2.8c5.6,0.5,7.2,8.6,10.4,8.5
				c4.5-0.1,7.4-16,9.5-25.6c6.7-30.3,17.3-51.6,18.9-51.2c1.5,0.4-5.7,17.7,0.9,37.9c2.6,7.9,4.4,7.6,7.6,15.2
				c11.1,26.8-5.3,46.9,5.7,57.8c5.6,5.5,15.9,6.4,21.8,2.8c8-4.9,3.5-15.6,13.3-31.3c5.2-8.5,11.6-13.5,16.1-17
				c3.8-3,8.4-6.1,26.5-14.2c18.4-8.2,27.8-12.4,35.1-13.3c9.1-1.1,28-1.4,31.3,6.6c2.7,6.5-7.9,11.4-13.3,28.4
				c-4,12.7-4.7,31.1,3.8,36c4.6,2.7,11.5,1.1,16.1-1.9c16.2-10.5,11-42.9,17.1-43.6c3-0.3,4.6,7.7,7.6,7.6
				c8.4-0.2,12.2-62.7,16.1-62.5c2.5,0.1-2.6,26.3,11.4,53c4.1,7.9,10.6,17.1,8.5,18.9c-2.1,2-11.8-5.5-12.3-4.7
				c-0.8,1.1,21.3,17.6,19.9,19.9c-1,1.7-13.1-6.2-15.2-3.8c-2.5,3,9.8,22.9,20.8,21.8c11.2-1.1,14-23.1,22.7-22.7
				c8.8,0.3,10.4,23,18.9,23.7c8.7,0.7,17.6-22.1,25.6-42.6c9.9-25.5,13.8-43.1,17.1-42.6c1.9,0.3,1.1,6.2,3.8,16.1
				c4.4,16.2,14,27.7,21.8,36.9c9.6,11.4,19.2,19.3,18,20.8c-1,1.3-7.6-5-13.3-2.8c-6.4,2.5-9.2,15.1-6.6,24.6
				c3.2,11.9,15.1,21.4,27.5,21.8c19.3,0.7,30.8-21,32.2-23.7c9.7-18.2,4.8-37.3,8.5-37.9c4.2-0.7,9.4,25,15.2,24.6
				c7.1-0.5,7.6-41.4,13.3-41.7c6.1-0.3,11.9,46.8,16.1,46.4c2.3-0.2,5.2-14.8,3.8-28.4c-0.3-2.9-0.9-7.3,0-7.6
				c1.1-0.3,3,5.8,8.5,12.3c3.4,4,6.8,6.4,8.5,7.6c4.5,3.2,15.3,10.6,23.7,7.6c13.2-4.8,14-33.6,8.5-36c-3.6-1.6-9.8,8.2-12.3,6.6
				c-2.6-1.6,3.2-13,6.6-32.2c1.1-6.3,3.4-19.4,0-20.8c-3.6-1.5-11,10.8-13.3,9.5c-1.5-0.9,1.2-7,2.8-14.2c4.6-19.5-2-32.3,1.9-34.1
				c3.1-1.4,7.2,6.6,18,15.2c17.7,14,36.6,16,36,18.9c-0.6,2.8-17.9-0.5-19.9,4.7c-0.6,1.5-0.2,4.8,11.4,14.2
				c15.7,12.7,23.9,13.8,35.1,21.8c15.8,11.3,26.6,28.5,23.7,32.2c-3.7,4.6-27.8-13.6-32.2-8.5c-4,4.6,8.1,29.1,26.5,34.1
				c6.2,1.7,9.6,0.3,26.5,2.8c10.1,1.5,11.4,2.4,15.2,2.8c23.6,2.5,37.6-25.4,49.2-22.7c7.2,1.7,14.6,15.3,15.1,68.2H-662L-649,164
				L-649,164z"/>
			<path class="st6" d="M-410.3,249.3c-0.9-1.6-2.4-4.1-4.7-6.6c-5-5.5-8-5.3-10.4-9.5c-3-5-0.2-8.2-2.8-11.4
				c-4.1-5-15.1-2.2-16.1-1.9c-17.3,4.6-17.2,22.1-31.3,24.6c-8.9,1.6-18.6-3.6-22.7-10.4c-2.9-4.8-3.2-10.8-1.9-11.4
				c1.5-0.7,3.9,6.5,11.4,10.4c4.4,2.3,11.9,4.1,15.2,1c3.3-3.3-1-8.8-2.8-23.7c-1.7-13.7,0.8-17.1-2.8-25.6
				c-1.7-3.8-5.2-12-10.4-12.3c-6.8-0.3-8.5,13.1-23.7,21.8c-1.7,1-9.4,5.4-12.3,2.8c-1.6-1.5-0.5-4.1,0-11.4
				c0.6-9.1,0.9-13.9-1.9-17c-3.6-4.1-9-1.5-12.3-5.7c-0.7-0.9-2.2-3.3-0.9-11.4c2-12.3,6.9-15.5,8.5-24.6c0.3-1.5-0.4-7-1.9-18
				c-4.2-32.2-5-24.2-5.7-35c-0.3-4.5-0.3-8-1.9-8.5c-3.9-1.2-12.4,16-14.2,15.2c-1.3-0.6,2.7-9.4,0.9-10.4
				c-1.8-1.1-8.8,7.2-11.4,10.4c-16.9,20.5-22.7,30.3-22.7,30.3c-17.1,28.5-25.6,42.7-32.2,60.6c-12.4,33.5-13.8,61.9-16.1,61.6
				c-0.9-0.1-1.2-6.7-1.9-19.9c-0.6-12.3-0.2-12.8-0.9-17c-2-11.6-5.6-11.5-7.6-21.8c-2.6-13.6,2.9-18.7-1.9-24.6
				c-4.3-5.4-13-6.3-16.1-6.6c-8.2-0.9-12.9,1.8-15.2-1c-1.2-1.5-0.3-2.8,0-10.4c0.3-6.7,0.4-10-0.9-11.4c-3.5-3.4-11.8,2.1-14.2-1
				c-1.8-2.4,2.4-6.8,0-10.4c-1.4-2.1-3.4-1.5-4.7-3.8c-1.4-2.4-0.1-4.6,0-7.6c0.1-2.6-0.6-6.5-4.7-11.4l-4.1,162.9L-410.3,249.3
				L-410.3,249.3z"/>
			<path class="st6" d="M159,249.3c-16.8-7.7-20.2-10.4-19.9-11.4c0.5-1.4,8.4,1.5,19.9,0c8.4-1.1,17.3-4.4,17.1-6.6
				c-0.3-2.9-15.8,0.3-31.3-8.5c-11.6-6.7-17.9-17.1-17.1-18c0.6-0.7,5.1,4.2,12.3,4.7c4.5,0.3,8.4-1.2,11.4-2.8l0,0
				c-23-13.9-26.5-17-26.5-17c-7.8-6.9-11.6-14.2-18.9-28.4c-11.7-22.8-14.8-38.3-17.1-37.9c-2.6,0.5-0.9,21.2,0,32.2
				c1.6,20.2,3.7,25.1,0,33.2c-2.8,6.1-6.1,7.8-8.5,16.1c-1.9,6.4-2.9,15.7,0,17c2.7,1.2,8.3-4.6,11.4-9.5
				c4.5-7.2,4.9-14.3,5.7-14.2c0.4,0,0.8,2,0.5,8c-0.8,13.5-1.6,27-10.9,34.7c-0.8,0.7-7,5.7-11.4,3.8c-2.5-1.1-2.6-3.6-5.7-8.5
				c-1.9-3-4.7-7.3-8.5-9.5c-6.6-3.6-10.5,2.2-19.9,0c-6.4-1.5-12.2-6.1-15.2-11.4c-2.4-4.2-0.8-5-3.8-11.4
				c-2.2-4.8-4.8-10.2-10.4-12.3c-4.4-1.6-8.4-0.3-9.5,0c-4.7,1.5-7.2,4.9-8.5,6.6c-3.7,5-2.2,7.5-4.7,10.4
				c-4.9,5.4-18.2,5.1-22.7-1c-3.1-4.1,0.6-7.4-0.9-18c-0.3-2.2-1.7-10.7-7.6-18.9c-3.5-4.9-7.2-10.1-13.3-11.4
				c-5.7-1.2-7.3,2.2-17.1,2.8c-8.7,0.5-11-2-13.3,0c-5.5,4.9,6.2,23.2,0.9,27.5c-2.9,2.4-7.7-2.5-12.3,0
				c-6.5,3.5-2.6,15.9-8.5,18.9c-3.2,1.6-5.3-1.4-14.2-3.8c-5.3-1.4-16.3-4.3-25.6,0c-7.2,3.3-7.6,8.3-13.3,8.5
				c-4.8,0.2-10-3.2-12.3-7.6c-3.4-6.5,1.9-10.7-0.9-18.9c-1.8-5.2-6.5-10.9-12.3-11.4c-4.1-0.3-7.3,2.1-9.5,3.8
				c-4.7,3.6-7.1,8.4-10.4,15.2c-2.8,5.7-3.5,8.6-4.7,8.5c-1.5-0.1-1.4-4.6-3.8-11.4c-1.8-5.1-3.3-9.1-6.6-12.3
				c-6.1-5.8-12.5-2.9-16.1-8.5c-1.8-2.8-2.2-6.6-0.9-9.5c0.4-0.8,1.5-3,9.5-6.6c8.5-3.9,10.6-3.1,12.3-5.7
				c2.1-3.2,0.7-7.6-0.9-13.3c-1.9-6.4-3.6-6.7-4.7-11.4c-1.7-6.9,1.3-8.9,0.9-16.1c-0.6-10-6.9-17.2-8.5-18.9
				c-2.5-2.8-11-12.3-18.9-10.4c-8.4,2-6.8,14.6-18.9,20.8c-1.1,0.6-5.2,1.6-13.3,3.8c-13.7,3.6-14.2,3.1-17.1,4.7
				c-6.8,3.8-13.9,12.6-12.3,19.9c1.6,7.4,11.1,8,11.4,14.2c0.3,6-8.4,6.5-11.4,16.1c-0.3,1-0.5,6.7-0.9,18
				c-0.3,7.2-0.4,9.8-1.9,10.4c-3,1.3-8.8-5.9-9.5-6.6c-3.5-4.3-3.1-6.2-5.7-9.5c-4.6-5.8-11.9-7.1-14.2-7.6
				c-9.1-1.7-21.3,1-22.7,6.6c-1.5,5.8,9.4,11.9,7.6,15.2c-1.6,2.8-9.6-1.4-19.9,2.8c-1.9,0.8-6.3,2.6-6.6,5.7
				c-0.3,2.5,2.4,3.2,2.8,5.7c1,5.9-12.9,8.7-17.1,19.9c-2.2,6-0.6,11.6,0,13.3c2.7,7.9,9.7,11.5,11.4,12.3L159,249.3L159,249.3z"/>
			<path class="st6" d="M-711.5,251.2c8.5-13.6,16.2-23.1,21.8-29.4c3.4-3.8,6.1-6.4,8.5-11.4c4.2-8.3,2.8-13.2,6.6-22.7
				c1.9-4.7,3.6-7.1,7.6-13.3c6.4-9.9,12-20.2,18-30.3c7.5-12.7,14.6-24.5,22.7-39.8c8.3-15.5,7.7-15.8,14.2-27.5
				c9.4-16.8,12.1-18.9,19.9-32.2c12-20.6,9.1-21.9,21.8-45.5c5.4-10.1,11.5-19.7,23.7-38.8c12.3-19.3,14.8-22.2,20.8-33.2
				c7.5-13.6,9-18.9,16.1-34.1c6.9-14.8,7.4-14,30.3-55.9c20.5-37.5,19.2-36.6,27.5-50.2c7.9-13.1,12.5-19.5,21.8-36
				c8.6-15.3,12.9-23,15.2-28.4c8.4-20.7,8.3-34,18.9-38.8c4.8-2.2,8.3-1.1,11.4-4.7c4.2-5-0.1-9.8,1.9-18.9c2-8.9,7-8.6,17.1-25.6
				c2.2-3.8,1.4-2.8,6.6-12.3c6.5-11.9,8.5-14.6,11.4-19.9c11.9-21.8,11.1-35.1,18-36c3.9-0.5,8.8,3.1,9.5,4.7
				c0.6,1.5,0.8,3.2,0.8,3.2s0,0.3,0.1,0.6c0.1,1.8,0.2,2.7-0.8,5.7c-1.2,3.6,1,13.8,2.8,19.9c2.1,7.1,4.7,12.2,5.7,14.2
				c3,5.8,5.7,11.1,11.4,16.1c0,0,5.8,5.1,12.5,7.6c1.3,0.5,2.7,0.9,2.7,0.9c0.6,0.2,1,0.3,1.2,0.3c7.5,1.9,11.1,2.7,14.9,4.4
				c1.9,0.9,3.3,1.7,4.2,2.3c2.1,1.2,9.5,6,16.6,16.7c4.8,7.1,4.9,10.2,8.5,11.4c3.4,1.1,8.1-0.1,9.5-2.8c2.5-5-6.7-14.3-12.3-19.9
				c-5.5-5.5-12.5-12.5-23.7-17c-3.5-1.4-9.1-3.3-18.9-7.6c-3.8-1.6-6.1-2.7-8.5-4.7c-2.7-2.2-4.8-4.9-8.5-12.3
				c-5.5-10.9-8.3-16.4-8.5-21.8c-0.3-5.7,1.4-6.7,0.9-15.2c-0.2-4.3-0.4-7.5-1.9-11.4c-2.5-6.4-5.4-6.4-5.7-10.4
				c-0.3-3.7,2.1-5.3,6.6-13.3c2.2-3.9,3.8-7.2,4.7-9.5H-415c-4.4,6-10.8,15.1-18,26.5c-12.2,19.4-11.3,21.1-22.7,39.8
				c-9.6,15.7-20.7,33.7-35.1,48.3c-1.7,1.8-5.2,5.2-9.5,10.4c-2.5,3-7.4,9.4-15.2,22.7c-10.5,18.1-8.2,18.3-13.3,23.7
				c-7.8,8.3-12.4,6.9-18.9,15.1c-5.3,6.7-5.7,12-8.5,19.9c-4.8,13.5-10.9,18.7-21.8,33.1c-15.4,20.5-11.5,21.3-28.4,46.4
				c-19.9,29.5-24.6,27.3-39.8,52.1c-13,21.1-11.7,26.3-22.7,43.6C-683-67.6-699.7-53-711.4-44.3L-711.5,251.2L-711.5,251.2z"/>
			<path class="st6" d="M359.8,250.2c-2.8-3.2-7-8.3-11.4-15.2c-11.6-18.1-12-28.6-20.8-48.3c-3.3-7.4-2.1-3.3-21.8-36.9
				c-11.9-20.3-17.9-30.5-22.7-39.8c-10.4-19.8-12.3-26.2-21.8-40.7c-1.1-1.6-5-7.6-10.4-16.1c-8.3-13-10.8-17.3-13.3-22.7
				c-2.2-4.9-3.3-8.4-5.7-16.1c-6.8-22.1-9.1-29.8-10.4-34.1c-6.4-20.2-10.8-20.3-22.7-47.4c-9.8-22.2-6.3-21-15.2-40.7
				c-11.5-25.8-16.6-26.1-28.4-52.1c-8.6-19-5.8-18.6-16.1-42.6c-8.7-20.3-10.3-19.7-22.7-46.4c-12.2-26.5-11.4-28.7-19.9-43.6
				c-8.1-14.2-9-12.4-20.8-32.2c-2.2-3.6-10.8-18.1-19.9-37.9c-7.7-16.7-9-22.4-9.5-24.6c-1.9-9.2-0.8-12.3-3.8-19.9
				c-2.5-6.4-4.2-6.6-11.4-18c-2.1-3.3-6.8-11-11.4-20.8c-2.5-5.3-5.6-12.6-8.5-21.8l53-3.8c1,2.4,2.6,6,4.7,10.4
				c7.7,15.8,13.4,22.6,19.9,34.1c6.3,11.1,3.7,9.4,13.3,29.4c7.9,16.3,14.9,28.4,19.9,36.9c10.3,17.6,12.6,19.4,20.8,33.1
				c12.8,21.2,11.8,24.1,27.5,54c9.3,17.6,17.4,33.2,30.3,52.1c15.8,23.3,17.8,20.8,30.3,40.7c11.8,18.8,9.7,20.4,26.5,49.2
				c8.9,15.3,10.1,15.9,21.8,36c11.9,20.4,11.2,20.7,18,31.3c11.1,17.2,13.4,17.2,23.7,34.1c5.3,8.7,12.8,22.1,14.2,24.6
				c4.9,8.7,6.8,12.4,10.4,18c5.5,8.5,10.7,14.9,14.2,18.9L359.8,250.2L359.8,250.2z"/>
			<path class="st6" d="M206.5-471c0,0,127.7,194,153.7,212.3l-0.5-68.3L252.1-471H206.5L206.5-471z"/>
			<path class="st6" d="M-620.6,249.3c4.7-9.2,11.8-23.3,19.9-40.7c10.5-22.5,10.8-24.9,18-39.8c14.1-29.1,17.2-28.9,30.3-55.9
				c7.5-15.4,5.1-12.7,20.8-48.3c9.7-22,14.6-33,21.8-47.4c10.8-21.5,13.3-23.8,22.7-43.6c8.4-17.7,8.7-20.5,16.1-36.9
				c10-22,16.1-31.1,31.3-58.7c7.8-14.1,18.7-34.4,31.3-59.7l-9.5,40.7c-3,6-7.3,14.8-12.3,25.6c-11.8,25.3-16.5,39.3-24.6,56.8
				c-11.5,25-13.9,28.1-28.4,58.7C-502.3,40.4-499.6,38-517.3,75c-14.1,29.6-17.8,35.2-23.7,52.1c-8.3,23.8-16.6,31.1-21.8,48.3
				c-5.5,18.3-7.6,24.6-32.2,73.9L-620.6,249.3L-620.6,249.3z"/>
			<path class="st6" d="M281.9,249.3c-4.7-9.2-11.8-23.3-19.9-40.7c-10.5-22.5-10.8-24.9-18-39.8c-14.1-29.1-17.2-28.9-30.3-55.9
				c-7.5-15.4-5.1-12.7-20.8-48.3c-9.7-22-14.6-33-21.8-47.4c-10.8-21.5-13.3-23.8-22.7-43.6c-8.4-17.7-8.7-20.5-16.1-36.9
				c-10-22-16.1-31.1-31.3-58.7c-7.8-14.1-18.7-34.4-31.3-59.7l9.5,40.7c3,6,7.3,14.8,12.3,25.6c11.8,25.3,16.5,39.3,24.6,56.8
				c11.5,25,13.9,28.1,28.4,58.7C163.6,40.4,160.9,38,178.6,75c14.1,29.6,17.8,35.2,23.7,52.1c8.3,23.8,16.6,31.1,21.8,48.3
				c5.5,18.3,7.6,24.6,32.2,73.9L281.9,249.3L281.9,249.3z"/>
			<path class="st6" d="M-321.8,251.3c2.3-9.2,5.7-23.2,9.3-40.4c4.7-22.2,4.4-24.3,7.7-39.1c6.5-28.8,9.4-29.4,15.5-56.1
				c3.4-15.3,1.9-12.3,8.4-47.2c4.1-21.6,6.1-32.4,9.5-46.7c5.2-21.4,7-24.1,11.2-43.6c3.8-17.5,3.4-20,6.6-36.2
				c4.3-21.6,7.9-31.1,15.7-58.8c4-14.2,9.5-34.6,15.5-59.7l0.4,37.9c-1.4,5.9-3.4,14.7-5.7,25.3c-5.2,24.9-6.5,38.3-10,55.6
				c-5,24.6-6.5,27.9-13.1,58.2c-8.6,39.8-6.7,37-14.7,73.6c-6.4,29.2-8.6,35.1-10.2,51.2c-2.3,22.8-8.4,31.2-9.3,47.5
				c-1,17.3-1.5,23.4-13.2,72.3L-321.8,251.3L-321.8,251.3z"/>
			<path class="st6" d="M-120,249.6c0.2-5.5,0.4-14,0.4-24.3c0-13.3-0.4-14.5-0.3-23.4c0.2-17.3,1.7-17.9,1.9-34
				c0.1-9.2-0.4-7.3-0.9-28.2c-0.3-12.9-0.4-19.4-0.2-28c0.3-12.9,1-14.6,1.1-26.3c0.1-10.5-0.5-12-0.6-21.6
				c-0.2-13,0.7-18.8,1.8-35.6c0.5-8.6,1.2-20.9,1.6-36.1l4.6,22.1c-0.1,3.6-0.2,8.8-0.2,15.2c0.1,15,0.9,22.9,1,33.2
				c0.1,14.8-0.3,16.8-0.4,35c-0.1,23.9,0.6,22.1,0.5,44.1c-0.1,17.6-0.6,21.2,0.4,30.7c1.4,13.5-1,18.8,0.4,28.4
				c1.5,10.2,1.9,13.7,1.2,43.2L-120,249.6L-120,249.6z"/>
			<path class="st6" d="M-20.9,261.1c-0.1-4.4-0.2-11.1-0.6-19.3c-0.5-10.5-0.8-11.5-1.1-18.6c-0.4-13.8,0.8-14.3,0.3-27.1
				c-0.2-7.3-0.6-5.8-1.7-22.4c-0.7-10.2-1-15.4-1.2-22.2c-0.2-10.2,0.3-11.6-0.1-20.9c-0.3-8.3-0.8-9.5-1.2-17.1
				c-0.6-10.3-0.1-14.9,0.2-28.3c0.1-6.8,0.2-16.7,0-28.7l4.4,17.3c0.1,2.8,0.2,7,0.4,12.1c0.6,11.9,1.5,18.1,1.9,26.3
				c0.6,11.7,0.3,13.3,0.9,27.8c0.8,19,1.3,17.5,1.9,35c0.5,14,0.3,16.8,1.4,24.3c1.6,10.6-0.1,15,1.3,22.5c1.5,8,2,10.8,2.5,34.3
				L-20.9,261.1L-20.9,261.1z"/>
			<path class="st6" d="M-683.9,212.3c1.6-4.6,4-11.6,6.8-20.3c3.6-11.2,3.7-12.4,6.1-19.8c4.8-14.5,5.9-14.4,10.3-27.9
				c2.6-7.7,1.7-6.3,7.1-24.1c3.3-11,5-16.5,7.4-23.6c3.7-10.7,4.6-11.9,7.8-21.7c2.9-8.8,2.9-10.2,5.5-18.4
				c3.4-11,5.5-15.5,10.7-29.3c2.7-7,6.4-17.2,10.7-29.8l-3.2,20.3c-1,3-2.5,7.4-4.2,12.8c-4,12.6-5.6,19.6-8.4,28.4
				c-3.9,12.5-4.7,14-9.7,29.3c-6.5,20.1-5.6,18.8-11.6,37.3c-4.8,14.8-6.1,17.6-8.1,26c-2.8,11.9-5.7,15.5-7.4,24.1
				c-1.9,9.1-2.6,12.3-11,36.9L-683.9,212.3L-683.9,212.3z"/>
			<path class="st7" d="M-445.3-471.5c3.2,4.2,5.9,7.4,7.6,9.5c3.5,4.2,4.7,5.5,4.7,7.6c0.1,3.3-2.6,4.2-4.7,8.5
				c-3.7,7.2-0.6,13.3-2.8,14.2c-3.3,1.4-9.6-11.8-15.2-10.4c-3.6,0.9-3.7,7.1-7.6,7.6c-3.6,0.4-5.8-4.7-8.5-3.8
				c-2.2,0.8-1.1,4.5-3.8,6.6c-4.1,3.3-11.3-1.7-13.3,0.9c-1.1,1.5,0,4.8,1.9,6.6c2.9,2.8,6.3,0.7,8.5,2.8
				c3.6,3.5-1.6,12.5,0.9,14.2c2.4,1.6,8.3-5.6,11.4-3.8c2.4,1.4-0.3,6.4,2.8,11.4c2.4,3.7,4.9,2.4,8.5,6.6c3.7,4.3,2.3,7,5.7,9.5
				c1.3,1,2.5,1.3,9.5,1.9c11.8,1,12.8,0.6,15.2,1.9c4.2,2.4,7.6,7.5,6.6,11.4c-0.5,2-2.2,3.5-4.7,5.7c-3.6,3.1-5.6,3.3-5.7,4.7
				c-0.1,2.4,5.7,2.9,6.6,6.6c0.7,2.6-1.2,6.1-3.8,7.6c-5.5,3-14.3-3.3-15.2-1.9c-0.6,0.9,3.4,3.3,2.8,5.7c-0.6,2.8-6.6,3.7-7.6,3.8
				c-6.1,0.8-10.2-1.3-17.1-3.8c-13.4-4.9-12.8-2.3-18.9-5.7c-9.3-5.1-14.2-13-16.1-16.1c-5.4-8.8-7.5-19-7.6-18.9
				c-0.1,0,4.7,8.7,1.1,13.1c-0.1,0.1-0.1,0.1-0.1,0.1c-3.8,4.4-13.9,0.5-15.2,0c-2.7-1.1-5.9-2.3-8.5-5.7
				c-2.5-3.2-5.2-9.2-2.8-13.3c2.3-4.2,8.8-4.5,8.5-5.7c-0.1-0.2-0.4-0.7-4.7-1c-5.1-0.3-6,0.2-8.5,0c-1-0.1-6.3-0.7-10.4-4.7
				c-1.4-1.4-3.6-3.6-3.8-6.6c-0.3-5.3,5.6-9.5,4.7-10.4c-0.5-0.6-2.7,1.4-5.7,0.9c-2.7-0.4-4.5-2.5-4.7-2.8
				c-1.9-2.4-1.4-4.6-0.9-15.2c0.3-7.8,0.1-8.4,0.9-10.4c1.7-4.1,4.5-5.6,3.8-7.6c-0.8-2.3-5.3-2.7-6.6-2.8
				c-5.3-0.5-6.8,1.6-13.3,2.8c-3.9,0.7-9.7,1.9-15.2-0.9c-3.1-1.6-5.1-4-6.6-5.7c-2.9-3.4-4.3-6.6-4.7-7.6c-1.2-3-1.7-5.7-1.9-7.6
				L-445.3-471.5L-445.3-471.5z"/>
			<path class="st7" d="M-240.7-329.4c-1.1,6.6,0,11.4,0,11.4c2,8.4,3.1,13.2,6.6,18.9c3.3,5.3,10.1,10.8,23.7,21.8
				c6.9,5.6,7.1,5.1,8.1,6.5c0.2,0.3,0.7,1,1.3,1c1.8,0.2,2.3-4.2,4.7-4.7c1.9-0.5,2.8,1.9,6.6,3.8c0.4,0.2,6.7,3.2,9.5,1
				c2.6-2.1-0.3-6.7,1.9-8.5c3.2-2.7,13.8,4.2,18.9,7.6c5.1,3.3,5.9,4.6,9.5,5.7c2.9,0.9,6.1,0.9,12.3,1c9.2,0,8.9-0.6,11.4,0
				c6.2,1.6,5.5,5.5,12.3,8.5c5.2,2.3,10.4,2.1,16.1,1.9c2.2-0.1,5-0.2,8.5-1c9.3-2,15.6-7,20.8-11.4c3.3-2.7,10.4-9,9.5-10.4
				c-0.6-0.9-4.5,0.6-10.4,2.8c-6.7,2.6-11.2,5-11.4,4.7c-0.2-0.4,14.8-8.2,14.2-9.5c-0.3-0.8-6,1.4-15.2,3.8
				c-5.6,1.5-24.1,6.2-25.6,2.8c-1.2-2.7,9.8-7.9,8.5-13.3c-0.9-3.7-7.1-5.1-9.5-5.7c-8.5-2-12.6,1.4-21.8,1.9
				c-5.8,0.3-10.8-1-20.8-3.8c-13.3-3.6-22.7-8.5-24.6-9.5c-11.2-5.8-21.1-13.4-24.6-16.1c-2.5-1.9-8.3-6.5-16.1-10.4
				c-2.5-1.2-5.9-2.8-10.4-3.8c-3.4-0.7-2.7-0.1-7.6-1c-2.2-0.4-3.6-0.7-4.7,0C-240.2-332.4-240.5-330.8-240.7-329.4L-240.7-329.4z"
				/>
			<path class="st7" d="M-438.7-119.2c0,0.5,0.1,1.3,0.1,2.2c0,0,0.1,2.7-0.1,5.4c-1.1,16.6-10.4,30.3-10.4,30.3
				c-4.2,6.2-8.5,10-12.3,13.3c-2.6,2.3-8.4,6-19.9,13.3c-2.6,1.6-10.1,6.3-19.9,9.5c-2.2,0.7-6.6,2-8.5,0c-1.7-1.7-0.3-4.5-1.9-5.7
				c-2.1-1.5-5.1,2.8-10.4,2.8c-3.3,0-6-1.9-11.4-5.7c-4.4-3.1-6.5-4.6-6.6-6.6c-0.2-4.1,7-7.4,9.5-8.5c7.8-3.6,12.6-2.6,18.9-3.8
				c9.2-1.7,8.4-5.4,26.5-16.1c13.1-7.8,15.9-7.3,25.6-14.2c6.9-5,12-9.9,15.2-13.3L-438.7-119.2L-438.7-119.2z"/>
			<path class="st7" d="M-446.2-76.5l-2,8.5c-0.3,2.4-0.7,6-0.9,10.4c-0.4,6.3-0.3,10.1,0,23.7c0.4,19.2,0.4,19.7,0.9,21.8
				c1.6,5.7,3.6,8.4,4.7,16.1c0.9,5.8,1.5,10.1-0.9,12.3c-2.7,2.4-7.6,1-14.2-1c-6.3-1.8-9.4-2.8-12.3-5.7c-4.7-4.8-5.2-11.2-5.7-18
				c-0.4-5.8,0.2-10.1,0.9-15.2c0.6-3.9,2.2-13,6.6-25.6c3.5-9.7,4.8-10.5,7.6-18.9c2.7-8.3,4.1-15.3,4.7-19.9l0.7-9.3l5.9,1.7
				c0.1,2,0.4,4.6,0.9,7.6c1.4,7.9,3.7,13.8,4.7,16.1c4.6,10.7,7,8.6,12.3,19.9c2.9,6.1,4.1,10.8,7.6,11.4c1.7,0.3,3.8-0.4,4.7-1.9
				c2.4-3.9-4.3-12-3.8-12.3c0.4-0.3,4.1,7.1,11.4,10.4c4.7,2.1,11.3,2.8,13.3,0c1.3-1.8,0.3-4.6-0.9-7.6
				c-5.8-13.5-12.1-17.1-17.1-27.5c-2.1-4.4-3-8.6-4.7-17c-0.5-2.4-2.2-11.1-2.8-22.7c-0.3-6.4-0.2-11.9,0-16.1l-1.8-11L-446.2-76.5
				L-446.2-76.5z"/>
			<path class="st7" d="M-259.8-16.1c0,0.5,0.1,1.3,0.1,2.2c0,0,0.1,2.7-0.1,5.4c-1.1,16.6-10.4,30.3-10.4,30.3
				c-4.2,6.2-8.5,10-12.3,13.3c-2.6,2.3-8.4,6-19.9,13.3c-2.6,1.6-10.1,6.3-19.9,9.5c-2.2,0.7-6.6,2-8.5,0c-1.7-1.7-0.3-4.5-1.9-5.7
				c-2.1-1.5-5.1,2.8-10.4,2.8c-3.3,0-6-1.9-11.4-5.7c-4.4-3.1-6.5-4.6-6.6-6.6c-0.2-4.1,7-7.4,9.5-8.5c7.8-3.6,12.6-2.6,18.9-3.8
				c9.2-1.7,8.4-5.4,26.5-16.1c13.1-7.8,15.9-7.3,25.6-14.2c6.9-5,12-9.9,15.2-13.3L-259.8-16.1L-259.8-16.1z"/>
			<path class="st7" d="M-234.4-135.4c0.2,0.5,0.5,1.2,0.8,2.1c0,0,0.9,2.5,1.5,5.2c3.4,16.4-6.1,33.8-6.1,33.8
				c-4.3,7.9-9.4,13.4-13.9,18.3c-3.1,3.4-10.4,9.6-25,21.8c-3.2,2.7-12.7,10.6-26.1,18.2c-3.1,1.7-8.9,4.9-12.4,3.9
				c-3-0.9-1.8-4.2-4.5-4.6c-3.4-0.5-6.6,5-14.3,7.5c-4.8,1.5-9.3,0.9-18.3-0.2c-7.3-1-10.9-1.4-11.7-3.3c-1.5-3.8,8-10.3,11.2-12.5
				c10.3-7,17.5-8.2,26.4-12.3c12.8-5.8,10.6-9,33.8-27.6c16.7-13.4,21-14.2,33-25.3c8.6-8,14.5-15,18.1-19.6L-234.4-135.4
				L-234.4-135.4z"/>
			<path class="st7" d="M-113.4,0.7c0.2,0.3,0.4,0.7,0.7,1.1c0,0,0.8,1.4,1.4,2.9c3.8,9.2,1.3,19.7,1.3,19.7
				c-1.1,4.7-3,8.2-4.6,11.2c-1.1,2.1-4,6-9.6,13.8c-1.3,1.7-5,6.8-10.7,11.8c-1.3,1.2-3.8,3.3-5.7,2.9c-1.6-0.3-1.4-2.3-2.8-2.4
				c-1.8-0.1-2.7,3.2-6.2,5c-2.2,1.1-4.5,1-9.1,0.8c-3.7-0.2-5.6-0.2-6.2-1.3c-1.2-2.1,2.7-6.3,4-7.7c4.2-4.6,7.7-5.6,11.6-8.4
				c5.6-4,4.1-5.7,13.3-17.5c6.6-8.6,8.6-9.3,13.2-16.2c3.3-5,5.3-9.3,6.5-12.2L-113.4,0.7L-113.4,0.7z"/>
			<path class="st7" d="M-219.7-182.4c0.2,0.3,0.4,0.7,0.7,1.1c0,0,0.8,1.4,1.4,2.9c3.8,9.2,1.3,19.7,1.3,19.7
				c-1.1,4.7-3,8.2-4.6,11.2c-1.1,2.1-4,6-9.6,13.8c-1.3,1.7-5,6.8-10.7,11.8c-1.3,1.1-3.8,3.3-5.7,2.9c-1.6-0.3-1.4-2.3-2.8-2.4
				c-1.8-0.1-2.7,3.2-6.2,5c-2.2,1.1-4.5,1-9.1,0.8c-3.7-0.2-5.6-0.2-6.2-1.3c-1.2-2.1,2.7-6.3,4-7.7c4.2-4.6,7.7-5.6,11.6-8.4
				c5.6-4,4.1-5.7,13.3-17.5c6.6-8.6,8.6-9.3,13.2-16.2c3.3-5,5.3-9.3,6.5-12.2L-219.7-182.4L-219.7-182.4z"/>
			<path class="st7" d="M-421.7-139c-0.1,0.5-0.2,1-0.3,2.2c0,0-0.4,2.7-0.6,5.4c-0.9,9.4,0,18.9,0,18.9c0.3,3.7,0.8,6.4,2.8,8.5
				c0.1,0.1,2.4,2.5,3.8,1.9c1.8-0.9,0.6-6.6,0.9-6.6c0.3,0,0.8,3.3,1.9,6.6c1.9,5.8,5.1,9.6,6.6,11.4c2.5,2.9,4.3,5.1,7.6,6.6
				c6.1,2.9,13.8,1.9,14.2,0c0.5-2.2-9.3-3.1-16.1-12.3c-2.8-3.8-3.8-7.2-5.7-13.3c-2-6.6-1.8-9-3.8-20.8
				c-3.3-19.7-5.2-21.6-6.6-21.8c-1.6-0.2-3.2,1.8-3.8,2.8C-422.1-147-420.8-145-421.7-139L-421.7-139z"/>
			<path class="st7" d="M-398.9-194c0.7,0.2-0.2,5.7-0.9,15.1c-0.7,9.6-0.4,12.2,0,14.2c0.5,2.5,1.6,5.1,3.8,10.4
				c2.5,6.1,4,9.6,6.6,14.2c2.8,4.9,4.5,6.7,3.8,7.6c-0.9,1.1-5.3-0.3-8.5-2.8c-4.1-3.2-3-5.5-7.6-11.4c-4.2-5.4-6.8-5.6-7.6-9.5
				c-0.3-1.6-0.2-3.1-0.9-6.6c-0.6-2.9-1.1-4.6-1.9-4.7c-1.6-0.3-2,5.7-6.6,8.5c-2.9,1.7-3.7,0-8.5,1.9c-4.2,1.6-4.9,3.3-8.5,3.8
				c-2.7,0.3-5.6-0.2-5.7-1c-0.1-0.8,2.8-1.8,5.7-2.8c6-2.1,7.9-1.8,11.4-3.8c2.2-1.3,5.2-3.7,4.7-4.7c-0.4-1-3.5-0.1-10.4,0
				c-6.6,0.1-9.3-0.7-11.4-1.9c-1.5-0.8-4.1-2.7-3.8-3.8c0.4-1.4,4.7-0.3,10.4-1c5.3-0.6,5.3-1.9,16.1-5.7c9.7-3.4,11.4-3,14.2-5.7
				C-400-188.1-399.6-194.2-398.9-194L-398.9-194z"/>
			<path class="st7" d="M-428.3-143.8c-0.7-0.4-2.1,3.9-6.6,5.7c-2.4,1-3.1,0.2-7.6,1c-4.5,0.7-8.6,2.3-8.5,2.8
				c0.1,0.3,1.9,0.2,5.7,0c3.3-0.2,5.5-0.3,8.5-1c3-0.6,4.5-0.9,5.7-1.9C-428.3-139.4-427.7-143.4-428.3-143.8L-428.3-143.8z"/>
			<path class="st7" d="M-245.5-81.3c-2.3-0.8-4.8,7.4-13.3,16.1c-8.5,8.6-13.4,8-23.7,18.9c-7.1,7.5-7.4,10.6-6.6,12.3
				c0.9,2.1,3.9,2.7,4.7,2.8c5.7,1.1,9.6-2.9,19.9-9.5c12.5-8,14.5-7,17.1-11.4c2.1-3.6,2.3-8.1,2.8-17
				C-244.1-76.1-243.8-80.7-245.5-81.3L-245.5-81.3z"/>
			<path class="st7" d="M-266.4-13.3l11.3,27.9c0.6,1.9,1.5,4.3,2.8,7.1c3.2,7.3,6.6,12.5,8,14.5c6.4,9.3,7.8,6.8,15,16.5
				c3.9,5.2,6.1,9.5,9,9.3c1.4-0.1,2.9-1.2,3.2-2.9c0.9-4.3-6.6-10.6-6.3-11.1c0.3-0.4,5.1,5.9,11.8,7.6c4.3,1,9.7,0.3,10.5-2.9
				c0.5-2-0.9-4.5-2.8-7.1c-8.2-11.8-14.1-13.8-20.8-22.8c-2.8-3.8-4.6-7.7-8.3-15.4c-1-2.2-4.7-10.2-8.3-21.3
				c-2-6.1-3.3-11.4-4.3-15.5l-4.3-10.3l-2.8-51.9l4.1,8.3c1.8,4.3,4.2,11,6.1,19.5c1.9,8.7,1.2,10,3.1,20.2
				c2.5,13.1,5.8,21.7,7.3,25.4c1.9,4.8,3.6,8.8,6.9,13.5c3.9,5.5,7.6,10.9,14.1,12.6c3.9,1,7.1,0.2,13.5-1.4
				c6.7-1.7,11.6-3,12.7-6.4c1-3.2-1.8-6.6-5.5-11.1c-4.9-6-8-7.3-12.3-11.4c-1.5-1.5-1.8-1.9-11.9-18.3
				c-7.2-11.5-9.2-14.7-12.1-20.4c-2-3.9-3.5-7.2-4.5-9.5l-2.6-8.3l1.2-6.3c0.7,0.6,1.7,1.6,2.8,2.8c2.6,2.9,3.2,4.6,4.7,6.6
				c0.4,0.5,3.2,4,7.6,5.7c3.8,1.5,10.2,2,12.3-1c1.1-1.5,0.6-3.7-3.8-13.3c-4.1-9.1-9.3-19.5-9.5-19.9c-4.3-8.8-5.1-10.4-5.7-13.3
				c-1.2-5.8-0.7-10.9,0-14.2l7.6-26.5c0.7,1.5,1.7,3.8,2.8,6.6c2.2,5.3,2.8,7.2,4.7,9.5c1.6,1.9,4.4,4.5,5.7,3.8
				c1.5-0.8,0.1-5.4,0.9-5.7c0.9-0.3,1.8,5,5.7,6.6c2.6,1.1,6.1,0.5,6.6-1c0.8-2.3-6.4-6.3-5.7-7.6c0.6-1,5.2,1.5,6.6,0
				c0.5-0.5,1.2-2.1-3.8-10.4c-4.2-7-5.4-7.1-8.5-12.3c-2.9-4.9-5.7-9.6-6.6-16.1c-0.7-4.8,0-8.6-1.9-9.5c-1.4-0.6-3.3,0.7-4.7,1.9
				l-3.4,0.5"/>
			<path class="st7" d="M-121.4,8.7c-2,3.3-4.8,6.7-8.7,7.1s-7.8-4.3-5.4-7.4c1.2-1.5,3.3-1.9,5.2-2.6c6.5-2.4,10.1-9.4,12.4-15.9
				c2.3-6.5,4.4-13.7,9.9-18.1c2,9.1-1.9,18.9,0.3,28.3c1.8,7.7,6.9,14.2,8.9,21.9c2.1,8.3,0.5,17.1,2.5,25.4
				C-92.8,61.5-80,71-72.1,83c0.6,0.9,1.1,1.9,0.9,2.9c-0.3,1.4-2.1,2-3.5,2.2c-4.7,0.5-9.6-1.1-13.1-4.2c-2.6-2.3-6.3-5.5-8.7-3
				c-0.7,0.7-1,1.8-1.7,2.6c-2.1,2.4-6,0.2-8-2.3c-4.4-5.3-7.4-11.7-8.7-18.4c1.4,15-11.4,29.8-26.5,30.6
				c9.6-11.1,17.3-23.7,22.8-37.3c-2.4,15.2-4.8,30.3-7.2,45.5c15,11.3,18.5,34,34.4,43.8c2.5,1.5,5.3,2.7,8.2,2.8
				c6.3,0.1,11.3-5,15.5-9.7c0.8-0.9,1.7-2,1.9-3.2c0.5-3.5-3.9-5.2-7.3-6c-10.1-2.6-18.9-8.9-27.2-15.3c-3.1-2.4-6.2-4.9-8.5-8.1
				c-4.5-6.3-5.2-14.5-5.7-22.3c-9.2,16.4-19,33.4-34.6,43.9c-5.3,3.6-11.2,6.3-16.1,10.4c-1.1,0.9-2.2,2.1-2.2,3.5
				c0,2,2.2,3.3,4.1,3.8c4.7,1.2,9.8,0.5,14-1.9c-2.2,0.8-4.7,1.7-5.8,3.7s0.1,5.4,2.5,5.2c0.7-0.1,1.3-0.5,1.9-0.8
				c9.6-5.8,19.2-11.7,27-19.7c1.7-1.7,3.3-3.6,4.1-5.9c0.7-2,0.7-4.2,0.6-6.4C-119.7,82.3-120.5,45.5-121.4,8.7
				C-121.4,8.7-121.4,8.7-121.4,8.7L-121.4,8.7z"/>
			<path class="st7" d="M-31.4,37.1c0.3,4.2-2.5,11.1-3.8,15.2c-2.1,6.5-7,12.3-8.7,18.4c-0.9,3.2,0.7,7.2,3.9,7.9
				c4.5,0.9,7.3-4.7,8.4-9.2c6,10.6,3.1,24.1-2.3,35.1c-5.4,10.9-13.1,20.8-16.8,32.5c-1.2,3.8-1.2,9.2,2.7,10.2
				c1.4,0.4,2.9,0,4.2-0.6c11.8-5.4,12.2-22,19.9-32.5c6.5,7.7,2.8,19.5-2.1,28.3s-10.9,18.5-8.2,28.2c5.7-6.8,9.6-14.9,11.4-23.6
				c4.1,5,8.3,10.2,13.8,13.7c5.4,3.6,12.4,5.4,18.6,3.2c-12.2-1.3-21.6-12.5-24.8-24.4s-1.4-24.5,0.3-36.7c6.7,5,15.4,7.1,23.6,5.8
				c-5.2-4.7-10.5-9.3-15.7-14c10.3,2.2,21.1,2.5,31.6,1.1C11.7,89.3-1,82.8-11.6,73.4S-30.4,51.2-31.4,37.1L-31.4,37.1z"/>
			<path class="st7" d="M53.8-204.4c0.5-0.2-1.1,54.7-2,59c6.7,2.3,14.3-5.8,11.7-12.4c2.5,11.5-0.7,24.1-8.3,33.1
				c10.1-1,17.9-12.1,15.5-22c3.2,15-1.2,31.3-11.5,42.6c-5.6,6.1-12.7,10.8-17.7,17.3s-7.7,16.1-3.1,22.9
				c22.8-15.1,47.8-33.8,50.2-61c8.2,10,7.9,24.2,6.8,37.1c-2.1,23-5.9,45.9-11.4,68.3c4.1-2.1,11.9-1.1,10,3.1
				c10.4-6.8,14.3-20.1,14.9-32.5s-1.4-24.8,0.6-37.1c11.6,27,40.1,45.7,69.4,45.8c-9.3-3.1-17.8-8.2-24.9-15
				c15.2,5.5,33,3.3,46.4-5.7c6.1-4,11.7-11.2,9.1-18c-4.3,5.7-14.4,5.3-18.3-0.7c3.1,0.9,6.4,1,9.5,0.1c0.7-3.4,1.1-7.2-0.9-10
				s-7.4-2.9-8.3,0.4c0.3-3.4,0.6-6.9,0.8-10.3c-17.3,7.5-37.5,9.1-55.4,3s-33.3-20-39.9-37.7c19.2,5.1,40,10.1,58.3,2.5
				c4.3-1.8,8.6-4.6,9.8-9s-2.7-10.1-7.2-8.8c4.1-1.6,8.3-3.2,12.4-4.8c-11.7-3.5-24.2-0.4-36.3,1.1s-26,0.5-34.1-8.6
				c3.3,1.6,7.3,1.9,10.8,0.7c0.4-6.3-8.3-8-14.6-9c-10.7-1.7-18.2-7.7-25.2-15.4C68.4-188.1,58.2-206.5,53.8-204.4L53.8-204.4z"/>
			<path class="st7" d="M161.2,49.4c-5.9,17.3-15.1,33.5-26.9,47.5c-0.7,0.8-1.3,1.6-2.3,1.9c-2.6,1-5.4-2-5.2-4.9
				c0.2-2.8,2.2-5.1,4.2-7.2c-2.5,3.6-5.3,7.3-9.3,9s-9.7,0.3-11-3.9c-1.2-3.8,1.5-7.6,4-10.7c22.6-29.1,33.4-67,29.5-103.6
				c0.6,5.3,23.8,17.7,28,20.7c12.1,8.6,24.2,17,37.6,23.4c21.3,10.2,45.4,15.9,68.7,11.8c-11.1,14.8-31.7,19.8-49.9,16.7
				s-34.4-13-49.7-23.5c12.4,18.8,34.7,28.6,56.8,33c3.2,0.7,7.4,2.4,7,5.6c-0.2,1.5-1.5,2.7-2.6,3.7c-5.2,4.5-10.5,9.1-17.1,11
				s-14.6,0.4-18.3-5.3c3.2,18.4,15.2,34.3,29.8,46s31.7,19.6,48.6,27.5c-8.4,4.2-18.6,2-27.1-2c-8.4-4.1-16-10-24.6-13.5
				c-2.9-1.2-6.2-2.1-9.1-1.2c-5.2,1.7-6.9,8-7.9,13.4c-2.2,12.2-4.7,24.6-10.9,35.3c-6.2,10.7-16.8,19.6-29.2,20.5
				c22.7-34.8,29-79.9,16.8-119.6c-11.4,13.3-11.7,32.4-14.1,49.7s-9.9,37-26.8,41.5c-0.9-7.2-0.6-14.5,0.9-21.5
				c-1.9,7.8-7.8,17.8-15.2,14.5c-4-1.8-5.3-7.2-4.1-11.4s4.2-7.7,6.9-11.1c20.6-26,29.1-61.2,22.6-93.7
				C161.3,49.1,161.2,49.2,161.2,49.4L161.2,49.4z"/>
			<path class="st7" d="M49.1-466.8c-1,6.8-2.7,16.3-5.7,27.5c-3,11.4-5,19.2-9.5,28.4c-2.6,5.4-8.9,18.3-21.8,30.3
				c-15.2,14.2-33.8,21.8-35.1,19.9c-0.8-1.2,6.1-5.1,13.3-15.1C0.2-389.5,2.7-403.4,3.6-409c3.2-18.8-0.8-35.1-1.9-35
				c-0.7,0-0.5,7-3.8,20.8c-0.1,0.3-0.6,2.5-0.9,3.8c-3.8,13.9-16.3,29.2-19.9,27.5c-4.2-2,4.1-27.1,2.8-27.5
				c-0.7-0.2-2.2,7.9-7.6,16.1c-7.8,11.8-20.9,19.4-23.7,17c-3.4-2.9,8.3-20,5.7-21.8c-1.3-0.9-5.5,2.8-11.4,8.5
				C-74.1-382.9-82.8-372-84.5-373c-2-1.3,8.2-19.2,5.7-20.8c-2-1.3-8.6,10.2-22.7,16.1c-10.3,4.3-21.8,4.5-22.7,1.9
				c-1.4-3.9,19.9-14.2,18.9-16.1c-0.7-1.4-12.2,4.8-28.4,6.6c-14.2,1.6-28.2-0.5-28.4-2.8c-0.2-3.5,31-1.6,63.5-20.8
				c2.6-1.5,15.6-9.4,29.4-23.7c13.4-14,21.7-28,26.5-37.9l107-0.9c1.1,2.5,2.7,6.1,4.7,10.4c12.3,26.2,22,47,36.9,61.6
				c6.5,6.3,16.9,11.5,37.9,21.8c22.8,11.2,49.9,24.4,88.1,34.1c22.6,5.8,36.8,9.4,56.8,9.5c31.3,0.2,56.4-8.4,72-15.1v134.5
				c-2,1-4.9,2.3-8.5,3.8c-14.9,6.1-27.2,8.9-30.3,9.5c-25.9,4.9-53-16.9-54-15.1c-1.1,1.9,36.7,22.7,34.1,29.4
				c-1.7,4.4-20.8,1.6-34.1-1.9c-6.6-1.7-28.1-7.8-71-37.9c-10.3-7.2-12.6-9.3-30.3-21.8c-30.8-21.6-40.6-26.8-44.5-23.7
				c-4.1,3.2,2.6,11.7-0.9,25.6c-3.6,14.2-15.7,25.5-19.9,23.7c-6.3-2.8,3.9-36.1,0.9-36.9c-2.8-0.8-16,28.1-17.1,30.3
				c-3.4,7.5-6.5,14.9-11.4,15.1c-3.4,0.2-4.2-3.2-7.6-3.8c-8.3-1.6-14.1,17-29.4,29.4C22.6-177.8,4.3-175,2.7-177.9
				c-1.7-3,15.8-10.2,31.3-29.4c19.5-24.2,23.4-52.2,26.5-73.9c3.4-23.8,2.3-45.4,0.9-45.5c-0.7-0.1-1.2,6.2-4.7,18
				c-2.9,9.6-3.6,8.9-7.6,20.8c-4.4,13.2-4,15.5-7.6,18.9c-3.7,3.5-6,2.8-12.3,7.6c-2.3,1.8-5.3,4.4-9.5,9.5c-8,9.8-10,16-17.1,27.5
				c-1.8,3-13.7,22.3-17.1,20.8c-3-1.3,3.7-18,0-19.9c-3.6-1.9-15.1,10.8-22.7,23.7c-5.9,9.9-4.2,11.2-8.5,16.1
				c-7.7,8.7-14.9,7-32.2,15.1c-15.3,7.2-13.4,10.2-24.6,14.2c-16.8,6-35.9,4.4-36.9,0c-1-4.1,15.4-7.2,34.1-21.8
				c25.8-20.1,38.4-48.2,35.1-51.1c-2.2-1.9-10,7.6-29.4,14.2c-8.2,2.8-21.6,6.2-22.7,3.8c-2.8-6.2,76.7-45.1,72.9-54
				c-2.2-5.2-31.9,3.2-33.2-1c-0.7-2.4,9.3-5.8,21.8-15.1c8.5-6.4,8.9-8.5,28.4-29.4C-18-323.8-10.7-331.6-4-336
				c14.3-9.5,20-7.5,29.4-14.2c9.1-6.5,19.5-19.6,22.7-49.2L49.1-466.8L49.1-466.8z"/>
			<path class="st7" d="M-584.3-55.6c0.4,0.2-27,26.5-29.7,28.1c2.8,4.9,11,5.2,12.7,0.4c-4.1,7.1-12.1,11.6-20.8,11.7
				c6.3,5.1,16.1,4,19.5-2.2c-5.4,9.2-15.8,14.8-27.2,14.7c-6.1-0.1-12.4-1.8-18.5-1.4s-12.2,3.7-12.9,9.6
				c20.3,5.2,43.7,10,58.2-2.2c-0.2,9.5-7.2,16.4-14,22.1c-12.3,10.2-25.6,19.4-39.6,27.4c3.4,1.3,7.3,6.1,4.2,7.1
				c9.2,2.5,17.9-1.9,24.2-7.7c6.3-5.8,11.2-13.1,18.3-18c-6.4,19.8,0.8,45,17.6,61.5c-3.8-6.7-6.2-14-7-21.3
				c6,11.2,17.3,20.1,29.3,23.1c5.4,1.4,12.1,1,13.9-3.8c-5.2,0.4-10.8-5.4-10.1-10.5c1.3,2.2,3.2,4.1,5.4,5.4
				c2-1.3,4.1-2.9,4.3-5.4s-2.8-5.5-4.9-4.4c1.8-1.5,3.6-3.1,5.5-4.6c-13.6-6-25.8-16.5-33.2-29.5c-7.3-13-9.4-28.5-4.6-41
				c8.5,13.2,18.1,27.3,32.2,33.8c3.3,1.5,7.1,2.5,10,1s3.3-6.5,0.2-8.4c3.1,1.5,6.3,3,9.4,4.6c-5-8.3-13.7-13.7-21.3-19.8
				s-15.2-14.3-15.4-23.3c1.1,2.7,3.3,5,5.9,6.4c3.3-2.9-0.9-8.6-4-12.6c-5.3-6.8-6.7-14-7-21.7C-583.9-39.3-580.9-54.1-584.3-55.6
				L-584.3-55.6z"/>
			<line class="st8" x1="-266.4" y1="-7.6" x2="-256.8" y2="-36.8"/>
			<line class="st8" x1="-255" y1="-66.1" x2="-252.2" y2="-76"/>
		</g>
	</g>
</g>
<g>
	
		<use xlink:href="#Star"  width="3.4" height="3.4" x="-1.7" y="-1.7" transform="matrix(1 0 0 1 52.9799 154.35)" style="overflow:visible;"/>
	
		<use xlink:href="#Star"  width="3.4" height="3.4" x="-1.7" y="-1.7" transform="matrix(1 0 0 1 3.42 125.64)" style="overflow:visible;"/>
	
		<use xlink:href="#Star"  width="3.4" height="3.4" x="-1.7" y="-1.7" transform="matrix(1 0 0 1 90.21 41.67)" style="overflow:visible;"/>
	
		<use xlink:href="#Star"  width="3.4" height="3.4" x="-1.7" y="-1.7" transform="matrix(1 0 0 1 32.3 50.24)" style="overflow:visible;"/>
	
		<use xlink:href="#Star"  width="3.4" height="3.4" x="-1.7" y="-1.7" transform="matrix(1 0 0 1 8.3499 12.81)" style="overflow:visible;"/>
	
		<use xlink:href="#Star"  width="3.4" height="3.4" x="-1.7" y="-1.7" transform="matrix(1 0 0 1 119.22 15.13)" style="overflow:visible;"/>
	
		<use xlink:href="#Star"  width="3.4" height="3.4" x="-1.7" y="-1.7" transform="matrix(1 0 0 1 145.89 198.33)" style="overflow:visible;"/>
	
		<use xlink:href="#Star"  width="3.4" height="3.4" x="-1.7" y="-1.7" transform="matrix(1 0 0 1 226.29 239.13)" style="overflow:visible;"/>
	
		<use xlink:href="#Star"  width="3.4" height="3.4" x="-1.7" y="-1.7" transform="matrix(1 0 0 1 200.82 214.77)" style="overflow:visible;"/>
	
		<use xlink:href="#Star"  width="3.4" height="3.4" x="-1.7" y="-1.7" transform="matrix(1 0 0 1 245.15 96.7)" style="overflow:visible;"/>
	
		<use xlink:href="#Star"  width="3.4" height="3.4" x="-1.7" y="-1.7" transform="matrix(1 0 0 1 44.4 204.83)" style="overflow:visible;"/>
	
		<use xlink:href="#Star"  width="3.4" height="3.4" x="-1.7" y="-1.7" transform="matrix(1 0 0 1 78.2499 82.88)" style="overflow:visible;"/>
</g>
</svg>
