<?xml version="1.0" encoding="utf-8"?>
<!-- Generator: Adobe Illustrator 27.9.0, SVG Export Plug-In . SVG Version: 6.00 Build 0)  -->
<svg version="1.1" id="Layer_12" xmlns="http://www.w3.org/2000/svg" xmlns:xlink="http://www.w3.org/1999/xlink" x="0px" y="0px"
	 viewBox="0 0 303 267.7" style="enable-background:new 0 0 303 267.7;" xml:space="preserve">
<style type="text/css">
	.st0{fill:#453674;}
</style>
<path class="st0" d="M152.1,36.2c0.2,0,0.3,0,0.5,0c8.1,0.4,14.2-7.6,19.5-12.7c6.9-6.6,12.8-12.4,22.1-15.8
	c13-4.8,27.5-6.3,41.1-3.4C265.7,10.5,291,36,298,66.3c9.2,39.4-10.6,79.8-35.1,111.9c-18.5,24.3-40.1,46.2-64,65.1
	c-12.4,9.8-26.2,19.1-42,20.7c-23.3,2.4-44.8-12.4-62.4-27.9c-21.6-19.1-41.2-40.5-58.3-63.7c-18.1-24.5-33.9-52.6-34.5-83
	C1.1,54,23.7,18.7,57,6.7c17.3-6.3,36-5.8,53.1,1.1c8.7,3.5,16.7,8.6,24,14.5C139.8,26.9,143.9,35.5,152.1,36.2L152.1,36.2z"/>
</svg>
