<?xml version="1.0" encoding="utf-8"?>
<!-- Generator: Adobe Illustrator 27.9.0, SVG Export Plug-In . SVG Version: 6.00 Build 0)  -->
<svg version="1.1" id="Layer_4" xmlns="http://www.w3.org/2000/svg" xmlns:xlink="http://www.w3.org/1999/xlink" x="0px" y="0px"
	 viewBox="0 0 311.3 152.1" style="enable-background:new 0 0 311.3 152.1;" xml:space="preserve">
<style type="text/css">
	.st0{clip-path:url(#SVGID_00000166657052039613823350000000580514721700852665_);}
	.st1{fill:#30274F;}
	.st2{fill:#54458C;}
</style>
<g>
	<defs>
		<rect id="SVGID_1_" x="0" width="311.3" height="152.4"/>
	</defs>
	<clipPath id="SVGID_00000111160045048049852260000013669409906302635922_">
		<use xlink:href="#SVGID_1_"  style="overflow:visible;"/>
	</clipPath>
	<g style="clip-path:url(#SVGID_00000111160045048049852260000013669409906302635922_);">
		<path class="st1" d="M349.2,124.9l-38.9,7.9c-11.4,2.3-23.2-2.2-30.1-11.7l-11.4-15.5c-6.9-9.4-18.7-14-30.1-11.7l-20.2,4.1
			c-11.4,2.3-23.2-2.2-30.1-11.7l-11.6-15.8c-6.8-9.2-18.2-13.8-29.5-11.8l-22.6,4.1c-11.5,2.1-23.2-2.7-29.9-12.3l-9.7-13.9
			c-6.8-9.7-18.5-14.5-30.1-12.3l-21.3,4c-11.5,2.2-23.2-2.6-30-12.1L-17.9-14L-75,136.9l367.1,138.9L349.2,124.9L349.2,124.9z"/>
		<path class="st2" d="M337.4,167.7l-39.4,4.7c-11.6,1.4-23-4.1-29.1-14l-10.1-16.4c-6.1-9.9-17.5-15.4-29.1-14l-20.4,2.5
			c-11.6,1.4-23-4.1-29.1-14l-10.3-16.7c-6-9.8-17.1-15.2-28.5-14.1L118.5,88c-11.7,1.2-22.9-4.6-28.8-14.7L81,58.6
			c-6-10.2-17.3-15.9-29-14.7l-21.6,2.3C18.8,47.5,7.5,41.9,1.5,31.8L-17.5,0l-68.9,145.8l354.9,167.7L337.4,167.7L337.4,167.7z"/>
		<path class="st1" d="M311.3,210.7l-39.7-0.2c-11.7-0.1-22.3-6.9-27.1-17.5l-8-17.5c-4.8-10.6-15.4-17.5-27.1-17.5l-20.6-0.1
			c-11.7-0.1-22.3-6.9-27.1-17.5l-8.2-17.9c-4.8-10.4-15-17.2-26.5-17.5l-23-0.6c-11.7-0.3-22.2-7.4-26.8-18.2l-6.7-15.6
			c-4.6-10.8-15.2-17.9-27-18.2l-21.7-0.4c-11.7-0.2-22.2-7.2-26.9-18L-19.8,0l-86.6,136.1l331.1,210.7L311.3,210.7L311.3,210.7z"/>
		<path class="st2" d="M279.6,281.3l-39.4-4.9c-11.6-1.4-21.3-9.5-24.9-20.6l-5.9-18.3c-3.6-11.1-13.3-19.2-24.9-20.6l-20.4-2.5
			c-11.6-1.4-21.3-9.5-24.9-20.6l-6-18.7c-3.5-10.9-12.9-18.9-24.2-20.5l-22.7-3.3c-11.6-1.7-21.1-10-24.5-21.2l-4.8-16.3
			c-3.3-11.3-13-19.6-24.7-21.2l-21.5-3c-11.6-1.6-21.2-9.8-24.6-21L-24.4,33l-102,125l304,248.3L279.6,281.3L279.6,281.3z"/>
	</g>
</g>
</svg>
