<?xml version="1.0" encoding="utf-8"?>
<!-- Generator: Adobe Illustrator 27.9.0, SVG Export Plug-In . SVG Version: 6.00 Build 0)  -->
<svg version="1.1" id="Layer_3" xmlns="http://www.w3.org/2000/svg" xmlns:xlink="http://www.w3.org/1999/xlink" x="0px" y="0px"
	 viewBox="0 0 165.3 142.9" style="enable-background:new 0 0 165.3 142.9;" xml:space="preserve">
<style type="text/css">
	.st0{clip-path:url(#SVGID_00000067207729197350427250000016678642781963357838_);}
	.st1{fill:#433770;}
	.st2{fill:#30274F;}
	.st3{fill:#241E3C;}
</style>
<g>
	<g>
		<defs>
			<rect id="SVGID_1_" y="2.8" width="165.3" height="140.2"/>
		</defs>
		<clipPath id="SVGID_00000102537655484058256970000006922280516404045467_">
			<use xlink:href="#SVGID_1_"  style="overflow:visible;"/>
		</clipPath>
		<g style="clip-path:url(#SVGID_00000102537655484058256970000006922280516404045467_);">
			<path class="st1" d="M-5.8-17l4,20.7c2.2,11,13.7,18.1,25.5,15.8c11.8-2.4,23.4,5,25.5,16C51.4,46.6,63.1,54,75,51.6
				c11.7-2.4,23.2,4.6,25.7,15.5l0.5,2.4c2.4,10.6,13.8,17.3,25.2,14.8c11.5-2.6,22.9,4.2,25.2,14.9l0.2,1.1
				c2.4,11.2,14.4,18.4,26.5,15.8l20.2-4.4l-92.7,126L-98.5,109L-5.8-17L-5.8-17z"/>
			<path class="st2" d="M-23.1-1l4,20.7c2.2,11,13.7,18.1,25.5,15.8c11.8-2.4,23.4,5,25.5,16C34.1,62.6,45.8,70,57.7,67.6
				c11.7-2.4,23.2,4.6,25.7,15.5l0.5,2.3c2.4,10.6,13.7,17.3,25.2,14.8c11.5-2.6,22.9,4.2,25.2,14.9l0.2,1.1
				c2.4,11.2,14.4,18.4,26.5,15.8l20.2-4.4l-92.7,126L-115.8,125L-23.1-1L-23.1-1z"/>
			<path class="st3" d="M-37.2,20l4,20.7c2.2,11,13.7,18.1,25.5,15.8c11.8-2.4,23.4,5,25.5,16C20,83.6,31.8,91,43.7,88.6
				c11.7-2.4,23.2,4.6,25.7,15.5l0.5,2.3c2.4,10.6,13.7,17.3,25.2,14.8c11.5-2.6,22.9,4.2,25.2,14.9l0.2,1.1
				c2.4,11.2,14.4,18.4,26.5,15.8l20.2-4.4l-92.7,126L-129.9,146L-37.2,20L-37.2,20z"/>
		</g>
	</g>
</g>
</svg>
