<?xml version="1.0" encoding="UTF-8"?><svg xmlns="http://www.w3.org/2000/svg" width="933" height="929" xmlns:xlink="http://www.w3.org/1999/xlink" viewBox="0 0 933 929"><defs><filter id="outer-glow-1" filterUnits="userSpaceOnUse"><feOffset dx="0" dy="0"/><feGaussianBlur result="blur" stdDeviation="10"/><feFlood flood-color="#fff" flood-opacity=".55"/><feComposite in2="blur" operator="in"/><feComposite in="SourceGraphic"/></filter><filter id="outer-glow-2" filterUnits="userSpaceOnUse"><feOffset dx="0" dy="0"/><feGaussianBlur result="blur-2" stdDeviation="10"/><feFlood flood-color="#fff" flood-opacity=".55"/><feComposite in2="blur-2" operator="in"/><feComposite in="SourceGraphic"/></filter><filter id="outer-glow-3" filterUnits="userSpaceOnUse"><feOffset dx="0" dy="0"/><feGaussianBlur result="blur-3" stdDeviation="10"/><feFlood flood-color="#fff" flood-opacity=".55"/><feComposite in2="blur-3" operator="in"/><feComposite in="SourceGraphic"/></filter><filter id="outer-glow-4" filterUnits="userSpaceOnUse"><feOffset dx="0" dy="0"/><feGaussianBlur result="blur-4" stdDeviation="10"/><feFlood flood-color="#fff" flood-opacity=".55"/><feComposite in2="blur-4" operator="in"/><feComposite in="SourceGraphic"/></filter><filter id="outer-glow-5" filterUnits="userSpaceOnUse"><feOffset dx="0" dy="0"/><feGaussianBlur result="blur-5" stdDeviation="10"/><feFlood flood-color="#fff" flood-opacity=".55"/><feComposite in2="blur-5" operator="in"/><feComposite in="SourceGraphic"/></filter><filter id="outer-glow-6" filterUnits="userSpaceOnUse"><feOffset dx="0" dy="0"/><feGaussianBlur result="blur-6" stdDeviation="10"/><feFlood flood-color="#fff" flood-opacity=".55"/><feComposite in2="blur-6" operator="in"/><feComposite in="SourceGraphic"/></filter><filter id="outer-glow-7" filterUnits="userSpaceOnUse"><feOffset dx="0" dy="0"/><feGaussianBlur result="blur-7" stdDeviation="10"/><feFlood flood-color="#fff" flood-opacity=".55"/><feComposite in2="blur-7" operator="in"/><feComposite in="SourceGraphic"/></filter><filter id="outer-glow-8" filterUnits="userSpaceOnUse"><feOffset dx="0" dy="0"/><feGaussianBlur result="blur-8" stdDeviation="10"/><feFlood flood-color="#fff" flood-opacity=".55"/><feComposite in2="blur-8" operator="in"/><feComposite in="SourceGraphic"/></filter><filter id="outer-glow-9" filterUnits="userSpaceOnUse"><feOffset dx="0" dy="0"/><feGaussianBlur result="blur-9" stdDeviation="10"/><feFlood flood-color="#fff" flood-opacity=".55"/><feComposite in2="blur-9" operator="in"/><feComposite in="SourceGraphic"/></filter><filter id="outer-glow-10" filterUnits="userSpaceOnUse"><feOffset dx="0" dy="0"/><feGaussianBlur result="blur-10" stdDeviation="10"/><feFlood flood-color="#fff" flood-opacity=".55"/><feComposite in2="blur-10" operator="in"/><feComposite in="SourceGraphic"/></filter><filter id="outer-glow-11" filterUnits="userSpaceOnUse"><feOffset dx="0" dy="0"/><feGaussianBlur result="blur-11" stdDeviation="3"/><feFlood flood-color="#fff" flood-opacity=".75"/><feComposite in2="blur-11" operator="in"/><feComposite in="SourceGraphic"/></filter><filter id="outer-glow-12" filterUnits="userSpaceOnUse"><feOffset dx="0" dy="0"/><feGaussianBlur result="blur-12" stdDeviation="3"/><feFlood flood-color="#fff" flood-opacity=".75"/><feComposite in2="blur-12" operator="in"/><feComposite in="SourceGraphic"/></filter><filter id="outer-glow-13" filterUnits="userSpaceOnUse"><feOffset dx="0" dy="0"/><feGaussianBlur result="blur-13" stdDeviation="3"/><feFlood flood-color="#fff" flood-opacity=".75"/><feComposite in2="blur-13" operator="in"/><feComposite in="SourceGraphic"/></filter><filter id="outer-glow-14" filterUnits="userSpaceOnUse"><feOffset dx="0" dy="0"/><feGaussianBlur result="blur-14" stdDeviation="3"/><feFlood flood-color="#fff" flood-opacity=".75"/><feComposite in2="blur-14" operator="in"/><feComposite in="SourceGraphic"/></filter><filter id="outer-glow-15" filterUnits="userSpaceOnUse"><feOffset dx="0" dy="0"/><feGaussianBlur result="blur-15" stdDeviation="3"/><feFlood flood-color="#fff" flood-opacity=".75"/><feComposite in2="blur-15" operator="in"/><feComposite in="SourceGraphic"/></filter><filter id="outer-glow-16" filterUnits="userSpaceOnUse"><feOffset dx="0" dy="0"/><feGaussianBlur result="blur-16" stdDeviation="3"/><feFlood flood-color="#fff" flood-opacity=".75"/><feComposite in2="blur-16" operator="in"/><feComposite in="SourceGraphic"/></filter><filter id="outer-glow-17" filterUnits="userSpaceOnUse"><feOffset dx="0" dy="0"/><feGaussianBlur result="blur-17" stdDeviation="3"/><feFlood flood-color="#fff" flood-opacity=".75"/><feComposite in2="blur-17" operator="in"/><feComposite in="SourceGraphic"/></filter><filter id="outer-glow-18" filterUnits="userSpaceOnUse"><feOffset dx="0" dy="0"/><feGaussianBlur result="blur-18" stdDeviation="3"/><feFlood flood-color="#fff" flood-opacity=".75"/><feComposite in2="blur-18" operator="in"/><feComposite in="SourceGraphic"/></filter><filter id="outer-glow-19" filterUnits="userSpaceOnUse"><feOffset dx="0" dy="0"/><feGaussianBlur result="blur-19" stdDeviation="3"/><feFlood flood-color="#fff" flood-opacity=".75"/><feComposite in2="blur-19" operator="in"/><feComposite in="SourceGraphic"/></filter></defs><g isolation="isolate"><g id="Lag_1"><g id="stjernebillede"><g id="linjer"><line x1="571.73" y1="525.2" x2="240.77" y2="480.7" fill="#fff" stroke="#fff" stroke-miterlimit="10" stroke-width=".5"/><line x1="214.89" y1="704.4" x2="240.77" y2="480.7" fill="#fff" stroke="#fff" stroke-miterlimit="10" stroke-width=".5"/><line x1="106.5" y1="895.5" x2="214.89" y2="704.4" fill="#fff" stroke="#fff" stroke-miterlimit="10" stroke-width=".5"/><line x1="144.57" y1="333.83" x2="240.65" y2="482.04" fill="#fff" stroke="#fff" stroke-miterlimit="10" stroke-width=".5"/><line x1="48.07" y1="56.97" x2="144.57" y2="333.83" fill="#fff" stroke="#fff" stroke-miterlimit="10" stroke-width=".5"/></g><g id="stor_stjerne" filter="url(#outer-glow-1)"><path d="m586.47,503.19c-21.09,13.99-27.25,13.99-48.34,0-.71-.47-1.49.47-.9,1.08,16.69,17.21,16.69,22.35,0,39.56-.59.61.19,1.55.9,1.08,21.09-13.99,27.25-13.99,48.34,0,.71.47,1.49-.47.9-1.08-16.69-17.21-16.69-22.35,0-39.56.59-.61-.19-1.55-.9-1.08Z" fill="#fff" stroke-width="0"/><path d="m606.75,522.88c-34.1-4.27-39.93-10.66-43.53-50.69-.12-1.35-1.93-1.35-2.05,0-3.6,40.03-9.59,46.42-43.69,50.69-1.3.16-1.3,2.04,0,2.2,34.1,4.27,39.93,10.66,43.53,50.69.12,1.35,2.09,1.35,2.21,0,3.6-40.03,9.43-46.42,43.53-50.69,1.3-.16,1.3-2.04,0-2.2Z" fill="#fff" stroke-width="0"/></g><g id="stjerne" filter="url(#outer-glow-2)"><path d="m77.36,896.57c38.97,6.36,35.94,9.98,30.29-33.22-.11-.83-1.31-.83-1.41,0-5.66,43.2-8.68,39.58,30.29,33.22.8-.13.8-1.27,0-1.4-38.97-6.36-35.94-9.98-30.29,33.22.11.83,1.31.83,1.41,0,5.66-43.2,8.68-39.58-30.29-33.22-.8.13-.8,1.27,0,1.4Z" fill="#fff" stroke-width="0"/><path d="m120.4,908.5c-14.83-19.88-11.93-19.88-26.76,0-.26.36.18.8.54.54,19.88-14.83,19.88-11.93,0-26.76-.36-.26-.8.18-.54.54,14.83,19.88,11.93,19.88,26.76,0,.26-.36-.18-.8-.54-.54-19.88,14.83-19.88,11.93,0,26.76.36.26.8-.18.54-.54Z" fill="#fff" stroke-width="0"/></g><g id="stjerne-2" filter="url(#outer-glow-3)"><path d="m254,493.69c-14.83-19.88-11.93-19.88-26.76,0-.26.36.18.8.54.54,19.88-14.83,19.88-11.93,0-26.76-.36-.26-.8.18-.54.54,14.83,19.88,11.93,19.88,26.76,0,.26-.36-.18-.8-.54-.54-19.88,14.83-19.88,11.93,0,26.76.36.26.8-.18.54-.54Z" fill="#fff" stroke-width="0"/><path d="m210.95,481.76c38.97,6.36,35.94,9.98,30.29-33.22-.11-.83-1.31-.83-1.41,0-5.66,43.2-8.68,39.58,30.29,33.22.8-.13.8-1.27,0-1.4-38.97-6.36-35.94-9.98-30.29,33.22.11.83,1.31.83,1.41,0,5.66-43.2,8.68-39.58-30.29-33.22-.8.13-.8,1.27,0,1.4Z" fill="#fff" stroke-width="0"/></g><g id="stor_stjerne-2" filter="url(#outer-glow-4)"><path d="m73.38,32.01c-21.09,13.99-27.25,13.99-48.34,0-.71-.47-1.49.47-.9,1.08,16.69,17.21,16.69,22.35,0,39.56-.59.61.19,1.55.9,1.08,21.09-13.99,27.25-13.99,48.34,0,.71.47,1.49-.47.9-1.08-16.69-17.21-16.69-22.35,0-39.56.59-.61-.19-1.55-.9-1.08Z" fill="#fff" stroke-width="0"/><path d="m93.65,51.7c-34.1-4.27-39.93-10.66-43.53-50.69-.12-1.35-1.93-1.35-2.05,0-3.6,40.03-9.59,46.42-43.69,50.69-1.3.16-1.3,2.04,0,2.2,34.1,4.27,39.93,10.66,43.53,50.69.12,1.35,2.09,1.35,2.21,0,3.6-40.03,9.43-46.42,43.53-50.69,1.3-.16,1.3-2.04,0-2.2Z" fill="#fff" stroke-width="0"/></g><path id="lille_stjerne" d="m234.02,703.81c-13.72-2.76-16.42-6-18.49-23.75-.08-.72-1.13-.72-1.21,0-2.06,17.74-4.77,20.99-18.49,23.75-.65.13-.65,1.07,0,1.2,13.72,2.74,16.43,5.98,18.49,23.74.08.72,1.13.72,1.21,0,2.07-17.76,4.77-21,18.49-23.74.65-.13.65-1.06,0-1.2Z" fill="#fff" filter="url(#outer-glow-5)" stroke-width="0"/><path id="lille_stjerne-2" d="m163.7,333.24c-13.72-2.76-16.42-6-18.49-23.75-.08-.72-1.13-.72-1.21,0-2.06,17.74-4.77,20.99-18.49,23.75-.65.13-.65,1.07,0,1.2,13.72,2.74,16.43,5.98,18.49,23.74.08.72,1.13.72,1.21,0,2.07-17.76,4.77-21,18.49-23.74.65-.13.65-1.06,0-1.2Z" fill="#fff" filter="url(#outer-glow-6)" stroke-width="0"/></g><g id="lille_stjernebillede"><g id="linjer-2"><line x1="852.89" y1="513.91" x2="888.71" y2="338.74" fill="#fff" stroke="#fff" stroke-miterlimit="10" stroke-width=".5"/><line x1="828.89" y1="194.65" x2="888.2" y2="338.31" fill="#fff" stroke="#fff" stroke-miterlimit="10" stroke-width=".5"/><line x1="685.35" y1="243.42" x2="828.89" y2="194.65" fill="#fff" stroke="#fff" stroke-miterlimit="10" stroke-width=".5"/><line x1="519.01" y1="198.28" x2="685.35" y2="243.42" fill="#fff" stroke="#fff" stroke-miterlimit="10" stroke-width=".5"/></g><image width="58" height="59" transform="translate(800 165)" xlink:href="../../../../../../../../var/folders/jy/yybbx5mx5kxfczgdqv9wrqdc0000gn/T/TemporaryItems/NSIRD_Illustrator_KKcCmg/AI_28_0/Adobe/AISVG/5/illustration-stopsleep/illustration-stopsleep1.png" mix-blend-mode="screen" opacity=".5"/><path d="m815.03,180.99c20.62,15.61,20.62,11.56,0,27.17,15.61-20.62,11.56-20.62,27.17,0-20.62-15.61-20.62-11.56,0-27.17-15.61,20.62-11.56,20.62-27.17,0Z" fill="#fff" stroke-width="0"/><image width="93" height="100" transform="translate(782 145)" xlink:href="../../../../../../../../var/folders/jy/yybbx5mx5kxfczgdqv9wrqdc0000gn/T/TemporaryItems/NSIRD_Illustrator_KKcCmg/AI_28_0/Adobe/AISVG/5/illustration-stopsleep/illustration-stopsleep2.png" mix-blend-mode="screen" opacity=".5"/><path d="m797.67,194.67c41.03-6.35,36.44-11.49,30.78,34.47-5.67-45.96-10.26-40.81,30.78-34.47-41.03,6.35-36.44,11.49-30.78-34.47,5.67,45.96,10.26,40.81-30.78,34.47Z" fill="#fff" stroke-width="0"/><path id="stjerne-3" d="m902.53,340.06c-9.71,1.95-11.62,4.25-13.09,16.81-.06.51-.8.51-.86,0-1.46-12.56-3.38-14.86-13.09-16.81-.46-.09-.46-.75,0-.85,9.71-1.94,11.63-4.24,13.09-16.81.06-.51.8-.51.86,0,1.46,12.57,3.38,14.87,13.09,16.81.46.09.46.75,0,.85Z" fill="#fff" filter="url(#outer-glow-7)" stroke-width="0"/><path id="stjerne-4" d="m532.39,199.11c-9.71,1.95-11.62,4.25-13.09,16.81-.06.51-.8.51-.86,0-1.46-12.56-3.38-14.86-13.09-16.81-.46-.09-.46-.75,0-.85,9.71-1.94,11.63-4.24,13.09-16.81.06-.51.8-.51.86,0,1.46,12.57,3.38,14.87,13.09,16.81.46.09.46.75,0,.85Z" fill="#fff" filter="url(#outer-glow-8)" stroke-width="0"/><path id="stjerne-5" d="m861.64,514.6c-5.99,1.21-7.17,2.62-8.08,10.37-.04.31-.49.31-.53,0-.9-7.75-2.08-9.17-8.08-10.37-.28-.06-.28-.47,0-.52,5.99-1.2,7.18-2.61,8.08-10.37.04-.31.49-.31.53,0,.9,7.76,2.08,9.17,8.08,10.37.28.06.29.47,0,.52Z" fill="#fff" filter="url(#outer-glow-9)" stroke-width="0"/><path id="stjerne-6" d="m693.58,243.67c-5.99,1.21-7.17,2.62-8.08,10.37-.04.31-.49.31-.53,0-.9-7.75-2.08-9.17-8.08-10.37-.28-.06-.28-.47,0-.52,5.99-1.2,7.18-2.61,8.08-10.37.04-.31.49-.31.53,0,.9,7.76,2.08,9.17,8.08,10.37.28.06.29.47,0,.52Z" fill="#fff" filter="url(#outer-glow-10)" stroke-width="0"/></g><g id="stjerner"><path id="lille_stjerne-3" d="m19.78,547.87c-3.64-.73-4.36-1.59-4.91-6.3-.02-.19-.3-.19-.32,0-.55,4.71-1.27,5.57-4.91,6.3-.17.03-.17.28,0,.32,3.64.73,4.36,1.59,4.91,6.3.02.19.3.19.32,0,.55-4.72,1.27-5.58,4.91-6.3.17-.03.17-.28,0-.32Z" fill="#fff" filter="url(#outer-glow-11)" stroke-width="0"/><path id="lille_stjerne-4" d="m838.75,785.73c-4.69-.94-5.62-2.05-6.32-8.12-.03-.25-.39-.25-.41,0-.7,6.07-1.63,7.18-6.33,8.12-.22.04-.22.36,0,.41,4.69.94,5.62,2.05,6.33,8.12.03.25.39.25.41,0,.71-6.08,1.63-7.19,6.32-8.12.22-.04.22-.36,0-.41Z" fill="#fff" filter="url(#outer-glow-12)" stroke-width="0"/><path id="lille_stjerne-5" d="m763.75,596.73c-4.69-.94-5.62-2.05-6.32-8.12-.03-.25-.39-.25-.41,0-.7,6.07-1.63,7.18-6.33,8.12-.22.04-.22.36,0,.41,4.69.94,5.62,2.05,6.33,8.12.03.25.39.25.41,0,.71-6.08,1.63-7.19,6.32-8.12.22-.04.22-.36,0-.41Z" fill="#fff" filter="url(#outer-glow-13)" stroke-width="0"/><path id="lille_stjerne-6" d="m445.74,612.47c-3.98-.8-4.76-1.74-5.37-6.89-.02-.21-.33-.21-.35,0-.6,5.15-1.38,6.09-5.37,6.89-.19.04-.19.31,0,.35,3.98.8,4.77,1.74,5.37,6.89.02.21.33.21.35,0,.6-5.15,1.38-6.1,5.37-6.89.19-.04.19-.31,0-.35Z" fill="#fff" filter="url(#outer-glow-14)" stroke-width="0"/><path id="lille_stjerne-7" d="m285.74,744.47c-3.98-.8-4.76-1.74-5.37-6.89-.02-.21-.33-.21-.35,0-.6,5.15-1.38,6.09-5.37,6.89-.19.04-.19.31,0,.35,3.98.8,4.77,1.74,5.37,6.89.02.21.33.21.35,0,.6-5.15,1.38-6.1,5.37-6.89.19-.04.19-.31,0-.35Z" fill="#fff" filter="url(#outer-glow-15)" stroke-width="0"/><path id="lille_stjerne-8" d="m749.19,346.49c-3.43-.69-4.11-1.5-4.62-5.94-.02-.18-.28-.18-.3,0-.51,4.44-1.19,5.25-4.62,5.94-.16.03-.16.27,0,.3,3.43.68,4.11,1.5,4.62,5.94.02.18.28.18.3,0,.52-4.44,1.19-5.25,4.62-5.94.16-.03.16-.27,0-.3Z" fill="#fff" filter="url(#outer-glow-16)" stroke-width="0"/><path id="lille_stjerne-9" d="m781.19,139.49c-3.43-.69-4.11-1.5-4.62-5.94-.02-.18-.28-.18-.3,0-.51,4.44-1.19,5.25-4.62,5.94-.16.03-.16.27,0,.3,3.43.68,4.11,1.5,4.62,5.94.02.18.28.18.3,0,.52-4.44,1.19-5.25,4.62-5.94.16-.03.16-.27,0-.3Z" fill="#fff" filter="url(#outer-glow-17)" stroke-width="0"/><path id="lille_stjerne-10" d="m336.74,219.47c-3.98-.8-4.76-1.74-5.37-6.89-.02-.21-.33-.21-.35,0-.6,5.15-1.38,6.09-5.37,6.89-.19.04-.19.31,0,.35,3.98.8,4.77,1.74,5.37,6.89.02.21.33.21.35,0,.6-5.15,1.38-6.1,5.37-6.89.19-.04.19-.31,0-.35Z" fill="#fff" filter="url(#outer-glow-18)" stroke-width="0"/><path id="lille_stjerne-11" d="m256.96,155.49c-5.12-1.03-6.13-2.24-6.9-8.87-.03-.27-.42-.27-.45,0-.77,6.62-1.78,7.83-6.9,8.87-.24.05-.24.4,0,.45,5.12,1.02,6.14,2.23,6.9,8.86.03.27.42.27.45,0,.77-6.63,1.78-7.84,6.9-8.86.24-.05.24-.4,0-.45Z" fill="#fff" filter="url(#outer-glow-19)" stroke-width="0"/></g></g></g></svg>