<?xml version="1.0" encoding="UTF-8"?><svg id="Lag_1" xmlns="http://www.w3.org/2000/svg" width="989.88" height="492" xmlns:xlink="http://www.w3.org/1999/xlink" viewBox="0 0 989.88 492"><defs><filter id="outer-glow-1" filterUnits="userSpaceOnUse"><feOffset dx="0" dy="0"/><feGaussianBlur result="blur" stdDeviation="5"/><feFlood flood-color="#fff" flood-opacity=".36"/><feComposite in2="blur" operator="in"/><feComposite in="SourceGraphic"/></filter><filter id="outer-glow-2" filterUnits="userSpaceOnUse"><feOffset dx="0" dy="0"/><feGaussianBlur result="blur-2" stdDeviation="5"/><feFlood flood-color="#fff" flood-opacity=".36"/><feComposite in2="blur-2" operator="in"/><feComposite in="SourceGraphic"/></filter><filter id="outer-glow-3" filterUnits="userSpaceOnUse"><feOffset dx="0" dy="0"/><feGaussianBlur result="blur-3" stdDeviation="5"/><feFlood flood-color="#fff" flood-opacity=".36"/><feComposite in2="blur-3" operator="in"/><feComposite in="SourceGraphic"/></filter><filter id="outer-glow-4" filterUnits="userSpaceOnUse"><feOffset dx="0" dy="0"/><feGaussianBlur result="blur-4" stdDeviation="5"/><feFlood flood-color="#fff" flood-opacity=".36"/><feComposite in2="blur-4" operator="in"/><feComposite in="SourceGraphic"/></filter><filter id="outer-glow-5" filterUnits="userSpaceOnUse"><feOffset dx="0" dy="0"/><feGaussianBlur result="blur-5" stdDeviation="5"/><feFlood flood-color="#fff" flood-opacity=".36"/><feComposite in2="blur-5" operator="in"/><feComposite in="SourceGraphic"/></filter><filter id="outer-glow-6" filterUnits="userSpaceOnUse"><feOffset dx="0" dy="0"/><feGaussianBlur result="blur-6" stdDeviation="10"/><feFlood flood-color="#fff" flood-opacity=".5"/><feComposite in2="blur-6" operator="in"/><feComposite in="SourceGraphic"/></filter></defs><path d="m542.06,245.15c-18.92-10.49-31.66-25.76,34.91-32.54,0,0-1.11-57.89,88.77-44.32,0,0-22.19-53.37,54.37-38.89,0,0,48.82-78.69,128.71,3.62,0,0,85.44-13.57,77.67,47.94,0,0,87.91,9.76,56.66,50.26-12.07,15.65-33.72,24.63-56.38,24.08-43.88-1.06-129.3-2.56-163.77.73-36.91,3.53-135.45,1.55-177.06.51-15.65-.39-30.95-4.21-43.89-11.39Z" fill="#efede4" opacity=".1" stroke-width="0"/><path d="m17.77,291.71c-21.94-12.25-36.94-29.69,39.07-35.58,0,0-3.84-115.65,113.94-64.55,0,0-1.28-169.98,163.87-60.11,0,0,151.07-214.22,207.4,3.63,0,0,97.3-45.72,94.74,67.24,0,0,90.9-40.34,94.74,36.31,0,0,55.05-25.55,56.33,25.55,0,0,96.28,17.27,15.54,41.71-9.32,2.82-18.94,4.39-28.63,4.76-42.15,1.61-173.78,5.06-213.51.59-71.69-8.07-161.78,2.59-206.99,1.3-40.51-1.16-246.21-10.71-288.43-9.84-16.68.34-33.33-2.79-48.06-11.02Z" fill="#efede4" opacity=".1" stroke-width="0"/><path id="stjerne" d="m546.91,114.24c-13.16,2.65-15.75,5.76-17.73,22.77-.08.69-1.08.69-1.16,0-1.97-17.01-4.58-20.13-17.73-22.77-.62-.13-.62-1.02,0-1.15,13.16-2.63,15.76-5.74,17.73-22.77.08-.69,1.08-.69,1.16,0,1.98,17.03,4.57,20.14,17.73,22.77.63.12.63,1.02,0,1.15Z" fill="#fff" filter="url(#outer-glow-1)" stroke-width="0"/><path id="stjerne-2" d="m910.92,297.04c-13.16,2.65-15.75,5.76-17.73,22.77-.08.69-1.08.69-1.16,0-1.97-17.01-4.58-20.13-17.73-22.77-.62-.13-.62-1.02,0-1.15,13.16-2.63,15.76-5.74,17.73-22.77.08-.69,1.08-.69,1.16,0,1.98,17.03,4.57,20.14,17.73,22.77.63.12.63,1.02,0,1.15Z" fill="#fff" filter="url(#outer-glow-2)" stroke-width="0"/><path id="stjerne-3" d="m210.92,462.19c-5.39,1.08-6.45,2.36-7.27,9.33-.03.28-.44.28-.48,0-.81-6.97-1.88-8.25-7.27-9.33-.26-.05-.26-.42,0-.47,5.39-1.08,6.46-2.35,7.27-9.33.03-.28.44-.28.48,0,.81,6.98,1.87,8.26,7.27,9.33.26.05.26.42,0,.47Z" fill="#fff" filter="url(#outer-glow-3)" stroke-width="0"/><path id="stjerne-4" d="m155.78,406.31c-10.43,2.1-12.49,4.57-14.06,18.06-.06.55-.86.55-.92,0-1.56-13.49-3.63-15.96-14.06-18.06-.5-.1-.5-.81,0-.91,10.43-2.08,12.5-4.55,14.06-18.06.06-.55.86-.55.92,0,1.57,13.51,3.63,15.97,14.06,18.06.5.1.5.81,0,.91Z" fill="#fff" filter="url(#outer-glow-4)" stroke-width="0"/><path id="stjerne-5" d="m453.2,166.95c-7.69,1.55-9.2,3.36-10.36,13.3-.05.4-.63.4-.68,0-1.15-9.94-2.67-11.76-10.36-13.3-.37-.07-.36-.6,0-.67,7.69-1.53,9.21-3.35,10.36-13.3.05-.4.63-.4.68,0,1.16,9.95,2.67,11.77,10.36,13.3.37.07.37.6,0,.67Z" fill="#fff" filter="url(#outer-glow-5)" stroke-width="0"/><path d="m606.19,338.71c-34.91,72.69-109.21,122.87-195.24,122.87-119.55,0-216.47-96.92-216.47-216.47,0-99.8,67.53-183.81,159.38-208.86.14-.05.26-.08.4-.11,8.35-2.26,16.91-4.03,25.63-5.28-.21.42-.4.86-.59,1.28-46.77,102.64-10.1,224.34,88.23,280.36,22.25,12.67,45.88,20.97,69.88,25.17,10.68,1.86,21.46,2.91,32.21,3.18,12.24.3,24.47-.42,36.56-2.14Z" fill="#dad8d0" filter="url(#outer-glow-6)" stroke-width="0"/><path d="m569.63,340.85c-6.15,8.43-12.93,16.35-20.3,23.69-10.77,10.74-22.8,20.24-35.82,28.26-1.95,1.21-3.94,2.39-5.95,3.52-5.45,3.11-11.07,5.95-16.83,8.54-24.54,10.98-51.75,17.09-80.38,17.09-108.78,0-196.95-88.18-196.95-196.95,0-89.15,59.23-164.47,140.49-188.74.14-.05.26-.08.4-.11,8.4-2.5,17.04-4.44,25.87-5.79-.09.17-.17.34-.24.51-.21.42-.4.86-.59,1.28-46.77,102.64-10.1,224.34,88.23,280.36,22.25,12.67,45.88,20.97,69.88,25.17,10.68,1.86,21.46,2.91,32.21,3.18Z" fill="#e7e5dd" stroke-width="0"/><path d="m537.42,337.67c-32.44,31.76-76.85,51.35-125.86,51.35-7.31,0-14.51-.43-21.6-1.29-20.41-2.43-39.76-8.28-57.47-16.97-59.71-29.27-100.81-90.66-100.81-161.64,0-12.65,1.3-25,3.79-36.92.9-4.35,1.98-8.66,3.19-12.9.32-1.09.64-2.16.97-3.23,3.96-12.87,9.32-25.1,15.93-36.55,5.85-10.19,12.68-19.74,20.36-28.55,2.64-3.03,5.38-5.96,8.22-8.81,1.66-1.67,3.36-3.3,5.08-4.9,1.98-1.84,3.99-3.62,6.04-5.36,23.57-20.01,52.35-34.04,84.04-39.76-46.77,102.64-10.1,224.34,88.23,280.36,22.25,12.67,45.88,20.97,69.88,25.17Z" fill="#efede3" stroke-width="0"/><ellipse cx="524.37" cy="374.38" rx="26.83" ry="17.07" transform="translate(-98.41 209.24) rotate(-20.67)" fill="#bbbab6" opacity=".4" stroke-width="0"/><ellipse cx="503.03" cy="405.48" rx="12.81" ry="9.15" transform="translate(-81.71 130.65) rotate(-13.7)" fill="#bbbab6" opacity=".25" stroke-width="0"/><ellipse cx="355.46" cy="389.63" rx="21.34" ry="35.98" transform="translate(-86.19 677.9) rotate(-80.76)" fill="#bbbab6" opacity=".25" stroke-width="0"/><ellipse cx="397.53" cy="434.14" rx="21.95" ry="12.2" fill="#bbbab6" opacity=".3" stroke-width="0"/><ellipse cx="402.41" cy="410.97" rx="8.54" ry="4.88" fill="#bbbab6" opacity=".3" stroke-width="0"/><ellipse cx="279.24" cy="86.57" rx="8.54" ry="3.66" transform="translate(-12.98 95.17) rotate(-18.91)" fill="#bbbab6" opacity=".25" stroke-width="0"/><ellipse cx="235.91" cy="165.91" rx="7.48" ry="4.98" transform="translate(-40.67 247.67) rotate(-51.59)" fill="#bbbab6" opacity=".4" stroke-width="0"/><ellipse cx="533.54" cy="408.08" rx="8.54" ry="3.66" transform="translate(-138.03 394.52) rotate(-36.25)" fill="#bbbab6" opacity=".4" stroke-width="0"/><ellipse cx="531.77" cy="400.37" rx="3.41" ry="1.46" transform="translate(-133.81 391.98) rotate(-36.25)" fill="#bbbab6" opacity=".25" stroke-width="0"/><ellipse cx="254.85" cy="137.18" rx="25.61" ry="15.24" transform="translate(-31.46 179.51) rotate(-36.7)" fill="#bbbab6" opacity=".25" stroke-width="0"/><ellipse cx="295.7" cy="76.2" rx="6.71" ry="4.27" transform="translate(-8.74 99.94) rotate(-18.91)" fill="#bbbab6" opacity=".4" stroke-width="0"/><ellipse cx="292.37" cy="84.93" rx="2.97" ry="1.89" transform="translate(-11.75 99.33) rotate(-18.91)" fill="#bbbab6" opacity=".25" stroke-width="0"/><ellipse cx="247.25" cy="161.76" rx="2.97" ry="1.89" transform="translate(-23.78 279.41) rotate(-56.66)" fill="#bbbab6" opacity=".35" stroke-width="0"/></svg>