<?xml version="1.0" encoding="UTF-8"?><svg xmlns="http://www.w3.org/2000/svg" width="940" height="876.67" xmlns:xlink="http://www.w3.org/1999/xlink" viewBox="0 0 940 876.67"><defs><filter id="outer-glow-1" filterUnits="userSpaceOnUse"><feOffset dx="0" dy="0"/><feGaussianBlur result="blur" stdDeviation="5"/><feFlood flood-color="#fff" flood-opacity=".36"/><feComposite in2="blur" operator="in"/><feComposite in="SourceGraphic"/></filter><filter id="outer-glow-2" filterUnits="userSpaceOnUse"><feOffset dx="0" dy="0"/><feGaussianBlur result="blur-2" stdDeviation="5"/><feFlood flood-color="#fff" flood-opacity=".36"/><feComposite in2="blur-2" operator="in"/><feComposite in="SourceGraphic"/></filter><filter id="outer-glow-3" filterUnits="userSpaceOnUse"><feOffset dx="0" dy="0"/><feGaussianBlur result="blur-3" stdDeviation="5"/><feFlood flood-color="#fff" flood-opacity=".36"/><feComposite in2="blur-3" operator="in"/><feComposite in="SourceGraphic"/></filter><filter id="outer-glow-4" filterUnits="userSpaceOnUse"><feOffset dx="0" dy="0"/><feGaussianBlur result="blur-4" stdDeviation="5"/><feFlood flood-color="#fff" flood-opacity=".36"/><feComposite in2="blur-4" operator="in"/><feComposite in="SourceGraphic"/></filter><filter id="outer-glow-5" filterUnits="userSpaceOnUse"><feOffset dx="0" dy="0"/><feGaussianBlur result="blur-5" stdDeviation="5"/><feFlood flood-color="#fff" flood-opacity=".36"/><feComposite in2="blur-5" operator="in"/><feComposite in="SourceGraphic"/></filter><filter id="outer-glow-6" filterUnits="userSpaceOnUse"><feOffset dx="0" dy="0"/><feGaussianBlur result="blur-6" stdDeviation="5"/><feFlood flood-color="#fff" flood-opacity=".36"/><feComposite in2="blur-6" operator="in"/><feComposite in="SourceGraphic"/></filter><filter id="outer-glow-7" filterUnits="userSpaceOnUse"><feOffset dx="0" dy="0"/><feGaussianBlur result="blur-7" stdDeviation="5"/><feFlood flood-color="#fff" flood-opacity=".36"/><feComposite in2="blur-7" operator="in"/><feComposite in="SourceGraphic"/></filter><filter id="outer-glow-8" filterUnits="userSpaceOnUse"><feOffset dx="0" dy="0"/><feGaussianBlur result="blur-8" stdDeviation="5"/><feFlood flood-color="#fff" flood-opacity=".36"/><feComposite in2="blur-8" operator="in"/><feComposite in="SourceGraphic"/></filter><filter id="outer-glow-9" filterUnits="userSpaceOnUse"><feOffset dx="0" dy="0"/><feGaussianBlur result="blur-9" stdDeviation="5"/><feFlood flood-color="#fff" flood-opacity=".36"/><feComposite in2="blur-9" operator="in"/><feComposite in="SourceGraphic"/></filter><filter id="outer-glow-10" filterUnits="userSpaceOnUse"><feOffset dx="0" dy="0"/><feGaussianBlur result="blur-10" stdDeviation="5"/><feFlood flood-color="#fff" flood-opacity=".36"/><feComposite in2="blur-10" operator="in"/><feComposite in="SourceGraphic"/></filter><filter id="outer-glow-11" filterUnits="userSpaceOnUse"><feOffset dx="0" dy="0"/><feGaussianBlur result="blur-11" stdDeviation="5"/><feFlood flood-color="#fff" flood-opacity=".36"/><feComposite in2="blur-11" operator="in"/><feComposite in="SourceGraphic"/></filter></defs><g isolation="isolate"><g id="Lag_1"><g id="stjernebillede"><g id="linjer"><line x1="551.49" y1="495.43" x2="258.86" y2="456.08" fill="none" stroke="#fff" stroke-miterlimit="10" stroke-width=".5"/><line x1="235.98" y1="653.87" x2="258.86" y2="456.08" fill="none" stroke="#fff" stroke-miterlimit="10" stroke-width=".5"/><line x1="202.31" y1="825.53" x2="235.98" y2="653.87" fill="none" stroke="#fff" stroke-miterlimit="10" stroke-width=".5"/><line x1="173.8" y1="326.22" x2="258.75" y2="457.27" fill="none" stroke="#fff" stroke-miterlimit="10" stroke-width=".5"/><line x1="88.48" y1="81.43" x2="173.8" y2="326.22" fill="none" stroke="#fff" stroke-miterlimit="10" stroke-width=".5"/></g><g id="stor_stjerne"><image width="73" height="66" transform="translate(496.14 452.39) scale(1.28)" xlink:href="../../../var/folders/jy/yybbx5mx5kxfczgdqv9wrqdc0000gn/T/TemporaryItems/NSIRD_Illustrator_525tbQ/AI_28_0/Adobe/AISVG/2/illustration-stop-sleep_Tegnebræt 1/illustration-stop-sleep_Tegnebræt 11.png" mix-blend-mode="screen" opacity=".5"/><path d="m564.52,475.96c-18.65,12.37-24.1,12.37-42.74,0-.62-.41-1.32.42-.8.96,14.75,15.22,14.75,19.76,0,34.98-.52.54.17,1.37.8.96,18.65-12.37,24.1-12.37,42.74,0,.62.41,1.32-.42.8-.96-14.75-15.22-14.75-19.76,0-34.98.52-.54-.17-1.37-.8-.96Z" fill="#efede4" stroke-width="0"/><image width="106" height="122" transform="translate(475.7 416.61) scale(1.28)" xlink:href="../../../var/folders/jy/yybbx5mx5kxfczgdqv9wrqdc0000gn/T/TemporaryItems/NSIRD_Illustrator_525tbQ/AI_28_0/Adobe/AISVG/2/illustration-stop-sleep_Tegnebræt 1/illustration-stop-sleep_Tegnebræt 12.png" mix-blend-mode="screen" opacity=".5"/><path d="m582.45,493.38c-30.15-3.78-35.3-9.43-38.49-44.82-.11-1.19-1.7-1.19-1.81,0-3.19,35.39-8.48,41.04-38.63,44.82-1.15.14-1.15,1.8,0,1.94,30.15,3.78,35.3,9.43,38.49,44.82.11,1.19,1.85,1.19,1.95,0,3.19-35.39,8.34-41.04,38.49-44.82,1.15-.14,1.15-1.8,0-1.94Z" fill="#efede4" stroke-width="0"/></g><g id="stjerne"><image width="52" height="52" transform="translate(168.99 789.77) scale(1.28)" xlink:href="../../../var/folders/jy/yybbx5mx5kxfczgdqv9wrqdc0000gn/T/TemporaryItems/NSIRD_Illustrator_525tbQ/AI_28_0/Adobe/AISVG/2/illustration-stop-sleep_Tegnebræt 1/illustration-stop-sleep_Tegnebræt 13.png" mix-blend-mode="screen" opacity=".5"/><path d="m214.32,834.34c-13.11-17.58-10.55-17.58-23.66,0-.23.31.16.71.48.48,17.58-13.11,17.58-10.55,0-23.66-.31-.23-.71.16-.48.48,13.11,17.58,10.55,17.58,23.66,0,.23-.31-.16-.71-.48-.48-17.58,13.11-17.58,10.55,0,23.66.31.23.71-.16.48-.48Z" fill="#efede4" stroke-width="0"/><image width="78" height="84" transform="translate(152.38 769.32) scale(1.28)" xlink:href="../../../var/folders/jy/yybbx5mx5kxfczgdqv9wrqdc0000gn/T/TemporaryItems/NSIRD_Illustrator_525tbQ/AI_28_0/Adobe/AISVG/2/illustration-stop-sleep_Tegnebræt 1/illustration-stop-sleep_Tegnebræt 14.png" mix-blend-mode="screen" opacity=".5"/><path d="m176.27,823.78c34.45,5.63,31.78,8.83,26.78-29.37-.1-.73-1.15-.73-1.25,0-5,38.2-7.68,35,26.78,29.37.7-.12.7-1.13,0-1.24-34.45-5.63-31.78-8.83-26.78,29.37.1.73,1.15.73,1.25,0,5-38.2,7.68-35-26.78-29.37-.7.12-.7,1.13,0,1.24Z" fill="#efede4" stroke-width="0"/></g><g id="stjerne-2"><image width="52" height="52" transform="translate(225.22 423) scale(1.28)" xlink:href="../../../var/folders/jy/yybbx5mx5kxfczgdqv9wrqdc0000gn/T/TemporaryItems/NSIRD_Illustrator_525tbQ/AI_28_0/Adobe/AISVG/2/illustration-stop-sleep_Tegnebræt 1/illustration-stop-sleep_Tegnebræt 15.png" mix-blend-mode="screen" opacity=".5"/><path d="m270.55,467.57c-13.11-17.58-10.55-17.58-23.66,0-.23.31.16.71.48.48,17.58-13.11,17.58-10.55,0-23.66-.31-.23-.71.16-.48.48,13.11,17.58,10.55,17.58,23.66,0,.23-.31-.16-.71-.48-.48-17.58,13.11-17.58,10.55,0,23.66.31.23.71-.16.48-.48Z" fill="#efede4" stroke-width="0"/><image width="78" height="84" transform="translate(208.61 402.55) scale(1.28)" xlink:href="../../../var/folders/jy/yybbx5mx5kxfczgdqv9wrqdc0000gn/T/TemporaryItems/NSIRD_Illustrator_525tbQ/AI_28_0/Adobe/AISVG/2/illustration-stop-sleep_Tegnebræt 1/illustration-stop-sleep_Tegnebræt 16.png" mix-blend-mode="screen" opacity=".5"/><path d="m232.5,457.01c34.45,5.63,31.78,8.83,26.78-29.37-.1-.73-1.15-.73-1.25,0-5,38.2-7.68,35,26.78,29.37.7-.12.7-1.13,0-1.24-34.45-5.63-31.78-8.83-26.78,29.37.1.73,1.15.73,1.25,0,5-38.2,7.68-35-26.78-29.37-.7.12-.7,1.13,0,1.24Z" fill="#efede4" stroke-width="0"/></g><g id="stor_stjerne-2"><image width="73" height="66" transform="translate(42.47 35.78) scale(1.28)" xlink:href="../../../var/folders/jy/yybbx5mx5kxfczgdqv9wrqdc0000gn/T/TemporaryItems/NSIRD_Illustrator_525tbQ/AI_28_0/Adobe/AISVG/2/illustration-stop-sleep_Tegnebræt 1/illustration-stop-sleep_Tegnebræt 17.png" mix-blend-mode="screen" opacity=".5"/><path d="m110.85,59.36c-18.65,12.37-24.1,12.37-42.74,0-.62-.41-1.32.42-.8.96,14.75,15.22,14.75,19.76,0,34.98-.52.54.17,1.37.8.96,18.65-12.37,24.1-12.37,42.74,0,.62.41,1.32-.42.8-.96-14.75-15.22-14.75-19.76,0-34.98.52-.54-.17-1.37-.8-.96Z" fill="#efede4" stroke-width="0"/><image width="106" height="122" transform="translate(22.03) scale(1.28)" xlink:href="../../../var/folders/jy/yybbx5mx5kxfczgdqv9wrqdc0000gn/T/TemporaryItems/NSIRD_Illustrator_525tbQ/AI_28_0/Adobe/AISVG/2/illustration-stop-sleep_Tegnebræt 1/illustration-stop-sleep_Tegnebræt 18.png" mix-blend-mode="screen" opacity=".5"/><path d="m128.78,76.77c-30.15-3.78-35.3-9.43-38.49-44.82-.11-1.19-1.7-1.19-1.81,0-3.19,35.39-8.48,41.04-38.63,44.82-1.15.14-1.15,1.8,0,1.94,30.15,3.78,35.3,9.43,38.49,44.82.11,1.19,1.85,1.19,1.95,0,3.19-35.39,8.34-41.04,38.49-44.82,1.15-.14,1.15-1.8,0-1.94Z" fill="#efede4" stroke-width="0"/></g></g><g id="lille_stjernebillede"><g id="linjer-2"><line x1="874.89" y1="508.72" x2="910.71" y2="333.55" fill="none" stroke="#fff" stroke-miterlimit="10" stroke-width=".5"/><line x1="850.89" y1="189.46" x2="910.2" y2="333.11" fill="none" stroke="#fff" stroke-miterlimit="10" stroke-width=".5"/><line x1="707.35" y1="238.23" x2="850.89" y2="189.46" fill="none" stroke="#fff" stroke-miterlimit="10" stroke-width=".5"/><line x1="541.01" y1="193.09" x2="707.35" y2="238.23" fill="none" stroke="#fff" stroke-miterlimit="10" stroke-width=".5"/></g><image width="58" height="59" transform="translate(822 159.8)" xlink:href="../../../var/folders/jy/yybbx5mx5kxfczgdqv9wrqdc0000gn/T/TemporaryItems/NSIRD_Illustrator_525tbQ/AI_28_0/Adobe/AISVG/2/illustration-stop-sleep_Tegnebræt 1/illustration-stop-sleep_Tegnebræt 19.png" mix-blend-mode="screen" opacity=".5"/><path d="m837.03,175.8c20.62,15.61,20.62,11.56,0,27.17,15.61-20.62,11.56-20.62,27.17,0-20.62-15.61-20.62-11.56,0-27.17-15.61,20.62-11.56,20.62-27.17,0Z" fill="#efede4" stroke-width="0"/><image width="93" height="100" transform="translate(804 139.8)" xlink:href="../../../var/folders/jy/yybbx5mx5kxfczgdqv9wrqdc0000gn/T/TemporaryItems/NSIRD_Illustrator_525tbQ/AI_28_0/Adobe/AISVG/2/illustration-stop-sleep_Tegnebræt 1/illustration-stop-sleep_Tegnebræt 110.png" mix-blend-mode="screen" opacity=".5"/><path d="m819.67,189.47c41.03-6.35,36.44-11.49,30.78,34.47-5.67-45.96-10.26-40.81,30.78-34.47-41.03,6.35-36.44,11.49-30.78-34.47,5.67,45.96,10.26,40.81-30.78,34.47Z" fill="#efede4" stroke-width="0"/><path id="stjerne-3" d="m924.53,333.86c-9.71,1.95-11.62,4.25-13.09,16.81-.06.51-.8.51-.86,0-1.46-12.56-3.38-14.86-13.09-16.81-.46-.09-.46-.75,0-.85,9.71-1.94,11.63-4.24,13.09-16.81.06-.51.8-.51.86,0,1.46,12.57,3.38,14.87,13.09,16.81.46.09.46.75,0,.85Z" fill="#fff" filter="url(#outer-glow-1)" stroke-width="0"/><path id="stjerne-4" d="m554.39,193.92c-9.71,1.95-11.62,4.25-13.09,16.81-.06.51-.8.51-.86,0-1.46-12.56-3.38-14.86-13.09-16.81-.46-.09-.46-.75,0-.85,9.71-1.94,11.63-4.24,13.09-16.81.06-.51.8-.51.86,0,1.46,12.57,3.38,14.87,13.09,16.81.46.09.46.75,0,.85Z" fill="#fff" filter="url(#outer-glow-2)" stroke-width="0"/><path id="stjerne-5" d="m883.64,509.4c-5.99,1.21-7.17,2.62-8.08,10.37-.04.31-.49.31-.53,0-.9-7.75-2.08-9.17-8.08-10.37-.28-.06-.28-.47,0-.52,5.99-1.2,7.18-2.61,8.08-10.37.04-.31.49-.31.53,0,.9,7.76,2.08,9.17,8.08,10.37.28.06.29.47,0,.52Z" fill="#fff" filter="url(#outer-glow-3)" stroke-width="0"/><path id="stjerne-6" d="m715.58,238.47c-5.99,1.21-7.17,2.62-8.08,10.37-.04.31-.49.31-.53,0-.9-7.75-2.08-9.17-8.08-10.37-.28-.06-.28-.47,0-.52,5.99-1.2,7.18-2.61,8.08-10.37.04-.31.49-.31.53,0,.9,7.76,2.08,9.17,8.08,10.37.28.06.29.47,0,.52Z" fill="#fff" filter="url(#outer-glow-4)" stroke-width="0"/></g><g id="stjerner"><path id="lille_stjerne" d="m252.89,653.35c-12.13-2.44-14.52-5.31-16.35-21-.07-.63-1-.63-1.07,0-1.82,15.69-4.22,18.56-16.35,21-.58.12-.58.94,0,1.06,12.13,2.42,14.53,5.29,16.35,20.99.07.63,1,.64,1.07,0,1.83-15.7,4.22-18.57,16.35-20.99.58-.12.58-.94,0-1.06Z" fill="#fff" filter="url(#outer-glow-5)" stroke-width="0"/><path id="lille_stjerne-2" d="m190.72,325.7c-12.13-2.44-14.52-5.31-16.35-21-.07-.63-1-.63-1.07,0-1.82,15.69-4.22,18.56-16.35,21-.58.12-.58.94,0,1.06,12.13,2.42,14.53,5.29,16.35,20.99.07.63,1,.64,1.07,0,1.83-15.7,4.22-18.57,16.35-20.99.58-.12.58-.94,0-1.06Z" fill="#fff" filter="url(#outer-glow-6)" stroke-width="0"/><path id="lille_stjerne-3" d="m41.78,542.67c-3.64-.73-4.36-1.59-4.91-6.3-.02-.19-.3-.19-.32,0-.55,4.71-1.27,5.57-4.91,6.3-.17.03-.17.28,0,.32,3.64.73,4.36,1.59,4.91,6.3.02.19.3.19.32,0,.55-4.72,1.27-5.58,4.91-6.3.17-.03.17-.28,0-.32Z" fill="#fff" filter="url(#outer-glow-7)" stroke-width="0"/><path id="lille_stjerne-4" d="m860.75,780.53c-4.69-.94-5.62-2.05-6.32-8.12-.03-.25-.39-.25-.41,0-.7,6.07-1.63,7.18-6.33,8.12-.22.04-.22.36,0,.41,4.69.94,5.62,2.05,6.33,8.12.03.25.39.25.41,0,.71-6.08,1.63-7.19,6.32-8.12.22-.04.22-.36,0-.41Z" fill="#fff" filter="url(#outer-glow-8)" stroke-width="0"/><path id="lille_stjerne-5" d="m467.74,607.27c-3.98-.8-4.76-1.74-5.37-6.89-.02-.21-.33-.21-.35,0-.6,5.15-1.38,6.09-5.37,6.89-.19.04-.19.31,0,.35,3.98.8,4.77,1.74,5.37,6.89.02.21.33.21.35,0,.6-5.15,1.38-6.1,5.37-6.89.19-.04.19-.31,0-.35Z" fill="#fff" filter="url(#outer-glow-9)" stroke-width="0"/><path id="lille_stjerne-6" d="m771.19,341.3c-3.43-.69-4.11-1.5-4.62-5.94-.02-.18-.28-.18-.3,0-.51,4.44-1.19,5.25-4.62,5.94-.16.03-.16.27,0,.3,3.43.68,4.11,1.5,4.62,5.94.02.18.28.18.3,0,.52-4.44,1.19-5.25,4.62-5.94.16-.03.16-.27,0-.3Z" fill="#fff" filter="url(#outer-glow-10)" stroke-width="0"/><path id="lille_stjerne-7" d="m358.74,214.27c-3.98-.8-4.76-1.74-5.37-6.89-.02-.21-.33-.21-.35,0-.6,5.15-1.38,6.09-5.37,6.89-.19.04-.19.31,0,.35,3.98.8,4.77,1.74,5.37,6.89.02.21.33.21.35,0,.6-5.15,1.38-6.1,5.37-6.89.19-.04.19-.31,0-.35Z" fill="#fff" filter="url(#outer-glow-11)" stroke-width="0"/></g></g></g></svg>