<?xml version="1.0" encoding="utf-8"?>
<!-- Generator: Adobe Illustrator 28.0.0, SVG Export Plug-In . SVG Version: 6.00 Build 0)  -->
<svg version="1.1" id="Lag_1" xmlns="http://www.w3.org/2000/svg" xmlns:xlink="http://www.w3.org/1999/xlink" x="0px" y="0px"
	 viewBox="0 0 283.46 226.77" style="enable-background:new 0 0 283.46 226.77;" xml:space="preserve">
<style type="text/css">
	.st0{clip-path:url(#SVGID_00000121962006595144307070000007039701842307900805_);}
	.st1{fill:#54468B;}
	.st2{clip-path:url(#SVGID_00000163034435534473156150000006405416066412284852_);}
	.st3{clip-path:url(#SVGID_00000020389648510195456870000014863350880653547405_);}
	.st4{clip-path:url(#SVGID_00000092447022533114695810000017894528223194890682_);}
	.st5{clip-path:url(#SVGID_00000099641231534571409760000011251744437401946557_);}
	.st6{clip-path:url(#SVGID_00000171714191899644598880000003554283388642683057_);}
	.st7{clip-path:url(#SVGID_00000053512828134033959730000000638464623868210821_);}
	.st8{clip-path:url(#SVGID_00000070117189415251267660000009242121879577861297_);}
	.st9{clip-path:url(#SVGID_00000107563954774017865070000007814323777755797161_);}
	.st10{clip-path:url(#SVGID_00000119821797019646032500000006464735230169965195_);}
	.st11{clip-path:url(#SVGID_00000089561134759935055810000002132567305216449190_);}
</style>
<g>
	<defs>
		<rect id="SVGID_1_" x="51.01" y="17.84" width="48" height="48"/>
	</defs>
	<clipPath id="SVGID_00000174597445740033935100000007526690898927920772_">
		<use xlink:href="#SVGID_1_"  style="overflow:visible;"/>
	</clipPath>
	<g style="clip-path:url(#SVGID_00000174597445740033935100000007526690898927920772_);">
		<path class="st1" d="M73.01,22.84c0-2.76,2.24-5,5-5s5,2.24,5,5s-2.24,5-5,5S73.01,25.61,73.01,22.84z M91.35,42.16l-5.25-2.62
			c0,0-4.54-7.18-4.64-7.3c-1.33-1.52-3.25-2.39-5.27-2.39c-2.55,0-5.1,0.6-7.38,1.74l-5.05,2.53c-1.28,0.64-2.23,1.8-2.6,3.19
			l-1.27,4.77c-0.42,1.6,0.53,3.24,2.13,3.67c1.6,0.43,3.24-0.53,3.67-2.13l1.15-4.34l3.66-1.83l-1.32,5.66
			c-0.7,3,0.68,6.16,3.36,7.68l7.95,4.52c0.31,0.18,0.51,0.51,0.51,0.87v6.67c0,1.66,1.34,3,3,3c1.66,0,3-1.34,3-3v-6.67
			c0-2.51-1.36-4.84-3.54-6.09L78.01,47l1.7-6.33l1.75,2.78c0.29,0.46,0.71,0.84,1.2,1.09l6,3c0.43,0.21,0.89,0.32,1.34,0.32
			c1.1,0,2.16-0.61,2.69-1.66C93.43,44.71,92.83,42.91,91.35,42.16L91.35,42.16z M70.72,53.09c-1.62-0.32-3.2,0.76-3.51,2.38
			l-0.08,0.4l-2.81,5.63c-0.74,1.48-0.14,3.28,1.34,4.03c0.43,0.21,0.89,0.32,1.34,0.32c1.1,0,2.16-0.61,2.69-1.66l3-6
			c0.12-0.25,0.21-0.51,0.26-0.78l0.15-0.81C73.42,54.97,72.35,53.4,70.72,53.09z"/>
	</g>
</g>
<g>
	<defs>
		<rect id="SVGID_00000170275018668417394520000012300291028362721207_" x="215.01" y="138.84" width="43" height="43"/>
	</defs>
	<clipPath id="SVGID_00000087395500373823939840000015903773604546388158_">
		<use xlink:href="#SVGID_00000170275018668417394520000012300291028362721207_"  style="overflow:visible;"/>
	</clipPath>
	<g style="clip-path:url(#SVGID_00000087395500373823939840000015903773604546388158_);">
		<path class="st1" d="M243.67,143.32c0-0.89,0.26-1.75,0.75-2.49c0.49-0.74,1.19-1.31,2.01-1.65c0.82-0.34,1.72-0.43,2.59-0.26
			c0.87,0.17,1.67,0.6,2.29,1.23c0.63,0.63,1.05,1.42,1.23,2.29s0.08,1.77-0.26,2.59c-0.34,0.82-0.91,1.52-1.65,2.01
			c-0.74,0.49-1.6,0.75-2.49,0.75c-1.19,0-2.33-0.47-3.17-1.31S243.67,144.51,243.67,143.32z M249.94,172.89
			c-0.71,0-1.4,0.28-1.9,0.79s-0.79,1.19-0.79,1.9c0,0.24-0.09,0.47-0.26,0.63s-0.4,0.26-0.63,0.26h-0.9v-2.44
			c0-1.6-0.61-3.14-1.7-4.3l-5.42-5.76l5.28-5.31c0.59-0.59,1.06-1.29,1.37-2.07c0.32-0.78,0.47-1.61,0.46-2.44
			c-0.01-0.84-0.19-1.66-0.52-2.43c-0.33-0.77-0.82-1.46-1.43-2.04l-0.28-0.23c-1.48-1.08-3.27-1.65-5.1-1.65h-11.49
			c-0.71,0-1.4,0.28-1.9,0.79s-0.79,1.19-0.79,1.9s0.28,1.4,0.79,1.9s1.19,0.79,1.9,0.79h10.14l-3.96,4.19
			c-1.12,1.18-1.74,2.76-1.71,4.39c0.02,1.63,0.68,3.19,1.84,4.34l6.88,7.33c0.16,0.17,0.24,0.39,0.24,0.61v2.43h-0.9
			c-0.71,0-1.4,0.28-1.9,0.79s-0.79,1.19-0.79,1.9c0,0.71,0.28,1.4,0.79,1.9s1.19,0.79,1.9,0.79h7.17c1.66,0,3.26-0.66,4.43-1.84
			c1.18-1.18,1.84-2.77,1.84-4.43c0-0.71-0.28-1.4-0.79-1.9S250.66,172.89,249.94,172.89z M228.35,176.21
			c-0.16,0.16-0.36,0.25-0.58,0.26c-0.22,0.01-0.44-0.06-0.61-0.2l-0.37-0.41l3.61-3.82c0.49-0.52,0.75-1.21,0.73-1.92
			c-0.02-0.71-0.32-1.39-0.84-1.88c-0.52-0.49-1.21-0.75-1.92-0.73c-0.71,0.02-1.39,0.32-1.88,0.84l-3.32,3.52
			c-0.5-0.49-1.17-0.76-1.86-0.76c-0.7,0-1.37,0.26-1.87,0.74c-0.5,0.48-0.8,1.14-0.83,1.83s0.22,1.38,0.68,1.9l3.96,4.38
			c0.57,0.59,1.26,1.06,2.02,1.38s1.57,0.49,2.4,0.5h0.06c1.64,0.01,3.22-0.64,4.39-1.79c0.51-0.5,0.8-1.18,0.81-1.89
			c0.01-0.71-0.27-1.4-0.77-1.91c-0.5-0.51-1.18-0.8-1.89-0.81C229.55,175.44,228.86,175.71,228.35,176.21z"/>
	</g>
</g>
<g>
	<defs>
		<rect id="SVGID_00000098928133195175847350000016498309764392481414_" x="103.01" y="175.84" width="43" height="43"/>
	</defs>
	<clipPath id="SVGID_00000096779009740577505630000003938107865005984437_">
		<use xlink:href="#SVGID_00000098928133195175847350000016498309764392481414_"  style="overflow:visible;"/>
	</clipPath>
	<g style="clip-path:url(#SVGID_00000096779009740577505630000003938107865005984437_);">
		<path class="st1" d="M126.3,180.27c0-2.47,2-4.48,4.48-4.48s4.48,2.01,4.48,4.48s-2.01,4.48-4.48,4.48S126.3,182.74,126.3,180.27z
			 M142.87,191.38c-0.82-1.24-2.48-1.58-3.72-0.76l-5.54,3.65l-2.25-3.34c-0.92-1.75-2.43-3.1-4.29-3.81
			c-1.32-0.57-2.73-0.69-4.07-0.32c-1.74,0.47-3.2,1.67-4.05,3.42l-4.43,10.31c-1,2.03-1.46,5.04,1.92,7.8l5.93,5.13h-9.51
			c-1.49,0-2.69,1.2-2.69,2.69c0,1.49,1.2,2.69,2.69,2.69h16.12c1.48,0,2.69-1.2,2.69-2.69c0-1.33-0.34-2.04-0.93-2.55l-7.8-6.75
			l4.86-11.58l2.84,4.22c0.82,1.22,2.48,1.55,3.71,0.74l7.76-5.12C143.35,194.29,143.69,192.62,142.87,191.38z"/>
	</g>
</g>
<g>
	<defs>
		<rect id="SVGID_00000114052709306826795830000005442037481938483362_" x="91.01" y="87.84" width="39" height="39"/>
	</defs>
	<clipPath id="SVGID_00000066494661570945866280000012837400539343134636_">
		<use xlink:href="#SVGID_00000114052709306826795830000005442037481938483362_"  style="overflow:visible;"/>
	</clipPath>
	<g style="clip-path:url(#SVGID_00000066494661570945866280000012837400539343134636_);">
		<path class="st1" d="M105.66,87.84h-0.03c-3.09,0-5.67,2.16-6.34,5.04c-2.88,0.67-5.04,3.25-5.04,6.34v0.03
			c-2.03,1.53-3.25,3.92-3.25,6.47c0,1.45,0.39,2.83,1.12,4.06c-0.73,1.24-1.12,2.62-1.12,4.06c0,2.75,1.4,5.26,3.69,6.78
			c1.17,3.71,4.57,6.22,8.5,6.22c0.7,0,1.38-0.08,2.03-0.23c2.16-0.5,3.66-2.5,3.66-4.73V91.06
			C108.88,89.29,107.45,87.84,105.66,87.84z M112.13,91.06v30.83c0,2.23,1.49,4.22,3.66,4.73c0.65,0.15,1.33,0.23,2.03,0.23
			c3.93,0,7.33-2.54,8.5-6.22c2.29-1.49,3.69-4.03,3.69-6.78c0-1.45-0.39-2.83-1.12-4.06c0.73-1.24,1.12-2.62,1.12-4.06
			c0-2.55-1.22-4.94-3.25-6.47v-0.03c0-3.09-2.16-5.67-5.04-6.34c-0.67-2.88-3.25-5.04-6.34-5.04h-0.03
			C113.58,87.84,112.13,89.29,112.13,91.06z"/>
	</g>
</g>
<g>
	<defs>
		<rect id="SVGID_00000010287602174899073920000001870055373488254895_" x="129.01" y="8.84" width="47" height="47"/>
	</defs>
	<clipPath id="SVGID_00000179629820550538837640000017060719516613362568_">
		<use xlink:href="#SVGID_00000010287602174899073920000001870055373488254895_"  style="overflow:visible;"/>
	</clipPath>
	<g style="clip-path:url(#SVGID_00000179629820550538837640000017060719516613362568_);">
		<path class="st1" d="M170.13,53.89c0,1.08-0.88,1.96-1.96,1.96c-1.08,0-1.96-0.88-1.96-1.96c0-7.56-6.15-13.71-13.71-13.71
			s-13.71,6.15-13.71,13.71c0,1.08-0.88,1.96-1.96,1.96c-1.08,0-1.96-0.88-1.96-1.96c0-9.72,7.91-17.62,17.62-17.62
			S170.13,44.17,170.13,53.89z M138.8,20.59c0-1.68,1.06-3.11,2.55-3.67c1.54-4.69,5.96-8.08,11.16-8.08s9.62,3.39,11.16,8.08
			c1.49,0.56,2.54,1.99,2.54,3.67s-1.06,3.11-2.54,3.67c-1.55,4.69-5.97,8.08-11.16,8.08s-9.62-3.39-11.16-8.08
			C139.86,23.71,138.8,22.27,138.8,20.59z M159.29,24.51h-13.57c1.36,2.34,3.89,3.92,6.78,3.92S157.93,26.85,159.29,24.51
			L159.29,24.51z M145.72,16.68h13.57c-1.36-2.34-3.89-3.92-6.78-3.92S147.08,14.34,145.72,16.68z M161.58,51.09
			c-0.53-1.3-1.29-2.59-2.22-3.7c-0.42-0.51-1.2-0.51-1.62,0c-0.94,1.13-1.71,2.48-2.24,4.06c-0.33,1.04-0.62,2.22-0.81,3.56
			c-0.09,0.65,0.66,1.07,1.17,0.65c1.04-0.87,2.45-1.9,3.38-1.9c0.71,0,1.54,0.4,2.25,0.9c0.49,0.34,1.14-0.09,1.01-0.67
			C162.3,53.02,162.01,52.11,161.58,51.09z"/>
	</g>
</g>
<g>
	<defs>
		<rect id="SVGID_00000121244705959132245310000006188868407197256882_" x="38.01" y="149.84" width="48" height="48"/>
	</defs>
	<clipPath id="SVGID_00000165230046322556200660000007334886717953783182_">
		<use xlink:href="#SVGID_00000121244705959132245310000006188868407197256882_"  style="overflow:visible;"/>
	</clipPath>
	<g style="clip-path:url(#SVGID_00000165230046322556200660000007334886717953783182_);">
		<path class="st1" d="M84.01,174.84c0,0.8-0.32,1.56-0.88,2.12c-0.56,0.56-1.33,0.88-2.12,0.88h-5.74c-1.21,0-2.39-0.32-3.45-0.91
			c-1.05-0.6-1.93-1.45-2.55-2.49l-2.45-4.07l-3.58,8.73l5.23,2.97c1.08,0.61,1.97,1.5,2.59,2.57c0.62,1.07,0.95,2.29,0.95,3.52
			v6.67c0,0.8-0.32,1.56-0.88,2.12c-0.56,0.56-1.33,0.88-2.12,0.88s-1.56-0.32-2.12-0.88c-0.56-0.56-0.88-1.32-0.88-2.12v-6.67
			c0-0.18-0.05-0.35-0.14-0.5c-0.09-0.15-0.22-0.28-0.37-0.37l-8.16-4.65c-1.42-0.87-2.49-2.21-3.02-3.8
			c-0.52-1.58-0.46-3.3,0.16-4.85l2.52-6.17h-3.53c-0.19,0-0.37,0.05-0.53,0.15c-0.16,0.1-0.29,0.24-0.37,0.4l-2.89,5.79
			c-0.36,0.71-0.98,1.25-1.74,1.51c-0.75,0.25-1.58,0.19-2.29-0.16c-0.71-0.36-1.25-0.98-1.5-1.74c-0.25-0.76-0.19-1.58,0.16-2.29
			l2.89-5.79c0.58-1.16,1.47-2.15,2.58-2.83c1.11-0.68,2.38-1.04,3.68-1.04h11.25c1.21,0,2.39,0.32,3.45,0.91
			c1.05,0.6,1.93,1.45,2.55,2.49l3.68,6.12c0.09,0.15,0.22,0.27,0.37,0.35c0.15,0.08,0.32,0.13,0.49,0.13h5.74
			c0.8,0,1.56,0.32,2.12,0.88C83.69,173.28,84.01,174.05,84.01,174.84z M54.12,183.54c-0.37-0.15-0.76-0.22-1.15-0.21
			c-0.39,0-0.78,0.09-1.15,0.24c-0.36,0.15-0.69,0.38-0.97,0.66c-0.28,0.28-0.49,0.61-0.64,0.98c-0.07,0.19-0.2,0.34-0.37,0.46
			s-0.36,0.17-0.56,0.17h-4.29c-0.8,0-1.56,0.32-2.12,0.88c-0.56,0.56-0.88,1.32-0.88,2.12s0.32,1.56,0.88,2.12
			c0.56,0.56,1.33,0.88,2.12,0.88h4.29c1.4,0.01,2.77-0.41,3.93-1.2s2.06-1.9,2.57-3.2c0.15-0.37,0.22-0.76,0.21-1.15
			c0-0.39-0.09-0.78-0.24-1.15c-0.16-0.36-0.38-0.69-0.66-0.97C54.82,183.91,54.49,183.69,54.12,183.54z M67.01,159.84
			c0.99,0,1.96-0.29,2.78-0.84c0.82-0.55,1.46-1.33,1.84-2.24c0.38-0.91,0.48-1.92,0.28-2.89c-0.19-0.97-0.67-1.86-1.37-2.56
			c-0.7-0.7-1.59-1.18-2.56-1.37c-0.97-0.19-1.98-0.09-2.89,0.29c-0.91,0.38-1.69,1.02-2.24,1.84c-0.55,0.82-0.84,1.79-0.84,2.78
			c0,1.33,0.53,2.6,1.46,3.54C64.41,159.32,65.68,159.84,67.01,159.84z"/>
	</g>
</g>
<g>
	<defs>
		<rect id="SVGID_00000043427750544424942660000009979835317378853560_" x="25.01" y="92.84" width="38" height="38"/>
	</defs>
	<clipPath id="SVGID_00000175287349365827622120000004141274857406394291_">
		<use xlink:href="#SVGID_00000043427750544424942660000009979835317378853560_"  style="overflow:visible;"/>
	</clipPath>
	<g style="clip-path:url(#SVGID_00000175287349365827622120000004141274857406394291_);">
		<path class="st1" d="M36.88,113.43c-1.41,0-2.79-0.42-3.96-1.2c-1.17-0.78-2.08-1.9-2.62-3.2c-0.54-1.3-0.68-2.74-0.41-4.12
			c0.27-1.38,0.95-2.65,1.95-3.65c1-1,2.27-1.68,3.65-1.95s2.81-0.13,4.12,0.41c1.3,0.54,2.41,1.45,3.2,2.62
			c0.78,1.17,1.2,2.55,1.2,3.96c0,1.89-0.75,3.7-2.09,5.04C40.58,112.67,38.77,113.42,36.88,113.43z M36.88,102.34
			c-0.78,0-1.55,0.23-2.2,0.67c-0.65,0.43-1.16,1.05-1.46,1.78c-0.3,0.72-0.38,1.52-0.23,2.29c0.15,0.77,0.53,1.47,1.08,2.03
			c0.55,0.55,1.26,0.93,2.03,1.08c0.77,0.15,1.56,0.07,2.29-0.23c0.72-0.3,1.34-0.81,1.78-1.46c0.44-0.65,0.67-1.42,0.67-2.2
			c0-1.05-0.42-2.06-1.16-2.8C38.94,102.76,37.93,102.34,36.88,102.34z M48.76,129.26v-0.79c0-3.15-1.25-6.17-3.48-8.4
			c-2.23-2.23-5.25-3.48-8.4-3.48s-6.17,1.25-8.4,3.48c-2.23,2.23-3.48,5.25-3.48,8.4v0.79c0,0.42,0.17,0.82,0.46,1.12
			c0.3,0.3,0.7,0.46,1.12,0.46c0.42,0,0.82-0.17,1.12-0.46c0.3-0.3,0.46-0.7,0.46-1.12v-0.79c0-2.31,0.92-4.52,2.55-6.16
			c1.63-1.63,3.85-2.55,6.16-2.55s4.52,0.92,6.16,2.55c1.63,1.63,2.55,3.85,2.55,6.16v0.79c0,0.42,0.17,0.82,0.46,1.12
			c0.3,0.3,0.7,0.46,1.12,0.46c0.42,0,0.82-0.17,1.12-0.46C48.59,130.08,48.76,129.68,48.76,129.26z M63.01,121.34
			c0-2.14-0.62-4.23-1.78-6.03c-1.16-1.79-2.82-3.21-4.78-4.09c-1.95-0.87-4.12-1.16-6.23-0.83c-2.11,0.33-4.09,1.26-5.68,2.69
			c-0.16,0.14-0.29,0.31-0.38,0.49c-0.09,0.19-0.15,0.39-0.16,0.6c-0.01,0.21,0.02,0.42,0.09,0.62c0.07,0.2,0.18,0.38,0.32,0.54
			c0.14,0.16,0.31,0.28,0.5,0.37c0.19,0.09,0.39,0.14,0.6,0.15c0.21,0.01,0.42-0.02,0.61-0.09c0.2-0.07,0.38-0.18,0.53-0.32
			c1.14-1.02,2.55-1.69,4.06-1.92c1.51-0.24,3.06-0.03,4.45,0.6c1.39,0.62,2.58,1.64,3.41,2.92c0.83,1.28,1.27,2.78,1.27,4.31
			c0,0.42,0.17,0.82,0.46,1.12c0.3,0.3,0.7,0.46,1.12,0.46c0.42,0,0.82-0.17,1.12-0.46C62.84,122.17,63.01,121.76,63.01,121.34z
			 M52.71,107.09c-1.41,0-2.79-0.42-3.96-1.2c-1.17-0.78-2.08-1.89-2.62-3.2c-0.54-1.3-0.68-2.74-0.41-4.12
			c0.28-1.38,0.95-2.65,1.95-3.65c1-1,2.27-1.67,3.65-1.95c1.38-0.28,2.81-0.13,4.12,0.4c1.3,0.54,2.41,1.45,3.2,2.62
			c0.78,1.17,1.2,2.55,1.2,3.96c0,1.89-0.75,3.7-2.09,5.04C56.41,106.34,54.6,107.09,52.71,107.09z M52.71,96.01
			c-0.78,0-1.55,0.23-2.2,0.67s-1.16,1.05-1.46,1.78c-0.3,0.72-0.38,1.52-0.23,2.29c0.15,0.77,0.53,1.47,1.08,2.03
			c0.55,0.55,1.26,0.93,2.03,1.08c0.77,0.15,1.56,0.07,2.29-0.23c0.72-0.3,1.34-0.81,1.78-1.46c0.43-0.65,0.67-1.42,0.67-2.2
			c0-1.05-0.42-2.06-1.16-2.8C54.77,96.43,53.76,96.01,52.71,96.01z"/>
	</g>
</g>
<g>
	<defs>
		<rect id="SVGID_00000077298957475542040330000018295985017886895262_" x="218.01" y="79.84" width="37" height="37"/>
	</defs>
	<clipPath id="SVGID_00000093172420265379749480000017971983042774959514_">
		<use xlink:href="#SVGID_00000077298957475542040330000018295985017886895262_"  style="overflow:visible;"/>
	</clipPath>
	<g style="clip-path:url(#SVGID_00000093172420265379749480000017971983042774959514_);">
		<path class="st1" d="M244.99,82.8c-1.74,0.03-3.43,0.51-4.92,1.4c-1.49,0.89-2.71,2.16-3.56,3.68c-0.84-1.52-2.07-2.79-3.56-3.68
			c-1.49-0.89-3.19-1.38-4.92-1.4c-2.77,0.12-5.38,1.33-7.25,3.37c-1.88,2.04-2.87,4.73-2.77,7.5c0,7.01,7.38,14.67,13.57,19.86
			c1.38,1.16,3.13,1.8,4.93,1.8s3.55-0.64,4.93-1.8c6.19-5.19,13.57-12.85,13.57-19.86c0.1-2.77-0.89-5.46-2.77-7.5
			C250.36,84.13,247.75,82.92,244.99,82.8z"/>
	</g>
</g>
<g>
	<defs>
		<rect id="SVGID_00000114789656046942236040000004748632471838557327_" x="159.01" y="111.84" width="33" height="33"/>
	</defs>
	<clipPath id="SVGID_00000054241658556050886660000007655559519754226853_">
		<use xlink:href="#SVGID_00000114789656046942236040000004748632471838557327_"  style="overflow:visible;"/>
	</clipPath>
	<g style="clip-path:url(#SVGID_00000054241658556050886660000007655559519754226853_);">
		<path class="st1" d="M172.36,129.1c-1.38-1.28-3.66-1.03-4.69,0.68c-0.67,1.11-0.48,2.55,0.34,3.56l2.46,3.17
			c0.47,0.6,0.36,1.46-0.24,1.93c-0.6,0.47-1.46,0.36-1.93-0.24l-2.46-3.17c-1.54-1.9-1.77-4.6-0.52-6.67
			c0.17-0.28,0.37-0.54,0.57-0.78v-8.04c0-1.8-1.29-3.44-3.08-3.62c-2.06-0.21-3.79,1.4-3.79,3.42v14.5c0,2.93,1.17,5.75,3.26,7.81
			l2.46,2.44c0.51,0.47,1.18,0.73,1.87,0.73h10.28c0.76,0,1.38-0.62,1.38-1.38v-5.25c0-2.28-0.94-4.45-2.6-6.01L172.36,129.1
			L172.36,129.1z M188.21,115.93c-1.79,0.18-3.08,1.82-3.08,3.62v8.04c0.21,0.24,0.4,0.5,0.57,0.78c1.25,2.07,1.02,4.76-0.52,6.67
			l-4.18,4.16v4.28c0,0.48-0.1,0.94-0.25,1.38h3.66c0.69,0,1.36-0.26,1.87-0.73l2.46-2.44c2.09-2.07,3.26-4.88,3.26-7.82v-14.5
			C192.01,117.34,190.28,115.73,188.21,115.93L188.21,115.93z M183.35,129.79c-1.03-1.71-3.31-1.97-4.69-0.68l-1.14,1.07l0.03,0.03
			c1.57,1.48,2.64,3.39,3.14,5.46l2.33-2.31C183.83,132.34,184.02,130.9,183.35,129.79L183.35,129.79z M182.39,115.63
			c0,2.97-3.88,6.67-5.81,8.22c-0.62,0.5-1.51,0.5-2.13,0c-1.93-1.55-5.81-5.25-5.81-8.22c-0.09-1.99,1.45-3.68,3.44-3.78
			c1.99,0.1,3.53,1.79,3.44,3.78c-0.09-1.99,1.45-3.68,3.44-3.78C180.94,111.94,182.48,113.63,182.39,115.63z"/>
	</g>
</g>
<g>
	<defs>
		<rect id="SVGID_00000080202585771289369940000011896620937198642337_" x="169.01" y="178.84" width="35" height="35"/>
	</defs>
	<clipPath id="SVGID_00000178168704121538497980000005777683878465126840_">
		<use xlink:href="#SVGID_00000080202585771289369940000011896620937198642337_"  style="overflow:visible;"/>
	</clipPath>
	<g style="clip-path:url(#SVGID_00000178168704121538497980000005777683878465126840_);">
		<path class="st1" d="M202.46,188.81l-3.18-3.18l1.38-1.38c0.14-0.13,0.25-0.3,0.33-0.47c0.08-0.18,0.12-0.37,0.12-0.56
			c0-0.19-0.04-0.39-0.11-0.57c-0.07-0.18-0.18-0.34-0.32-0.48c-0.14-0.14-0.3-0.25-0.48-0.32c-0.18-0.07-0.37-0.11-0.57-0.11
			c-0.19,0-0.39,0.04-0.56,0.12c-0.18,0.08-0.34,0.19-0.47,0.33l-1.38,1.38l-3.18-3.18c-1-0.96-2.34-1.49-3.72-1.49
			c-1.39,0-2.72,0.53-3.72,1.49c-0.49,0.49-0.88,1.07-1.14,1.71c-0.26,0.64-0.4,1.32-0.4,2.01c0,0.69,0.14,1.38,0.4,2.01
			c0.26,0.64,0.65,1.22,1.14,1.71l3.18,3.18l-8.6,8.6l-3.18-3.18c-1-0.96-2.34-1.49-3.72-1.49s-2.72,0.53-3.72,1.49
			c-0.49,0.49-0.88,1.07-1.14,1.71c-0.26,0.64-0.4,1.32-0.4,2.01c0,0.69,0.14,1.38,0.4,2.01c0.26,0.64,0.65,1.22,1.14,1.71
			l3.18,3.18l-1.38,1.38c-0.14,0.13-0.25,0.3-0.33,0.47s-0.12,0.37-0.12,0.56c0,0.19,0.04,0.39,0.11,0.57
			c0.07,0.18,0.18,0.34,0.32,0.48c0.14,0.14,0.3,0.25,0.48,0.32c0.18,0.07,0.37,0.11,0.57,0.11c0.19,0,0.39-0.04,0.56-0.12
			c0.18-0.08,0.34-0.19,0.47-0.33l1.38-1.38l3.18,3.18c0.49,0.49,1.07,0.88,1.71,1.14c0.64,0.26,1.32,0.4,2.01,0.4
			c0.69,0,1.38-0.14,2.01-0.4c0.64-0.26,1.22-0.65,1.71-1.14c0.49-0.49,0.88-1.07,1.14-1.71c0.26-0.64,0.4-1.32,0.4-2.01
			c0-0.69-0.14-1.38-0.4-2.01c-0.26-0.64-0.65-1.22-1.14-1.71l-3.18-3.18l8.6-8.6l3.18,3.18c0.49,0.49,1.07,0.88,1.71,1.14
			c0.64,0.26,1.32,0.4,2.01,0.4c0.69,0,1.38-0.14,2.01-0.4c0.64-0.26,1.22-0.65,1.71-1.14c0.49-0.49,0.88-1.07,1.14-1.71
			c0.26-0.64,0.4-1.32,0.4-2.01c0-0.69-0.14-1.38-0.4-2.01C203.35,189.88,202.96,189.3,202.46,188.81L202.46,188.81z M185.05,208.58
			c0,0.31-0.06,0.61-0.18,0.9c-0.12,0.29-0.29,0.54-0.51,0.76c-0.45,0.43-1.04,0.67-1.66,0.67c-0.62,0-1.21-0.24-1.66-0.67
			l-8.43-8.43c-0.44-0.44-0.69-1.04-0.69-1.66c0-0.62,0.25-1.22,0.69-1.66c0.44-0.44,1.04-0.69,1.66-0.69s1.22,0.25,1.66,0.69
			l8.43,8.43c0.22,0.22,0.39,0.48,0.51,0.76S185.05,208.27,185.05,208.58z M200.4,194.2c-0.45,0.43-1.04,0.67-1.66,0.67
			c-0.62,0-1.21-0.24-1.66-0.67l-8.43-8.43c-0.22-0.22-0.39-0.48-0.51-0.76s-0.18-0.59-0.18-0.9c0-0.62,0.25-1.22,0.69-1.66
			c0.44-0.44,1.04-0.69,1.66-0.69c0.62,0,1.22,0.25,1.66,0.69l8.43,8.43c0.22,0.22,0.39,0.48,0.51,0.76
			c0.12,0.28,0.18,0.59,0.18,0.9c0,0.31-0.06,0.61-0.18,0.9C200.79,193.72,200.62,193.98,200.4,194.2z"/>
	</g>
</g>
<g>
	<defs>
		<rect id="SVGID_00000163033889817346917340000005575026059869516222_" x="195.01" y="32.84" width="30" height="30"/>
	</defs>
	<clipPath id="SVGID_00000038408136649639537470000003397571296217706374_">
		<use xlink:href="#SVGID_00000163033889817346917340000005575026059869516222_"  style="overflow:visible;"/>
	</clipPath>
	<g style="clip-path:url(#SVGID_00000038408136649639537470000003397571296217706374_);">
		<path class="st1" d="M223.01,34.83c-2.26-2.26-6.25-3.45-13.02,1.26c-6.76-4.71-10.76-3.52-13.02-1.26
			c-2.26,2.26-3.45,6.25,1.26,13.01c-4.71,6.76-3.52,10.75-1.26,13.01c0.62,0.64,1.37,1.15,2.2,1.49c0.83,0.34,1.71,0.52,2.61,0.51
			c2.12,0,4.82-0.88,8.21-3.24c3.39,2.36,6.08,3.24,8.21,3.24c0.9,0.01,1.78-0.16,2.61-0.5c0.83-0.34,1.57-0.85,2.2-1.5
			c2.26-2.26,3.45-6.25-1.26-13.01C226.45,41.08,225.26,37.09,223.01,34.83z M218.1,36.6c0.42-0.01,0.83,0.06,1.22,0.21
			c0.39,0.15,0.74,0.38,1.03,0.67c1.69,1.69,0.73,4.5-1.03,7.25c-0.88-1.03-1.86-2.09-3-3.23c-1.14-1.14-2.21-2.11-3.23-2.99
			C214.56,37.44,216.29,36.78,218.1,36.6z M217.03,47.84c-1.21,1.46-2.45,2.77-3.36,3.68c-0.91,0.91-2.22,2.15-3.68,3.36
			c-1.46-1.21-2.77-2.44-3.68-3.36c-0.91-0.91-2.15-2.22-3.36-3.68c1.21-1.46,2.45-2.77,3.36-3.68c0.91-0.91,2.22-2.15,3.68-3.36
			c1.46,1.21,2.77,2.45,3.68,3.36C214.58,45.08,215.82,46.38,217.03,47.84z M199.62,37.49c0.29-0.29,0.65-0.52,1.03-0.67
			c0.39-0.15,0.8-0.22,1.22-0.21c1.81,0.18,3.54,0.84,5.01,1.91c-1.03,0.88-2.1,1.86-3.23,2.99c-1.14,1.14-2.11,2.21-3,3.23
			C198.89,41.98,197.93,39.18,199.62,37.49z M199.62,58.2c-1.69-1.69-0.73-4.5,1.03-7.25c0.88,1.03,1.86,2.09,3,3.23
			c1.14,1.14,2.2,2.12,3.22,3C204.12,58.93,201.32,59.89,199.62,58.2z M220.35,58.2c-1.69,1.69-4.5,0.73-7.25-1.02
			c1.02-0.88,2.1-1.87,3.23-3c1.13-1.13,2.11-2.2,3-3.23C221.08,53.7,222.04,56.51,220.35,58.2z"/>
		<path class="st1" d="M210.01,50.34c1.38,0,2.5-1.12,2.5-2.5s-1.12-2.5-2.5-2.5s-2.5,1.12-2.5,2.5S208.63,50.34,210.01,50.34z"/>
	</g>
</g>
</svg>
