<?xml version="1.0" encoding="utf-8"?>
<!-- Generator: Adobe Illustrator 27.9.0, SVG Export Plug-In . SVG Version: 6.00 Build 0)  -->
<svg version="1.1" id="Layer_7" xmlns="http://www.w3.org/2000/svg" xmlns:xlink="http://www.w3.org/1999/xlink" x="0px" y="0px"
	 viewBox="0 0 301.7 151" style="enable-background:new 0 0 301.7 151;" xml:space="preserve">
<style type="text/css">
	.st0{fill:#433770;}
	.st1{fill:#30274F;}
</style>
<path class="st0" d="M131.7,79.7c-7.8-6.3-15.2-13.4-23.2-19.4c-7.7-5.8-16.4-10.6-25.9-11.7c-9.5-1.1-19.9,2-25.8,9.6
	c-4.9,6.3-6,14.9-5.1,22.8c1.1,10.5,6.1,21.5,15.7,26c9.8,4.7,21.6,1.4,31.3-3.5c22.8-11.6,40.1-31.4,59-48.6s42.1-32.7,67.6-32.1
	c9.6,0.2,19.3,2.9,27.1,8.7c7.5,5.6,12.7,13.9,16.4,22.6c7.1,16.9,8.7,37-0.3,53c-4.8,8.6-12.4,15.5-21.2,20.1
	c-10.1,5.3-21.7,7.7-33.1,6.6c-12.8-1.2-25-6.5-35.8-13.6c-9.2-6-19.1-13.2-26.6-21.3c-0.8-0.8-5.8-4.5-6-5.7
	c-0.2-1.8,2.2-3.8,3.5-5c4.2-3.7,8.2-5.3,12.4-9c0.4-0.3,0.8-3.5,1.3-3.5c0.5,0,4.6,4.4,5,4.7c8.2,5.6,15.7,12.3,24,17.8
	s17.7,10,27.7,10.4c10,0.4,20.6-4,25.5-12.6c3-5.3,3.7-11.7,3.5-17.8c-0.2-5.9-1.3-12-4.4-17c-4-6.5-11.2-10.8-18.8-12
	c-8.4-1.3-17,0.8-24.7,4.3c-35.5,15.9-55.2,53.9-89.6,71.9c-15.1,8-33.2,11.7-49.5,6.6c-13.7-4.2-25.2-14.6-31.6-27.4
	c-6.4-12.8-7.8-27.9-4.5-41.9C28,53.2,32.4,44,39.3,37c14.5-14.8,38.2-17.8,58-11.6c10.5,3.3,20.1,8.7,28.8,15.3
	s15.5,14.8,23.9,21.4"/>
<circle class="st1" cx="217.3" cy="50" r="14.2"/>
<circle class="st1" cx="78.9" cy="111.7" r="14.2"/>
</svg>
