<?xml version="1.0" encoding="utf-8"?>
<!-- Generator: Adobe Illustrator 28.0.0, SVG Export Plug-In . SVG Version: 6.00 Build 0)  -->
<svg version="1.1" id="Layer_7" xmlns="http://www.w3.org/2000/svg" xmlns:xlink="http://www.w3.org/1999/xlink" x="0px" y="0px"
	 viewBox="0 0 301.7 151" style="enable-background:new 0 0 301.7 151;" xml:space="preserve">
<style type="text/css">
	.st0{fill:#433770;}
	.st1{fill:#30274F;}
</style>
<path class="st0" d="M142,91.8c-4.1-3.3-8-7.1-12.2-10.2c-4.1-3.1-8.6-5.6-13.6-6.2s-10.5,1.1-13.6,5.1c-2.6,3.3-3.2,7.9-2.7,12
	c0.6,5.5,3.2,11.3,8.3,13.7c5.2,2.5,11.4,0.7,16.5-1.8c12-6.1,21.1-16.5,31.1-25.6c10-9.1,22.2-17.2,35.6-16.9
	c5.1,0.1,10.2,1.5,14.3,4.6c4,3,6.7,7.3,8.6,11.9c3.7,8.9,4.6,19.5-0.2,27.9c-2.5,4.5-6.5,8.2-11.2,10.6c-5.3,2.8-11.4,4.1-17.4,3.5
	c-6.7-0.6-13.2-3.4-18.9-7.2c-4.8-3.2-10.1-7-14-11.2c-0.4-0.4-3.1-2.4-3.2-3c-0.1-0.9,1.2-2,1.8-2.6c2.2-1.9,4.3-2.8,6.5-4.7
	c0.2-0.2,0.4-1.8,0.7-1.8s2.4,2.3,2.6,2.5c4.3,3,8.3,6.5,12.6,9.4c4.4,2.9,9.3,5.3,14.6,5.5c5.3,0.2,10.9-2.1,13.4-6.6
	c1.6-2.8,1.9-6.2,1.8-9.4c-0.1-3.1-0.7-6.3-2.3-9c-2.1-3.4-5.9-5.7-9.9-6.3c-4.4-0.7-9,0.4-13,2.3c-18.7,8.4-29.1,28.4-47.2,37.9
	c-8,4.2-17.5,6.2-26.1,3.5c-7.2-2.2-13.3-7.7-16.7-14.4S84.3,90.2,86,82.8c1.3-5,3.6-9.9,7.2-13.5c7.6-7.8,20.1-9.4,30.6-6.1
	c5.5,1.7,10.6,4.6,15.2,8.1s8.2,7.8,12.6,11.3"/>
<circle class="st1" cx="187.1" cy="76.1" r="7.5"/>
<circle class="st1" cx="114.1" cy="108.7" r="7.5"/>
</svg>
