<?xml version="1.0" encoding="utf-8"?>
<!-- Generator: Adobe Illustrator 27.9.0, SVG Export Plug-In . SVG Version: 6.00 Build 0)  -->
<svg version="1.1" id="Layer_9" xmlns="http://www.w3.org/2000/svg" xmlns:xlink="http://www.w3.org/1999/xlink" x="0px" y="0px"
	 viewBox="0 0 376.7 222.2" style="enable-background:new 0 0 376.7 222.2;" xml:space="preserve">
<style type="text/css">
	.st0{fill:#433770;}
	.st1{fill:#30274F;}
</style>
<path class="st0" d="M190.4,174.5c-5.4,6.8-10.9,13.5-16.3,20.3c-1.4,1.8-2.9,3.6-4.3,5.4c-2,2.4-1.8,3.1-4.5,1.2
	c-7.6-5.3-13.4-10.3-23.1-11.5c-5-0.7-10.2-0.3-15.2-1.5c-7.8-1.8-14.2-7.2-20.2-12.5c-19.6-17.5-40-33.9-61.1-49.5
	c-5-3.7-9-7.6-12.7-10.6c-3.8-3.1-10.7-13.2-0.7-14.8c2.2-0.4,4.2-0.8,6.3,0c7.7,2.7,13.8,9.4,20.4,14.1c4.4,3.1,8.4,6.9,13.3,9.1
	c1.6,0.7,5.1,2.4,6.8,1c3.1-2.5-4.3-6.1-6.1-7.4c-7.2-5.2-59.9-43.3-50.2-52.2c2.6-2.4,7.3-4.4,10.8-2.3C41.4,68,47.1,72.4,54,78.8
	c7.9,7.2,16.3,14,24.5,20.9c3.1,2.7,6.8,6,10.9,7c1.7,0.4,4.8,0.7,5.7-1.3c1.1-2.5-4.1-6.2-5.8-8c-8.3-8.6-16.5-17.3-24.7-26.1
	c-4.1-4.4-8.2-8.8-12.2-13.1c-3-3.3-7-6.2-9.4-10c-2.3-3.6-3.7-10.9,0-14.6s8.9-2.3,10.6,0.4s10.8,9.5,15.1,14.8s19.7,18.7,23,23
	s11.5,12.6,14.2,15.2c2.3,2.2,3.5,0.5,5.4-1.2c-1.7-1.9-3.6-3.7-4.9-5.9C96.2,62.3,92,56.7,77.7,41.3c-2.2-2.4-5.7-12.9-1-16.2
	c4-2.8,11.2,2.3,15.1,4.9c3.5,2.4,6.8,6.6,9.3,10c6.4,8.8,11.6,14.1,19,22.2c3.3,3.6,9.3,11.3,13.9,15.9s9.3,8.9,13.2,8
	c4.4-1.1,3-12.9,2.5-16.1c0-0.2-0.1-0.5-0.2-0.7c-0.5-0.6-1.4,0.2-2.2,0.3c-1,0.1-2.2-1-2.9-1.8s-0.8-1.9-1.1-3
	c-1.6-6.4-3.3-12.4-2.6-19c0.6-5.5,6.3-17.5,13.5-11.6c1.8,1.5,2.8,3.8,3.8,6c5.5,12.8,11.1,25.5,16.6,38.3
	c2.3,5.4,4.1,10.8,6.2,16.3c1.3,3.5,3.8,7.8,3.8,11.6C184.7,109.6,190.4,174.5,190.4,174.5L190.4,174.5z"/>
<path class="st0" d="M190.4,174.5c5.4,6.8,10.9,13.5,16.3,20.3c1.4,1.8,2.9,3.6,4.3,5.4c2,2.4,1.8,3.1,4.5,1.2
	c7.6-5.3,13.4-10.3,23.1-11.5c5-0.7,10.2-0.3,15.2-1.5c7.8-1.8,14.2-7.2,20.2-12.5c19.6-17.5,40-33.9,61.1-49.5
	c5-3.7,9-7.6,12.7-10.6c3.8-3.1,10.7-13.2,0.7-14.8c-2.2-0.4-4.2-0.8-6.3,0c-7.7,2.7-13.8,9.4-20.4,14.1c-4.4,3.1-8.4,6.9-13.3,9.1
	c-1.6,0.7-5.1,2.4-6.8,1c-3.1-2.5,4.3-6.1,6.1-7.4c7.2-5.2,59.9-43.3,50.2-52.2c-2.6-2.4-7.3-4.4-10.8-2.3
	c-7.9,4.9-13.6,9.3-20.5,15.6c-7.9,7.2-16.3,14-24.5,20.9c-3.1,2.7-6.8,6-10.9,7c-1.7,0.4-4.8,0.7-5.7-1.3c-1.1-2.5,4.1-6.2,5.8-8
	c8.3-8.6,16.5-17.3,24.7-26.1c4.1-4.4,8.2-8.8,12.2-13.1c3.1-3.3,7-6.2,9.4-10c2.3-3.6,3.7-10.9,0-14.6s-8.9-2.3-10.6,0.4
	s-10.8,9.5-15.1,14.8s-19.7,18.7-23.1,23S277.7,84.4,275,87c-2.3,2.2-3.6,0.5-5.4-1.2c1.7-1.9,3.6-3.7,4.9-5.9
	c10.1-17.6,14.3-23.1,28.6-38.6c2.2-2.4,5.7-12.9,1-16.2c-4-2.8-11.2,2.3-15.1,4.9c-3.5,2.4-6.8,6.6-9.3,10
	c-6.4,8.8-11.6,14.1-19,22.2c-3.3,3.6-9.3,11.3-13.9,15.9s-9.3,8.9-13.2,8c-4.4-1.1-3-12.9-2.5-16.1c0-0.2,0.1-0.5,0.2-0.7
	c0.5-0.6,1.4,0.2,2.2,0.3c1,0.1,2.2-1,2.9-1.8s0.8-1.9,1.1-3c1.6-6.4,3.3-12.4,2.6-19c-0.6-5.5-6.3-17.5-13.5-11.6
	c-1.8,1.5-2.8,3.8-3.8,6c-5.5,12.8-11.1,25.5-16.6,38.3c-2.3,5.4-4.1,10.8-6.2,16.3c-1.3,3.5-3.8,7.8-3.8,11.6
	C196.1,109.6,190.4,174.5,190.4,174.5L190.4,174.5z"/>
<path class="st1" d="M190.2,110c0.3-2-0.3-5-2.8-8c-1.3-1.6-4-6.2-13.3-6.9c-9.6-0.7-14,2-18.3,3.7c-11.1,4.4-15.1,15.5-15.5,16.8
	c-3,8.8-0.5,16.4,1.3,21.9c3.6,11.1,10.4,18.1,14.8,22.5c8.2,8.3,12.2,8.5,23.2,18.7c4.9,4.6,8.6,8.8,11,11.6h0.2
	c2.3-2.9,5.9-7.1,10.8-11.8c10.8-10.4,14.8-10.6,22.9-19.1c4.3-4.5,11-11.6,14.5-22.8c1.7-5.6,4.1-13.2,0.9-21.9
	c-0.4-1.2-2.8-13.3-13.9-17.5c-4.3-1.6-9.5-4.7-19.1-3.8c-9.2,0.8-12.9,6.9-14.2,8.5C190.2,105,189.9,108,190.2,110"/>
</svg>
