<?xml version="1.0" encoding="utf-8"?>
<!-- Generator: Adobe Illustrator 27.9.0, SVG Export Plug-In . SVG Version: 6.00 Build 0)  -->
<svg version="1.1" id="ikoner" xmlns="http://www.w3.org/2000/svg" xmlns:xlink="http://www.w3.org/1999/xlink" x="0px" y="0px"
	 viewBox="0 0 205.2 196.7" style="enable-background:new 0 0 205.2 196.7;" xml:space="preserve">
<style type="text/css">
	
		.st0{clip-path:url(#SVGID_00000096058596932076583430000011916933156206613427_);fill:none;stroke:#241E3C;stroke-width:27;stroke-linecap:round;stroke-linejoin:round;}
	.st1{clip-path:url(#SVGID_00000096058596932076583430000011916933156206613427_);fill:#241E3C;}
</style>
<g>
	<defs>
		<rect id="SVGID_1_" width="205.2" height="196.7"/>
	</defs>
	<clipPath id="SVGID_00000132770181858695951590000008332562686104175285_">
		<use xlink:href="#SVGID_1_"  style="overflow:visible;"/>
	</clipPath>
	
		<path style="clip-path:url(#SVGID_00000132770181858695951590000008332562686104175285_);fill:none;stroke:#241E3C;stroke-width:27;stroke-linecap:round;stroke-linejoin:round;" d="
		M26.2,173.6c-7.4-14.8-11.6-31.5-11.6-49.3c0-20.2,5.5-39.2,15-55.5"/>
	
		<path style="clip-path:url(#SVGID_00000132770181858695951590000008332562686104175285_);fill:none;stroke:#241E3C;stroke-width:27;stroke-linecap:round;stroke-linejoin:round;" d="
		M59.4,35.8c18.2-13.5,40.8-21.4,65.2-21.4c60.7,0,110,49.2,110,110S222.4,243,161.7,243c-25.4,0-86-17.4-104.6-31.9"/>
	<path style="clip-path:url(#SVGID_00000132770181858695951590000008332562686104175285_);fill:#241E3C;" d="M62.4,117.5H81
		c2.9,0,5.3,2.4,5.3,5.3v45.5c0,2.9-2.4,5.3-5.3,5.3H62.4c-2.9,0-5.3-2.4-5.3-5.3v-45.5C57.1,119.9,59.4,117.5,62.4,117.5z"/>
	<path style="clip-path:url(#SVGID_00000132770181858695951590000008332562686104175285_);fill:#241E3C;" d="M112.2,90.6h17.8
		c2.9,0,5.3,2.4,5.3,5.3v72.5c0,2.9-2.4,5.3-5.3,5.3h-17.8c-2.9,0-5.3-2.4-5.3-5.3V95.8C107,92.9,109.3,90.6,112.2,90.6z"/>
	<path style="clip-path:url(#SVGID_00000132770181858695951590000008332562686104175285_);fill:#241E3C;" d="M161.3,65.1h18.1
		c2.9,0,5.3,2.4,5.3,5.3v98c0,2.9-2.4,5.3-5.3,5.3h-18.1c-2.9,0-5.3-2.4-5.3-5.3v-98C156,67.5,158.4,65.1,161.3,65.1z"/>
</g>
</svg>
