<?xml version="1.0" encoding="utf-8"?>
<!-- Generator: Adobe Illustrator 28.0.0, SVG Export Plug-In . SVG Version: 6.00 Build 0)  -->
<svg version="1.1" id="Layer_1" xmlns="http://www.w3.org/2000/svg" xmlns:xlink="http://www.w3.org/1999/xlink" x="0px" y="0px"
	 viewBox="0 0 475.5 158.1" style="enable-background:new 0 0 475.5 158.1;" xml:space="preserve">
<style type="text/css">
	.st0{clip-path:url(#SVGID_00000052818919959392224310000009586279372232509887_);}
	.st1{clip-path:url(#SVGID_00000124840631859260789320000001260638275834968729_);}
	.st2{fill:#433770;}
</style>
<g>
	<defs>
		<rect id="SVGID_1_" width="475.5" height="158.5"/>
	</defs>
	<clipPath id="SVGID_00000066514404715474463040000017554134075395497862_">
		<use xlink:href="#SVGID_1_"  style="overflow:visible;"/>
	</clipPath>
	<g style="clip-path:url(#SVGID_00000066514404715474463040000017554134075395497862_);">
		<g>
			<defs>
				<path id="SVGID_00000159457896052187771110000012258928756886640053_" d="M23-126.8h621.8c32.3,0,58.5,33.7,58.5,75V91.4
					c0,41.5-26.2,75-58.5,75H23c-32.2,0.2-58.5-33.5-58.5-74.8V-51.6C-35.5-93.1-9.2-126.8,23-126.8z"/>
			</defs>
			<clipPath id="SVGID_00000164494071719784580090000000108053073947144092_">
				<use xlink:href="#SVGID_00000159457896052187771110000012258928756886640053_"  style="overflow:visible;"/>
			</clipPath>
			<g style="clip-path:url(#SVGID_00000164494071719784580090000000108053073947144092_);">
				<g>
					<path class="st2" d="M531.8,185.4c-30.2-9.2-59-25.5-84.9-47.5c-13.8-11.8-27.5-25.9-44-29.2c-12.5-2.4-25.7-0.9-37.2,5.6
						c-12.6,7.1-18.8,14.9-31.8,19.3c-20,6.4-44,11.6-59.5-5.5c-6.1-6.8-13.3-12.8-23.4-29.2c-24.8-39.6-45.3-7.3-59.1,15.3
						c-8.9,14.4-23.9,21.3-38.3,22.2c-13.9,0.9-26-12.8-32.5-28.6c-6.5-15.8-8.7-33.8-13.1-50.7C103.9,41.7,96.3,25.6,84,22.8
						c-15-3.5-27.3,14.6-34.4,31.9C39.1,80.2,32.2,109.6,15.6,129c-15.7,18.2-39.1,24.8-59.3,16.8l8.2,46.2l77.4,28.3l373.5-12.8
						L521,191L531.8,185.4L531.8,185.4L531.8,185.4z"/>
					<path class="st2" d="M532.8,181.3c-26.9-8.3-52.6-22-76.2-40.8c-11.1-8.9-21.4-19.4-32.9-27.1c-11.8-7.8-24.6-11.1-37.9-9.7
						c-6.8,0.7-13.5,2.6-19.8,5.9c-5.8,3.1-11.2,7.1-16.8,11.1c-10.7,7.6-22.6,11.4-34.6,13.5c-11.2,1.9-23.5,1.9-33.6-5.7
						c-3.8-3-7-6.9-10.4-10.6c-3.9-4.2-7.6-8.7-11.1-13.4c-7.9-10.9-14.9-25-27.2-28.3c-9.1-2.4-17.5,2.3-24.5,9.4
						c-7.4,7.5-13,17.2-19.1,26.4c-7.6,11.4-19.4,17.4-30.9,19.3c-5.7,0.9-11.1,0.5-16.2-2.8c-5.1-3.3-9.5-8.2-13-14.1
						c-8.1-13.4-11-30.6-14.5-46.5c-3.1-14.1-6.8-29-15-39.6S79.8,15,69.4,21.2c-10.4,6.1-17.9,19.4-23,32.3
						c-5.7,14.1-10.2,28.6-16,42.5s-12.7,26.6-22.7,35.4s-21.5,13.2-33.2,13.4c-6,0.2-11.8-1-17.3-3.1c-2.6-1-4.7,2.3-4.2,5.4
						c2.7,15.5,5.5,30.7,8.2,46.2c0.3,1.4,1.2,2.6,2.3,3c20,7.3,40,14.8,60.2,22l13.7,5c1.5,0.5,3,1.4,4.5,1.4
						c2.4,0.2,4.9-0.2,7.2-0.2c14.8-0.5,29.4-1,44.1-1.6c23.7-0.9,47.4-1.6,70.9-2.4c27.6-0.9,55.2-1.9,82.8-2.8
						c26.5-0.9,52.9-1.7,79.4-2.8c20.3-0.7,40.7-1.4,61-2.1c9.2-0.4,18.4-0.2,27.5-0.9c3.8-0.4,7.6-1.2,11.2-1.7
						c11.9-1.9,24-3.6,35.9-5.5l39.1-6.1c6.5-1,13-1.7,19.5-3c3.9-0.9,8-3.8,11.8-5.7c3.9-2.1,2.3-10.4-1.8-8.3l-6.9,3.6
						c-1.1,0.5-2.4,1-3.4,1.7c-1,0.9,0.8,0,0.3,0.2c-2.2,0.5-4.5,0.7-6.6,1l-33,5.2c-21.5,3.3-43,6.8-64.5,10.1
						c-6.2,1-12.7,0.5-19.1,0.9c-18.1,0.7-36.3,1.2-54.4,1.9l-76.2,2.6c-27.7,0.9-55.4,1.9-83.1,2.8c-25,0.9-49.9,1.7-75,2.6
						c-17.3,0.5-34.6,1.2-52,1.7c-4.2,0.2-8.4,0.4-12.7,0.4c-0.7,0-1.5-0.2-2.3,0c0.4-0.2,1.2,0.4,0.3,0c-1.1-0.5-2.3-0.9-3.4-1.2
						c-22.3-8.7-44.8-16.8-67.2-25c-1.9-0.7-3.9-1.4-5.8-2.1l2.3,3c-2.7-15.5-5.5-30.7-8.2-46.2l-4.2,5.4c23,8.9,49.1,0.2,65.8-22
						c8.4-11.3,14.3-25,19.5-39c5.1-13.9,9.5-28.8,16.2-41.5c5.8-10.9,15.4-23.3,26.8-20.3c11.4,2.9,17.1,17.2,20.4,29.5
						c8.1,29.2,10.7,67.3,36.3,80.9c10.5,5.5,23.1,3,33.6-2.3c5.4-2.6,10.4-6.2,14.9-11.1c3.9-4.2,6.8-9.4,10-14.4
						c5.7-8.9,12-18.4,20.4-23.1c9.5-5.2,18.3,0.2,25,9c4.7,6.1,8.5,13.2,13.3,19.3c3.2,4.2,6.8,8.2,10.4,11.8
						c3.6,3.6,7.3,8.2,11.6,10.9c5,3.3,10.4,5,16,5.9c11.6,1.7,23.7-1,34.9-4.3c6-1.7,11.8-4.2,17.3-7.8c5.6-3.6,10.7-7.8,16.2-11.3
						c12.5-7.8,27.2-10.1,40.7-6.4c12.6,3.5,23.4,13.2,34,22.4c22.5,19.8,46.4,35.8,72.3,46.5c6.5,2.6,13,5,19.6,7.1
						C535.1,191.1,537,182.6,532.8,181.3L532.8,181.3L532.8,181.3z"/>
				</g>
			</g>
		</g>
	</g>
</g>
</svg>
