<?xml version="1.0" encoding="utf-8"?>
<!-- Generator: Adobe Illustrator 27.9.0, SVG Export Plug-In . SVG Version: 6.00 Build 0)  -->
<svg version="1.1" id="ikoner" xmlns="http://www.w3.org/2000/svg" xmlns:xlink="http://www.w3.org/1999/xlink" x="0px" y="0px"
	 viewBox="0 0 209.9 186" style="enable-background:new 0 0 209.9 186;" xml:space="preserve">
<style type="text/css">
	.st0{clip-path:url(#SVGID_00000173856130434197658140000013035052849575221910_);}
	.st1{fill:#241E3C;}
	.st2{fill:none;stroke:#241E3C;stroke-width:27;stroke-linecap:round;stroke-linejoin:round;}
</style>
<g>
	<defs>
		<rect id="SVGID_1_" y="0" width="209.9" height="186"/>
	</defs>
	<clipPath id="SVGID_00000089534170188669030430000007628956266291846574_">
		<use xlink:href="#SVGID_1_"  style="overflow:visible;"/>
	</clipPath>
	<g style="clip-path:url(#SVGID_00000089534170188669030430000007628956266291846574_);">
		<path class="st1" d="M177.5,110.4c0-27.7-20.7-44-47.2-44s-47.9,16.4-47.9,44c0,1,0.4,1.9,1.4,2c4.2,0.3,13.7,2.1,16.7,12.8
			c0.3,1,0.4,2.1,0.4,3.2l-0.4,33.8c0,0,1.6,16.3-16.7,16.3c-19.3,0-16.9-17.6-16.9-17.6v-3.4c0-0.7-0.5-1.3-1.2-1.5
			c-2.3-0.6-7.2-2.5-7.5-7.1c-0.4-6.1,0-11.3,0-11.3s0-6.3,6.9-7.3c0.8-0.1,1.3-0.7,1.4-1.4c0.1-1.8,0.6-5.1,2.9-7.5
			c0.2-0.2,0.4-0.5,0.4-0.8c0-48.6,27.8-64.9,60.6-64.9s59.9,17.8,59.9,64.9c0,0.3,0.2,0.6,0.4,0.8c2.3,2.4,2.8,5.7,2.9,7.5
			c0,0.7,0.6,1.3,1.4,1.4c6.8,0.9,6.8,7.3,6.8,7.3s0.4,5.2,0,11.3c-0.3,4.7-5.2,6.5-7.5,7.1c-0.7,0.2-1.1,0.8-1.1,1.5v3.4
			c0,0,2.4,17.7-16.8,17.6c-18.2,0-16.6-16.3-16.6-16.3l-0.4-33.8c0-1.1,0.1-2.2,0.4-3.2c2.9-10.7,12.4-12.5,16.6-12.8
			c1-0.1,1.4-1,1.4-2"/>
		<path class="st2" d="M188.5,32.1c13.9,9,26,21.3,34.9,36.6c10.2,17.5,15.1,36.6,15.1,55.5"/>
		<path class="st2" d="M238.5,174c-8.9,20.8-29,37.4-50,49.7c-52.4,30.7-124.1,8.5-154.8-43.9C2.9,127.5,20.5,60.1,72.9,29.4
			c21.9-12.9,46.5-17.2,69.9-14.2"/>
	</g>
</g>
</svg>
