<?xml version="1.0" encoding="utf-8"?>
<!-- Generator: Adobe Illustrator 27.9.0, SVG Export Plug-In . SVG Version: 6.00 Build 0)  -->
<svg version="1.1" id="ikoner" xmlns="http://www.w3.org/2000/svg" xmlns:xlink="http://www.w3.org/1999/xlink" x="0px" y="0px"
	 viewBox="0 0 216.4 200.9" style="enable-background:new 0 0 216.4 200.9;" xml:space="preserve">
<style type="text/css">
	
		.st0{clip-path:url(#SVGID_00000088823410177279972080000008800805285187548860_);fill:none;stroke:#241E3C;stroke-width:27;stroke-linecap:round;stroke-linejoin:round;}
	
		.st1{clip-path:url(#SVGID_00000088823410177279972080000008800805285187548860_);fill:none;stroke:#241E3C;stroke-width:23;stroke-linecap:round;stroke-linejoin:round;}
	.st2{clip-path:url(#SVGID_00000088823410177279972080000008800805285187548860_);fill:#241E3C;}
	
		.st3{clip-path:url(#SVGID_00000088823410177279972080000008800805285187548860_);fill:none;stroke:#241E3C;stroke-width:16;stroke-linecap:round;stroke-linejoin:round;}
</style>
<g>
	<defs>
		<rect id="SVGID_1_" width="216.4" height="200.9"/>
	</defs>
	<clipPath id="SVGID_00000026873698555681415540000006699814610480518062_">
		<use xlink:href="#SVGID_1_"  style="overflow:visible;"/>
	</clipPath>
	
		<path style="clip-path:url(#SVGID_00000026873698555681415540000006699814610480518062_);fill:none;stroke:#241E3C;stroke-width:27;stroke-linecap:round;stroke-linejoin:round;" d="
		M237.3,109.8c0.7,4.8,18.2,65,18.2,70c0,60.9-67.2,55.1-128.8,55.1S15.1,185.5,15.1,124.6S65,14.2,126.7,14.2
		c13,0,25.6,2.2,37.2,6.3"/>
	
		<path style="clip-path:url(#SVGID_00000026873698555681415540000006699814610480518062_);fill:none;stroke:#241E3C;stroke-width:23;stroke-linecap:round;stroke-linejoin:round;" d="
		M59,133.3c0,0,18.8,15.9,48.3,0"/>
	
		<path style="clip-path:url(#SVGID_00000026873698555681415540000006699814610480518062_);fill:none;stroke:#241E3C;stroke-width:23;stroke-linecap:round;stroke-linejoin:round;" d="
		M148.2,133.3c0,0,18.8,15.9,48.3,0"/>
	
		<circle style="clip-path:url(#SVGID_00000026873698555681415540000006699814610480518062_);fill:#241E3C;" cx="126.2" cy="183.8" r="13.6"/>
	
		<polyline style="clip-path:url(#SVGID_00000026873698555681415540000006699814610480518062_);fill:none;stroke:#241E3C;stroke-width:16;stroke-linecap:round;stroke-linejoin:round;" points="
		125.1,70.6 155.1,70.6 125.1,98 155.1,98 	"/>
	
		<polyline style="clip-path:url(#SVGID_00000026873698555681415540000006699814610480518062_);fill:none;stroke:#241E3C;stroke-width:16;stroke-linecap:round;stroke-linejoin:round;" points="
		172.7,50.4 207.1,50.4 172.7,81.7 207.1,81.7 	"/>
	
		<polyline style="clip-path:url(#SVGID_00000026873698555681415540000006699814610480518062_);fill:none;stroke:#241E3C;stroke-width:16;stroke-linecap:round;stroke-linejoin:round;" points="
		224.9,32.1 259.1,32.1 224.9,63.3 259.1,63.3 	"/>
</g>
</svg>
