<?xml version="1.0" encoding="utf-8"?>
<!-- Generator: Adobe Illustrator 28.0.0, SVG Export Plug-In . SVG Version: 6.00 Build 0)  -->
<svg version="1.1" id="Layer_5" xmlns="http://www.w3.org/2000/svg" xmlns:xlink="http://www.w3.org/1999/xlink" x="0px" y="0px"
	 viewBox="0 0 502 166.3" style="enable-background:new 0 0 502 166.3;" xml:space="preserve">
<style type="text/css">
	.st0{clip-path:url(#SVGID_00000100380597252035212710000013576632140340096644_);}
	.st1{clip-path:url(#SVGID_00000170261375566593217000000001482273354130175133_);}
	.st2{fill:none;stroke:#433770;stroke-width:2;stroke-miterlimit:10;}
	.st3{fill:#433770;}
</style>
<g>
	<defs>
		<rect id="SVGID_1_" width="502" height="166.3"/>
	</defs>
	<clipPath id="SVGID_00000177467024167820358370000005419842904372439977_">
		<use xlink:href="#SVGID_1_"  style="overflow:visible;"/>
	</clipPath>
	<g style="clip-path:url(#SVGID_00000177467024167820358370000005419842904372439977_);">
		<g>
			<defs>
				<path id="SVGID_00000145753163903884546450000017455535977022794653_" d="M13.7-8.1H492c24.9,0,45,20.3,45,45.3v86.5
					c0,25.1-20.2,45.3-45,45.3H13.7c-24.9,0-45-20.3-45-45.3V37.2C-31.4,12.1-11.2-8.1,13.7-8.1z"/>
			</defs>
			<clipPath id="SVGID_00000122715063724085136730000010538133030973783469_">
				<use xlink:href="#SVGID_00000145753163903884546450000017455535977022794653_"  style="overflow:visible;"/>
			</clipPath>
			<g style="clip-path:url(#SVGID_00000122715063724085136730000010538133030973783469_);">
				<g>
					<path class="st2" d="M-24-30.2c25.3,8.4,46.5,18,68,34.4c21.2,16.2,40.8,34.6,63.2,49.5c32.1,21.4,70.1,34.5,108.6,34.5
						c33.4,0,66.4-9.5,99.7-8.1c71.6,3.1,129.9,54.1,199.8,65c8.6,1.4,17.6,2,26.3,2.6"/>
					<path class="st2" d="M538.6,156.4c-32.3-3.9-65.2-9.1-96.1-19.4c-32.4-10.9-64.1-25.7-98.6-28.6c-34.7-2.9-69,6.5-103.6,10.5
						c-39.9,4.6-81.5,1.8-118.1-15.2C94.2,90.6,70.4,70,45.5,51.4S-6.9,16-37.7,12.5"/>
					<path class="st2" d="M-44.4,61.5c30.5,2.8,55.7,13.8,80.8,31.2c22.6,15.7,43.9,33.8,68.9,45.3c27.2,12.6,57.7,16.9,87.6,15
						c48.5-3,95.3-21.9,143.8-22.6c32.9-0.5,64.6,9.6,96.4,17.6c18.3,4.6,37.1,7.2,55.8,9.3c17.5,2,35.2,5.2,52.6,3.5"/>
					<polygon class="st3" points="-31.4,63.3 -21,65.5 -7.8,69.5 5.8,74.9 19.3,81.9 34.7,91.6 48.7,101.4 63.1,111.4 78.6,122.8 
						93.5,131.9 107.1,138.7 122.1,144.6 132.5,147.6 151.3,151.4 167.3,153.1 183.7,153.4 200.8,152.3 217.3,150.2 232.5,147.6 
						248.5,144.3 266.9,140.4 287.6,136.1 303.8,133.3 320.2,131.3 337.5,130.3 353.6,131 368.1,132.8 385,135.9 403.3,140.3 
						425,145.9 442.2,150 457.9,153.4 475.7,155.7 490.9,157.5 505.8,159.4 518,160.7 513.1,169 501.2,171.2 472.2,172.7 
						155.6,178.7 -6.9,175.8 -34.6,152.9 -44.4,101.4 -40.7,71.7 					"/>
					<polygon class="st3" points="-3.2,-16.6 17.2,-13 24.8,-8.7 38.9,0.4 56.3,13.9 75.2,29.4 94.7,44.8 113.3,57.6 134.3,69 
						152.9,76.8 175.6,83.5 199.5,87.4 224.6,87.9 250.5,85.6 274.8,82.3 300.7,80 319.2,80.5 340,83 361.6,88.3 382,95.3 
						404.8,104.8 427.8,115 448.1,123.9 467.5,131.8 486.9,138.5 505.9,143.3 527.7,146.6 537,149.3 528.3,155.2 504.6,151.7 
						481.3,147.4 460,142.3 434.5,134.1 416.7,126.9 399.5,120.9 378.5,115 360.1,111.4 340.7,108.2 327.5,107.9 311.7,108.8 
						295.5,110.6 277.1,113.4 258.7,116.4 237.8,119.2 220,120.6 204.7,120.9 189.4,120.9 174.6,118.8 157.3,115.7 141.8,111.4 
						123.8,104.4 105.5,94.8 86.8,82.6 69,69.2 54,57.8 35.1,43.9 20.9,34.6 5.9,26.3 -7.1,20.4 -17.5,16.7 -32.5,13.3 					"/>
				</g>
			</g>
		</g>
	</g>
</g>
</svg>
