<?xml version="1.0" encoding="utf-8"?>
<!-- Generator: Adobe Illustrator 27.9.0, SVG Export Plug-In . SVG Version: 6.00 Build 0)  -->
<svg version="1.1" id="Layer_10" xmlns="http://www.w3.org/2000/svg" xmlns:xlink="http://www.w3.org/1999/xlink" x="0px" y="0px"
	 viewBox="0 0 485.3 420.7" style="enable-background:new 0 0 485.3 420.7;" xml:space="preserve">
<style type="text/css">
	.st0{fill:#FFFFFF;}
	.st1{clip-path:url(#SVGID_00000041261568281279903770000010739381341944806275_);}
	.st2{clip-path:url(#SVGID_00000049197799485297627790000008773946119306147737_);}
	.st3{fill:url(#SVGID_00000084494958311450404170000006157716636944870030_);}
	.st4{clip-path:url(#SVGID_00000016795334452671269190000009713234556723276947_);}
	.st5{fill:#30274F;}
	.st6{fill:#1C172F;}
	.st7{fill:#433770;}
	.st8{fill:#54458C;}
	.st9{fill:#241E3C;}
	.st10{fill:#FFFFFF;stroke:#FFFFFF;stroke-miterlimit:10;}
	.st11{fill:none;stroke:#FFFFFF;stroke-miterlimit:10;}
</style>
<symbol  id="Star" viewBox="-1.7 -1.7 3.4 3.4">
	<path class="st0" d="M1.7,0C0.3,0.2,0.2,0.3,0,1.7C-0.2,0.3-0.3,0.2-1.7,0C-0.3-0.2-0.2-0.3,0-1.7C0.2-0.3,0.3-0.2,1.7,0z"/>
</symbol>
<g>
	<defs>
		<rect id="SVGID_1_" x="-0.2" y="-0.3" width="486" height="421"/>
	</defs>
	<clipPath id="SVGID_00000023990823617304053220000002025162894588086928_">
		<use xlink:href="#SVGID_1_"  style="overflow:visible;"/>
	</clipPath>
	<g style="clip-path:url(#SVGID_00000023990823617304053220000002025162894588086928_);">
		<g>
			<defs>
				<rect id="SVGID_00000024696627121879317240000005576916313906262170_" x="-151.2" y="-7.3" width="716" height="467"/>
			</defs>
			<clipPath id="SVGID_00000118363308873785915190000004263946160688601004_">
				<use xlink:href="#SVGID_00000024696627121879317240000005576916313906262170_"  style="overflow:visible;"/>
			</clipPath>
			<g style="clip-path:url(#SVGID_00000118363308873785915190000004263946160688601004_);">
				
					<linearGradient id="SVGID_00000044173680069092902250000007623821190373148550_" gradientUnits="userSpaceOnUse" x1="-98.1832" y1="678.2071" x2="-98.1832" y2="1733.3671" gradientTransform="matrix(1 0 0 -1 0 1704.8942)">
					<stop  offset="0" style="stop-color:#54458C"/>
					<stop  offset="0.14" style="stop-color:#4A3D7C"/>
					<stop  offset="0.23" style="stop-color:#433770"/>
					<stop  offset="0.38" style="stop-color:#372D5B"/>
					<stop  offset="0.5" style="stop-color:#30274F"/>
					<stop  offset="0.7" style="stop-color:#241E3C"/>
					<stop  offset="0.87" style="stop-color:#1C172F"/>
				</linearGradient>
				
					<rect x="-1058.2" y="-53.3" style="fill:url(#SVGID_00000044173680069092902250000007623821190373148550_);" width="1920" height="1080"/>
				<g>
					
						<use xlink:href="#Star"  width="3.4" height="3.4" x="-1.7" y="-1.7" transform="matrix(1 0 0 1 568.2769 -22.6329)" style="overflow:visible;"/>
					
						<use xlink:href="#Star"  width="3.4" height="3.4" x="-1.7" y="-1.7" transform="matrix(1 0 0 1 936.7368 87.6271)" style="overflow:visible;"/>
					
						<use xlink:href="#Star"  width="3.4" height="3.4" x="-1.7" y="-1.7" transform="matrix(1 0 0 1 572.1068 165.5471)" style="overflow:visible;"/>
					
						<use xlink:href="#Star"  width="3.4" height="3.4" x="-1.7" y="-1.7" transform="matrix(1 0 0 1 78.3668 209.0971)" style="overflow:visible;"/>
					
						<use xlink:href="#Star"  width="3.4" height="3.4" x="-1.7" y="-1.7" transform="matrix(1 0 0 1 336.6268 364.9671)" style="overflow:visible;"/>
					
						<use xlink:href="#Star"  width="3.4" height="3.4" x="-1.7" y="-1.7" transform="matrix(1 0 0 1 -58.5032 279.4671)" style="overflow:visible;"/>
				</g>
				<g>
					
						<use xlink:href="#Star"  width="3.4" height="3.4" x="-1.7" y="-1.7" transform="matrix(1 0 0 1 32.1868 17.2971)" style="overflow:visible;"/>
					
						<use xlink:href="#Star"  width="3.4" height="3.4" x="-1.7" y="-1.7" transform="matrix(1 0 0 1 63.1968 48.7171)" style="overflow:visible;"/>
					
						<use xlink:href="#Star"  width="3.4" height="3.4" x="-1.7" y="-1.7" transform="matrix(1 0 0 1 154.9169 15.3871)" style="overflow:visible;"/>
					
						<use xlink:href="#Star"  width="3.4" height="3.4" x="-1.7" y="-1.7" transform="matrix(1 0 0 1 94.5868 82.2971)" style="overflow:visible;"/>
					
						<use xlink:href="#Star"  width="3.4" height="3.4" x="-1.7" y="-1.7" transform="matrix(1 0 0 1 109.4468 46.6371)" style="overflow:visible;"/>
					
						<use xlink:href="#Star"  width="3.4" height="3.4" x="-1.7" y="-1.7" transform="matrix(1 0 0 1 218.7668 85.5071)" style="overflow:visible;"/>
					
						<use xlink:href="#Star"  width="3.4" height="3.4" x="-1.7" y="-1.7" transform="matrix(1 0 0 1 209.7668 35.6571)" style="overflow:visible;"/>
					
						<use xlink:href="#Star"  width="3.4" height="3.4" x="-1.7" y="-1.7" transform="matrix(1 0 0 1 -912.5032 70.4671)" style="overflow:visible;"/>
					
						<use xlink:href="#Star"  width="3.4" height="3.4" x="-1.7" y="-1.7" transform="matrix(1 0 0 1 -679.7732 32.4671)" style="overflow:visible;"/>
					
						<use xlink:href="#Star"  width="3.4" height="3.4" x="-1.7" y="-1.7" transform="matrix(1 0 0 1 -723.9132 10.3671)" style="overflow:visible;"/>
				</g>
				<g>
					
						<use xlink:href="#Star"  width="3.4" height="3.4" x="-1.7" y="-1.7" transform="matrix(1 0 0 1 271.5868 -5.9729)" style="overflow:visible;"/>
					
						<use xlink:href="#Star"  width="3.4" height="3.4" x="-1.7" y="-1.7" transform="matrix(1 0 0 1 386.2668 -40.8129)" style="overflow:visible;"/>
					
						<use xlink:href="#Star"  width="3.4" height="3.4" x="-1.7" y="-1.7" transform="matrix(1 0 0 1 496.7969 57.4771)" style="overflow:visible;"/>
					
						<use xlink:href="#Star"  width="3.4" height="3.4" x="-1.7" y="-1.7" transform="matrix(1 0 0 1 522.3268 112.5171)" style="overflow:visible;"/>
					
						<use xlink:href="#Star"  width="3.4" height="3.4" x="-1.7" y="-1.7" transform="matrix(1 0 0 1 780.9668 88.6571)" style="overflow:visible;"/>
					
						<use xlink:href="#Star"  width="3.4" height="3.4" x="-1.7" y="-1.7" transform="matrix(1 0 0 1 627.6669 -42.6329)" style="overflow:visible;"/>
					
						<use xlink:href="#Star"  width="3.4" height="3.4" x="-1.7" y="-1.7" transform="matrix(1 0 0 1 207.8468 -31.5329)" style="overflow:visible;"/>
					
						<use xlink:href="#Star"  width="3.4" height="3.4" x="-1.7" y="-1.7" transform="matrix(1 0 0 1 -18.6732 -2.2929)" style="overflow:visible;"/>
					
						<use xlink:href="#Star"  width="3.4" height="3.4" x="-1.7" y="-1.7" transform="matrix(1 0 0 1 -550.2732 42.9171)" style="overflow:visible;"/>
					
						<use xlink:href="#Star"  width="3.4" height="3.4" x="-1.7" y="-1.7" transform="matrix(1 0 0 1 -706.5032 55.7771)" style="overflow:visible;"/>
					
						<use xlink:href="#Star"  width="3.4" height="3.4" x="-1.7" y="-1.7" transform="matrix(1 0 0 1 -563.0332 155.9071)" style="overflow:visible;"/>
					
						<use xlink:href="#Star"  width="3.4" height="3.4" x="-1.7" y="-1.7" transform="matrix(1 0 0 1 327.9868 279.4671)" style="overflow:visible;"/>
					
						<use xlink:href="#Star"  width="3.4" height="3.4" x="-1.7" y="-1.7" transform="matrix(1 0 0 1 656.5668 132.3771)" style="overflow:visible;"/>
					
						<use xlink:href="#Star"  width="3.4" height="3.4" x="-1.7" y="-1.7" transform="matrix(1 0 0 1 766.1769 86.4971)" style="overflow:visible;"/>
					
						<use xlink:href="#Star"  width="3.4" height="3.4" x="-1.7" y="-1.7" transform="matrix(1 0 0 1 829.6368 82.8471)" style="overflow:visible;"/>
					
						<use xlink:href="#Star"  width="3.4" height="3.4" x="-1.7" y="-1.7" transform="matrix(1 0 0 1 998.5669 97.3871)" style="overflow:visible;"/>
					
						<use xlink:href="#Star"  width="3.4" height="3.4" x="-1.7" y="-1.7" transform="matrix(1 0 0 1 949.4368 148.8471)" style="overflow:visible;"/>
					
						<use xlink:href="#Star"  width="3.4" height="3.4" x="-1.7" y="-1.7" transform="matrix(1 0 0 1 900.0469 128.5871)" style="overflow:visible;"/>
					
						<use xlink:href="#Star"  width="3.4" height="3.4" x="-1.7" y="-1.7" transform="matrix(1 0 0 1 335.3069 26.9771)" style="overflow:visible;"/>
					
						<use xlink:href="#Star"  width="3.4" height="3.4" x="-1.7" y="-1.7" transform="matrix(1 0 0 1 -399.4731 77.3671)" style="overflow:visible;"/>
					
						<use xlink:href="#Star"  width="3.4" height="3.4" x="-1.7" y="-1.7" transform="matrix(1 0 0 1 -390.3432 143.2771)" style="overflow:visible;"/>
				</g>
				<g>
					<defs>
						<rect id="SVGID_00000176740978519280556660000005489477778237354930_" x="-490.1" y="46.8" width="1920" height="1080"/>
					</defs>
					<clipPath id="SVGID_00000179643128817148231610000006234178583608582072_">
						<use xlink:href="#SVGID_00000176740978519280556660000005489477778237354930_"  style="overflow:visible;"/>
					</clipPath>
					<g style="clip-path:url(#SVGID_00000179643128817148231610000006234178583608582072_);">
						<g>
							
								<use xlink:href="#Star"  width="3.4" height="3.4" x="-1.7" y="-1.7" transform="matrix(1 0 0 1 -558.5132 195.927)" style="overflow:visible;"/>
							
								<use xlink:href="#Star"  width="3.4" height="3.4" x="-1.7" y="-1.7" transform="matrix(1 0 0 1 -553.2632 200.707)" style="overflow:visible;"/>
							
								<use xlink:href="#Star"  width="3.4" height="3.4" x="-1.7" y="-1.7" transform="matrix(1 0 0 1 -548.0432 195.8771)" style="overflow:visible;"/>
							
								<use xlink:href="#Star"  width="3.4" height="3.4" x="-1.7" y="-1.7" transform="matrix(1 0 0 1 -355.4232 105.4471)" style="overflow:visible;"/>
							
								<use xlink:href="#Star"  width="3.4" height="3.4" x="-1.7" y="-1.7" transform="matrix(1 0 0 1 -182.0332 54.0871)" style="overflow:visible;"/>
							
								<use xlink:href="#Star"  width="3.4" height="3.4" x="-1.7" y="-1.7" transform="matrix(1 0 0 1 -118.8832 42.5271)" style="overflow:visible;"/>
							
								<use xlink:href="#Star"  width="3.4" height="3.4" x="-1.7" y="-1.7" transform="matrix(1 0 0 1 -519.2632 473.8171)" style="overflow:visible;"/>
							
								<use xlink:href="#Star"  width="3.4" height="3.4" x="-1.7" y="-1.7" transform="matrix(1 0 0 1 -619.7932 603.4371)" style="overflow:visible;"/>
							
								<use xlink:href="#Star"  width="3.4" height="3.4" x="-1.7" y="-1.7" transform="matrix(1 0 0 1 -494.3032 542.7271)" style="overflow:visible;"/>
							
								<use xlink:href="#Star"  width="3.4" height="3.4" x="-1.7" y="-1.7" transform="matrix(1 0 0 1 685.5369 -35.3129)" style="overflow:visible;"/>
							
								<use xlink:href="#Star"  width="3.4" height="3.4" x="-1.7" y="-1.7" transform="matrix(1 0 0 1 835.8868 -69.2029)" style="overflow:visible;"/>
							
								<use xlink:href="#Star"  width="3.4" height="3.4" x="-1.7" y="-1.7" transform="matrix(1 0 0 1 297.9468 168.4671)" style="overflow:visible;"/>
							
								<use xlink:href="#Star"  width="3.4" height="3.4" x="-1.7" y="-1.7" transform="matrix(1 0 0 1 -111.0632 418.9871)" style="overflow:visible;"/>
							
								<use xlink:href="#Star"  width="3.4" height="3.4" x="-1.7" y="-1.7" transform="matrix(1 0 0 1 -217.0132 523.7371)" style="overflow:visible;"/>
							
								<use xlink:href="#Star"  width="3.4" height="3.4" x="-1.7" y="-1.7" transform="matrix(1 0 0 1 -220.7432 516.3371)" style="overflow:visible;"/>
							
								<use xlink:href="#Star"  width="3.4" height="3.4" x="-1.7" y="-1.7" transform="matrix(1 0 0 1 21.7668 340.8271)" style="overflow:visible;"/>
							
								<use xlink:href="#Star"  width="3.4" height="3.4" x="-1.7" y="-1.7" transform="matrix(1 0 0 1 366.7368 279.5271)" style="overflow:visible;"/>
							
								<use xlink:href="#Star"  width="3.4" height="3.4" x="-1.7" y="-1.7" transform="matrix(1 0 0 1 347.3168 309.0071)" style="overflow:visible;"/>
							
								<use xlink:href="#Star"  width="3.4" height="3.4" x="-1.7" y="-1.7" transform="matrix(1 0 0 1 -33.1832 622.6871)" style="overflow:visible;"/>
							
								<use xlink:href="#Star"  width="3.4" height="3.4" x="-1.7" y="-1.7" transform="matrix(1 0 0 1 -201.8132 798.1271)" style="overflow:visible;"/>
							
								<use xlink:href="#Star"  width="3.4" height="3.4" x="-1.7" y="-1.7" transform="matrix(1 0 0 1 -205.6432 805.5471)" style="overflow:visible;"/>
							
								<use xlink:href="#Star"  width="3.4" height="3.4" x="-1.7" y="-1.7" transform="matrix(1 0 0 1 267.4069 293.8771)" style="overflow:visible;"/>
							
								<use xlink:href="#Star"  width="3.4" height="3.4" x="-1.7" y="-1.7" transform="matrix(1 0 0 1 469.9069 152.7571)" style="overflow:visible;"/>
							
								<use xlink:href="#Star"  width="3.4" height="3.4" x="-1.7" y="-1.7" transform="matrix(1 0 0 1 524.6368 145.5671)" style="overflow:visible;"/>
							
								<use xlink:href="#Star"  width="3.4" height="3.4" x="-1.7" y="-1.7" transform="matrix(1 0 0 1 -163.8732 823.097)" style="overflow:visible;"/>
							
								<use xlink:href="#Star"  width="3.4" height="3.4" x="-1.7" y="-1.7" transform="matrix(1 0 0 1 -351.2432 1113.5171)" style="overflow:visible;"/>
							
								<use xlink:href="#Star"  width="3.4" height="3.4" x="-1.7" y="-1.7" transform="matrix(1 0 0 1 -318.3632 1084.6171)" style="overflow:visible;"/>
							
								<use xlink:href="#Star"  width="3.4" height="3.4" x="-1.7" y="-1.7" transform="matrix(1 0 0 1 467.0469 487.4771)" style="overflow:visible;"/>
							
								<use xlink:href="#Star"  width="3.4" height="3.4" x="-1.7" y="-1.7" transform="matrix(1 0 0 1 964.6368 224.457)" style="overflow:visible;"/>
							
								<use xlink:href="#Star"  width="3.4" height="3.4" x="-1.7" y="-1.7" transform="matrix(1 0 0 1 758.0269 338.9471)" style="overflow:visible;"/>
							
								<use xlink:href="#Star"  width="3.4" height="3.4" x="-1.7" y="-1.7" transform="matrix(1 0 0 1 -297.4232 1305.1071)" style="overflow:visible;"/>
							
								<use xlink:href="#Star"  width="3.4" height="3.4" x="-1.7" y="-1.7" transform="matrix(1 0 0 1 -363.9032 1450.2971)" style="overflow:visible;"/>
							
								<use xlink:href="#Star"  width="3.4" height="3.4" x="-1.7" y="-1.7" transform="matrix(1 0 0 1 48.8268 1139.447)" style="overflow:visible;"/>
							
								<use xlink:href="#Star"  width="3.4" height="3.4" x="-1.7" y="-1.7" transform="matrix(1 0 0 1 1001.1267 196.457)" style="overflow:visible;"/>
							
								<use xlink:href="#Star"  width="3.4" height="3.4" x="-1.7" y="-1.7" transform="matrix(1 0 0 1 1080.5369 151.5971)" style="overflow:visible;"/>
							
								<use xlink:href="#Star"  width="3.4" height="3.4" x="-1.7" y="-1.7" transform="matrix(1 0 0 1 1072.1267 157.2471)" style="overflow:visible;"/>
							
								<use xlink:href="#Star"  width="3.4" height="3.4" x="-1.7" y="-1.7" transform="matrix(1 0 0 1 78.9568 998.327)" style="overflow:visible;"/>
							
								<use xlink:href="#Star"  width="3.4" height="3.4" x="-1.7" y="-1.7" transform="matrix(1 0 0 1 -8.7632 1124.0171)" style="overflow:visible;"/>
							
								<use xlink:href="#Star"  width="3.4" height="3.4" x="-1.7" y="-1.7" transform="matrix(1 0 0 1 307.6569 884.787)" style="overflow:visible;"/>
							
								<use xlink:href="#Star"  width="3.4" height="3.4" x="-1.7" y="-1.7" transform="matrix(1 0 0 1 858.0369 622.2371)" style="overflow:visible;"/>
							
								<use xlink:href="#Star"  width="3.4" height="3.4" x="-1.7" y="-1.7" transform="matrix(1 0 0 1 904.3668 604.9271)" style="overflow:visible;"/>
							
								<use xlink:href="#Star"  width="3.4" height="3.4" x="-1.7" y="-1.7" transform="matrix(1 0 0 1 178.4568 1019.327)" style="overflow:visible;"/>
							
								<use xlink:href="#Star"  width="3.4" height="3.4" x="-1.7" y="-1.7" transform="matrix(1 0 0 1 136.2969 1061.5371)" style="overflow:visible;"/>
							
								<use xlink:href="#Star"  width="3.4" height="3.4" x="-1.7" y="-1.7" transform="matrix(1 0 0 1 613.3368 867.2971)" style="overflow:visible;"/>
							
								<use xlink:href="#Star"  width="3.4" height="3.4" x="-1.7" y="-1.7" transform="matrix(1 0 0 1 1131.7168 635.2671)" style="overflow:visible;"/>
							
								<use xlink:href="#Star"  width="3.4" height="3.4" x="-1.7" y="-1.7" transform="matrix(1 0 0 1 1152.2769 631.1571)" style="overflow:visible;"/>
							
								<use xlink:href="#Star"  width="3.4" height="3.4" x="-1.7" y="-1.7" transform="matrix(1 0 0 1 1031.4568 736.0771)" style="overflow:visible;"/>
							
								<use xlink:href="#Star"  width="3.4" height="3.4" x="-1.7" y="-1.7" transform="matrix(1 0 0 1 839.2769 985.087)" style="overflow:visible;"/>
							
								<use xlink:href="#Star"  width="3.4" height="3.4" x="-1.7" y="-1.7" transform="matrix(1 0 0 1 1034.9268 958.2571)" style="overflow:visible;"/>
							
								<use xlink:href="#Star"  width="3.4" height="3.4" x="-1.7" y="-1.7" transform="matrix(1 0 0 1 1372.0969 798.5071)" style="overflow:visible;"/>
							
								<use xlink:href="#Star"  width="3.4" height="3.4" x="-1.7" y="-1.7" transform="matrix(1 0 0 1 1381.4067 798.4871)" style="overflow:visible;"/>
							
								<use xlink:href="#Star"  width="3.4" height="3.4" x="-1.7" y="-1.7" transform="matrix(1 0 0 1 1146.1968 993.8971)" style="overflow:visible;"/>
							
								<use xlink:href="#Star"  width="3.4" height="3.4" x="-1.7" y="-1.7" transform="matrix(1 0 0 1 1109.0369 1036.7371)" style="overflow:visible;"/>
							
								<use xlink:href="#Star"  width="3.4" height="3.4" x="-1.7" y="-1.7" transform="matrix(1 0 0 1 1156.7769 996.587)" style="overflow:visible;"/>
							
								<use xlink:href="#Star"  width="3.4" height="3.4" x="-1.7" y="-1.7" transform="matrix(1 0 0 1 1381.7068 648.1471)" style="overflow:visible;"/>
							
								<use xlink:href="#Star"  width="3.4" height="3.4" x="-1.7" y="-1.7" transform="matrix(1 0 0 1 1381.9067 535.8271)" style="overflow:visible;"/>
							
								<use xlink:href="#Star"  width="3.4" height="3.4" x="-1.7" y="-1.7" transform="matrix(1 0 0 1 1168.4067 471.5671)" style="overflow:visible;"/>
							
								<use xlink:href="#Star"  width="3.4" height="3.4" x="-1.7" y="-1.7" transform="matrix(1 0 0 1 882.1268 515.2371)" style="overflow:visible;"/>
							
								<use xlink:href="#Star"  width="3.4" height="3.4" x="-1.7" y="-1.7" transform="matrix(1 0 0 1 972.9069 442.2671)" style="overflow:visible;"/>
							
								<use xlink:href="#Star"  width="3.4" height="3.4" x="-1.7" y="-1.7" transform="matrix(1 0 0 1 1166.4568 284.9971)" style="overflow:visible;"/>
							
								<use xlink:href="#Star"  width="3.4" height="3.4" x="-1.7" y="-1.7" transform="matrix(1 0 0 1 1178.6069 264.8071)" style="overflow:visible;"/>
							
								<use xlink:href="#Star"  width="3.4" height="3.4" x="-1.7" y="-1.7" transform="matrix(1 0 0 1 1208.4968 151.0571)" style="overflow:visible;"/>
							
								<use xlink:href="#Star"  width="3.4" height="3.4" x="-1.7" y="-1.7" transform="matrix(1 0 0 1 1227.7769 116.0871)" style="overflow:visible;"/>
							
								<use xlink:href="#Star"  width="3.4" height="3.4" x="-1.7" y="-1.7" transform="matrix(1 0 0 1 1364.5068 141.0371)" style="overflow:visible;"/>
							
								<use xlink:href="#Star"  width="3.4" height="3.4" x="-1.7" y="-1.7" transform="matrix(1 0 0 1 1418.3767 170.2671)" style="overflow:visible;"/>
							
								<use xlink:href="#Star"  width="3.4" height="3.4" x="-1.7" y="-1.7" transform="matrix(1 0 0 1 1364.5068 182.0271)" style="overflow:visible;"/>
							
								<use xlink:href="#Star"  width="3.4" height="3.4" x="-1.7" y="-1.7" transform="matrix(1 0 0 1 820.7869 99.3671)" style="overflow:visible;"/>
							
								<use xlink:href="#Star"  width="3.4" height="3.4" x="-1.7" y="-1.7" transform="matrix(1 0 0 1 682.5168 63.2371)" style="overflow:visible;"/>
							
								<use xlink:href="#Star"  width="3.4" height="3.4" x="-1.7" y="-1.7" transform="matrix(1 0 0 1 660.1968 57.1071)" style="overflow:visible;"/>
							
								<use xlink:href="#Star"  width="3.4" height="3.4" x="-1.7" y="-1.7" transform="matrix(1 0 0 1 691.5369 185.1971)" style="overflow:visible;"/>
							
								<use xlink:href="#Star"  width="3.4" height="3.4" x="-1.7" y="-1.7" transform="matrix(1 0 0 1 699.0569 292.1171)" style="overflow:visible;"/>
							
								<use xlink:href="#Star"  width="3.4" height="3.4" x="-1.7" y="-1.7" transform="matrix(1 0 0 1 594.5768 336.4271)" style="overflow:visible;"/>
							
								<use xlink:href="#Star"  width="3.4" height="3.4" x="-1.7" y="-1.7" transform="matrix(1 0 0 1 554.7268 282.8371)" style="overflow:visible;"/>
							
								<use xlink:href="#Star"  width="3.4" height="3.4" x="-1.7" y="-1.7" transform="matrix(1 0 0 1 520.1368 253.957)" style="overflow:visible;"/>
							
								<use xlink:href="#Star"  width="3.4" height="3.4" x="-1.7" y="-1.7" transform="matrix(1 0 0 1 472.7668 544.1271)" style="overflow:visible;"/>
							
								<use xlink:href="#Star"  width="3.4" height="3.4" x="-1.7" y="-1.7" transform="matrix(1 0 0 1 586.8368 618.1671)" style="overflow:visible;"/>
							
								<use xlink:href="#Star"  width="3.4" height="3.4" x="-1.7" y="-1.7" transform="matrix(1 0 0 1 866.6868 513.0171)" style="overflow:visible;"/>
							
								<use xlink:href="#Star"  width="3.4" height="3.4" x="-1.7" y="-1.7" transform="matrix(1 0 0 1 967.8069 430.2271)" style="overflow:visible;"/>
							
								<use xlink:href="#Star"  width="3.4" height="3.4" x="-1.7" y="-1.7" transform="matrix(1 0 0 1 988.8268 418.8771)" style="overflow:visible;"/>
							
								<use xlink:href="#Star"  width="3.4" height="3.4" x="-1.7" y="-1.7" transform="matrix(1 0 0 1 1199.1367 438.8571)" style="overflow:visible;"/>
							
								<use xlink:href="#Star"  width="3.4" height="3.4" x="-1.7" y="-1.7" transform="matrix(1 0 0 1 1328.8269 434.8871)" style="overflow:visible;"/>
							
								<use xlink:href="#Star"  width="3.4" height="3.4" x="-1.7" y="-1.7" transform="matrix(1 0 0 1 1228.0869 409.8771)" style="overflow:visible;"/>
							
								<use xlink:href="#Star"  width="3.4" height="3.4" x="-1.7" y="-1.7" transform="matrix(1 0 0 1 80.8468 293.9471)" style="overflow:visible;"/>
							
								<use xlink:href="#Star"  width="3.4" height="3.4" x="-1.7" y="-1.7" transform="matrix(1 0 0 1 -248.3932 341.3171)" style="overflow:visible;"/>
							
								<use xlink:href="#Star"  width="3.4" height="3.4" x="-1.7" y="-1.7" transform="matrix(1 0 0 1 -213.8132 383.7071)" style="overflow:visible;"/>
							
								<use xlink:href="#Star"  width="3.4" height="3.4" x="-1.7" y="-1.7" transform="matrix(1 0 0 1 80.8168 536.2371)" style="overflow:visible;"/>
							
								<use xlink:href="#Star"  width="3.4" height="3.4" x="-1.7" y="-1.7" transform="matrix(1 0 0 1 202.9868 533.1971)" style="overflow:visible;"/>
							
								<use xlink:href="#Star"  width="3.4" height="3.4" x="-1.7" y="-1.7" transform="matrix(1 0 0 1 200.9269 512.5771)" style="overflow:visible;"/>
							
								<use xlink:href="#Star"  width="3.4" height="3.4" x="-1.7" y="-1.7" transform="matrix(1 0 0 1 109.4269 438.9071)" style="overflow:visible;"/>
							
								<use xlink:href="#Star"  width="3.4" height="3.4" x="-1.7" y="-1.7" transform="matrix(1 0 0 1 200.8868 684.6471)" style="overflow:visible;"/>
							
								<use xlink:href="#Star"  width="3.4" height="3.4" x="-1.7" y="-1.7" transform="matrix(1 0 0 1 289.0269 810.3071)" style="overflow:visible;"/>
							
								<use xlink:href="#Star"  width="3.4" height="3.4" x="-1.7" y="-1.7" transform="matrix(1 0 0 1 285.9768 819.3271)" style="overflow:visible;"/>
							
								<use xlink:href="#Star"  width="3.4" height="3.4" x="-1.7" y="-1.7" transform="matrix(1 0 0 1 7.0668 825.537)" style="overflow:visible;"/>
							
								<use xlink:href="#Star"  width="3.4" height="3.4" x="-1.7" y="-1.7" transform="matrix(1 0 0 1 -48.3132 785.3371)" style="overflow:visible;"/>
							
								<use xlink:href="#Star"  width="3.4" height="3.4" x="-1.7" y="-1.7" transform="matrix(1 0 0 1 -218.0332 756.1671)" style="overflow:visible;"/>
							
								<use xlink:href="#Star"  width="3.4" height="3.4" x="-1.7" y="-1.7" transform="matrix(1 0 0 1 -320.7832 714.7371)" style="overflow:visible;"/>
							
								<use xlink:href="#Star"  width="3.4" height="3.4" x="-1.7" y="-1.7" transform="matrix(1 0 0 1 -366.8632 663.1971)" style="overflow:visible;"/>
							
								<use xlink:href="#Star"  width="3.4" height="3.4" x="-1.7" y="-1.7" transform="matrix(1 0 0 1 -368.4932 771.7271)" style="overflow:visible;"/>
							
								<use xlink:href="#Star"  width="3.4" height="3.4" x="-1.7" y="-1.7" transform="matrix(1 0 0 1 -393.2532 895.9271)" style="overflow:visible;"/>
							
								<use xlink:href="#Star"  width="3.4" height="3.4" x="-1.7" y="-1.7" transform="matrix(1 0 0 1 -384.2132 797.2671)" style="overflow:visible;"/>
							
								<use xlink:href="#Star"  width="3.4" height="3.4" x="-1.7" y="-1.7" transform="matrix(1 0 0 1 -282.9731 299.4371)" style="overflow:visible;"/>
							
								<use xlink:href="#Star"  width="3.4" height="3.4" x="-1.7" y="-1.7" transform="matrix(1 0 0 1 -288.0332 246.4771)" style="overflow:visible;"/>
							
								<use xlink:href="#Star"  width="3.4" height="3.4" x="-1.7" y="-1.7" transform="matrix(1 0 0 1 -294.7332 233.1571)" style="overflow:visible;"/>
							
								<use xlink:href="#Star"  width="3.4" height="3.4" x="-1.7" y="-1.7" transform="matrix(1 0 0 1 -8.7632 152.1771)" style="overflow:visible;"/>
							
								<use xlink:href="#Star"  width="3.4" height="3.4" x="-1.7" y="-1.7" transform="matrix(1 0 0 1 402.0569 138.7971)" style="overflow:visible;"/>
							
								<use xlink:href="#Star"  width="3.4" height="3.4" x="-1.7" y="-1.7" transform="matrix(1 0 0 1 482.8168 162.6871)" style="overflow:visible;"/>
							
								<use xlink:href="#Star"  width="3.4" height="3.4" x="-1.7" y="-1.7" transform="matrix(1 0 0 1 -52.9532 154.1671)" style="overflow:visible;"/>
							
								<use xlink:href="#Star"  width="3.4" height="3.4" x="-1.7" y="-1.7" transform="matrix(1 0 0 1 -297.8632 123.5871)" style="overflow:visible;"/>
							
								<use xlink:href="#Star"  width="3.4" height="3.4" x="-1.7" y="-1.7" transform="matrix(1 0 0 1 -393.6232 240.0971)" style="overflow:visible;"/>
							
								<use xlink:href="#Star"  width="3.4" height="3.4" x="-1.7" y="-1.7" transform="matrix(1 0 0 1 -433.7231 316.6971)" style="overflow:visible;"/>
							
								<use xlink:href="#Star"  width="3.4" height="3.4" x="-1.7" y="-1.7" transform="matrix(1 0 0 1 -399.4532 404.4771)" style="overflow:visible;"/>
							
								<use xlink:href="#Star"  width="3.4" height="3.4" x="-1.7" y="-1.7" transform="matrix(1 0 0 1 -347.7832 448.6271)" style="overflow:visible;"/>
							
								<use xlink:href="#Star"  width="3.4" height="3.4" x="-1.7" y="-1.7" transform="matrix(1 0 0 1 -273.5532 395.2471)" style="overflow:visible;"/>
							
								<use xlink:href="#Star"  width="3.4" height="3.4" x="-1.7" y="-1.7" transform="matrix(1 0 0 1 -145.3932 326.0371)" style="overflow:visible;"/>
							
								<use xlink:href="#Star"  width="3.4" height="3.4" x="-1.7" y="-1.7" transform="matrix(1 0 0 1 -54.4132 257.5271)" style="overflow:visible;"/>
							
								<use xlink:href="#Star"  width="3.4" height="3.4" x="-1.7" y="-1.7" transform="matrix(1 0 0 1 164.3668 255.6871)" style="overflow:visible;"/>
							
								<use xlink:href="#Star"  width="3.4" height="3.4" x="-1.7" y="-1.7" transform="matrix(1 0 0 1 251.3069 261.9171)" style="overflow:visible;"/>
							
								<use xlink:href="#Star"  width="3.4" height="3.4" x="-1.7" y="-1.7" transform="matrix(1 0 0 1 261.9868 247.1271)" style="overflow:visible;"/>
							
								<use xlink:href="#Star"  width="3.4" height="3.4" x="-1.7" y="-1.7" transform="matrix(1 0 0 1 265.0668 140.3271)" style="overflow:visible;"/>
							
								<use xlink:href="#Star"  width="3.4" height="3.4" x="-1.7" y="-1.7" transform="matrix(1 0 0 1 113.6568 134.8171)" style="overflow:visible;"/>
							
								<use xlink:href="#Star"  width="3.4" height="3.4" x="-1.7" y="-1.7" transform="matrix(1 0 0 1 69.5569 140.3771)" style="overflow:visible;"/>
							
								<use xlink:href="#Star"  width="3.4" height="3.4" x="-1.7" y="-1.7" transform="matrix(1 0 0 1 46.3768 164.1471)" style="overflow:visible;"/>
						</g>
						<g>
							
								<use xlink:href="#Star"  width="3.4" height="3.4" x="-1.7" y="-1.7" transform="matrix(1 0 0 1 -424.2032 117.4371)" style="overflow:visible;"/>
							
								<use xlink:href="#Star"  width="3.4" height="3.4" x="-1.7" y="-1.7" transform="matrix(1 0 0 1 -160.5132 115.4471)" style="overflow:visible;"/>
							
								<use xlink:href="#Star"  width="3.4" height="3.4" x="-1.7" y="-1.7" transform="matrix(1 0 0 1 -149.0532 226.1171)" style="overflow:visible;"/>
							
								<use xlink:href="#Star"  width="3.4" height="3.4" x="-1.7" y="-1.7" transform="matrix(1 0 0 1 291.9868 77.2871)" style="overflow:visible;"/>
							
								<use xlink:href="#Star"  width="3.4" height="3.4" x="-1.7" y="-1.7" transform="matrix(1 0 0 1 85.0168 52.4771)" style="overflow:visible;"/>
							
								<use xlink:href="#Star"  width="3.4" height="3.4" x="-1.7" y="-1.7" transform="matrix(1 0 0 1 1025.3469 60.0471)" style="overflow:visible;"/>
							
								<use xlink:href="#Star"  width="3.4" height="3.4" x="-1.7" y="-1.7" transform="matrix(1 0 0 1 1373.1768 297.4671)" style="overflow:visible;"/>
							
								<use xlink:href="#Star"  width="3.4" height="3.4" x="-1.7" y="-1.7" transform="matrix(1 0 0 1 1321.8369 486.4771)" style="overflow:visible;"/>
							
								<use xlink:href="#Star"  width="3.4" height="3.4" x="-1.7" y="-1.7" transform="matrix(1 0 0 1 1241.9968 729.4671)" style="overflow:visible;"/>
							
								<use xlink:href="#Star"  width="3.4" height="3.4" x="-1.7" y="-1.7" transform="matrix(1 0 0 1 1141.1467 822.6871)" style="overflow:visible;"/>
							
								<use xlink:href="#Star"  width="3.4" height="3.4" x="-1.7" y="-1.7" transform="matrix(1 0 0 1 1321.7969 980.2871)" style="overflow:visible;"/>
							
								<use xlink:href="#Star"  width="3.4" height="3.4" x="-1.7" y="-1.7" transform="matrix(1 0 0 1 1237.9368 1041.2871)" style="overflow:visible;"/>
							
								<use xlink:href="#Star"  width="3.4" height="3.4" x="-1.7" y="-1.7" transform="matrix(1 0 0 1 875.2068 1067.9971)" style="overflow:visible;"/>
							
								<use xlink:href="#Star"  width="3.4" height="3.4" x="-1.7" y="-1.7" transform="matrix(1 0 0 1 586.1368 1064.3071)" style="overflow:visible;"/>
							
								<use xlink:href="#Star"  width="3.4" height="3.4" x="-1.7" y="-1.7" transform="matrix(1 0 0 1 475.7969 950.0171)" style="overflow:visible;"/>
							
								<use xlink:href="#Star"  width="3.4" height="3.4" x="-1.7" y="-1.7" transform="matrix(1 0 0 1 776.3969 953.847)" style="overflow:visible;"/>
							
								<use xlink:href="#Star"  width="3.4" height="3.4" x="-1.7" y="-1.7" transform="matrix(1 0 0 1 953.0868 763.7171)" style="overflow:visible;"/>
							
								<use xlink:href="#Star"  width="3.4" height="3.4" x="-1.7" y="-1.7" transform="matrix(1 0 0 1 749.7769 756.1971)" style="overflow:visible;"/>
							
								<use xlink:href="#Star"  width="3.4" height="3.4" x="-1.7" y="-1.7" transform="matrix(1 0 0 1 525.3468 750.4471)" style="overflow:visible;"/>
							
								<use xlink:href="#Star"  width="3.4" height="3.4" x="-1.7" y="-1.7" transform="matrix(1 0 0 1 314.2168 661.0571)" style="overflow:visible;"/>
							
								<use xlink:href="#Star"  width="3.4" height="3.4" x="-1.7" y="-1.7" transform="matrix(1 0 0 1 130.0868 862.5871)" style="overflow:visible;"/>
							
								<use xlink:href="#Star"  width="3.4" height="3.4" x="-1.7" y="-1.7" transform="matrix(1 0 0 1 -175.7332 944.1471)" style="overflow:visible;"/>
							
								<use xlink:href="#Star"  width="3.4" height="3.4" x="-1.7" y="-1.7" transform="matrix(1 0 0 1 -109.1332 1073.4971)" style="overflow:visible;"/>
							
								<use xlink:href="#Star"  width="3.4" height="3.4" x="-1.7" y="-1.7" transform="matrix(1 0 0 1 413.1168 1111.6871)" style="overflow:visible;"/>
							
								<use xlink:href="#Star"  width="3.4" height="3.4" x="-1.7" y="-1.7" transform="matrix(1 0 0 1 416.9968 680.0471)" style="overflow:visible;"/>
							
								<use xlink:href="#Star"  width="3.4" height="3.4" x="-1.7" y="-1.7" transform="matrix(1 0 0 1 700.2068 679.9271)" style="overflow:visible;"/>
							
								<use xlink:href="#Star"  width="3.4" height="3.4" x="-1.7" y="-1.7" transform="matrix(1 0 0 1 654.6569 988.067)" style="overflow:visible;"/>
							
								<use xlink:href="#Star"  width="3.4" height="3.4" x="-1.7" y="-1.7" transform="matrix(1 0 0 1 175.9668 343.8571)" style="overflow:visible;"/>
							
								<use xlink:href="#Star"  width="3.4" height="3.4" x="-1.7" y="-1.7" transform="matrix(1 0 0 1 14.5268 235.5171)" style="overflow:visible;"/>
							
								<use xlink:href="#Star"  width="3.4" height="3.4" x="-1.7" y="-1.7" transform="matrix(1 0 0 1 193.1769 155.4671)" style="overflow:visible;"/>
							
								<use xlink:href="#Star"  width="3.4" height="3.4" x="-1.7" y="-1.7" transform="matrix(1 0 0 1 515.8969 73.3971)" style="overflow:visible;"/>
							
								<use xlink:href="#Star"  width="3.4" height="3.4" x="-1.7" y="-1.7" transform="matrix(1 0 0 1 770.4169 177.7171)" style="overflow:visible;"/>
							
								<use xlink:href="#Star"  width="3.4" height="3.4" x="-1.7" y="-1.7" transform="matrix(1 0 0 1 1076.4067 318.7271)" style="overflow:visible;"/>
							
								<use xlink:href="#Star"  width="3.4" height="3.4" x="-1.7" y="-1.7" transform="matrix(1 0 0 1 810.3768 402.8971)" style="overflow:visible;"/>
							
								<use xlink:href="#Star"  width="3.4" height="3.4" x="-1.7" y="-1.7" transform="matrix(1 0 0 1 -478.3232 117.5871)" style="overflow:visible;"/>
							
								<use xlink:href="#Star"  width="3.4" height="3.4" x="-1.7" y="-1.7" transform="matrix(1 0 0 1 -464.6631 73.0371)" style="overflow:visible;"/>
							
								<use xlink:href="#Star"  width="3.4" height="3.4" x="-1.7" y="-1.7" transform="matrix(1 0 0 1 -463.6732 249.9671)" style="overflow:visible;"/>
							
								<use xlink:href="#Star"  width="3.4" height="3.4" x="-1.7" y="-1.7" transform="matrix(1 0 0 1 -458.1232 247.8771)" style="overflow:visible;"/>
							
								<use xlink:href="#Star"  width="3.4" height="3.4" x="-1.7" y="-1.7" transform="matrix(1 0 0 1 -371.1432 306.1171)" style="overflow:visible;"/>
							
								<use xlink:href="#Star"  width="3.4" height="3.4" x="-1.7" y="-1.7" transform="matrix(1 0 0 1 -475.9731 423.9871)" style="overflow:visible;"/>
							
								<use xlink:href="#Star"  width="3.4" height="3.4" x="-1.7" y="-1.7" transform="matrix(1 0 0 1 1394.4968 332.4771)" style="overflow:visible;"/>
							
								<use xlink:href="#Star"  width="3.4" height="3.4" x="-1.7" y="-1.7" transform="matrix(1 0 0 1 1300.9067 339.8771)" style="overflow:visible;"/>
							
								<use xlink:href="#Star"  width="3.4" height="3.4" x="-1.7" y="-1.7" transform="matrix(1 0 0 1 1245.4368 326.3271)" style="overflow:visible;"/>
							
								<use xlink:href="#Star"  width="3.4" height="3.4" x="-1.7" y="-1.7" transform="matrix(1 0 0 1 1137.3169 376.1071)" style="overflow:visible;"/>
							
								<use xlink:href="#Star"  width="3.4" height="3.4" x="-1.7" y="-1.7" transform="matrix(1 0 0 1 818.4169 261.5871)" style="overflow:visible;"/>
							
								<use xlink:href="#Star"  width="3.4" height="3.4" x="-1.7" y="-1.7" transform="matrix(1 0 0 1 892.1968 75.1671)" style="overflow:visible;"/>
							
								<use xlink:href="#Star"  width="3.4" height="3.4" x="-1.7" y="-1.7" transform="matrix(1 0 0 1 1363.4968 73.4671)" style="overflow:visible;"/>
							
								<use xlink:href="#Star"  width="3.4" height="3.4" x="-1.7" y="-1.7" transform="matrix(1 0 0 1 8.7869 67.7571)" style="overflow:visible;"/>
							
								<use xlink:href="#Star"  width="3.4" height="3.4" x="-1.7" y="-1.7" transform="matrix(1 0 0 1 -84.3232 86.7771)" style="overflow:visible;"/>
							
								<use xlink:href="#Star"  width="3.4" height="3.4" x="-1.7" y="-1.7" transform="matrix(1 0 0 1 -270.6332 71.5671)" style="overflow:visible;"/>
							
								<use xlink:href="#Star"  width="3.4" height="3.4" x="-1.7" y="-1.7" transform="matrix(1 0 0 1 -71.1332 372.5971)" style="overflow:visible;"/>
							
								<use xlink:href="#Star"  width="3.4" height="3.4" x="-1.7" y="-1.7" transform="matrix(1 0 0 1 565.1968 467.1371)" style="overflow:visible;"/>
							
								<use xlink:href="#Star"  width="3.4" height="3.4" x="-1.7" y="-1.7" transform="matrix(1 0 0 1 599.4069 174.2871)" style="overflow:visible;"/>
							
								<use xlink:href="#Star"  width="3.4" height="3.4" x="-1.7" y="-1.7" transform="matrix(1 0 0 1 777.6469 271.3771)" style="overflow:visible;"/>
							
								<use xlink:href="#Star"  width="3.4" height="3.4" x="-1.7" y="-1.7" transform="matrix(1 0 0 1 856.3568 336.1271)" style="overflow:visible;"/>
						</g>
					</g>
				</g>
				<path class="st5" d="M-62.7-8.8c-2.5,5.6-6.1,14.2-10,25c-7.2,20-8.3,28.3-14,46c-7.2,22.6-8.9,19.9-18,46
					c-2,5.6-6.3,20.8-15,51c-12.2,42.5-13,45.5-14,52c-2.4,14.9-2.1,21.7-6,36c-3.7,13.5-8.5,24.1-12,31v-139
					c4.1-8.5,8.8-19.6,13-33c6.6-21.2,5.1-26.9,12-44c6.2-15.4,9.6-16.5,16-32c6.1-14.9,8.8-28.1,10-37
					C-100.7-6.8-62.7-8.8-62.7-8.8z"/>
				<path class="st5" d="M-74.7,111.2c1.9-15.6,3.2-28.2,4-37c0.8-8.6,1.9-21.2,2-22c2.2-24.5,2.1-26.1,3-31c1.3-7.4,4-17.8,10-30
					l17,2c-2.5,7.6-6,19.3-9,34c-2.8,13.6-3.3,21.3-6,39c-1.4,9.5-3.7,23.3-7,40L-74.7,111.2z"/>
				<path class="st5" d="M470.3-7.8c3,12.3,7,28.3,12,47c5,18.5,9,32.2,13,46c4.5,15.5,9.7,33.1,17,56c5.9,18.5,9.8,30.5,16,47
					c11,29.1,10,21,14,34c4.5,14.6,6.5,27.6,17,33c2.4,1.2,4.6,1.8,6,2V-8.3L470.3-7.8z"/>
				<path class="st5" d="M371.8-16.3c1.1,5.8,2.7,14.9,4.5,26.2c3.2,21,3.7,29.7,6.3,48.2c3.2,23.7,4,20.9,8.1,48.2
					c0.9,5.9,2.8,21.8,6.7,53.5c5.5,44.5,5.8,47.8,6.3,54.5c1.1,15.7,0.9,22.7,2.7,37.8c1.7,14.2,3.8,25.3,5.4,32.5V138.9
					c-1.8-8.9-4-20.5-5.8-34.6c-3-22.2-2.3-28.2-5.4-46.2c-2.8-16.1-4.3-17.3-7.2-33.6c-2.8-15.7-3.9-29.4-4.5-38.8L371.8-16.3
					L371.8-16.3z"/>
				<path class="st5" d="M402-13.8c3.3,7.1,8.3,18.2,14.1,32.2c10.7,25.9,13.5,36.9,22.3,59.9c11.3,29.4,12,25.6,25.6,59.3
					c2.9,7.2,10.1,27.1,24.4,66.5c20,55.4,21.4,59.4,23.8,68c5.5,19.8,6.9,28.9,13.5,47.6c6.2,17.7,12.6,31.2,17.1,40l-33.3-187.1
					c-5.3-10.8-11.8-25.1-18.4-42.6c-10.4-27.6-10.6-35.5-20.2-57.5c-8.7-19.8-11.8-20.8-20.6-40.8c-8.5-19.2-13.8-36.5-17-48.4
					L402-13.8L402-13.8z"/>
				<path class="st5" d="M404.8-13.4c1.2,5.3,3.1,13.6,5.2,23.9c3.9,19.2,5.1,27.2,8.4,44.2c4.2,21.7,4.4,19.1,9.4,44.1
					c1.1,5.4,3.8,20,9.1,49c7.5,40.8,8,43.8,8.9,50c2.1,14.4,2.7,20.9,5.2,34.7c2.3,13,4.7,23.1,6.3,29.7l-13.7-134.6
					c-1.9-8.1-4.3-18.7-6.8-31.6c-3.9-20.3-4.1-25.9-7.6-42.3c-3.2-14.7-4.3-15.7-7.5-30.6c-3.1-14.3-5.2-27-6.4-35.6L404.8-13.4
					L404.8-13.4z"/>
				<path class="st5" d="M450.3-19.9c1.1,5.8,2.7,14.9,4.5,26.2c3.2,21,3.7,29.7,6.3,48.2c3.2,23.7,4,20.9,8.1,48.2
					c0.9,5.9,2.8,21.8,6.7,53.5c5.5,44.5,5.8,47.8,6.3,54.5c1.1,15.7,0.9,22.7,2.7,37.8c1.7,14.2,3.8,25.3,5.4,32.5V135.3
					c-1.8-8.9-4-20.5-5.8-34.6c-3-22.2-2.3-28.2-5.4-46.2c-2.8-16.1-4.3-17.3-7.2-33.6c-2.8-15.7-3.9-29.4-4.5-38.8L450.3-19.9
					L450.3-19.9z"/>
				<path class="st6" d="M146.3,277.2c2.3-3.3,5.8-4.9,6-5c4.9-2.2,9.2-0.8,14,0c3.2,0.5,11.5-0.3,28-2c10-1,13.1-1.6,17,0
					c3.9,1.6,9.6,5.8,10.8,7.8c0,0,0.1,0.1,0.2,0.2c1.4,1.2,6.4-6,13-8c0,0,4.5-1.4,22,5l0,0l9-1l0,0c0,0,5.8,6.7,8,14
					c1.6,5.2,1,9.6,0,18c-0.7,5.3-1.2,5.7-2,11c-1.3,8.3-1.2,14.4-1,25c0,1,0.2,10.5,1,19c1.7,18.2,2.5,27.3,11,55
					c1.6,5.2,38.4,125.6,2,153c-15.7,11.8-28.8-5.8-86-1c-4.1,0.3-21.5,1.9-43-3c-12.7-2.9-19.1-4.4-23-9c-11.2-13.2,7.1-33,11-73
					c2.7-28-5.3-27.7-4-71c0.1-3.7,0.1,0.1,4-49c3-37.5,4.5-56.4,3-61C145.7,297.1,140.9,284.9,146.3,277.2z"/>
				<path class="st7" d="M-98.7,236.2c6.7,1.1,14.8,2.5,24,4c9.7,1.6,12.7,2,18,3c10.2,1.9,16.8,3.4,24,5c4.7,1,16.1,3.4,39,8
					c39,7.9,33.8,6.5,40,8c39,9.2,42,15.7,60,15c10.7-0.4,21.7,1.7,32-1c2.6-0.7,6.9-2,11,0c5.6,2.8,7.2,10.1,8,14
					c6.1,30.5,2.8,69.8,2,79c-0.3,3-0.7,8.1-1,15c-0.4,8.8-0.2,13.3,0,26c0.1,12,0.2,20,0,30c-0.3,12.9-0.8,12.8-1,23
					c-0.3,14.9,0.7,14.5,1,36c0.1,4.3,0,3.2,0,37c0,2.2,0,9.8,0,12l-306.5,0.5V236.2H-98.7z"/>
				<path class="st7" d="M565.3,472.2c-2.3-4.9-5.6-11.8-10-20c-32.2-60.2-71.5-97.5-83-108c-44.9-41.1-73.4-67.2-109-67
					c-19.2,0.1-39.4,7.9-70,2c-3.9-0.8-21.2-4.3-23,0c-0.8,1.9,2.1,4,4,9c2.6,6.8,1,13,0,18c-3.9,19-3.2,37.4-3,43
					c0.4,10.1,1.5,10.3,2,24c0.3,8.7-0.1,10.8,0,22c0.1,13.8,0.7,14.9,1,30c0.3,15.7-0.3,14.9,0,32c0.2,15.6,0.8,16,1,32
					c0.2,12.9-0.1,15.2,0,28c0.1,8.2,0.3,19.5,1,33l288.8,0.5L565.3,472.2z"/>
				<path class="st8" d="M146.3,468.1c-2.4-4.8-3.5-9.2-4-13c-1.2-9.3,1.5-14.2-2-19c-2.4-3.4-6.3-4.5-8-5c-8.5-2.5-13.4,3.1-18,0
					c-0.8-0.5-1-0.9-5-10c-3.9-8.8-4.1-9.3-5-10c-4-3.2-7.7-0.2-15-3c-1.5-0.6-5.2-1.9-8-5c-6.5-7-1.1-14.7-7-23
					c-4.4-6.2-11.7-7.7-11-10c0.6-2.1,6.3-0.6,9-4c2.5-3.2,1.4-9.1-1-13c-3-4.7-9.7-6.6-23-10c-9.3-2.4-14-3.6-18-3
					c-6.1,0.9-8.7,3.6-15,3c-2.9-0.3-7.6-0.7-10-4c-3.4-4.8,2.4-9.9,0-18c-1.3-4.2-4.2-6.8-10-12c-5.3-4.8-8.8-7.8-14-9
					c-7.9-1.8-11.4,2.5-15,0c-4.1-2.9-1.4-9.6-3-21c-0.3-2.4-2.1-14.5-9-23c-9.3-11.5-25-12.8-31-13c0,0-48-33.2-75-5.6v235.7
					L146.3,468.1z"/>
				<path class="st8" d="M566.3,300.7c-4.1,0.3-9.1,1.3-14,4c-15.9,8.6-19.8,28.1-20,29c-1.7,8.9,0.1,15.8-3,17
					c-2.1,0.8-4.2-1.9-8-4c-6.8-3.7-13.8-2.4-22-1c-7.3,1.3-31.1,5.4-34,18c-1.4,6,2.7,10.7-1,16c-1.7,2.5-4.9,4.8-7,4
					c-2.7-1-0.9-6.4-4-9c-3.7-3.1-12.3-1-17,4c-3.9,4.2-2.3,7.6-5,13c-5.6,11.3-21.3,13.9-22,14c-11.9,1.8-21.9-4.3-38-14
					c-13-7.9-12.4-10-18-11c-19.2-3.4-38.6,20-41,23c-11.1,13.7-8.1,19.8-18,26c-13.2,8.2-31.2,5.3-33,5c-9.4-1.6-12.3-4.8-20-4
					c-8.4,0.9-14.8,5.9-19,10c0,0-11-2.1,0,24.5h344V300.7L566.3,300.7z"/>
				<path class="st9" d="M205.3,31.2c-1-7-3-38-4-45h149c0.4,8.3,1.4,18.9,4,31c0.6,2.9,3,13.4,8,27c2.7,7.3,9.9,25.7,24,47
					c6.7,10.1,15.4,23.1,30,37c6.4,6,18.3,14.1,42,30c31.7,21.3,41.1,26.8,44,24c0.7-0.6,1.3-2-1-10c-4-14-9.5-22.2-17-36
					c-3.2-5.9-6.9-12.7-11-22c-4.8-10.8-4.8-12.7-9-23c-8-19.5-10.8-18.8-17-35c-4.6-11.8-2.8-11.4-9-28c-2.8-7.6-4.5-11.3-9-23
					c-3.1-8.1-5.5-14.8-7-19h32c0.8,5.9,2.4,15.1,6,26c3.1,9.2,5,11.9,11,26c6,14.1,5.6,15.1,12,31c5.6,13.8,10.3,24,14,32
					c9.9,21.4,11.1,21.4,19,39c8.2,18.1,7.6,19.4,14,32c5.6,10.8,9.8,17.2,17,28c9.1,13.7,14.2,19.5,22,24c3.6,2,6.8,3.3,9,4
					l-0.2,258.6c-13.2-7.4-32.8-38.6-32.8-38.6c-15.1-26.6-30.6-47.2-43-62c-15.2-18.1-29.2-34.8-52-51c-23.9-17-28.3-12.7-63-33
					c-32.2-18.8-54.8-37.9-66-48c-12.1-10.9-31.3-28.4-51-56c-13.7-19.2-22.9-36.8-29-50 M265.3,104.2c-7.4-6.5-17.8-16.1-29-29
					c-13.3-15.2-24.6-28.2-33-48c-3.7-8.8-8.4-22.7-10-41h-49c1,7.7,3.1,19.5,8,33c6.4,17.5,13,25.5,31,53
					c26.2,40.1,22.3,38.8,33,51c16.8,19.2,34,31,43,37c14.6,9.8,27.9,16.5,38,21"/>
				<path class="st9" d="M-19.7,95.2c-3.7,6.3-10.3,16.7-14,23 M-1.7,95.2c-2.6,2.9-11.5,12.5-18,18c-6.2,5.1-16.5,12.5-32,18
					 M39.3,70.2c4-4.3,9.4-9,12-12c8.6-9.6,12.4-14.5,16-20c0.3-0.4,0.5-0.7,0.7-1.1c1.9-3,5.3-8.7,16.3-28.9c3-5.5,5.4-10,7-13
					l-19-4C69-0.3,65.6,7.2,62.1,13.9c-1.6,3-4.9,9.4-9.8,17.3c-5.1,8.2-10.8,17.2-20,27c-2.5,2.6-7.6,7.7-9,9 M-30.1,95.4H86.4
					c0,0-2.9-8-12.7-7.5c0,0-4.8-14.5-27.8-13.5c0,0-22.6-17.5-37.8,0.2h-30.7 M-10.7,74.2c5.3-7.9,13.1-18.5,21-31
					c24.4-38.9,25-44.2,23-48c-5.7-10.6-33.5-12.3-48,0c-8.8,7.4-6.4,14.7-16,38c-4.6,11.1-10.4,20.8-22,40c-5.5,9.2-14,21.8-31,47
					c-13.3,19.8-17.7,25.9-23,33c-7.6,10.1-13.3,17.7-22,27c-15.2,16.3-17.9,14.8-23,23c-11.9,19.3-9.6,48.1,0,52
					c5.2,2.1,11.7-3.3,23-13c21-17.9,33.5-37.9,36-42c10.3-16.8,13.2-27.2,25-36c1.5-1.1,6.5-4.8,13-9c9-5.9,11.4-6.7,18-11
					c7.1-4.6,11.7-8.4,21-16c8.3-6.8,13.1-10.8,19-17c4.9-5.1,11.6-12.7,14-16"/>
				<path class="st10" d="M121.3,23.2c-0.7-1.4,1.1-3.8,3-5c1.6-0.9,3.1-1,5-1c1.5,0,3.7-0.1,6,1c3,1.3,5.5,4.1,5,5
					c-0.3,0.6-1.9,0.4-3,0c-2.1-0.8-2.1-2.3-4-3c-1-0.3-1,0.1-4,0c-2.9-0.1-3.3-0.5-4,0c-1.5,1-0.8,3.6-2,4
					C122.6,24.4,121.7,23.9,121.3,23.2z"/>
				<path class="st10" d="M121,35.6c-0.7-1.4,1.1-3.8,3-5c1.6-0.9,3.1-1,5-1c1.5,0,3.7-0.1,6,1c3,1.3,5.5,4.1,5,5
					c-0.3,0.6-1.9,0.4-3,0c-2.1-0.8-2.1-2.3-4-3c-1-0.3-1,0.1-4,0c-2.9-0.1-3.3-0.5-4,0c-1.5,1-0.8,3.6-2,4
					C122.3,36.8,121.4,36.3,121,35.6z"/>
				<path class="st10" d="M123,48.8c-0.6-1.2,0.9-3.3,2.5-4.3c1.3-0.8,2.6-0.8,4.2-0.9c1.3,0,3.1-0.1,5,0.9c2.5,1.2,4.6,3.6,4.2,4.3
					c-0.3,0.5-1.6,0.3-2.5,0c-1.8-0.7-1.7-2-3.3-2.6c-0.8-0.3-0.8,0.1-3.3,0c-2.4-0.1-2.7-0.4-3.3,0c-1.3,0.9-0.6,3.1-1.7,3.4
					C124.1,49.8,123.3,49.4,123,48.8L123,48.8z"/>
				<path class="st10" d="M124,61.8c-0.5-1,0.8-2.7,2.2-3.5c1.1-0.7,2.2-0.7,3.6-0.7c1.1,0,2.7,0,4.4,0.7c2.2,0.9,4,2.9,3.6,3.5
					c-0.2,0.4-1.4,0.3-2.2,0c-1.5-0.5-1.5-1.6-2.9-2.1c-0.7-0.2-0.7,0.1-2.9,0c-2.1-0.1-2.4-0.3-2.9,0c-1.1,0.7-0.6,2.5-1.4,2.8
					C124.9,62.7,124.2,62.3,124,61.8L124,61.8z"/>
				<path class="st10" d="M125,75.8c-0.4-1.2,0.7-3.3,1.9-4.3c1-0.8,1.9-0.8,3.1-0.9c1,0,2.3-0.1,3.7,0.9c1.8,1.2,3.4,3.6,3.1,4.3
					c-0.2,0.5-1.2,0.3-1.9,0c-1.3-0.7-1.3-2-2.5-2.6c-0.6-0.3-0.6,0.1-2.5,0c-1.8-0.1-2.1-0.4-2.5,0c-0.9,0.9-0.5,3.1-1.2,3.4
					C125.8,76.8,125.2,76.4,125,75.8z"/>
				<path class="st10" d="M125.9,87.8c-0.4-1,0.6-2.7,1.6-3.5c0.8-0.7,1.6-0.7,2.6-0.7c0.8,0,1.9,0,3.1,0.7c1.5,0.9,2.8,2.9,2.6,3.5
					c-0.2,0.4-1,0.3-1.6,0c-1.1-0.5-1.1-1.6-2.1-2.1c-0.5-0.2-0.5,0.1-2.1,0c-1.5-0.1-1.7-0.3-2.1,0c-0.8,0.7-0.4,2.5-1,2.8
					C126.6,88.7,126.1,88.3,125.9,87.8z"/>
				<path class="st10" d="M124.9,100.9c-0.4-1,0.6-2.8,1.7-3.6c0.9-0.7,1.8-0.7,2.8-0.7c0.9,0,2.1,0,3.4,0.7c1.7,1,3.1,3,2.8,3.6
					c-0.2,0.4-1.1,0.3-1.7,0c-1.2-0.6-1.2-1.7-2.3-2.2c-0.6-0.3-0.6,0.1-2.3,0c-1.6-0.1-1.9-0.3-2.3,0c-0.9,0.7-0.4,2.6-1.1,2.9
					C125.7,101.8,125.1,101.4,124.9,100.9L124.9,100.9z"/>
				<path class="st10" d="M126.9,112.2c-0.3-0.6,0.4-1.7,1.2-2.2c0.7-0.4,1.3-0.4,2.1-0.4c0.6,0,1.5,0,2.5,0.4
					c1.2,0.6,2.3,1.8,2.1,2.2c-0.1,0.2-0.8,0.2-1.2,0c-0.9-0.3-0.8-1-1.7-1.3c-0.4-0.2-0.4,0-1.7,0c-1.2,0-1.4-0.2-1.7,0
					c-0.6,0.4-0.3,1.6-0.8,1.8C127.5,112.8,127,112.5,126.9,112.2L126.9,112.2z"/>
				<line class="st11" x1="130.3" y1="-8.3" x2="130.2" y2="109.6"/>
				<path class="st10" d="M171.5,24.8c-1-1.9,1.6-5.2,4.5-6.8c2.3-1.3,4.6-1.3,7.4-1.3c2.3,0,5.5-0.1,8.9,1.3
					c4.4,1.8,8.2,5.6,7.4,6.8c-0.5,0.8-2.8,0.5-4.5,0c-3.2-1.1-3.1-3.1-5.9-4.1c-1.5-0.5-1.5,0.1-5.9,0c-4.3-0.1-4.9-0.6-5.9,0
					c-2.2,1.4-1.2,4.8-3,5.4C173.4,26.5,172,25.7,171.5,24.8L171.5,24.8z"/>
				<path class="st10" d="M171,41.6c-1-1.9,1.6-5.2,4.5-6.8c2.3-1.3,4.6-1.3,7.4-1.3c2.3,0,5.5-0.1,8.9,1.3c4.4,1.8,8.2,5.6,7.4,6.8
					c-0.5,0.8-2.8,0.5-4.5,0c-3.2-1.1-3.1-3.1-5.9-4.1c-1.5-0.5-1.5,0.1-5.9,0c-4.3-0.1-4.9-0.6-5.9,0c-2.2,1.4-1.2,4.8-3,5.4
					C173,43.2,171.5,42.5,171,41.6L171,41.6z"/>
				<path class="st10" d="M173.9,59.4c-0.8-1.6,1.3-4.5,3.7-5.8c1.9-1.1,3.8-1.1,6.2-1.2c1.9,0,4.5-0.1,7.4,1.2
					c3.7,1.6,6.8,4.8,6.2,5.8c-0.4,0.7-2.4,0.5-3.7,0c-2.6-0.9-2.6-2.7-4.9-3.5c-1.2-0.4-1.2,0.1-4.9,0c-3.6-0.1-4.1-0.6-4.9,0
					c-1.9,1.2-0.9,4.2-2.5,4.7C175.6,60.8,174.4,60.2,173.9,59.4L173.9,59.4z"/>
				<path class="st10" d="M175.4,77c-0.7-1.3,1.2-3.6,3.2-4.7c1.7-0.9,3.3-0.9,5.4-0.9c1.7,0,4-0.1,6.5,0.9c3.2,1.3,5.9,3.9,5.4,4.7
					c-0.3,0.5-2.1,0.4-3.2,0c-2.3-0.7-2.2-2.2-4.3-2.8c-1.1-0.3-1.1,0.1-4.3,0c-3.1-0.1-3.6-0.4-4.3,0c-1.6,1-0.8,3.4-2.2,3.8
					C176.8,78.1,175.8,77.6,175.4,77L175.4,77z"/>
				<path class="st10" d="M176.9,95.8c-0.6-1.6,1-4.5,2.8-5.8c1.4-1.1,2.8-1.1,4.6-1.2c1.4,0,3.4-0.1,5.6,1.2
					c2.8,1.6,5.1,4.8,4.6,5.8c-0.3,0.7-1.8,0.5-2.8,0c-2-0.9-1.9-2.7-3.7-3.5c-0.9-0.4-0.9,0.1-3.7,0c-2.7-0.1-3-0.6-3.7,0
					c-1.4,1.2-0.7,4.2-1.8,4.7C178.1,97.3,177.2,96.6,176.9,95.8L176.9,95.8z"/>
				<path class="st10" d="M178.3,112.1c-0.5-1.3,0.8-3.6,2.3-4.7c1.2-0.9,2.4-0.9,3.8-0.9c1.2,0,2.8-0.1,4.6,0.9
					c2.3,1.3,4.2,3.9,3.8,4.7c-0.2,0.5-1.5,0.4-2.3,0c-1.6-0.7-1.6-2.2-3.1-2.8c-0.8-0.3-0.8,0.1-3.1,0c-2.2-0.1-2.5-0.4-3.1,0
					c-1.2,1-0.6,3.4-1.5,3.8C179.4,113.2,178.6,112.7,178.3,112.1L178.3,112.1z"/>
				<path class="st10" d="M176.9,129.8c-0.6-1.4,0.9-3.7,2.5-4.9c1.3-0.9,2.6-0.9,4.2-1c1.3,0,3.1-0.1,5.1,1c2.5,1.3,4.7,4,4.2,4.9
					c-0.3,0.6-1.6,0.4-2.5,0c-1.8-0.8-1.8-2.3-3.4-2.9c-0.9-0.4-0.8,0.1-3.4,0c-2.4-0.1-2.8-0.5-3.4,0c-1.3,1-0.7,3.5-1.7,3.9
					C178,131,177.2,130.5,176.9,129.8z"/>
				<path class="st10" d="M179.8,145.1c-0.4-0.8,0.7-2.3,1.8-2.9c1-0.6,1.9-0.6,3.1-0.6c0.9,0,2.3,0,3.7,0.6
					c1.8,0.8,3.4,2.4,3.1,2.9c-0.2,0.3-1.2,0.2-1.8,0c-1.3-0.5-1.3-1.4-2.5-1.8c-0.6-0.2-0.6,0-2.5,0c-1.8,0-2-0.3-2.5,0
					c-0.9,0.6-0.5,2.1-1.2,2.4C180.6,145.8,180,145.5,179.8,145.1L179.8,145.1z"/>
				<line class="st11" x1="184.9" y1="-17.8" x2="184.7" y2="141.5"/>
				<path class="st10" d="M65,10.1c-0.3-0.8,0.6-2.3,1.5-3c0.8-0.6,1.6-0.6,2.6-0.6c0.8,0,1.9,0,3.1,0.6c1.5,0.8,2.8,2.5,2.6,3
					c-0.2,0.3-1,0.2-1.5,0c-1.1-0.5-1.1-1.4-2.1-1.8c-0.5-0.2-0.5,0-2.1,0c-1.5,0-1.7-0.3-2.1,0c-0.8,0.6-0.4,2.1-1,2.4
					C65.7,10.8,65.2,10.5,65,10.1L65,10.1z"/>
				<path class="st10" d="M64.9,17.5c-0.3-0.8,0.6-2.3,1.5-3C67.2,14,68,14,69,13.9c0.8,0,1.9,0,3.1,0.6c1.5,0.8,2.8,2.5,2.6,3
					c-0.2,0.3-1,0.2-1.5,0C72,17.1,72,16.1,71,15.7c-0.5-0.2-0.5,0-2.1,0c-1.5,0-1.7-0.3-2.1,0c-0.8,0.6-0.4,2.1-1,2.4
					C65.5,18.3,65,17.9,64.9,17.5L64.9,17.5z"/>
				<path class="st10" d="M65.9,25.4c-0.3-0.7,0.5-2,1.3-2.6c0.7-0.5,1.3-0.5,2.1-0.5c0.7,0,1.6,0,2.6,0.5c1.3,0.7,2.3,2.1,2.1,2.6
					c-0.1,0.3-0.8,0.2-1.3,0c-0.9-0.4-0.9-1.2-1.7-1.6c-0.4-0.2-0.4,0-1.7,0c-1.2,0-1.4-0.2-1.7,0c-0.7,0.5-0.3,1.8-0.8,2.1
					C66.4,26,66,25.8,65.9,25.4L65.9,25.4z"/>
				<path class="st10" d="M66.4,33.2c-0.3-0.6,0.4-1.6,1.1-2.1c0.6-0.4,1.2-0.4,1.9-0.4c0.6,0,1.4,0,2.2,0.4
					c1.1,0.6,2.1,1.7,1.9,2.1c-0.1,0.2-0.7,0.2-1.1,0c-0.8-0.3-0.8-1-1.5-1.3c-0.4-0.2-0.4,0-1.5,0c-1.1,0-1.2-0.2-1.5,0
					c-0.6,0.4-0.3,1.5-0.8,1.7C66.9,33.7,66.5,33.5,66.4,33.2L66.4,33.2z"/>
				<path class="st10" d="M66.9,41.6c-0.2-0.7,0.3-2,1-2.6c0.5-0.5,1-0.5,1.6-0.5c0.5,0,1.2,0,1.9,0.5c0.9,0.7,1.8,2.1,1.6,2.6
					c-0.1,0.3-0.6,0.2-1,0c-0.7-0.4-0.7-1.2-1.3-1.6c-0.3-0.2-0.3,0-1.3,0c-0.9,0-1.1-0.2-1.3,0c-0.5,0.5-0.2,1.8-0.6,2.1
					C67.3,42.2,67,41.9,66.9,41.6L66.9,41.6z"/>
				<path class="st10" d="M67.4,48.8c-0.2-0.6,0.3-1.6,0.8-2.1c0.4-0.4,0.8-0.4,1.3-0.4c0.4,0,1,0,1.6,0.4c0.8,0.6,1.5,1.7,1.3,2.1
					c-0.1,0.2-0.5,0.2-0.8,0c-0.6-0.3-0.6-1-1.1-1.3c-0.3-0.1-0.3,0-1.1,0c-0.8,0-0.9-0.2-1.1,0c-0.4,0.4-0.2,1.5-0.5,1.7
					C67.7,49.3,67.5,49.1,67.4,48.8L67.4,48.8z"/>
				<path class="st10" d="M66.9,56.6c-0.2-0.6,0.3-1.7,0.9-2.2c0.5-0.4,0.9-0.4,1.5-0.4c0.4,0,1.1,0,1.8,0.4
					c0.9,0.6,1.6,1.8,1.5,2.2c-0.1,0.2-0.6,0.2-0.9,0c-0.6-0.3-0.6-1-1.2-1.3c-0.3-0.1-0.3,0-1.2,0c-0.8,0-1-0.2-1.2,0
					c-0.4,0.4-0.2,1.5-0.6,1.7C67.3,57.2,67,57,66.9,56.6L66.9,56.6z"/>
				<path class="st10" d="M67.9,63.4c-0.2-0.4,0.2-1,0.6-1.3c0.3-0.2,0.7-0.2,1.1-0.3c0.3,0,0.8,0,1.3,0.3c0.6,0.4,1.2,1.1,1.1,1.3
					c-0.1,0.1-0.4,0.1-0.6,0c-0.4-0.2-0.4-0.6-0.8-0.8c-0.2-0.1-0.2,0-0.8,0c-0.6,0-0.7-0.1-0.8,0c-0.3,0.3-0.2,0.9-0.4,1.1
					C68.2,63.7,68,63.6,67.9,63.4L67.9,63.4z"/>
				<line class="st11" x1="69.7" y1="-8.8" x2="69.6" y2="61.8"/>
			</g>
		</g>
	</g>
</g>
</svg>
