<?xml version="1.0" encoding="utf-8"?>
<!-- Generator: Adobe Illustrator 27.9.0, SVG Export Plug-In . SVG Version: 6.00 Build 0)  -->
<svg version="1.1" id="Layer_11" xmlns="http://www.w3.org/2000/svg" xmlns:xlink="http://www.w3.org/1999/xlink" x="0px" y="0px"
	 viewBox="0 0 458.6 421" style="enable-background:new 0 0 458.6 421;" xml:space="preserve">
<style type="text/css">
	.st0{fill:#FFFFFF;}
	.st1{clip-path:url(#SVGID_00000105424322124215851800000014255440734883815842_);}
	.st2{clip-path:url(#SVGID_00000023267318696673333070000006459960032155891117_);}
	.st3{fill:url(#SVGID_00000090270901474892566810000007265134712844694198_);}
	.st4{clip-path:url(#SVGID_00000139978927747340828050000011594325776894084287_);}
	.st5{fill:#30274F;}
	.st6{fill:#1C172F;}
	.st7{fill:#433770;}
	.st8{fill:#54458C;}
	.st9{fill:#241E3C;}
	.st10{fill:#FFFFFF;stroke:#FFFFFF;stroke-miterlimit:10;}
	.st11{fill:none;stroke:#FFFFFF;stroke-miterlimit:10;}
</style>
<symbol  id="Star" viewBox="-1.7 -1.7 3.4 3.4">
	<path class="st0" d="M1.7,0C0.3,0.2,0.2,0.3,0,1.7C-0.2,0.3-0.3,0.2-1.7,0C-0.3-0.2-0.2-0.3,0-1.7C0.2-0.3,0.3-0.2,1.7,0z"/>
</symbol>
<g>
	<defs>
		<rect id="SVGID_1_" width="459.2" height="421"/>
	</defs>
	<clipPath id="SVGID_00000174570490472604794970000008156212238675937193_">
		<use xlink:href="#SVGID_1_"  style="overflow:visible;"/>
	</clipPath>
	<g style="clip-path:url(#SVGID_00000174570490472604794970000008156212238675937193_);">
		<g>
			<defs>
				<rect id="SVGID_00000120552368388661455010000006948104611439614861_" x="-17.7" y="-6" width="881.4" height="574.9"/>
			</defs>
			<clipPath id="SVGID_00000065765573396908880400000002497969963141163429_">
				<use xlink:href="#SVGID_00000120552368388661455010000006948104611439614861_"  style="overflow:visible;"/>
			</clipPath>
			<g style="clip-path:url(#SVGID_00000065765573396908880400000002497969963141163429_);">
				
					<linearGradient id="SVGID_00000142896630505755327180000014795417768334474415_" gradientUnits="userSpaceOnUse" x1="47.565" y1="438.67" x2="47.565" y2="1737.5601" gradientTransform="matrix(1 0 0 -1 0 1705.52)">
					<stop  offset="0" style="stop-color:#54458C"/>
					<stop  offset="0.14" style="stop-color:#4A3D7C"/>
					<stop  offset="0.23" style="stop-color:#433770"/>
					<stop  offset="0.38" style="stop-color:#372D5B"/>
					<stop  offset="0.5" style="stop-color:#30274F"/>
					<stop  offset="0.7" style="stop-color:#241E3C"/>
					<stop  offset="0.87" style="stop-color:#1C172F"/>
				</linearGradient>
				
					<rect x="-1134.2" y="-62.6" style="fill:url(#SVGID_00000142896630505755327180000014795417768334474415_);" width="2363.5" height="1329.5"/>
				<g>
					
						<use xlink:href="#Star"  width="3.4" height="3.4" x="-1.7" y="-1.7" transform="matrix(1.23 0 0 1.23 867.9763 -24.8536)" style="overflow:visible;"/>
					
						<use xlink:href="#Star"  width="3.4" height="3.4" x="-1.7" y="-1.7" transform="matrix(1.23 0 0 1.23 1321.5464 110.8864)" style="overflow:visible;"/>
					
						<use xlink:href="#Star"  width="3.4" height="3.4" x="-1.7" y="-1.7" transform="matrix(1.23 0 0 1.23 872.6865 206.7964)" style="overflow:visible;"/>
					
						<use xlink:href="#Star"  width="3.4" height="3.4" x="-1.7" y="-1.7" transform="matrix(1.23 0 0 1.23 264.8964 260.4164)" style="overflow:visible;"/>
					
						<use xlink:href="#Star"  width="3.4" height="3.4" x="-1.7" y="-1.7" transform="matrix(1.23 0 0 1.23 582.8064 452.2864)" style="overflow:visible;"/>
					
						<use xlink:href="#Star"  width="3.4" height="3.4" x="-1.7" y="-1.7" transform="matrix(1.23 0 0 1.23 96.4064 347.0364)" style="overflow:visible;"/>
				</g>
				<g>
					
						<use xlink:href="#Star"  width="3.4" height="3.4" x="-1.7" y="-1.7" transform="matrix(1.23 0 0 1.23 208.0464 24.2964)" style="overflow:visible;"/>
					
						<use xlink:href="#Star"  width="3.4" height="3.4" x="-1.7" y="-1.7" transform="matrix(1.23 0 0 1.23 246.2264 62.9864)" style="overflow:visible;"/>
					
						<use xlink:href="#Star"  width="3.4" height="3.4" x="-1.7" y="-1.7" transform="matrix(1.23 0 0 1.23 359.1265 21.9564)" style="overflow:visible;"/>
					
						<use xlink:href="#Star"  width="3.4" height="3.4" x="-1.7" y="-1.7" transform="matrix(1.23 0 0 1.23 284.8665 104.3264)" style="overflow:visible;"/>
					
						<use xlink:href="#Star"  width="3.4" height="3.4" x="-1.7" y="-1.7" transform="matrix(1.23 0 0 1.23 303.1464 60.4164)" style="overflow:visible;"/>
					
						<use xlink:href="#Star"  width="3.4" height="3.4" x="-1.7" y="-1.7" transform="matrix(1.23 0 0 1.23 437.7164 108.2664)" style="overflow:visible;"/>
					
						<use xlink:href="#Star"  width="3.4" height="3.4" x="-1.7" y="-1.7" transform="matrix(1.23 0 0 1.23 426.6464 46.9064)" style="overflow:visible;"/>
					
						<use xlink:href="#Star"  width="3.4" height="3.4" x="-1.7" y="-1.7" transform="matrix(1.23 0 0 1.23 -954.8636 89.7564)" style="overflow:visible;"/>
					
						<use xlink:href="#Star"  width="3.4" height="3.4" x="-1.7" y="-1.7" transform="matrix(1.23 0 0 1.23 -668.3736 42.9764)" style="overflow:visible;"/>
					
						<use xlink:href="#Star"  width="3.4" height="3.4" x="-1.7" y="-1.7" transform="matrix(1.23 0 0 1.23 -722.7136 15.7764)" style="overflow:visible;"/>
				</g>
				<g>
					
						<use xlink:href="#Star"  width="3.4" height="3.4" x="-1.7" y="-1.7" transform="matrix(1.23 0 0 1.23 502.7463 -4.3436)" style="overflow:visible;"/>
					
						<use xlink:href="#Star"  width="3.4" height="3.4" x="-1.7" y="-1.7" transform="matrix(1.23 0 0 1.23 643.9165 -47.2236)" style="overflow:visible;"/>
					
						<use xlink:href="#Star"  width="3.4" height="3.4" x="-1.7" y="-1.7" transform="matrix(1.23 0 0 1.23 779.9763 73.7664)" style="overflow:visible;"/>
					
						<use xlink:href="#Star"  width="3.4" height="3.4" x="-1.7" y="-1.7" transform="matrix(1.23 0 0 1.23 811.4065 141.5164)" style="overflow:visible;"/>
					
						<use xlink:href="#Star"  width="3.4" height="3.4" x="-1.7" y="-1.7" transform="matrix(1.23 0 0 1.23 1129.7964 112.1464)" style="overflow:visible;"/>
					
						<use xlink:href="#Star"  width="3.4" height="3.4" x="-1.7" y="-1.7" transform="matrix(1.23 0 0 1.23 941.0764 -49.4736)" style="overflow:visible;"/>
					
						<use xlink:href="#Star"  width="3.4" height="3.4" x="-1.7" y="-1.7" transform="matrix(1.23 0 0 1.23 424.2764 -35.8036)" style="overflow:visible;"/>
					
						<use xlink:href="#Star"  width="3.4" height="3.4" x="-1.7" y="-1.7" transform="matrix(1.23 0 0 1.23 145.4364 0.1864)" style="overflow:visible;"/>
					
						<use xlink:href="#Star"  width="3.4" height="3.4" x="-1.7" y="-1.7" transform="matrix(1.23 0 0 1.23 -508.9636 55.8364)" style="overflow:visible;"/>
					
						<use xlink:href="#Star"  width="3.4" height="3.4" x="-1.7" y="-1.7" transform="matrix(1.23 0 0 1.23 -701.2736 71.6764)" style="overflow:visible;"/>
					
						<use xlink:href="#Star"  width="3.4" height="3.4" x="-1.7" y="-1.7" transform="matrix(1.23 0 0 1.23 -524.6636 194.9364)" style="overflow:visible;"/>
					
						<use xlink:href="#Star"  width="3.4" height="3.4" x="-1.7" y="-1.7" transform="matrix(1.23 0 0 1.23 572.1765 347.0364)" style="overflow:visible;"/>
					
						<use xlink:href="#Star"  width="3.4" height="3.4" x="-1.7" y="-1.7" transform="matrix(1.23 0 0 1.23 976.6565 165.9664)" style="overflow:visible;"/>
					
						<use xlink:href="#Star"  width="3.4" height="3.4" x="-1.7" y="-1.7" transform="matrix(1.23 0 0 1.23 1111.5764 109.4864)" style="overflow:visible;"/>
					
						<use xlink:href="#Star"  width="3.4" height="3.4" x="-1.7" y="-1.7" transform="matrix(1.23 0 0 1.23 1189.7063 104.9964)" style="overflow:visible;"/>
					
						<use xlink:href="#Star"  width="3.4" height="3.4" x="-1.7" y="-1.7" transform="matrix(1.23 0 0 1.23 1397.6465 122.8964)" style="overflow:visible;"/>
					
						<use xlink:href="#Star"  width="3.4" height="3.4" x="-1.7" y="-1.7" transform="matrix(1.23 0 0 1.23 1337.1765 186.2364)" style="overflow:visible;"/>
					
						<use xlink:href="#Star"  width="3.4" height="3.4" x="-1.7" y="-1.7" transform="matrix(1.23 0 0 1.23 1276.3765 161.3064)" style="overflow:visible;"/>
					
						<use xlink:href="#Star"  width="3.4" height="3.4" x="-1.7" y="-1.7" transform="matrix(1.23 0 0 1.23 581.1865 36.2164)" style="overflow:visible;"/>
					
						<use xlink:href="#Star"  width="3.4" height="3.4" x="-1.7" y="-1.7" transform="matrix(1.23 0 0 1.23 -323.3236 98.2464)" style="overflow:visible;"/>
					
						<use xlink:href="#Star"  width="3.4" height="3.4" x="-1.7" y="-1.7" transform="matrix(1.23 0 0 1.23 -312.0936 179.3864)" style="overflow:visible;"/>
				</g>
				<g>
					<defs>
						<rect id="SVGID_00000140717721052976214540000011110612472861921165_" x="-434.9" y="60.6" width="2363.5" height="1329.5"/>
					</defs>
					<clipPath id="SVGID_00000075884398624948231860000014977172308321433485_">
						<use xlink:href="#SVGID_00000140717721052976214540000011110612472861921165_"  style="overflow:visible;"/>
					</clipPath>
					<g style="clip-path:url(#SVGID_00000075884398624948231860000014977172308321433485_);">
						<g>
							
								<use xlink:href="#Star"  width="3.4" height="3.4" x="-1.7" y="-1.7" transform="matrix(1.23 0 0 1.23 -519.1036 244.1964)" style="overflow:visible;"/>
							
								<use xlink:href="#Star"  width="3.4" height="3.4" x="-1.7" y="-1.7" transform="matrix(1.23 0 0 1.23 -512.6436 250.0864)" style="overflow:visible;"/>
							
								<use xlink:href="#Star"  width="3.4" height="3.4" x="-1.7" y="-1.7" transform="matrix(1.23 0 0 1.23 -506.2236 244.1364)" style="overflow:visible;"/>
							
								<use xlink:href="#Star"  width="3.4" height="3.4" x="-1.7" y="-1.7" transform="matrix(1.23 0 0 1.23 -269.0936 132.8164)" style="overflow:visible;"/>
							
								<use xlink:href="#Star"  width="3.4" height="3.4" x="-1.7" y="-1.7" transform="matrix(1.23 0 0 1.23 -55.6636 69.5964)" style="overflow:visible;"/>
							
								<use xlink:href="#Star"  width="3.4" height="3.4" x="-1.7" y="-1.7" transform="matrix(1.23 0 0 1.23 22.0864 55.3664)" style="overflow:visible;"/>
							
								<use xlink:href="#Star"  width="3.4" height="3.4" x="-1.7" y="-1.7" transform="matrix(1.23 0 0 1.23 -470.7836 586.2764)" style="overflow:visible;"/>
							
								<use xlink:href="#Star"  width="3.4" height="3.4" x="-1.7" y="-1.7" transform="matrix(1.23 0 0 1.23 -594.5336 745.8364)" style="overflow:visible;"/>
							
								<use xlink:href="#Star"  width="3.4" height="3.4" x="-1.7" y="-1.7" transform="matrix(1.23 0 0 1.23 -440.0636 671.1064)" style="overflow:visible;"/>
							
								<use xlink:href="#Star"  width="3.4" height="3.4" x="-1.7" y="-1.7" transform="matrix(1.23 0 0 1.23 1012.3164 -40.4536)" style="overflow:visible;"/>
							
								<use xlink:href="#Star"  width="3.4" height="3.4" x="-1.7" y="-1.7" transform="matrix(1.23 0 0 1.23 1197.3865 -82.1736)" style="overflow:visible;"/>
							
								<use xlink:href="#Star"  width="3.4" height="3.4" x="-1.7" y="-1.7" transform="matrix(1.23 0 0 1.23 535.1963 210.3964)" style="overflow:visible;"/>
							
								<use xlink:href="#Star"  width="3.4" height="3.4" x="-1.7" y="-1.7" transform="matrix(1.23 0 0 1.23 31.7064 518.7864)" style="overflow:visible;"/>
							
								<use xlink:href="#Star"  width="3.4" height="3.4" x="-1.7" y="-1.7" transform="matrix(1.23 0 0 1.23 -98.7136 647.7264)" style="overflow:visible;"/>
							
								<use xlink:href="#Star"  width="3.4" height="3.4" x="-1.7" y="-1.7" transform="matrix(1.23 0 0 1.23 -103.3036 638.6164)" style="overflow:visible;"/>
							
								<use xlink:href="#Star"  width="3.4" height="3.4" x="-1.7" y="-1.7" transform="matrix(1.23 0 0 1.23 195.2164 422.5764)" style="overflow:visible;"/>
							
								<use xlink:href="#Star"  width="3.4" height="3.4" x="-1.7" y="-1.7" transform="matrix(1.23 0 0 1.23 619.8765 347.1064)" style="overflow:visible;"/>
							
								<use xlink:href="#Star"  width="3.4" height="3.4" x="-1.7" y="-1.7" transform="matrix(1.23 0 0 1.23 595.9663 383.3964)" style="overflow:visible;"/>
							
								<use xlink:href="#Star"  width="3.4" height="3.4" x="-1.7" y="-1.7" transform="matrix(1.23 0 0 1.23 127.5764 769.5364)" style="overflow:visible;"/>
							
								<use xlink:href="#Star"  width="3.4" height="3.4" x="-1.7" y="-1.7" transform="matrix(1.23 0 0 1.23 -80.0035 985.5065)" style="overflow:visible;"/>
							
								<use xlink:href="#Star"  width="3.4" height="3.4" x="-1.7" y="-1.7" transform="matrix(1.23 0 0 1.23 -84.7136 994.6365)" style="overflow:visible;"/>
							
								<use xlink:href="#Star"  width="3.4" height="3.4" x="-1.7" y="-1.7" transform="matrix(1.23 0 0 1.23 497.5964 364.7764)" style="overflow:visible;"/>
							
								<use xlink:href="#Star"  width="3.4" height="3.4" x="-1.7" y="-1.7" transform="matrix(1.23 0 0 1.23 746.8665 191.0464)" style="overflow:visible;"/>
							
								<use xlink:href="#Star"  width="3.4" height="3.4" x="-1.7" y="-1.7" transform="matrix(1.23 0 0 1.23 814.2463 182.2064)" style="overflow:visible;"/>
							
								<use xlink:href="#Star"  width="3.4" height="3.4" x="-1.7" y="-1.7" transform="matrix(1.23 0 0 1.23 -33.3036 1016.2365)" style="overflow:visible;"/>
							
								<use xlink:href="#Star"  width="3.4" height="3.4" x="-1.7" y="-1.7" transform="matrix(1.23 0 0 1.23 -263.9536 1373.7465)" style="overflow:visible;"/>
							
								<use xlink:href="#Star"  width="3.4" height="3.4" x="-1.7" y="-1.7" transform="matrix(1.23 0 0 1.23 -223.4736 1338.1764)" style="overflow:visible;"/>
							
								<use xlink:href="#Star"  width="3.4" height="3.4" x="-1.7" y="-1.7" transform="matrix(1.23 0 0 1.23 743.3464 603.0964)" style="overflow:visible;"/>
							
								<use xlink:href="#Star"  width="3.4" height="3.4" x="-1.7" y="-1.7" transform="matrix(1.23 0 0 1.23 1355.8865 279.3164)" style="overflow:visible;"/>
							
								<use xlink:href="#Star"  width="3.4" height="3.4" x="-1.7" y="-1.7" transform="matrix(1.23 0 0 1.23 1101.5564 420.2564)" style="overflow:visible;"/>
							
								<use xlink:href="#Star"  width="3.4" height="3.4" x="-1.7" y="-1.7" transform="matrix(1.23 0 0 1.23 -197.6936 1609.5964)" style="overflow:visible;"/>
							
								<use xlink:href="#Star"  width="3.4" height="3.4" x="-1.7" y="-1.7" transform="matrix(1.23 0 0 1.23 -279.5336 1788.3264)" style="overflow:visible;"/>
							
								<use xlink:href="#Star"  width="3.4" height="3.4" x="-1.7" y="-1.7" transform="matrix(1.23 0 0 1.23 228.5264 1405.6664)" style="overflow:visible;"/>
							
								<use xlink:href="#Star"  width="3.4" height="3.4" x="-1.7" y="-1.7" transform="matrix(1.23 0 0 1.23 1400.8064 244.8564)" style="overflow:visible;"/>
							
								<use xlink:href="#Star"  width="3.4" height="3.4" x="-1.7" y="-1.7" transform="matrix(1.23 0 0 1.23 1498.5564 189.6264)" style="overflow:visible;"/>
							
								<use xlink:href="#Star"  width="3.4" height="3.4" x="-1.7" y="-1.7" transform="matrix(1.23 0 0 1.23 1488.2063 196.5864)" style="overflow:visible;"/>
							
								<use xlink:href="#Star"  width="3.4" height="3.4" x="-1.7" y="-1.7" transform="matrix(1.23 0 0 1.23 265.6165 1231.9564)" style="overflow:visible;"/>
							
								<use xlink:href="#Star"  width="3.4" height="3.4" x="-1.7" y="-1.7" transform="matrix(1.23 0 0 1.23 157.6364 1386.6764)" style="overflow:visible;"/>
							
								<use xlink:href="#Star"  width="3.4" height="3.4" x="-1.7" y="-1.7" transform="matrix(1.23 0 0 1.23 547.1465 1092.1864)" style="overflow:visible;"/>
							
								<use xlink:href="#Star"  width="3.4" height="3.4" x="-1.7" y="-1.7" transform="matrix(1.23 0 0 1.23 1224.6565 768.9864)" style="overflow:visible;"/>
							
								<use xlink:href="#Star"  width="3.4" height="3.4" x="-1.7" y="-1.7" transform="matrix(1.23 0 0 1.23 1281.6963 747.6764)" style="overflow:visible;"/>
							
								<use xlink:href="#Star"  width="3.4" height="3.4" x="-1.7" y="-1.7" transform="matrix(1.23 0 0 1.23 388.0964 1257.8064)" style="overflow:visible;"/>
							
								<use xlink:href="#Star"  width="3.4" height="3.4" x="-1.7" y="-1.7" transform="matrix(1.23 0 0 1.23 336.2064 1309.7565)" style="overflow:visible;"/>
							
								<use xlink:href="#Star"  width="3.4" height="3.4" x="-1.7" y="-1.7" transform="matrix(1.23 0 0 1.23 923.4365 1070.6464)" style="overflow:visible;"/>
							
								<use xlink:href="#Star"  width="3.4" height="3.4" x="-1.7" y="-1.7" transform="matrix(1.23 0 0 1.23 1561.5564 785.0264)" style="overflow:visible;"/>
							
								<use xlink:href="#Star"  width="3.4" height="3.4" x="-1.7" y="-1.7" transform="matrix(1.23 0 0 1.23 1586.8765 779.9664)" style="overflow:visible;"/>
							
								<use xlink:href="#Star"  width="3.4" height="3.4" x="-1.7" y="-1.7" transform="matrix(1.23 0 0 1.23 1438.1465 909.1264)" style="overflow:visible;"/>
							
								<use xlink:href="#Star"  width="3.4" height="3.4" x="-1.7" y="-1.7" transform="matrix(1.23 0 0 1.23 1201.5664 1215.6464)" style="overflow:visible;"/>
							
								<use xlink:href="#Star"  width="3.4" height="3.4" x="-1.7" y="-1.7" transform="matrix(1.23 0 0 1.23 1442.4165 1182.6265)" style="overflow:visible;"/>
							
								<use xlink:href="#Star"  width="3.4" height="3.4" x="-1.7" y="-1.7" transform="matrix(1.23 0 0 1.23 1857.4763 985.9664)" style="overflow:visible;"/>
							
								<use xlink:href="#Star"  width="3.4" height="3.4" x="-1.7" y="-1.7" transform="matrix(1.23 0 0 1.23 1868.9365 985.9464)" style="overflow:visible;"/>
							
								<use xlink:href="#Star"  width="3.4" height="3.4" x="-1.7" y="-1.7" transform="matrix(1.23 0 0 1.23 1579.3765 1226.4865)" style="overflow:visible;"/>
							
								<use xlink:href="#Star"  width="3.4" height="3.4" x="-1.7" y="-1.7" transform="matrix(1.23 0 0 1.23 1533.6465 1279.2264)" style="overflow:visible;"/>
							
								<use xlink:href="#Star"  width="3.4" height="3.4" x="-1.7" y="-1.7" transform="matrix(1.23 0 0 1.23 1592.4065 1229.8064)" style="overflow:visible;"/>
							
								<use xlink:href="#Star"  width="3.4" height="3.4" x="-1.7" y="-1.7" transform="matrix(1.23 0 0 1.23 1869.3064 800.8764)" style="overflow:visible;"/>
							
								<use xlink:href="#Star"  width="3.4" height="3.4" x="-1.7" y="-1.7" transform="matrix(1.23 0 0 1.23 1869.5364 662.6064)" style="overflow:visible;"/>
							
								<use xlink:href="#Star"  width="3.4" height="3.4" x="-1.7" y="-1.7" transform="matrix(1.23 0 0 1.23 1606.7263 583.5064)" style="overflow:visible;"/>
							
								<use xlink:href="#Star"  width="3.4" height="3.4" x="-1.7" y="-1.7" transform="matrix(1.23 0 0 1.23 1254.3164 637.2664)" style="overflow:visible;"/>
							
								<use xlink:href="#Star"  width="3.4" height="3.4" x="-1.7" y="-1.7" transform="matrix(1.23 0 0 1.23 1366.0664 547.4364)" style="overflow:visible;"/>
							
								<use xlink:href="#Star"  width="3.4" height="3.4" x="-1.7" y="-1.7" transform="matrix(1.23 0 0 1.23 1604.3264 353.8364)" style="overflow:visible;"/>
							
								<use xlink:href="#Star"  width="3.4" height="3.4" x="-1.7" y="-1.7" transform="matrix(1.23 0 0 1.23 1619.2764 328.9864)" style="overflow:visible;"/>
							
								<use xlink:href="#Star"  width="3.4" height="3.4" x="-1.7" y="-1.7" transform="matrix(1.23 0 0 1.23 1656.0764 188.9564)" style="overflow:visible;"/>
							
								<use xlink:href="#Star"  width="3.4" height="3.4" x="-1.7" y="-1.7" transform="matrix(1.23 0 0 1.23 1679.8064 145.9164)" style="overflow:visible;"/>
							
								<use xlink:href="#Star"  width="3.4" height="3.4" x="-1.7" y="-1.7" transform="matrix(1.23 0 0 1.23 1848.1165 176.6364)" style="overflow:visible;"/>
							
								<use xlink:href="#Star"  width="3.4" height="3.4" x="-1.7" y="-1.7" transform="matrix(1.23 0 0 1.23 1914.4365 212.6064)" style="overflow:visible;"/>
							
								<use xlink:href="#Star"  width="3.4" height="3.4" x="-1.7" y="-1.7" transform="matrix(1.23 0 0 1.23 1848.1165 227.0864)" style="overflow:visible;"/>
							
								<use xlink:href="#Star"  width="3.4" height="3.4" x="-1.7" y="-1.7" transform="matrix(1.23 0 0 1.23 1178.8064 125.3364)" style="overflow:visible;"/>
							
								<use xlink:href="#Star"  width="3.4" height="3.4" x="-1.7" y="-1.7" transform="matrix(1.23 0 0 1.23 1008.5964 80.8564)" style="overflow:visible;"/>
							
								<use xlink:href="#Star"  width="3.4" height="3.4" x="-1.7" y="-1.7" transform="matrix(1.23 0 0 1.23 981.1265 73.3164)" style="overflow:visible;"/>
							
								<use xlink:href="#Star"  width="3.4" height="3.4" x="-1.7" y="-1.7" transform="matrix(1.23 0 0 1.23 1019.7063 230.9864)" style="overflow:visible;"/>
							
								<use xlink:href="#Star"  width="3.4" height="3.4" x="-1.7" y="-1.7" transform="matrix(1.23 0 0 1.23 1028.9563 362.6064)" style="overflow:visible;"/>
							
								<use xlink:href="#Star"  width="3.4" height="3.4" x="-1.7" y="-1.7" transform="matrix(1.23 0 0 1.23 900.3464 417.1464)" style="overflow:visible;"/>
							
								<use xlink:href="#Star"  width="3.4" height="3.4" x="-1.7" y="-1.7" transform="matrix(1.23 0 0 1.23 851.2864 351.1864)" style="overflow:visible;"/>
							
								<use xlink:href="#Star"  width="3.4" height="3.4" x="-1.7" y="-1.7" transform="matrix(1.23 0 0 1.23 808.7063 315.6364)" style="overflow:visible;"/>
							
								<use xlink:href="#Star"  width="3.4" height="3.4" x="-1.7" y="-1.7" transform="matrix(1.23 0 0 1.23 750.3965 672.8264)" style="overflow:visible;"/>
							
								<use xlink:href="#Star"  width="3.4" height="3.4" x="-1.7" y="-1.7" transform="matrix(1.23 0 0 1.23 890.8164 763.9764)" style="overflow:visible;"/>
							
								<use xlink:href="#Star"  width="3.4" height="3.4" x="-1.7" y="-1.7" transform="matrix(1.23 0 0 1.23 1235.3164 634.5264)" style="overflow:visible;"/>
							
								<use xlink:href="#Star"  width="3.4" height="3.4" x="-1.7" y="-1.7" transform="matrix(1.23 0 0 1.23 1359.7864 532.6164)" style="overflow:visible;"/>
							
								<use xlink:href="#Star"  width="3.4" height="3.4" x="-1.7" y="-1.7" transform="matrix(1.23 0 0 1.23 1385.6565 518.6464)" style="overflow:visible;"/>
							
								<use xlink:href="#Star"  width="3.4" height="3.4" x="-1.7" y="-1.7" transform="matrix(1.23 0 0 1.23 1644.5564 543.2464)" style="overflow:visible;"/>
							
								<use xlink:href="#Star"  width="3.4" height="3.4" x="-1.7" y="-1.7" transform="matrix(1.23 0 0 1.23 1804.2063 538.3564)" style="overflow:visible;"/>
							
								<use xlink:href="#Star"  width="3.4" height="3.4" x="-1.7" y="-1.7" transform="matrix(1.23 0 0 1.23 1680.1963 507.5664)" style="overflow:visible;"/>
							
								<use xlink:href="#Star"  width="3.4" height="3.4" x="-1.7" y="-1.7" transform="matrix(1.23 0 0 1.23 267.9464 364.8564)" style="overflow:visible;"/>
							
								<use xlink:href="#Star"  width="3.4" height="3.4" x="-1.7" y="-1.7" transform="matrix(1.23 0 0 1.23 -137.3536 423.1664)" style="overflow:visible;"/>
							
								<use xlink:href="#Star"  width="3.4" height="3.4" x="-1.7" y="-1.7" transform="matrix(1.23 0 0 1.23 -94.7836 475.3564)" style="overflow:visible;"/>
							
								<use xlink:href="#Star"  width="3.4" height="3.4" x="-1.7" y="-1.7" transform="matrix(1.23 0 0 1.23 267.9064 663.1264)" style="overflow:visible;"/>
							
								<use xlink:href="#Star"  width="3.4" height="3.4" x="-1.7" y="-1.7" transform="matrix(1.23 0 0 1.23 418.2964 659.3664)" style="overflow:visible;"/>
							
								<use xlink:href="#Star"  width="3.4" height="3.4" x="-1.7" y="-1.7" transform="matrix(1.23 0 0 1.23 415.7664 633.9964)" style="overflow:visible;"/>
							
								<use xlink:href="#Star"  width="3.4" height="3.4" x="-1.7" y="-1.7" transform="matrix(1.23 0 0 1.23 303.1165 543.3064)" style="overflow:visible;"/>
							
								<use xlink:href="#Star"  width="3.4" height="3.4" x="-1.7" y="-1.7" transform="matrix(1.23 0 0 1.23 415.7164 845.8064)" style="overflow:visible;"/>
							
								<use xlink:href="#Star"  width="3.4" height="3.4" x="-1.7" y="-1.7" transform="matrix(1.23 0 0 1.23 524.2163 1000.4965)" style="overflow:visible;"/>
							
								<use xlink:href="#Star"  width="3.4" height="3.4" x="-1.7" y="-1.7" transform="matrix(1.23 0 0 1.23 520.4563 1011.5964)" style="overflow:visible;"/>
							
								<use xlink:href="#Star"  width="3.4" height="3.4" x="-1.7" y="-1.7" transform="matrix(1.23 0 0 1.23 177.1165 1019.2465)" style="overflow:visible;"/>
							
								<use xlink:href="#Star"  width="3.4" height="3.4" x="-1.7" y="-1.7" transform="matrix(1.23 0 0 1.23 108.9464 969.7565)" style="overflow:visible;"/>
							
								<use xlink:href="#Star"  width="3.4" height="3.4" x="-1.7" y="-1.7" transform="matrix(1.23 0 0 1.23 -99.9736 933.8564)" style="overflow:visible;"/>
							
								<use xlink:href="#Star"  width="3.4" height="3.4" x="-1.7" y="-1.7" transform="matrix(1.23 0 0 1.23 -226.4536 882.8464)" style="overflow:visible;"/>
							
								<use xlink:href="#Star"  width="3.4" height="3.4" x="-1.7" y="-1.7" transform="matrix(1.23 0 0 1.23 -283.1736 819.3964)" style="overflow:visible;"/>
							
								<use xlink:href="#Star"  width="3.4" height="3.4" x="-1.7" y="-1.7" transform="matrix(1.23 0 0 1.23 -285.1936 953.0065)" style="overflow:visible;"/>
							
								<use xlink:href="#Star"  width="3.4" height="3.4" x="-1.7" y="-1.7" transform="matrix(1.23 0 0 1.23 -315.6736 1105.8964)" style="overflow:visible;"/>
							
								<use xlink:href="#Star"  width="3.4" height="3.4" x="-1.7" y="-1.7" transform="matrix(1.23 0 0 1.23 -304.5436 984.4464)" style="overflow:visible;"/>
							
								<use xlink:href="#Star"  width="3.4" height="3.4" x="-1.7" y="-1.7" transform="matrix(1.23 0 0 1.23 -179.9136 371.6264)" style="overflow:visible;"/>
							
								<use xlink:href="#Star"  width="3.4" height="3.4" x="-1.7" y="-1.7" transform="matrix(1.23 0 0 1.23 -186.1436 306.4264)" style="overflow:visible;"/>
							
								<use xlink:href="#Star"  width="3.4" height="3.4" x="-1.7" y="-1.7" transform="matrix(1.23 0 0 1.23 -194.3936 290.0264)" style="overflow:visible;"/>
							
								<use xlink:href="#Star"  width="3.4" height="3.4" x="-1.7" y="-1.7" transform="matrix(1.23 0 0 1.23 157.6364 190.3364)" style="overflow:visible;"/>
							
								<use xlink:href="#Star"  width="3.4" height="3.4" x="-1.7" y="-1.7" transform="matrix(1.23 0 0 1.23 663.3564 173.8664)" style="overflow:visible;"/>
							
								<use xlink:href="#Star"  width="3.4" height="3.4" x="-1.7" y="-1.7" transform="matrix(1.23 0 0 1.23 762.7664 203.2864)" style="overflow:visible;"/>
							
								<use xlink:href="#Star"  width="3.4" height="3.4" x="-1.7" y="-1.7" transform="matrix(1.23 0 0 1.23 103.2364 192.7964)" style="overflow:visible;"/>
							
								<use xlink:href="#Star"  width="3.4" height="3.4" x="-1.7" y="-1.7" transform="matrix(1.23 0 0 1.23 -198.2437 155.1464)" style="overflow:visible;"/>
							
								<use xlink:href="#Star"  width="3.4" height="3.4" x="-1.7" y="-1.7" transform="matrix(1.23 0 0 1.23 -316.1235 298.5664)" style="overflow:visible;"/>
							
								<use xlink:href="#Star"  width="3.4" height="3.4" x="-1.7" y="-1.7" transform="matrix(1.23 0 0 1.23 -365.4836 392.8664)" style="overflow:visible;"/>
							
								<use xlink:href="#Star"  width="3.4" height="3.4" x="-1.7" y="-1.7" transform="matrix(1.23 0 0 1.23 -323.3036 500.9164)" style="overflow:visible;"/>
							
								<use xlink:href="#Star"  width="3.4" height="3.4" x="-1.7" y="-1.7" transform="matrix(1.23 0 0 1.23 -259.7036 555.2664)" style="overflow:visible;"/>
							
								<use xlink:href="#Star"  width="3.4" height="3.4" x="-1.7" y="-1.7" transform="matrix(1.23 0 0 1.23 -168.3236 489.5564)" style="overflow:visible;"/>
							
								<use xlink:href="#Star"  width="3.4" height="3.4" x="-1.7" y="-1.7" transform="matrix(1.23 0 0 1.23 -10.5536 404.3664)" style="overflow:visible;"/>
							
								<use xlink:href="#Star"  width="3.4" height="3.4" x="-1.7" y="-1.7" transform="matrix(1.23 0 0 1.23 101.4364 320.0364)" style="overflow:visible;"/>
							
								<use xlink:href="#Star"  width="3.4" height="3.4" x="-1.7" y="-1.7" transform="matrix(1.23 0 0 1.23 370.7563 317.7664)" style="overflow:visible;"/>
							
								<use xlink:href="#Star"  width="3.4" height="3.4" x="-1.7" y="-1.7" transform="matrix(1.23 0 0 1.23 477.7864 325.4264)" style="overflow:visible;"/>
							
								<use xlink:href="#Star"  width="3.4" height="3.4" x="-1.7" y="-1.7" transform="matrix(1.23 0 0 1.23 490.9264 307.2264)" style="overflow:visible;"/>
							
								<use xlink:href="#Star"  width="3.4" height="3.4" x="-1.7" y="-1.7" transform="matrix(1.23 0 0 1.23 494.7163 175.7564)" style="overflow:visible;"/>
							
								<use xlink:href="#Star"  width="3.4" height="3.4" x="-1.7" y="-1.7" transform="matrix(1.23 0 0 1.23 308.3364 168.9764)" style="overflow:visible;"/>
							
								<use xlink:href="#Star"  width="3.4" height="3.4" x="-1.7" y="-1.7" transform="matrix(1.23 0 0 1.23 254.0464 175.8164)" style="overflow:visible;"/>
							
								<use xlink:href="#Star"  width="3.4" height="3.4" x="-1.7" y="-1.7" transform="matrix(1.23 0 0 1.23 225.5063 205.0864)" style="overflow:visible;"/>
						</g>
						<g>
							
								<use xlink:href="#Star"  width="3.4" height="3.4" x="-1.7" y="-1.7" transform="matrix(1.23 0 0 1.23 -353.7635 147.5764)" style="overflow:visible;"/>
							
								<use xlink:href="#Star"  width="3.4" height="3.4" x="-1.7" y="-1.7" transform="matrix(1.23 0 0 1.23 -29.1636 145.1264)" style="overflow:visible;"/>
							
								<use xlink:href="#Star"  width="3.4" height="3.4" x="-1.7" y="-1.7" transform="matrix(1.23 0 0 1.23 -15.0536 281.3664)" style="overflow:visible;"/>
							
								<use xlink:href="#Star"  width="3.4" height="3.4" x="-1.7" y="-1.7" transform="matrix(1.23 0 0 1.23 527.8564 98.1464)" style="overflow:visible;"/>
							
								<use xlink:href="#Star"  width="3.4" height="3.4" x="-1.7" y="-1.7" transform="matrix(1.23 0 0 1.23 273.0764 67.6064)" style="overflow:visible;"/>
							
								<use xlink:href="#Star"  width="3.4" height="3.4" x="-1.7" y="-1.7" transform="matrix(1.23 0 0 1.23 1430.6165 76.9364)" style="overflow:visible;"/>
							
								<use xlink:href="#Star"  width="3.4" height="3.4" x="-1.7" y="-1.7" transform="matrix(1.23 0 0 1.23 1858.7964 369.1964)" style="overflow:visible;"/>
							
								<use xlink:href="#Star"  width="3.4" height="3.4" x="-1.7" y="-1.7" transform="matrix(1.23 0 0 1.23 1795.5864 601.8664)" style="overflow:visible;"/>
							
								<use xlink:href="#Star"  width="3.4" height="3.4" x="-1.7" y="-1.7" transform="matrix(1.23 0 0 1.23 1697.3164 900.9764)" style="overflow:visible;"/>
							
								<use xlink:href="#Star"  width="3.4" height="3.4" x="-1.7" y="-1.7" transform="matrix(1.23 0 0 1.23 1573.1665 1015.7365)" style="overflow:visible;"/>
							
								<use xlink:href="#Star"  width="3.4" height="3.4" x="-1.7" y="-1.7" transform="matrix(1.23 0 0 1.23 1795.5464 1209.7365)" style="overflow:visible;"/>
							
								<use xlink:href="#Star"  width="3.4" height="3.4" x="-1.7" y="-1.7" transform="matrix(1.23 0 0 1.23 1692.3064 1284.8364)" style="overflow:visible;"/>
							
								<use xlink:href="#Star"  width="3.4" height="3.4" x="-1.7" y="-1.7" transform="matrix(1.23 0 0 1.23 1245.7964 1317.7064)" style="overflow:visible;"/>
							
								<use xlink:href="#Star"  width="3.4" height="3.4" x="-1.7" y="-1.7" transform="matrix(1.23 0 0 1.23 889.9563 1313.1664)" style="overflow:visible;"/>
							
								<use xlink:href="#Star"  width="3.4" height="3.4" x="-1.7" y="-1.7" transform="matrix(1.23 0 0 1.23 754.1265 1172.4764)" style="overflow:visible;"/>
							
								<use xlink:href="#Star"  width="3.4" height="3.4" x="-1.7" y="-1.7" transform="matrix(1.23 0 0 1.23 1124.1565 1177.1964)" style="overflow:visible;"/>
							
								<use xlink:href="#Star"  width="3.4" height="3.4" x="-1.7" y="-1.7" transform="matrix(1.23 0 0 1.23 1341.6665 943.1464)" style="overflow:visible;"/>
							
								<use xlink:href="#Star"  width="3.4" height="3.4" x="-1.7" y="-1.7" transform="matrix(1.23 0 0 1.23 1091.3965 933.8864)" style="overflow:visible;"/>
							
								<use xlink:href="#Star"  width="3.4" height="3.4" x="-1.7" y="-1.7" transform="matrix(1.23 0 0 1.23 815.1265 926.8064)" style="overflow:visible;"/>
							
								<use xlink:href="#Star"  width="3.4" height="3.4" x="-1.7" y="-1.7" transform="matrix(1.23 0 0 1.23 555.2263 816.7664)" style="overflow:visible;"/>
							
								<use xlink:href="#Star"  width="3.4" height="3.4" x="-1.7" y="-1.7" transform="matrix(1.23 0 0 1.23 328.5664 1064.8564)" style="overflow:visible;"/>
							
								<use xlink:href="#Star"  width="3.4" height="3.4" x="-1.7" y="-1.7" transform="matrix(1.23 0 0 1.23 -47.9036 1165.2565)" style="overflow:visible;"/>
							
								<use xlink:href="#Star"  width="3.4" height="3.4" x="-1.7" y="-1.7" transform="matrix(1.23 0 0 1.23 34.0864 1324.4865)" style="overflow:visible;"/>
							
								<use xlink:href="#Star"  width="3.4" height="3.4" x="-1.7" y="-1.7" transform="matrix(1.23 0 0 1.23 676.9663 1371.4865)" style="overflow:visible;"/>
							
								<use xlink:href="#Star"  width="3.4" height="3.4" x="-1.7" y="-1.7" transform="matrix(1.23 0 0 1.23 681.7463 840.1464)" style="overflow:visible;"/>
							
								<use xlink:href="#Star"  width="3.4" height="3.4" x="-1.7" y="-1.7" transform="matrix(1.23 0 0 1.23 1030.3665 839.9964)" style="overflow:visible;"/>
							
								<use xlink:href="#Star"  width="3.4" height="3.4" x="-1.7" y="-1.7" transform="matrix(1.23 0 0 1.23 974.2964 1219.3164)" style="overflow:visible;"/>
							
								<use xlink:href="#Star"  width="3.4" height="3.4" x="-1.7" y="-1.7" transform="matrix(1.23 0 0 1.23 385.0364 426.3064)" style="overflow:visible;"/>
							
								<use xlink:href="#Star"  width="3.4" height="3.4" x="-1.7" y="-1.7" transform="matrix(1.23 0 0 1.23 186.3064 292.9364)" style="overflow:visible;"/>
							
								<use xlink:href="#Star"  width="3.4" height="3.4" x="-1.7" y="-1.7" transform="matrix(1.23 0 0 1.23 406.2164 194.3864)" style="overflow:visible;"/>
							
								<use xlink:href="#Star"  width="3.4" height="3.4" x="-1.7" y="-1.7" transform="matrix(1.23 0 0 1.23 803.4963 93.3664)" style="overflow:visible;"/>
							
								<use xlink:href="#Star"  width="3.4" height="3.4" x="-1.7" y="-1.7" transform="matrix(1.23 0 0 1.23 1116.8064 221.7864)" style="overflow:visible;"/>
							
								<use xlink:href="#Star"  width="3.4" height="3.4" x="-1.7" y="-1.7" transform="matrix(1.23 0 0 1.23 1493.4763 395.3664)" style="overflow:visible;"/>
							
								<use xlink:href="#Star"  width="3.4" height="3.4" x="-1.7" y="-1.7" transform="matrix(1.23 0 0 1.23 1165.9963 498.9764)" style="overflow:visible;"/>
							
								<use xlink:href="#Star"  width="3.4" height="3.4" x="-1.7" y="-1.7" transform="matrix(1.23 0 0 1.23 -420.3936 147.7664)" style="overflow:visible;"/>
							
								<use xlink:href="#Star"  width="3.4" height="3.4" x="-1.7" y="-1.7" transform="matrix(1.23 0 0 1.23 -403.5736 92.9164)" style="overflow:visible;"/>
							
								<use xlink:href="#Star"  width="3.4" height="3.4" x="-1.7" y="-1.7" transform="matrix(1.23 0 0 1.23 -402.3536 310.7164)" style="overflow:visible;"/>
							
								<use xlink:href="#Star"  width="3.4" height="3.4" x="-1.7" y="-1.7" transform="matrix(1.23 0 0 1.23 -395.5236 308.1564)" style="overflow:visible;"/>
							
								<use xlink:href="#Star"  width="3.4" height="3.4" x="-1.7" y="-1.7" transform="matrix(1.23 0 0 1.23 -288.4536 379.8464)" style="overflow:visible;"/>
							
								<use xlink:href="#Star"  width="3.4" height="3.4" x="-1.7" y="-1.7" transform="matrix(1.23 0 0 1.23 -417.4937 524.9364)" style="overflow:visible;"/>
							
								<use xlink:href="#Star"  width="3.4" height="3.4" x="-1.7" y="-1.7" transform="matrix(1.23 0 0 1.23 1885.0464 412.2964)" style="overflow:visible;"/>
							
								<use xlink:href="#Star"  width="3.4" height="3.4" x="-1.7" y="-1.7" transform="matrix(1.23 0 0 1.23 1769.8364 421.3964)" style="overflow:visible;"/>
							
								<use xlink:href="#Star"  width="3.4" height="3.4" x="-1.7" y="-1.7" transform="matrix(1.23 0 0 1.23 1701.5464 404.7264)" style="overflow:visible;"/>
							
								<use xlink:href="#Star"  width="3.4" height="3.4" x="-1.7" y="-1.7" transform="matrix(1.23 0 0 1.23 1568.4563 465.9964)" style="overflow:visible;"/>
							
								<use xlink:href="#Star"  width="3.4" height="3.4" x="-1.7" y="-1.7" transform="matrix(1.23 0 0 1.23 1175.8865 325.0364)" style="overflow:visible;"/>
							
								<use xlink:href="#Star"  width="3.4" height="3.4" x="-1.7" y="-1.7" transform="matrix(1.23 0 0 1.23 1266.7063 95.5464)" style="overflow:visible;"/>
							
								<use xlink:href="#Star"  width="3.4" height="3.4" x="-1.7" y="-1.7" transform="matrix(1.23 0 0 1.23 1846.8765 93.4564)" style="overflow:visible;"/>
							
								<use xlink:href="#Star"  width="3.4" height="3.4" x="-1.7" y="-1.7" transform="matrix(1.23 0 0 1.23 179.2465 86.4164)" style="overflow:visible;"/>
							
								<use xlink:href="#Star"  width="3.4" height="3.4" x="-1.7" y="-1.7" transform="matrix(1.23 0 0 1.23 64.6164 109.8264)" style="overflow:visible;"/>
							
								<use xlink:href="#Star"  width="3.4" height="3.4" x="-1.7" y="-1.7" transform="matrix(1.23 0 0 1.23 -164.7336 91.1164)" style="overflow:visible;"/>
							
								<use xlink:href="#Star"  width="3.4" height="3.4" x="-1.7" y="-1.7" transform="matrix(1.23 0 0 1.23 80.8564 461.6864)" style="overflow:visible;"/>
							
								<use xlink:href="#Star"  width="3.4" height="3.4" x="-1.7" y="-1.7" transform="matrix(1.23 0 0 1.23 864.1765 578.0564)" style="overflow:visible;"/>
							
								<use xlink:href="#Star"  width="3.4" height="3.4" x="-1.7" y="-1.7" transform="matrix(1.23 0 0 1.23 906.2964 217.5664)" style="overflow:visible;"/>
							
								<use xlink:href="#Star"  width="3.4" height="3.4" x="-1.7" y="-1.7" transform="matrix(1.23 0 0 1.23 1125.6963 337.0764)" style="overflow:visible;"/>
							
								<use xlink:href="#Star"  width="3.4" height="3.4" x="-1.7" y="-1.7" transform="matrix(1.23 0 0 1.23 1222.5964 416.7864)" style="overflow:visible;"/>
						</g>
					</g>
				</g>
				<path class="st5" d="M91.3-7.8c-3,6.8-7.5,17.5-12.3,30.8c-8.9,24.7-10.2,34.8-17.2,56.6c-8.9,27.8-10.9,24.5-22.2,56.6
					c-2.4,6.9-7.8,25.6-18.5,62.8C6.1,251.2,5.2,255,3.9,263c-3,18.4-2.6,26.7-7.4,44.3C-8.1,324-14,337-18.3,345.5V174.4
					c5-10.4,10.9-24.1,16-40.6c8.1-26.1,6.3-33.1,14.8-54.2c7.6-18.9,11.9-20.3,19.7-39.4C39.7,21.8,42.9,5.6,44.5-5.4L91.3-7.8
					L91.3-7.8z"/>
				<path class="st5" d="M76.5,139.9c2.3-19.2,3.9-34.7,4.9-45.6c1-10.6,2.4-26.1,2.5-27.1c2.7-30.1,2.6-32.2,3.7-38.2
					c1.7-9.1,5-21.9,12.3-36.9l20.9,2.5c-3.1,9.4-7.4,23.8-11.1,41.8c-3.4,16.8-4.1,26.2-7.4,48c-1.8,11.7-4.5,28.7-8.6,49.2
					L76.5,139.9L76.5,139.9z"/>
				<path class="st5" d="M747.4-6.6c3.6,15.1,8.6,34.8,14.8,57.9c6.1,22.8,11.1,39.6,16,56.6c5.6,19.1,11.9,40.7,20.9,68.9
					c7.3,22.8,12,37.5,19.7,57.9c13.5,35.9,12.4,25.9,17.2,41.9c5.5,18,8,33.9,20.9,40.6c2.9,1.5,5.6,2.2,7.4,2.5V-7.2L747.4-6.6
					L747.4-6.6z"/>
				<path class="st5" d="M626.1-17.1c1.4,7.2,3.4,18.3,5.5,32.3c4,25.9,4.6,36.5,7.7,59.4c4,29.2,4.9,25.7,10,59.4
					c1.1,7.2,3.5,26.9,8.3,65.8c6.7,54.8,7.2,58.8,7.7,67.1c1.3,19.3,1.2,28,3.3,46.5c2,17.5,4.7,31.1,6.6,40V174
					c-2.2-10.9-4.9-25.3-7.2-42.6c-3.6-27.4-2.8-34.7-6.6-56.8c-3.4-19.8-5.3-21.3-8.9-41.3c-3.4-19.3-4.8-36.2-5.5-47.8L626.1-17.1
					L626.1-17.1z"/>
				<path class="st5" d="M663.3-14c4.1,8.8,10.3,22.4,17.3,39.7c13.1,31.9,16.6,45.4,27.5,73.7c13.9,36.2,14.7,31.5,31.5,73
					c3.6,8.9,12.4,33.3,30,81.9c24.7,68.2,26.3,73.2,29.3,83.7c6.8,24.3,8.5,35.5,16.6,58.6c7.7,21.8,15.6,38.5,21.1,49.2l-41-230.3
					c-6.6-13.3-14.6-30.9-22.7-52.4c-12.8-33.9-13.1-43.7-24.9-70.8c-10.7-24.4-14.5-25.6-25.4-50.2c-10.5-23.6-17-45-20.9-59.5
					L663.3-14L663.3-14z"/>
				<path class="st5" d="M666.7-13.4c1.5,6.5,3.8,16.7,6.4,29.5c4.9,23.7,6.2,33.4,10.3,54.4c5.2,26.7,5.4,23.5,11.6,54.2
					c1.3,6.6,4.6,24.6,11.2,60.3c9.2,50.2,9.9,53.9,11,61.5c2.6,17.7,3.3,25.8,6.4,42.7c2.9,16,5.8,28.5,7.8,36.5L714.6,160
					c-2.4-9.9-5.4-23-8.4-38.9c-4.8-25-5-31.9-9.4-52.1c-3.9-18.1-5.2-19.3-9.3-37.6c-3.9-17.6-6.4-33.2-7.9-43.8L666.7-13.4
					L666.7-13.4z"/>
				<path class="st5" d="M722.8-21.5c1.4,7.2,3.4,18.3,5.5,32.3c4,25.9,4.6,36.5,7.7,59.4c4,29.2,4.9,25.7,10,59.4
					c1.1,7.2,3.5,26.9,8.3,65.8c6.7,54.8,7.2,58.8,7.7,67.1c1.3,19.3,1.2,28,3.3,46.5c2,17.5,4.7,31.1,6.6,40V169.6
					c-2.2-10.9-4.9-25.3-7.2-42.6c-3.6-27.4-2.8-34.7-6.6-56.8c-3.4-19.8-5.3-21.3-8.9-41.3c-3.4-19.3-4.8-36.2-5.5-47.8L722.8-21.5
					L722.8-21.5z"/>
				<path class="st6" d="M348.5,344.2c2.8-4,7.1-6,7.4-6.1c6-2.7,11.3-1,17.2,0c4,0.6,14.1-0.4,34.5-2.5c12.3-1.2,16.1-2,20.9,0
					c4.8,2,11.8,7.1,13.4,9.6c0,0,0.1,0.1,0.2,0.2c1.8,1.5,7.9-7.3,16-9.9c0,0,5.6-1.7,27.1,6.1l0,0l11.1-1.2l0,0
					c0,0,7.1,8.2,9.9,17.2c1.9,6.4,1.3,11.9,0,22.2c-0.8,6.6-1.4,7.1-2.5,13.5c-1.6,10.2-1.5,17.8-1.2,30.8c0,1.3,0.3,12.9,1.2,23.4
					c2.1,22.4,3.1,33.6,13.5,67.7c2,6.4,47.3,154.6,2.5,188.3c-19.3,14.6-35.5-7.2-105.9-1.2c-5.1,0.4-26.5,2.4-52.9-3.7
					c-15.7-3.6-23.5-5.4-28.3-11.1c-13.8-16.3,8.7-40.7,13.5-89.9c3.4-34.4-6.5-34.1-4.9-87.4c0.1-4.5,0.1,0.2,4.9-60.3
					c3.7-46.2,5.5-69.5,3.7-75.1C347.7,368.7,341.9,353.7,348.5,344.2L348.5,344.2z"/>
				<path class="st7" d="M46.9,293.8c8.2,1.4,18.2,3.1,29.5,4.9c12,2,15.7,2.5,22.2,3.7c12.5,2.3,20.7,4.2,29.5,6.1
					c5.7,1.3,19.8,4.1,48,9.9c48,9.7,41.6,8,49.2,9.9c48,11.4,51.8,19.3,73.9,18.5c13.1-0.5,26.7,2.1,39.4-1.2
					c3.2-0.8,8.6-2.5,13.5,0c6.9,3.4,8.9,12.4,9.8,17.2c7.4,37.5,3.4,85.9,2.5,97.3c-0.3,3.7-0.9,9.9-1.2,18.5
					c-0.4,10.8-0.2,16.4,0,32c0.2,14.8,0.3,24.7,0,36.9c-0.4,15.8-0.9,15.7-1.2,28.3c-0.4,18.3,0.8,17.8,1.2,44.3
					c0.1,5.3,0,3.9,0,45.5c0,2.7,0,12.1,0,14.8L-14,680.9V293.8L46.9,293.8L46.9,293.8z"/>
				<path class="st7" d="M864.3,584.3c-2.8-6-6.9-14.5-12.3-24.6c-39.6-74.1-88-120-102.2-133c-55.3-50.6-90.4-82.7-134.2-82.5
					c-23.7,0.1-48.4,9.8-86.2,2.5c-4.9-0.9-26.1-5.3-28.3,0c-1,2.4,2.6,4.9,4.9,11.1c3.2,8.4,1.3,16,0,22.2
					c-4.8,23.4-3.9,46-3.7,52.9c0.4,12.5,1.9,12.7,2.5,29.5c0.4,10.7-0.1,13.3,0,27.1c0.1,17,0.8,18.3,1.2,36.9
					c0.4,19.4-0.3,18.3,0,39.4c0.3,19.2,0.9,19.8,1.2,39.4c0.2,15.9-0.1,18.7,0,34.5c0.1,10.1,0.4,24,1.2,40.6l355.6,0.6
					L864.3,584.3L864.3,584.3z"/>
				<path class="st8" d="M348.5,579.2c-2.9-5.9-4.3-11.3-4.9-16c-1.5-11.5,1.9-17.4-2.5-23.4c-3-4.1-7.8-5.5-9.8-6.2
					c-10.5-3.1-16.4,3.8-22.2,0c-1-0.6-1.2-1.1-6.2-12.3c-4.8-10.8-5-11.4-6.2-12.3c-4.9-3.9-9.4-0.3-18.5-3.7
					c-1.8-0.7-6.3-2.4-9.8-6.2c-8.1-8.7-1.3-18.1-8.6-28.3c-5.5-7.7-14.3-9.4-13.5-12.3c0.7-2.6,7.7-0.7,11.1-4.9
					c3.1-3.9,1.8-11.2-1.2-16c-3.7-5.8-11.9-8.1-28.3-12.3c-11.5-3-17.2-4.5-22.2-3.7c-7.5,1.2-10.7,4.4-18.5,3.7
					c-3.5-0.3-9.4-0.9-12.3-4.9c-4.2-5.9,3-12.1,0-22.2c-1.6-5.2-5.1-8.4-12.3-14.8c-6.6-5.9-10.8-9.6-17.2-11.1
					c-9.7-2.2-14,3.1-18.5,0c-5.1-3.5-1.7-11.8-3.7-25.9c-0.4-2.9-2.6-17.8-11.1-28.3c-11.4-14.1-30.8-15.8-38.2-16
					c0,0-59-40.9-92.3-6.9v290.1L348.5,579.2L348.5,579.2z"/>
				<path class="st8" d="M865.6,373.2c-5.1,0.4-11.1,1.6-17.2,4.9c-19.6,10.6-24.4,34.6-24.6,35.7c-2.1,10.9,0.1,19.5-3.7,20.9
					c-2.6,1-5.1-2.4-9.9-4.9c-8.3-4.5-16.9-3-27.1-1.2c-8.9,1.6-38.3,6.7-41.9,22.2c-1.7,7.3,3.3,13.2-1.2,19.7
					c-2.1,3.1-6.1,5.9-8.6,4.9c-3.3-1.3-1.1-7.8-4.9-11.1c-4.5-3.8-15.2-1.3-20.9,4.9c-4.8,5.2-2.9,9.4-6.1,16
					c-6.9,13.9-26.2,17.1-27.1,17.2c-14.6,2.2-27-5.3-46.8-17.2c-16-9.7-15.3-12.3-22.2-13.5c-23.7-4.1-47.5,24.6-50.5,28.3
					c-13.6,16.8-9.9,24.4-22.2,32c-16.2,10.1-38.4,6.5-40.6,6.2c-11.5-2-15.2-5.9-24.6-4.9c-10.3,1.1-18.2,7.2-23.4,12.3
					c0,0-13.5-2.6,0,30.1h423.5L865.6,373.2L865.6,373.2z"/>
				<path class="st9" d="M421.2,41.4c-1.2-8.6-3.7-46.8-4.9-55.4h183.4c0.4,10.2,1.7,23.2,4.9,38.2c0.8,3.6,3.6,16.5,9.9,33.2
					c3.4,9,12.2,31.6,29.5,57.9c8.2,12.5,18.9,28.5,36.9,45.5c7.9,7.4,22.6,17.4,51.7,36.9c39,26.2,50.6,33,54.2,29.5
					c0.8-0.8,1.6-2.5-1.2-12.3c-5-17.2-11.7-27.4-20.9-44.3c-3.9-7.2-8.5-15.7-13.5-27.1c-5.9-13.3-5.9-15.6-11.1-28.3
					c-9.9-24-13.2-23.2-20.9-43.1c-5.6-14.6-3.5-14-11.1-34.5c-3.5-9.4-5.6-13.9-11.1-28.3c-3.8-10-6.8-18.2-8.6-23.4h39.4
					c1,7.3,2.9,18.6,7.4,32c3.8,11.3,6.2,14.7,13.5,32c7.3,17.3,6.9,18.6,14.8,38.2c6.9,16.9,12.7,29.6,17.2,39.4
					c12.2,26.3,13.6,26.3,23.4,48c10.1,22.3,9.3,23.9,17.2,39.4c6.9,13.3,12.1,21.2,20.9,34.5c11.2,16.9,17.5,24.1,27.1,29.5
					c4.4,2.5,8.3,4,11.1,4.9l-0.2,318.4c-16.2-9.1-40.4-47.6-40.4-47.6c-18.5-32.7-37.6-58.1-52.9-76.3c-18.8-22.3-36-42.9-64-62.8
					c-29.4-20.9-34.8-15.6-77.6-40.6c-39.7-23.2-67.4-46.7-81.2-59.1c-14.9-13.4-38.6-34.9-62.8-68.9
					c-16.8-23.6-28.2-45.3-35.7-61.5 M495,131.3c-9.1-8-21.9-19.9-35.7-35.7c-16.4-18.7-30.3-34.7-40.6-59.1
					c-4.6-10.9-10.4-27.9-12.3-50.5H346c1.2,9.5,3.8,24,9.8,40.6c7.9,21.6,16.1,31.4,38.2,65.2c32.2,49.3,27.5,47.8,40.6,62.8
					c20.7,23.6,41.9,38.1,52.9,45.5c17.9,12.1,34.3,20.3,46.8,25.9"/>
				<path class="st9" d="M144.2,120.2c-4.5,7.8-12.7,20.5-17.2,28.3 M166.3,120.2c-3.2,3.6-14.1,15.4-22.2,22.2
					c-7.6,6.3-20.4,15.4-39.4,22.2 M216.8,89.4c4.9-5.3,11.5-11.1,14.8-14.8c10.5-11.9,15.2-17.9,19.7-24.6c0.3-0.5,0.6-0.9,0.9-1.3
					c2.4-3.6,6.6-10.7,20.1-35.6c3.7-6.8,6.7-12.3,8.6-16l-23.4-4.9c-4,10.4-8.3,19.8-12.5,28c-1.9,3.7-6,11.6-12.1,21.3
					c-6.3,10.2-13.2,21.1-24.6,33.2c-3,3.2-9.3,9.4-11.1,11.1 M131.4,120.4h143.4c0,0-3.5-9.9-15.6-9.2c0,0-5.9-17.9-34.2-16.6
					c0,0-27.9-21.6-46.6,0.3h-37.8 M155.3,94.4c6.5-9.8,16.2-22.7,25.8-38.2c30-47.9,30.8-54.4,28.3-59.1c-7-13.1-41.2-15.2-59.1,0
					c-10.8,9.2-7.9,18.1-19.7,46.8c-5.7,13.7-12.8,25.6-27.1,49.2c-6.8,11.3-17.3,26.8-38.2,57.9c-16.4,24.3-21.7,31.9-28.3,40.6
					c-9.4,12.5-16.4,21.8-27.1,33.2c-18.7,20.1-22.1,18.2-28.3,28.3c-14.7,23.7-11.8,59.2,0,64c6.3,2.6,14.3-4.1,28.3-16
					c25.9-22.1,41.2-46.7,44.3-51.7c12.7-20.7,16.3-33.4,30.8-44.3c1.9-1.4,8.1-5.9,16-11.1c11.1-7.2,14-8.3,22.2-13.5
					c8.8-5.6,14.4-10.3,25.8-19.7c10.2-8.4,16.1-13.3,23.4-20.9c6-6.3,14.2-15.7,17.2-19.7"/>
				<path class="st10" d="M317.8,31.6c-0.8-1.8,1.3-4.7,3.7-6.2c1.9-1.2,3.8-1.2,6.2-1.2c1.9,0,4.5-0.1,7.4,1.2
					c3.7,1.7,6.8,5.1,6.2,6.2c-0.4,0.7-2.3,0.5-3.7,0c-2.6-0.9-2.5-2.9-4.9-3.7c-1.2-0.4-1.2,0.1-4.9,0c-3.6-0.1-4.1-0.6-4.9,0
					c-1.9,1.2-0.9,4.4-2.5,4.9C319.4,33.1,318.2,32.4,317.8,31.6L317.8,31.6z"/>
				<path class="st10" d="M317.4,46.8c-0.8-1.8,1.3-4.7,3.7-6.2c1.9-1.2,3.8-1.2,6.2-1.2c1.9,0,4.5-0.1,7.4,1.2
					c3.7,1.7,6.8,5.1,6.2,6.2c-0.4,0.7-2.3,0.5-3.7,0c-2.6-0.9-2.5-2.9-4.9-3.7c-1.2-0.4-1.2,0.1-4.9,0c-3.6-0.1-4.1-0.6-4.9,0
					c-1.9,1.2-0.9,4.4-2.5,4.9C319,48.4,317.8,47.7,317.4,46.8L317.4,46.8z"/>
				<path class="st10" d="M319.8,63.1c-0.7-1.5,1.1-4.1,3.1-5.3c1.6-1,3.1-1,5.1-1.1c1.6,0,3.8-0.1,6.1,1.1c3,1.4,5.6,4.4,5.1,5.3
					c-0.3,0.6-1.9,0.4-3.1,0c-2.2-0.8-2.1-2.5-4.1-3.2c-1-0.4-1,0.1-4.1,0c-2.9-0.1-3.4-0.5-4.1,0c-1.6,1.1-0.8,3.8-2,4.2
					C321.2,64.4,320.2,63.8,319.8,63.1L319.8,63.1z"/>
				<path class="st10" d="M321,79.1c-0.6-1.2,1-3.3,2.7-4.3c1.4-0.8,2.8-0.8,4.5-0.9c1.4,0,3.3-0.1,5.4,0.9c2.7,1.2,4.9,3.6,4.5,4.3
					c-0.3,0.5-1.7,0.3-2.7,0c-1.9-0.7-1.8-2-3.6-2.6c-0.9-0.3-0.9,0.1-3.6,0c-2.6-0.1-2.9-0.4-3.6,0c-1.3,0.9-0.7,3.1-1.8,3.4
					C322.2,80.2,321.3,79.7,321,79.1L321,79.1z"/>
				<path class="st10" d="M322.2,96.3c-0.5-1.5,0.8-4.1,2.3-5.3c1.2-1,2.3-1,3.8-1.1c1.2,0,2.8-0.1,4.6,1.1c2.3,1.4,4.2,4.4,3.8,5.3
					c-0.2,0.6-1.5,0.4-2.3,0c-1.6-0.8-1.6-2.5-3.1-3.2c-0.8-0.4-0.8,0.1-3.1,0c-2.2-0.1-2.5-0.5-3.1,0c-1.2,1.1-0.6,3.8-1.5,4.2
					C323.3,97.6,322.5,97,322.2,96.3L322.2,96.3z"/>
				<path class="st10" d="M323.5,111.1c-0.4-1.2,0.7-3.3,1.9-4.3c1-0.8,2-0.8,3.2-0.9c1,0,2.3-0.1,3.8,0.9c1.9,1.2,3.5,3.6,3.2,4.3
					c-0.2,0.5-1.2,0.3-1.9,0c-1.3-0.7-1.3-2-2.6-2.6c-0.6-0.3-0.6,0.1-2.6,0c-1.8-0.1-2.1-0.4-2.6,0c-1,0.9-0.5,3.1-1.3,3.4
					C324.3,112.2,323.7,111.7,323.5,111.1L323.5,111.1z"/>
				<path class="st10" d="M322.2,127.3c-0.5-1.3,0.8-3.4,2.1-4.4c1.1-0.8,2.2-0.9,3.5-0.9c1.1,0,2.6-0.1,4.2,0.9
					c2.1,1.2,3.8,3.7,3.5,4.4c-0.2,0.5-1.3,0.4-2.1,0c-1.5-0.7-1.4-2.1-2.8-2.7c-0.7-0.3-0.7,0.1-2.8,0c-2-0.1-2.3-0.4-2.8,0
					c-1.1,0.9-0.5,3.2-1.4,3.6C323.1,128.4,322.5,127.9,322.2,127.3L322.2,127.3z"/>
				<path class="st10" d="M324.7,141.2c-0.3-0.8,0.6-2.1,1.5-2.7c0.8-0.5,1.6-0.5,2.6-0.5c0.8,0,1.9,0,3.1,0.5
					c1.5,0.7,2.8,2.2,2.6,2.7c-0.2,0.3-1,0.2-1.5,0c-1.1-0.4-1.1-1.2-2-1.6c-0.5-0.2-0.5,0-2,0c-1.5,0-1.7-0.3-2,0
					c-0.8,0.5-0.4,1.9-1,2.1C325.3,141.8,324.8,141.5,324.7,141.2L324.7,141.2z"/>
				<line class="st11" x1="328.9" y1="-7.2" x2="328.8" y2="137.9"/>
				<path class="st10" d="M379.5,33.5c-1.3-2.4,2-6.4,5.5-8.3c2.8-1.6,5.6-1.6,9.2-1.7c2.8,0,6.7-0.1,11,1.7c5.4,2.2,10,6.9,9.2,8.3
					c-0.6,0.9-3.5,0.7-5.5,0c-3.9-1.3-3.8-3.9-7.3-5c-1.8-0.6-1.8,0.1-7.3,0c-5.3-0.1-6-0.8-7.3,0c-2.8,1.7-1.4,5.9-3.7,6.7
					C381.9,35.6,380.2,34.7,379.5,33.5L379.5,33.5z"/>
				<path class="st10" d="M378.9,54.2c-1.3-2.4,2-6.4,5.5-8.3c2.8-1.6,5.6-1.6,9.2-1.7c2.8,0,6.7-0.1,11,1.7c5.4,2.2,10,6.9,9.2,8.3
					c-0.6,0.9-3.5,0.7-5.5,0c-3.9-1.3-3.8-3.9-7.3-5c-1.8-0.6-1.8,0.1-7.3,0c-5.3-0.1-6-0.8-7.3,0c-2.8,1.7-1.4,5.9-3.7,6.6
					C381.4,56.2,379.6,55.3,378.9,54.2L378.9,54.2z"/>
				<path class="st10" d="M382.6,76.1c-1-2,1.7-5.5,4.6-7.2c2.4-1.4,4.7-1.4,7.6-1.4c2.3,0,5.6-0.1,9.1,1.4c4.5,1.9,8.3,5.9,7.6,7.2
					c-0.5,0.8-2.9,0.6-4.6,0c-3.2-1.1-3.1-3.3-6.1-4.3c-1.5-0.5-1.5,0.1-6.1,0c-4.4-0.1-5-0.7-6.1,0c-2.3,1.4-1.2,5.1-3,5.7
					C384.6,77.8,383.1,77.1,382.6,76.1L382.6,76.1z"/>
				<path class="st10" d="M384.4,97.8c-0.9-1.6,1.4-4.5,4-5.8c2.1-1.1,4.1-1.1,6.7-1.2c2.1,0,4.9-0.1,8,1.2c3.9,1.6,7.3,4.8,6.7,5.8
					c-0.4,0.7-2.5,0.5-4,0c-2.8-0.9-2.7-2.7-5.3-3.5c-1.3-0.4-1.3,0.1-5.3,0c-3.8-0.1-4.4-0.6-5.3,0c-2,1.2-1,4.2-2.7,4.7
					C386.1,99.2,384.8,98.6,384.4,97.8L384.4,97.8z"/>
				<path class="st10" d="M386.2,121c-0.8-2,1.2-5.5,3.4-7.2c1.8-1.4,3.5-1.4,5.7-1.4c1.8,0,4.2-0.1,6.8,1.4
					c3.4,1.9,6.2,5.9,5.7,7.2c-0.3,0.8-2.2,0.6-3.4,0c-2.4-1.1-2.3-3.3-4.6-4.3c-1.2-0.5-1.2,0.1-4.6,0c-3.3-0.1-3.8-0.7-4.6,0
					c-1.7,1.4-0.9,5.1-2.3,5.7C387.7,122.7,386.5,122,386.2,121L386.2,121z"/>
				<path class="st10" d="M388,141c-0.7-1.6,1-4.5,2.8-5.8c1.5-1.1,2.9-1.1,4.7-1.2c1.5,0,3.5-0.1,5.7,1.2c2.8,1.6,5.2,4.8,4.7,5.8
					c-0.3,0.7-1.8,0.5-2.8,0c-2-0.9-2-2.7-3.8-3.5c-1-0.4-0.9,0.1-3.8,0c-2.7-0.1-3.1-0.6-3.8,0c-1.4,1.2-0.7,4.2-1.9,4.7
					C389.2,142.4,388.2,141.8,388,141L388,141z"/>
				<path class="st10" d="M386.2,162.8c-0.7-1.7,1.1-4.6,3.1-6c1.6-1.1,3.2-1.2,5.2-1.2c1.6,0,3.8-0.1,6.3,1.2
					c3.1,1.6,5.7,4.9,5.2,6c-0.3,0.7-2,0.5-3.1,0c-2.2-0.9-2.2-2.8-4.2-3.6c-1.1-0.4-1.1,0.1-4.2,0c-3-0.1-3.4-0.6-4.2,0
					c-1.6,1.2-0.8,4.3-2.1,4.8C387.5,164.3,386.5,163.6,386.2,162.8L386.2,162.8z"/>
				<path class="st10" d="M389.8,181.6c-0.5-1,0.8-2.8,2.3-3.6c1.2-0.7,2.3-0.7,3.8-0.7c1.2,0,2.8,0,4.6,0.7c2.2,1,4.2,3,3.8,3.6
					c-0.2,0.4-1.4,0.3-2.3,0c-1.6-0.6-1.6-1.7-3-2.2c-0.8-0.3-0.8,0-3,0c-2.2,0-2.5-0.4-3,0c-1.2,0.7-0.6,2.6-1.5,2.9
					C390.8,182.5,390,182.1,389.8,181.6z"/>
				<line class="st11" x1="396" y1="-18.8" x2="395.8" y2="177.2"/>
				<path class="st10" d="M248.5,15.5c-0.4-1.1,0.7-2.8,1.9-3.7c1-0.7,1.9-0.7,3.2-0.7c1,0,2.3,0,3.8,0.7c1.9,1,3.5,3,3.2,3.7
					c-0.2,0.4-1.2,0.3-1.9,0c-1.3-0.6-1.3-1.7-2.5-2.2c-0.6-0.3-0.6,0.1-2.5,0c-1.8-0.1-2.1-0.3-2.5,0c-1,0.7-0.5,2.6-1.3,2.9
					C249.3,16.4,248.7,16,248.5,15.5L248.5,15.5z"/>
				<path class="st10" d="M248.3,24.6c-0.4-1.1,0.7-2.8,1.9-3.7c1-0.7,1.9-0.7,3.2-0.7c1,0,2.3,0,3.8,0.7c1.9,1,3.5,3,3.2,3.7
					c-0.2,0.4-1.2,0.3-1.9,0c-1.3-0.6-1.3-1.7-2.5-2.2c-0.6-0.3-0.6,0.1-2.5,0c-1.8-0.1-2.1-0.3-2.5,0c-1,0.7-0.5,2.6-1.3,2.9
					C249.1,25.5,248.5,25.1,248.3,24.6L248.3,24.6z"/>
				<path class="st10" d="M249.5,34.3c-0.4-0.9,0.6-2.4,1.6-3.2c0.8-0.6,1.6-0.6,2.6-0.6c0.8,0,1.9,0,3.2,0.6
					c1.6,0.9,2.9,2.6,2.6,3.2c-0.2,0.4-1,0.2-1.6,0c-1.1-0.5-1.1-1.5-2.1-1.9c-0.5-0.2-0.5,0.1-2.1,0c-1.5,0-1.7-0.3-2.1,0
					c-0.8,0.6-0.4,2.3-1.1,2.5C250.2,35.1,249.7,34.8,249.5,34.3L249.5,34.3z"/>
				<path class="st10" d="M250.2,43.9c-0.3-0.7,0.5-2,1.4-2.6c0.7-0.5,1.4-0.5,2.3-0.5c0.7,0,1.7,0,2.8,0.5c1.4,0.7,2.5,2.1,2.3,2.6
					c-0.1,0.3-0.9,0.2-1.4,0c-1-0.4-0.9-1.2-1.8-1.6c-0.5-0.2-0.5,0-1.8,0c-1.3,0-1.5-0.2-1.8,0c-0.7,0.5-0.3,1.9-0.9,2.1
					C250.8,44.5,250.3,44.3,250.2,43.9L250.2,43.9z"/>
				<path class="st10" d="M250.8,54.2c-0.3-0.9,0.4-2.4,1.2-3.2c0.6-0.6,1.2-0.6,2-0.6c0.6,0,1.4,0,2.4,0.6c1.2,0.9,2.2,2.6,2,3.2
					c-0.1,0.4-0.8,0.2-1.2,0c-0.8-0.5-0.8-1.5-1.6-1.9c-0.4-0.2-0.4,0.1-1.6,0c-1.1,0-1.3-0.3-1.6,0c-0.6,0.6-0.3,2.3-0.8,2.5
					C251.3,55,250.9,54.6,250.8,54.2L250.8,54.2z"/>
				<path class="st10" d="M251.4,63.1c-0.2-0.7,0.4-2,1-2.6c0.5-0.5,1-0.5,1.6-0.5c0.5,0,1.2,0,2,0.5c1,0.7,1.8,2.1,1.6,2.6
					c-0.1,0.3-0.6,0.2-1,0c-0.7-0.4-0.7-1.2-1.3-1.6c-0.3-0.2-0.3,0-1.3,0c-0.9,0-1.1-0.2-1.3,0c-0.5,0.5-0.2,1.9-0.7,2.1
					C251.8,63.7,251.5,63.5,251.4,63.1L251.4,63.1z"/>
				<path class="st10" d="M250.8,72.7c-0.2-0.8,0.4-2,1.1-2.7c0.6-0.5,1.1-0.5,1.8-0.5c0.6,0,1.3,0,2.2,0.5c1.1,0.7,2,2.2,1.8,2.7
					c-0.1,0.3-0.7,0.2-1.1,0c-0.8-0.4-0.7-1.2-1.4-1.6c-0.4-0.2-0.4,0-1.4,0c-1,0-1.2-0.2-1.4,0c-0.6,0.5-0.3,1.9-0.7,2.1
					C251.2,73.4,250.9,73.1,250.8,72.7L250.8,72.7z"/>
				<path class="st10" d="M252,81.1c-0.2-0.5,0.3-1.2,0.8-1.6c0.4-0.3,0.8-0.3,1.3-0.3c0.4,0,1,0,1.6,0.3c0.8,0.4,1.4,1.3,1.3,1.6
					c-0.1,0.2-0.5,0.1-0.8,0c-0.6-0.2-0.5-0.8-1.1-1c-0.3-0.1-0.3,0-1.1,0c-0.8,0-0.9-0.1-1.1,0c-0.4,0.3-0.2,1.1-0.5,1.3
					C252.3,81.5,252.1,81.3,252,81.1L252,81.1z"/>
				<line class="st11" x1="254.2" y1="-7.8" x2="254.1" y2="79.1"/>
			</g>
		</g>
	</g>
</g>
</svg>
