<?xml version="1.0" encoding="utf-8"?>
<!-- Generator: Adobe Illustrator 27.9.0, SVG Export Plug-In . SVG Version: 6.00 Build 0)  -->
<svg version="1.1" id="Layer_1" xmlns="http://www.w3.org/2000/svg" xmlns:xlink="http://www.w3.org/1999/xlink" x="0px" y="0px"
	 viewBox="0 0 307 277.6" style="enable-background:new 0 0 307 277.6;" xml:space="preserve">
<style type="text/css">
	.st0{clip-path:url(#SVGID_00000048494554464332680130000004842326733497018542_);}
	.st1{fill:#433872;}
	.st2{fill:none;stroke:#433872;stroke-width:8;stroke-linecap:round;stroke-linejoin:round;}
	.st3{fill:#31274F;}
</style>
<g>
	<defs>
		<rect id="SVGID_1_" y="0" width="307" height="281.6"/>
	</defs>
	<clipPath id="SVGID_00000103972739696548345650000007515569443192153769_">
		<use xlink:href="#SVGID_1_"  style="overflow:visible;"/>
	</clipPath>
	<g style="clip-path:url(#SVGID_00000103972739696548345650000007515569443192153769_);">
		<g id="meditation">
			<path class="st1" d="M213.9,147.9c4.5-1.3,5.3-5.1,2.8-8.9c-1.3-2-3.2-3.6-4.8-5.4c-8.7-9.6-8.7-24.2-6-36.9
				c0.9-4.3,2.2-8.7,5-12.1c3.5-4.1,9-6.1,14.4-6.2c16.1-0.2,23.3,9.9,24.7,24.8c1,10,0.5,21.2-6.2,28.7c-1.9,2.1-4.2,3.9-5.8,6.3
				c-7.6,12,23.5,13,29.6,19c7.7,7.5,7,19.7,8.4,30.4c1.4,10.5,5.4,20.6,11.6,29.2c6.5,9,15.3,16.2,21.5,25.3
				c6.2,9,11.9,27,0.3,34.6c-13.3,8.7-37.1,3.4-51.8,2.2c-28.3-2.3-56.7-0.2-85,1.9c-5.9,0.4-12,0.9-17.8-0.3s-11.5-4.2-14.6-9.3
				c-3.6-5.9-3.1-13.7-0.3-20.1s7.4-11.7,11.9-17c11.1-13,22.2-27,26-43.6c1.7-7.6,1.8-15.5,3.6-23.1c0.8-3.6,2.1-7.2,4.5-10.1
				c4-4.8,10.1-6.5,15.9-7.8C204.5,149,210.1,149,213.9,147.9L213.9,147.9L213.9,147.9z M195,196.2c-7.2,34-21.4,39.8-26.3,43.5
				s0,4.4,0,4.4c24.2-3.3,31.6-5.6,31.6-5.6c2.8-15.8,0-42.3,0-42.3C199.6,187.6,195,196.3,195,196.2L195,196.2L195,196.2z
				 M254.2,196.2c0,0-2.8,26.5,0,42.3c0,0,7.4,2.3,31.6,5.6c0,0,4.9-0.7,0-4.4s-19.1-9.5-26.3-43.5
				C259.6,196.2,254.9,187.6,254.2,196.2L254.2,196.2L254.2,196.2z"/>
		</g>
		<g id="Layer_10">
			<line class="st2" x1="227" y1="58.5" x2="226.9" y2="34.6"/>
			<line class="st2" x1="280.2" y1="104.1" x2="294.2" y2="98.6"/>
			<line class="st2" x1="272.5" y1="82.8" x2="288.6" y2="65.3"/>
			<line class="st2" x1="253.3" y1="65.3" x2="259.4" y2="51.6"/>
			<line class="st2" x1="280.6" y1="128.4" x2="304.4" y2="128.1"/>
			<line class="st2" x1="173.7" y1="104.1" x2="159.7" y2="98.6"/>
			<line class="st2" x1="181.5" y1="82.8" x2="165.3" y2="65.3"/>
			<line class="st2" x1="200.7" y1="65.3" x2="194.6" y2="51.6"/>
			<line class="st2" x1="173.4" y1="128.4" x2="149.6" y2="128.1"/>
			<path class="st3" d="M239.8,173.6c0.3-0.2,0.6-0.7,0.8-1c0.6-0.7,1.3-1.4,2.2-1.8c0.9-0.5,2-0.5,3.1-0.5c1.5,0.1,2.9,0.6,4,1.5
				c1,0.8,1.8,1.9,1.8,3.1c0.1,1-0.3,2-0.7,2.9c-2.4,5-6.8,8.8-11.3,12c-5-3-9.4-7-12-12.2c-0.5-0.9-0.9-2-0.8-3
				c0.1-1.2,0.9-2.3,1.9-3c1.5-1.2,3.6-1.7,5.5-1.5c1.5,0.2,3,1,4,2.1c0.3,0.3,0.8,1.4,1.3,1.4C239.6,173.8,239.7,173.7,239.8,173.6
				L239.8,173.6z"/>
		</g>
	</g>
</g>
</svg>
