<?xml version="1.0" encoding="UTF-8"?>
<svg id="Layer_1" data-name="Layer 1" xmlns="http://www.w3.org/2000/svg" xmlns:xlink="http://www.w3.org/1999/xlink" viewBox="0 0 298.06 298.06">
  <defs>
    <style>
      .cls-1 {
        clip-path: url(#clippath);
      }

      .cls-2, .cls-3, .cls-4 {
        fill: none;
      }

      .cls-2, .cls-5 {
        stroke-width: 0px;
      }

      .cls-3 {
        stroke: #31274f;
        stroke-width: 9px;
      }

      .cls-3, .cls-4 {
        stroke-linecap: round;
        stroke-linejoin: round;
      }

      .cls-4 {
        stroke: #433872;
        stroke-width: 8px;
      }

      .cls-5 {
        fill: #433872;
      }
    </style>
    <clipPath id="clippath">
      <rect class="cls-2" width="298.06" height="298.06"/>
    </clipPath>
  </defs>
  <g class="cls-1">
    <line class="cls-4" x1="228.23" y1="50.1" x2="228.23" y2="18.8"/>
    <line class="cls-4" x1="158.23" y1="110.1" x2="139.83" y2="102.9"/>
    <line class="cls-4" x1="168.43" y1="82.1" x2="147.13" y2="59.1"/>
    <line class="cls-4" x1="193.63" y1="59.1" x2="185.63" y2="41.1"/>
    <line class="cls-4" x1="157.73" y1="142" x2="126.43" y2="141.7"/>
    <path class="cls-5" d="m349.43,255.97c1.34-6.1-.67-14.4.45-20.2,3.13-15.4,14.65-26.4,21.59-40.29,14.99-29.7,13.65-70.99-3.36-99.79-6.04-10.1-14.21-19.3-24.83-25.7-25.28-15.2-62.08-7.8-89.6-2.2-18.12,3.6-35.91,10-49.66,21.1-12.75,10.4-21.7,24.6-22.93,39.99-.56,6.5,2.8,13.8,1.34,20.2-2.13,8.9-11.74,19-17.67,26.3-4.92,6.1-6.15,9.6,1.34,13.4,0,0,2.8,1.4,6.71,3,0,0,1.34,3.2,1.45,6.4.11,2.3-.45,4.2-1.12,6.4-.89,3-1.45,4.4-1.45,4.4-.78,1.9-1.34,2.6-1.12,3.7.34,1.4,1.68,2.3,2.24,2.7,1.68,1.1,3.36,1.2,5.26,1.3,2.57.2,4.47-.2,4.47,0,.11.3-7.38.4-8.95,3.7-1.01,2,.45,4.9,1.9,6.4.89.9,2.13,1.6,4.47,3,2.35,1.4,3.02,1.5,3.36,2.3.22.5.22,1.3-1.45,4.4-1.12,1.8-2.8,3.4-3.13,5.6-.22,1.9.67,3.7,1.9,5.2,1.79,2.1,4.36,3.7,6.93,5,4.47,2.1,8.84,1.9,13.76,1.4,4.25-.4,8.39-1.1,12.64-1.6,10.74-1.5,22.59-5.4,31.1,3.8,6.04,6.6,25.84,59.69,37.36,60.49,15.55,1.1,25.17-23.8,40.49-26,10.96-1.6,17.9-20.9,24.61-30.1,1.01-1.4,1.57-2.8,1.9-4.3h0Z"/>
    <path class="cls-3" d="m193.43,154.1c4,4.3,11.8,6.9,17.7,6.9s10.7-2.7,14.6-7"/>
  </g>
</svg>