<?xml version="1.0" encoding="utf-8"?>
<!-- Generator: Adobe Illustrator 27.9.0, SVG Export Plug-In . SVG Version: 6.00 Build 0)  -->
<svg version="1.1" id="Layer_1" xmlns="http://www.w3.org/2000/svg" xmlns:xlink="http://www.w3.org/1999/xlink" x="0px" y="0px"
	 viewBox="0 0 348.4 111.3" style="enable-background:new 0 0 348.4 111.3;" xml:space="preserve">
<style type="text/css">
	.st0{clip-path:url(#SVGID_00000155862496482590587740000013742845657711869112_);}
	.st1{fill:#433770;}
	.st2{fill:#30274F;}
</style>
<g>
	<g>
		<defs>
			<rect id="SVGID_1_" y="-25.4" width="331.9" height="136.7"/>
		</defs>
		<clipPath id="SVGID_00000127017526017283803980000008132252657595928761_">
			<use xlink:href="#SVGID_1_"  style="overflow:visible;"/>
		</clipPath>
		<g style="clip-path:url(#SVGID_00000127017526017283803980000008132252657595928761_);">
			<path class="st1" d="M-0.5,0.3h40c2.8,0,5,2.2,5,5v108h-45V0.3z"/>
			<path class="st2" d="M-23.5,23.3h40c2.8,0,5,2.2,5,5v108h-45V23.3z"/>
			<path class="st1" d="M44.5,23.3h40c2.8,0,5,2.2,5,5v85h-45V23.3z"/>
			<path class="st2" d="M21.5,46.3h40c2.8,0,5,2.2,5,5v85h-45V46.3z"/>
			<path class="st1" d="M89.5,43.3h39c2.8,0,5,2.2,5,5v65h-44V43.3z"/>
			<path class="st2" d="M66.5,66.3h39c2.8,0,5,2.2,5,5v65h-44V66.3z"/>
			<path class="st1" d="M133.5,63.3h40c2.8,0,5,2.2,5,5v45h-45V63.3z"/>
			<path class="st2" d="M110.5,86.3h40c2.8,0,5,2.2,5,5v45h-45V86.3z"/>
			<path class="st1" d="M178.5,83.3h40c2.8,0,5,2.2,5,5v25h-45V83.3z"/>
			<path class="st2" d="M155.5,106.3h40c2.8,0,5,2.2,5,5v25h-45V106.3z"/>
			<path class="st1" d="M223.5,103.3h40c2.8,0,5,2.2,5,5v6h-45V103.3z"/>
		</g>
	</g>
</g>
</svg>
